G04 #@! TF.GenerationSoftware,KiCad,Pcbnew,(5.1.10)-1*
G04 #@! TF.CreationDate,2021-12-05T16:06:09-05:00*
G04 #@! TF.ProjectId,detach,64657461-6368-42e6-9b69-6361645f7063,rev?*
G04 #@! TF.SameCoordinates,Original*
G04 #@! TF.FileFunction,Soldermask,Top*
G04 #@! TF.FilePolarity,Negative*
%FSLAX46Y46*%
G04 Gerber Fmt 4.6, Leading zero omitted, Abs format (unit mm)*
G04 Created by KiCad (PCBNEW (5.1.10)-1) date 2021-12-05 16:06:09*
%MOMM*%
%LPD*%
G01*
G04 APERTURE LIST*
%ADD10C,0.125000*%
%ADD11C,0.350000*%
%ADD12C,0.400000*%
%ADD13C,3.048000*%
%ADD14C,3.987800*%
%ADD15C,1.750000*%
%ADD16C,4.000000*%
%ADD17C,3.000000*%
%ADD18C,1.710000*%
%ADD19O,1.600000X1.600000*%
%ADD20R,1.600000X1.600000*%
%ADD21C,4.400000*%
%ADD22O,1.400000X1.400000*%
%ADD23C,1.400000*%
%ADD24C,1.200000*%
%ADD25R,1.200000X1.200000*%
%ADD26C,1.600000*%
%ADD27C,1.500000*%
%ADD28C,1.800000*%
%ADD29R,1.800000X1.800000*%
%ADD30O,1.700000X1.700000*%
%ADD31R,1.700000X1.700000*%
%ADD32C,2.000000*%
%ADD33O,0.900000X1.700000*%
%ADD34O,0.900000X2.400000*%
%ADD35C,0.700000*%
G04 APERTURE END LIST*
D10*
X157124884Y-183390590D02*
X157053456Y-183342971D01*
X157017741Y-183247733D01*
X157017741Y-182390590D01*
X157517741Y-183390590D02*
X157446313Y-183342971D01*
X157410598Y-183295352D01*
X157374884Y-183200114D01*
X157374884Y-182914400D01*
X157410598Y-182819162D01*
X157446313Y-182771543D01*
X157517741Y-182723924D01*
X157624884Y-182723924D01*
X157696313Y-182771543D01*
X157732027Y-182819162D01*
X157767741Y-182914400D01*
X157767741Y-183200114D01*
X157732027Y-183295352D01*
X157696313Y-183342971D01*
X157624884Y-183390590D01*
X157517741Y-183390590D01*
X157982027Y-182723924D02*
X158267741Y-182723924D01*
X158089170Y-182390590D02*
X158089170Y-183247733D01*
X158124884Y-183342971D01*
X158196313Y-183390590D01*
X158267741Y-183390590D01*
X158517741Y-183390590D02*
X158517741Y-182723924D01*
X158517741Y-182390590D02*
X158482027Y-182438210D01*
X158517741Y-182485829D01*
X158553456Y-182438210D01*
X158517741Y-182390590D01*
X158517741Y-182485829D01*
X159160598Y-183342971D02*
X159089170Y-183390590D01*
X158946313Y-183390590D01*
X158874884Y-183342971D01*
X158839170Y-183247733D01*
X158839170Y-182866781D01*
X158874884Y-182771543D01*
X158946313Y-182723924D01*
X159089170Y-182723924D01*
X159160598Y-182771543D01*
X159196313Y-182866781D01*
X159196313Y-182962019D01*
X158839170Y-183057257D01*
X159517741Y-183390590D02*
X159517741Y-182723924D01*
X159517741Y-182914400D02*
X159553456Y-182819162D01*
X159589170Y-182771543D01*
X159660598Y-182723924D01*
X159732027Y-182723924D01*
X160517741Y-182485829D02*
X160553456Y-182438210D01*
X160624884Y-182390590D01*
X160803456Y-182390590D01*
X160874884Y-182438210D01*
X160910598Y-182485829D01*
X160946313Y-182581067D01*
X160946313Y-182676305D01*
X160910598Y-182819162D01*
X160482027Y-183390590D01*
X160946313Y-183390590D01*
X161410598Y-182390590D02*
X161482027Y-182390590D01*
X161553456Y-182438210D01*
X161589170Y-182485829D01*
X161624884Y-182581067D01*
X161660598Y-182771543D01*
X161660598Y-183009638D01*
X161624884Y-183200114D01*
X161589170Y-183295352D01*
X161553456Y-183342971D01*
X161482027Y-183390590D01*
X161410598Y-183390590D01*
X161339170Y-183342971D01*
X161303456Y-183295352D01*
X161267741Y-183200114D01*
X161232027Y-183009638D01*
X161232027Y-182771543D01*
X161267741Y-182581067D01*
X161303456Y-182485829D01*
X161339170Y-182438210D01*
X161410598Y-182390590D01*
X161946313Y-182485829D02*
X161982027Y-182438210D01*
X162053456Y-182390590D01*
X162232027Y-182390590D01*
X162303456Y-182438210D01*
X162339170Y-182485829D01*
X162374884Y-182581067D01*
X162374884Y-182676305D01*
X162339170Y-182819162D01*
X161910598Y-183390590D01*
X162374884Y-183390590D01*
X163089170Y-183390590D02*
X162660598Y-183390590D01*
X162874884Y-183390590D02*
X162874884Y-182390590D01*
X162803456Y-182533448D01*
X162732027Y-182628686D01*
X162660598Y-182676305D01*
X163982027Y-183009638D02*
X164553456Y-183009638D01*
X165482027Y-183390590D02*
X165482027Y-182723924D01*
X165482027Y-182914400D02*
X165517741Y-182819162D01*
X165553456Y-182771543D01*
X165624884Y-182723924D01*
X165696313Y-182723924D01*
X166232027Y-183342971D02*
X166160598Y-183390590D01*
X166017741Y-183390590D01*
X165946313Y-183342971D01*
X165910598Y-183247733D01*
X165910598Y-182866781D01*
X165946313Y-182771543D01*
X166017741Y-182723924D01*
X166160598Y-182723924D01*
X166232027Y-182771543D01*
X166267741Y-182866781D01*
X166267741Y-182962019D01*
X165910598Y-183057257D01*
X166517741Y-182723924D02*
X166696313Y-183390590D01*
X166874884Y-182723924D01*
X167696313Y-182485829D02*
X167732027Y-182438210D01*
X167803456Y-182390590D01*
X167982027Y-182390590D01*
X168053456Y-182438210D01*
X168089170Y-182485829D01*
X168124884Y-182581067D01*
X168124884Y-182676305D01*
X168089170Y-182819162D01*
X167660598Y-183390590D01*
X168124884Y-183390590D01*
X168839170Y-183390590D02*
X168410598Y-183390590D01*
X168624884Y-183390590D02*
X168624884Y-182390590D01*
X168553456Y-182533448D01*
X168482027Y-182628686D01*
X168410598Y-182676305D01*
X169160598Y-183295352D02*
X169196313Y-183342971D01*
X169160598Y-183390590D01*
X169124884Y-183342971D01*
X169160598Y-183295352D01*
X169160598Y-183390590D01*
X169910598Y-183390590D02*
X169482027Y-183390590D01*
X169696313Y-183390590D02*
X169696313Y-182390590D01*
X169624884Y-182533448D01*
X169553456Y-182628686D01*
X169482027Y-182676305D01*
X170196313Y-182485829D02*
X170232027Y-182438210D01*
X170303456Y-182390590D01*
X170482027Y-182390590D01*
X170553456Y-182438210D01*
X170589170Y-182485829D01*
X170624884Y-182581067D01*
X170624884Y-182676305D01*
X170589170Y-182819162D01*
X170160598Y-183390590D01*
X170624884Y-183390590D01*
D11*
X153612979Y-179016971D02*
X153612979Y-177016971D01*
X154565360Y-177016971D01*
X155136789Y-177112210D01*
X155517741Y-177302686D01*
X155708217Y-177493162D01*
X155898694Y-177874114D01*
X155898694Y-178159829D01*
X155708217Y-178540781D01*
X155517741Y-178731257D01*
X155136789Y-178921733D01*
X154565360Y-179016971D01*
X153612979Y-179016971D01*
X157612979Y-177969352D02*
X158946313Y-177969352D01*
X159517741Y-179016971D02*
X157612979Y-179016971D01*
X157612979Y-177016971D01*
X159517741Y-177016971D01*
X160660598Y-177016971D02*
X162946313Y-177016971D01*
X161803456Y-179016971D02*
X161803456Y-177016971D01*
X164089170Y-178445543D02*
X165993932Y-178445543D01*
X163708217Y-179016971D02*
X165041551Y-177016971D01*
X166374884Y-179016971D01*
X169993932Y-178826495D02*
X169803456Y-178921733D01*
X169232027Y-179016971D01*
X168851075Y-179016971D01*
X168279646Y-178921733D01*
X167898694Y-178731257D01*
X167708217Y-178540781D01*
X167517741Y-178159829D01*
X167517741Y-177874114D01*
X167708217Y-177493162D01*
X167898694Y-177302686D01*
X168279646Y-177112210D01*
X168851075Y-177016971D01*
X169232027Y-177016971D01*
X169803456Y-177112210D01*
X169993932Y-177207448D01*
X171708217Y-179016971D02*
X171708217Y-177016971D01*
X171708217Y-177969352D02*
X173993932Y-177969352D01*
X173993932Y-179016971D02*
X173993932Y-177016971D01*
D12*
X152693456Y-174952210D02*
X174973456Y-174952210D01*
X152673456Y-181632210D02*
X174973456Y-181632210D01*
X174963456Y-174952210D02*
G75*
G02*
X174963456Y-181632210I0J-3340000D01*
G01*
X152663456Y-181632210D02*
G75*
G02*
X152663456Y-174952210I0J3340000D01*
G01*
D13*
X98118000Y-156365000D03*
X74242000Y-156365000D03*
D14*
X98118000Y-171605000D03*
X74242000Y-171605000D03*
D13*
X340998000Y-137325000D03*
X317122000Y-137325000D03*
D14*
X340998000Y-152565000D03*
X317122000Y-152565000D03*
D13*
X343328000Y-99225000D03*
X319452000Y-99225000D03*
D14*
X343328000Y-114465000D03*
X319452000Y-114465000D03*
X145872000Y-174145000D03*
X245872000Y-174145000D03*
D13*
X145872000Y-189385000D03*
X245872000Y-189385000D03*
D15*
X365093250Y-144303750D03*
X354933250Y-144303750D03*
D16*
X360013250Y-144303750D03*
D17*
X362553250Y-139223750D03*
X356203250Y-141763750D03*
D15*
X198406250Y-163353750D03*
X188246250Y-163353750D03*
D16*
X193326250Y-163353750D03*
D17*
X195866250Y-158273750D03*
X189516250Y-160813750D03*
D15*
X131730750Y-144303750D03*
X121570750Y-144303750D03*
D16*
X126650750Y-144303750D03*
D17*
X129190750Y-139223750D03*
X122840750Y-141763750D03*
D15*
X293656250Y-163353750D03*
X283496250Y-163353750D03*
D16*
X288576250Y-163353750D03*
D17*
X291116250Y-158273750D03*
X284766250Y-160813750D03*
D15*
X274606250Y-163353750D03*
X264446250Y-163353750D03*
D16*
X269526250Y-163353750D03*
D17*
X272066250Y-158273750D03*
X265716250Y-160813750D03*
D15*
X200952000Y-182400000D03*
X190792000Y-182400000D03*
D16*
X195872000Y-182400000D03*
D17*
X198412000Y-177320000D03*
X192062000Y-179860000D03*
D15*
X129340000Y-182400000D03*
X119180000Y-182400000D03*
D16*
X124260000Y-182400000D03*
D17*
X126800000Y-177320000D03*
X120450000Y-179860000D03*
D15*
X105410000Y-182400000D03*
X95250000Y-182400000D03*
D16*
X100330000Y-182400000D03*
D17*
X102870000Y-177320000D03*
X96520000Y-179860000D03*
D15*
X81720000Y-182400000D03*
X71560000Y-182400000D03*
D16*
X76640000Y-182400000D03*
D17*
X79180000Y-177320000D03*
X72830000Y-179860000D03*
D15*
X319850000Y-163330000D03*
X309690000Y-163330000D03*
D16*
X314770000Y-163330000D03*
D17*
X317310000Y-158250000D03*
X310960000Y-160790000D03*
D15*
X288890000Y-182400000D03*
X278730000Y-182400000D03*
D16*
X283810000Y-182400000D03*
D17*
X286350000Y-177320000D03*
X280000000Y-179860000D03*
D15*
X269840000Y-182400000D03*
X259680000Y-182400000D03*
D16*
X264760000Y-182400000D03*
D17*
X267300000Y-177320000D03*
X260950000Y-179860000D03*
D15*
X226980250Y-144303750D03*
X216820250Y-144303750D03*
D16*
X221900250Y-144303750D03*
D17*
X224440250Y-139223750D03*
X218090250Y-141763750D03*
D15*
X207930250Y-144303750D03*
X197770250Y-144303750D03*
D16*
X202850250Y-144303750D03*
D17*
X205390250Y-139223750D03*
X199040250Y-141763750D03*
D15*
X169830250Y-144303750D03*
X159670250Y-144303750D03*
D16*
X164750250Y-144303750D03*
D17*
X167290250Y-139223750D03*
X160940250Y-141763750D03*
D15*
X91260000Y-163350000D03*
X81100000Y-163350000D03*
D16*
X86180000Y-163350000D03*
D17*
X88720000Y-158270000D03*
X82370000Y-160810000D03*
D15*
X334140000Y-144310000D03*
X323980000Y-144310000D03*
D16*
X329060000Y-144310000D03*
D17*
X331600000Y-139230000D03*
X325250000Y-141770000D03*
D15*
X86510000Y-144300000D03*
X76350000Y-144300000D03*
D16*
X81430000Y-144300000D03*
D17*
X83970000Y-139220000D03*
X77620000Y-141760000D03*
D15*
X341280000Y-125270000D03*
X331120000Y-125270000D03*
D16*
X336200000Y-125270000D03*
D17*
X338740000Y-120190000D03*
X332390000Y-122730000D03*
D15*
X84120000Y-125250000D03*
X73960000Y-125250000D03*
D16*
X79040000Y-125250000D03*
D17*
X81580000Y-120170000D03*
X75230000Y-122710000D03*
D15*
X336470000Y-106210000D03*
X326310000Y-106210000D03*
D16*
X331390000Y-106210000D03*
D17*
X333930000Y-101130000D03*
X327580000Y-103670000D03*
D15*
X269843250Y-106203750D03*
X259683250Y-106203750D03*
D16*
X264763250Y-106203750D03*
D17*
X267303250Y-101123750D03*
X260953250Y-103663750D03*
D15*
X126968250Y-125253750D03*
X116808250Y-125253750D03*
D16*
X121888250Y-125253750D03*
D17*
X124428250Y-120173750D03*
X118078250Y-122713750D03*
D15*
X250793250Y-106203750D03*
X240633250Y-106203750D03*
D16*
X245713250Y-106203750D03*
D17*
X248253250Y-101123750D03*
X241903250Y-103663750D03*
D15*
X136493250Y-106203750D03*
X126333250Y-106203750D03*
D16*
X131413250Y-106203750D03*
D17*
X133953250Y-101123750D03*
X127603250Y-103663750D03*
D15*
X307943250Y-106203750D03*
X297783250Y-106203750D03*
D16*
X302863250Y-106203750D03*
D17*
X305403250Y-101123750D03*
X299053250Y-103663750D03*
D15*
X146018250Y-125253750D03*
X135858250Y-125253750D03*
D16*
X140938250Y-125253750D03*
D17*
X143478250Y-120173750D03*
X137128250Y-122713750D03*
D15*
X79343250Y-106203750D03*
X69183250Y-106203750D03*
D16*
X74263250Y-106203750D03*
D17*
X76803250Y-101123750D03*
X70453250Y-103663750D03*
D15*
X98393250Y-106203750D03*
X88233250Y-106203750D03*
D16*
X93313250Y-106203750D03*
D17*
X95853250Y-101123750D03*
X89503250Y-103663750D03*
D15*
X117443250Y-106203750D03*
X107283250Y-106203750D03*
D16*
X112363250Y-106203750D03*
D17*
X114903250Y-101123750D03*
X108553250Y-103663750D03*
D15*
X155543250Y-106203750D03*
X145383250Y-106203750D03*
D16*
X150463250Y-106203750D03*
D17*
X153003250Y-101123750D03*
X146653250Y-103663750D03*
D15*
X174593250Y-106203750D03*
X164433250Y-106203750D03*
D16*
X169513250Y-106203750D03*
D17*
X172053250Y-101123750D03*
X165703250Y-103663750D03*
D15*
X193643250Y-106203750D03*
X183483250Y-106203750D03*
D16*
X188563250Y-106203750D03*
D17*
X191103250Y-101123750D03*
X184753250Y-103663750D03*
D15*
X212693250Y-106203750D03*
X202533250Y-106203750D03*
D16*
X207613250Y-106203750D03*
D17*
X210153250Y-101123750D03*
X203803250Y-103663750D03*
D15*
X231743250Y-106203750D03*
X221583250Y-106203750D03*
D16*
X226663250Y-106203750D03*
D17*
X229203250Y-101123750D03*
X222853250Y-103663750D03*
D15*
X288893250Y-106203750D03*
X278733250Y-106203750D03*
D16*
X283813250Y-106203750D03*
D17*
X286353250Y-101123750D03*
X280003250Y-103663750D03*
D15*
X365093250Y-106203750D03*
X354933250Y-106203750D03*
D16*
X360013250Y-106203750D03*
D17*
X362553250Y-101123750D03*
X356203250Y-103663750D03*
D15*
X107918250Y-125253750D03*
X97758250Y-125253750D03*
D16*
X102838250Y-125253750D03*
D17*
X105378250Y-120173750D03*
X99028250Y-122713750D03*
D15*
X165068250Y-125253750D03*
X154908250Y-125253750D03*
D16*
X159988250Y-125253750D03*
D17*
X162528250Y-120173750D03*
X156178250Y-122713750D03*
D15*
X184118250Y-125253750D03*
X173958250Y-125253750D03*
D16*
X179038250Y-125253750D03*
D17*
X181578250Y-120173750D03*
X175228250Y-122713750D03*
D15*
X203168250Y-125253750D03*
X193008250Y-125253750D03*
D16*
X198088250Y-125253750D03*
D17*
X200628250Y-120173750D03*
X194278250Y-122713750D03*
D15*
X222218250Y-125253750D03*
X212058250Y-125253750D03*
D16*
X217138250Y-125253750D03*
D17*
X219678250Y-120173750D03*
X213328250Y-122713750D03*
D15*
X241268250Y-125253750D03*
X231108250Y-125253750D03*
D16*
X236188250Y-125253750D03*
D17*
X238728250Y-120173750D03*
X232378250Y-122713750D03*
D15*
X260318250Y-125253750D03*
X250158250Y-125253750D03*
D16*
X255238250Y-125253750D03*
D17*
X257778250Y-120173750D03*
X251428250Y-122713750D03*
D15*
X279368250Y-125253750D03*
X269208250Y-125253750D03*
D16*
X274288250Y-125253750D03*
D17*
X276828250Y-120173750D03*
X270478250Y-122713750D03*
D15*
X298418250Y-125253750D03*
X288258250Y-125253750D03*
D16*
X293338250Y-125253750D03*
D17*
X295878250Y-120173750D03*
X289528250Y-122713750D03*
D15*
X317468250Y-125253750D03*
X307308250Y-125253750D03*
D16*
X312388250Y-125253750D03*
D17*
X314928250Y-120173750D03*
X308578250Y-122713750D03*
D15*
X365093250Y-125253750D03*
X354933250Y-125253750D03*
D16*
X360013250Y-125253750D03*
D17*
X362553250Y-120173750D03*
X356203250Y-122713750D03*
D15*
X112680750Y-144303750D03*
X102520750Y-144303750D03*
D16*
X107600750Y-144303750D03*
D17*
X110140750Y-139223750D03*
X103790750Y-141763750D03*
D15*
X150780750Y-144303750D03*
X140620750Y-144303750D03*
D16*
X145700750Y-144303750D03*
D17*
X148240750Y-139223750D03*
X141890750Y-141763750D03*
D15*
X188880250Y-144303750D03*
X178720250Y-144303750D03*
D16*
X183800250Y-144303750D03*
D17*
X186340250Y-139223750D03*
X179990250Y-141763750D03*
D15*
X246030250Y-144303750D03*
X235870250Y-144303750D03*
D16*
X240950250Y-144303750D03*
D17*
X243490250Y-139223750D03*
X237140250Y-141763750D03*
D15*
X265080250Y-144303750D03*
X254920250Y-144303750D03*
D16*
X260000250Y-144303750D03*
D17*
X262540250Y-139223750D03*
X256190250Y-141763750D03*
D15*
X284130250Y-144303750D03*
X273970250Y-144303750D03*
D16*
X279050250Y-144303750D03*
D17*
X281590250Y-139223750D03*
X275240250Y-141763750D03*
D15*
X303180250Y-144303750D03*
X293020250Y-144303750D03*
D16*
X298100250Y-144303750D03*
D17*
X300640250Y-139223750D03*
X294290250Y-141763750D03*
D15*
X122205750Y-163353750D03*
X112045750Y-163353750D03*
D16*
X117125750Y-163353750D03*
D17*
X119665750Y-158273750D03*
X113315750Y-160813750D03*
D15*
X141255750Y-163353750D03*
X131095750Y-163353750D03*
D16*
X136175750Y-163353750D03*
D17*
X138715750Y-158273750D03*
X132365750Y-160813750D03*
D15*
X160305750Y-163353750D03*
X150145750Y-163353750D03*
D16*
X155225750Y-163353750D03*
D17*
X157765750Y-158273750D03*
X151415750Y-160813750D03*
D15*
X179356250Y-163353750D03*
X169196250Y-163353750D03*
D16*
X174276250Y-163353750D03*
D17*
X176816250Y-158273750D03*
X170466250Y-160813750D03*
D15*
X217456250Y-163353750D03*
X207296250Y-163353750D03*
D16*
X212376250Y-163353750D03*
D17*
X214916250Y-158273750D03*
X208566250Y-160813750D03*
D15*
X236506250Y-163353750D03*
X226346250Y-163353750D03*
D16*
X231426250Y-163353750D03*
D17*
X233966250Y-158273750D03*
X227616250Y-160813750D03*
D15*
X255556250Y-163353750D03*
X245396250Y-163353750D03*
D16*
X250476250Y-163353750D03*
D17*
X253016250Y-158273750D03*
X246666250Y-160813750D03*
D15*
X346043250Y-163353750D03*
X335883250Y-163353750D03*
D16*
X340963250Y-163353750D03*
D17*
X343503250Y-158273750D03*
X337153250Y-160813750D03*
D15*
X365093250Y-163353750D03*
X354933250Y-163353750D03*
D16*
X360013250Y-163353750D03*
D17*
X362553250Y-158273750D03*
X356203250Y-160813750D03*
D15*
X326993250Y-182400000D03*
X316833250Y-182400000D03*
D16*
X321913250Y-182400000D03*
D17*
X324453250Y-177320000D03*
X318103250Y-179860000D03*
D15*
X346043250Y-182400000D03*
X335883250Y-182400000D03*
D16*
X340963250Y-182400000D03*
D17*
X343503250Y-177320000D03*
X337153250Y-179860000D03*
D15*
X365093250Y-182400000D03*
X354933250Y-182400000D03*
D16*
X360013250Y-182400000D03*
D17*
X362553250Y-177320000D03*
X356203250Y-179860000D03*
D15*
X307943528Y-182400000D03*
X297783528Y-182400000D03*
D16*
X302863528Y-182400000D03*
D17*
X305403528Y-177320000D03*
X299053528Y-179860000D03*
D15*
X79343250Y-87152000D03*
X69183250Y-87152000D03*
D16*
X74263250Y-87152000D03*
D17*
X76803250Y-82072000D03*
X70453250Y-84612000D03*
D18*
X113976000Y-89134000D03*
X112776000Y-94234000D03*
D19*
X354838000Y-173736000D03*
D20*
X362458000Y-173736000D03*
D19*
X335788000Y-173736000D03*
D20*
X343408000Y-173736000D03*
D19*
X316992000Y-173736000D03*
D20*
X324612000Y-173736000D03*
D19*
X297688000Y-173736000D03*
D20*
X305308000Y-173736000D03*
D19*
X278892000Y-173736000D03*
D20*
X286512000Y-173736000D03*
D19*
X263906000Y-173736000D03*
D20*
X271526000Y-173736000D03*
D19*
X189484000Y-173736000D03*
D20*
X197104000Y-173736000D03*
D19*
X118872000Y-173736000D03*
D20*
X126492000Y-173736000D03*
D19*
X104648000Y-173736000D03*
D20*
X112268000Y-173736000D03*
D19*
X77978000Y-173736000D03*
D20*
X85598000Y-173736000D03*
D19*
X77978000Y-154686000D03*
D20*
X85598000Y-154686000D03*
D21*
X207768000Y-173482000D03*
D22*
X133816316Y-92032665D03*
D23*
X138896316Y-92032665D03*
D22*
X133816316Y-89577332D03*
D23*
X138896316Y-89577332D03*
D22*
X133816316Y-87121999D03*
D23*
X138896316Y-87121999D03*
D22*
X133858000Y-84666666D03*
D23*
X138938000Y-84666666D03*
D22*
X138938000Y-79756000D03*
D23*
X133858000Y-79756000D03*
D22*
X138938000Y-82211333D03*
D23*
X133858000Y-82211333D03*
D22*
X133816316Y-94488000D03*
D23*
X138896316Y-94488000D03*
D24*
X95528000Y-90170000D03*
D25*
X97028000Y-90170000D03*
D26*
X118190000Y-88646000D03*
X123190000Y-88646000D03*
X94060000Y-94234000D03*
X99060000Y-94234000D03*
X198140000Y-80010000D03*
X200640000Y-80010000D03*
X198140000Y-95250000D03*
X200640000Y-95250000D03*
D27*
X199390000Y-85200000D03*
X199390000Y-90080000D03*
D28*
X127762000Y-82042000D03*
D29*
X130302000Y-82042000D03*
D30*
X117856000Y-94488000D03*
X117856000Y-91948000D03*
X120396000Y-94488000D03*
X120396000Y-91948000D03*
X122936000Y-94488000D03*
D31*
X122936000Y-91948000D03*
D19*
X144526000Y-79248000D03*
X192786000Y-94488000D03*
X147066000Y-79248000D03*
X190246000Y-94488000D03*
X149606000Y-79248000D03*
X187706000Y-94488000D03*
X152146000Y-79248000D03*
X185166000Y-94488000D03*
X154686000Y-79248000D03*
X182626000Y-94488000D03*
X157226000Y-79248000D03*
X180086000Y-94488000D03*
X159766000Y-79248000D03*
X177546000Y-94488000D03*
X162306000Y-79248000D03*
X175006000Y-94488000D03*
X164846000Y-79248000D03*
X172466000Y-94488000D03*
X167386000Y-79248000D03*
X169926000Y-94488000D03*
X169926000Y-79248000D03*
X167386000Y-94488000D03*
X172466000Y-79248000D03*
X164846000Y-94488000D03*
X175006000Y-79248000D03*
X162306000Y-94488000D03*
X177546000Y-79248000D03*
X159766000Y-94488000D03*
X180086000Y-79248000D03*
X157226000Y-94488000D03*
X182626000Y-79248000D03*
X154686000Y-94488000D03*
X185166000Y-79248000D03*
X152146000Y-94488000D03*
X187706000Y-79248000D03*
X149606000Y-94488000D03*
X190246000Y-79248000D03*
X147066000Y-94488000D03*
X192786000Y-79248000D03*
D20*
X144526000Y-94488000D03*
D19*
X339344000Y-93472000D03*
D20*
X339344000Y-85852000D03*
D19*
X222504000Y-89376000D03*
D20*
X222504000Y-81756000D03*
D19*
X225044000Y-91440000D03*
D20*
X225044000Y-83820000D03*
D19*
X227584000Y-93472000D03*
D20*
X227584000Y-85852000D03*
D19*
X214884000Y-91440000D03*
D20*
X214884000Y-83820000D03*
D19*
X212344000Y-89376000D03*
D20*
X212344000Y-81756000D03*
D19*
X217424000Y-93472000D03*
D20*
X217424000Y-85852000D03*
D19*
X219964000Y-87376000D03*
D20*
X219964000Y-79756000D03*
D19*
X230124000Y-87376000D03*
D20*
X230124000Y-79756000D03*
D19*
X240284000Y-87376000D03*
D20*
X240284000Y-79756000D03*
D19*
X232664000Y-89376000D03*
D20*
X232664000Y-81756000D03*
D19*
X242824000Y-89376000D03*
D20*
X242824000Y-81756000D03*
D19*
X235204000Y-91440000D03*
D20*
X235204000Y-83820000D03*
D19*
X237744000Y-93472000D03*
D20*
X237744000Y-85852000D03*
D19*
X209804000Y-87376000D03*
D20*
X209804000Y-79756000D03*
D19*
X250444000Y-87376000D03*
D20*
X250444000Y-79756000D03*
D19*
X260604000Y-87376000D03*
D20*
X260604000Y-79756000D03*
D19*
X270764000Y-87376000D03*
D20*
X270764000Y-79756000D03*
D19*
X280924000Y-87376000D03*
D20*
X280924000Y-79756000D03*
D19*
X291084000Y-87376000D03*
D20*
X291084000Y-79756000D03*
D19*
X301282736Y-87376000D03*
D20*
X301282736Y-79756000D03*
D19*
X311404000Y-87376000D03*
D20*
X311404000Y-79756000D03*
D19*
X321564000Y-87376000D03*
D20*
X321564000Y-79756000D03*
D19*
X331724000Y-87376000D03*
D20*
X331724000Y-79756000D03*
D19*
X341884000Y-87376000D03*
D20*
X341884000Y-79756000D03*
D19*
X352044000Y-87376000D03*
D20*
X352044000Y-79756000D03*
D19*
X252984000Y-89376000D03*
D20*
X252984000Y-81756000D03*
D19*
X263144000Y-89376000D03*
D20*
X263144000Y-81756000D03*
D19*
X273304000Y-89376000D03*
D20*
X273304000Y-81756000D03*
D19*
X283464000Y-89376000D03*
D20*
X283464000Y-81756000D03*
D19*
X293624000Y-89376000D03*
D20*
X293624000Y-81756000D03*
D19*
X303784000Y-89376000D03*
D20*
X303784000Y-81756000D03*
D19*
X313944000Y-89376000D03*
D20*
X313944000Y-81756000D03*
D19*
X324104000Y-89376000D03*
D20*
X324104000Y-81756000D03*
D19*
X334264000Y-89376000D03*
D20*
X334264000Y-81756000D03*
D19*
X344424000Y-89376000D03*
D20*
X344424000Y-81756000D03*
D19*
X354584000Y-89376000D03*
D20*
X354584000Y-81756000D03*
D19*
X245364000Y-91440000D03*
D20*
X245364000Y-83820000D03*
D19*
X255524000Y-91440000D03*
D20*
X255524000Y-83820000D03*
D19*
X265684000Y-91440000D03*
D20*
X265684000Y-83820000D03*
D19*
X275844000Y-91440000D03*
D20*
X275844000Y-83820000D03*
D19*
X286004000Y-91440000D03*
D20*
X286004000Y-83820000D03*
D19*
X296164000Y-91440000D03*
D20*
X296164000Y-83820000D03*
D19*
X306324000Y-91440000D03*
D20*
X306324000Y-83820000D03*
D19*
X316484000Y-91440000D03*
D20*
X316484000Y-83820000D03*
D19*
X326644000Y-91440000D03*
D20*
X326644000Y-83820000D03*
D19*
X346964000Y-91440000D03*
D20*
X346964000Y-83820000D03*
D19*
X357124000Y-91440000D03*
D20*
X357124000Y-83820000D03*
D19*
X247904000Y-93472000D03*
D20*
X247904000Y-85852000D03*
D19*
X258064000Y-93472000D03*
D20*
X258064000Y-85852000D03*
D19*
X268224000Y-93472000D03*
D20*
X268224000Y-85852000D03*
D19*
X278384000Y-93472000D03*
D20*
X278384000Y-85852000D03*
D19*
X288544000Y-93472000D03*
D20*
X288544000Y-85852000D03*
D19*
X298704000Y-93472000D03*
D20*
X298704000Y-85852000D03*
D19*
X308864000Y-93472000D03*
D20*
X308864000Y-85852000D03*
D19*
X319024000Y-93472000D03*
D20*
X319024000Y-85852000D03*
D19*
X329184000Y-93472000D03*
D20*
X329184000Y-85852000D03*
D19*
X349504000Y-93472000D03*
D20*
X349504000Y-85852000D03*
D19*
X359664000Y-93472000D03*
D20*
X359664000Y-85852000D03*
D19*
X126746000Y-94996000D03*
D20*
X126746000Y-87376000D03*
D19*
X129794000Y-95006196D03*
D20*
X129794000Y-87386196D03*
D32*
X111910000Y-80006000D03*
X111910000Y-84506000D03*
X105410000Y-80006000D03*
X105410000Y-84506000D03*
X99972000Y-80010000D03*
X99972000Y-84510000D03*
X93472000Y-80010000D03*
X93472000Y-84510000D03*
D33*
X115552000Y-79220000D03*
X124202000Y-79220000D03*
D34*
X115552000Y-82600000D03*
X124202000Y-82600000D03*
D35*
X119452000Y-82230000D03*
X116902000Y-82230000D03*
X117752000Y-82230000D03*
X118602000Y-82230000D03*
X122852000Y-82230000D03*
X121152000Y-82230000D03*
X120302000Y-82230000D03*
X122002000Y-82230000D03*
X116902000Y-83580000D03*
X117752000Y-83580000D03*
X118602000Y-83580000D03*
X119452000Y-83580000D03*
X120302000Y-83580000D03*
X121152000Y-83580000D03*
X122002000Y-83580000D03*
X122852000Y-83580000D03*
D21*
X365506000Y-93218000D03*
X365506000Y-81534000D03*
X204978000Y-93218000D03*
X87376000Y-81534000D03*
X87376000Y-93218000D03*
X204978000Y-81534000D03*
X90170000Y-134112000D03*
X207768000Y-134112000D03*
X350520000Y-134112000D03*
X350520000Y-173482000D03*
X90170000Y-173482000D03*
M02*
