M48
INCH,TZ
T1C0.0157
T2C0.0236
T3C0.0276
T4C0.0280
T5C0.0315
T6C0.0354
T7C0.0394
T8C0.0433
T9C0.0866
%
G90
G05
T1
X26400Y-34200
X26453Y-39947
X29300Y-55042
X29800Y-49300
X39250Y-49250
X39835Y-48135
X41200Y-56700
X44800Y-64250
X46024Y-32374
X46024Y-32906
X46359Y-32374
X46359Y-32906
X46694Y-32374
X46694Y-32906
X46750Y-49250
X47028Y-32374
X47028Y-32906
X47033Y-33467
X47300Y-48100
X47363Y-32374
X47363Y-32906
X47698Y-32374
X47698Y-32906
X48032Y-32374
X48032Y-32906
X48100Y-47300
X48367Y-32374
X48367Y-32906
X48600Y-34000
X48650Y-56750
X52350Y-64250
X52700Y-38200
X54250Y-49250
X54835Y-48135
X55500Y-47300
X56150Y-56750
X59850Y-64250
X61500Y-36300
X61750Y-49250
X62335Y-48135
X63000Y-47300
X63650Y-56750
X67350Y-64250
X69250Y-49250
X69835Y-48135
X70500Y-47300
X71150Y-56750
X73200Y-36500
X73500Y-36200
X73800Y-35900
X74100Y-35600
X74400Y-35300
X74850Y-64250
X76750Y-49250
X77335Y-48135
X78000Y-47300
X78650Y-56750
X80500Y-42000
X82350Y-64250
X84250Y-49250
X84835Y-48135
X85500Y-47300
X85600Y-35400
X86150Y-56750
X88000Y-42000
X89600Y-35400
X89850Y-64250
X91750Y-49250
X92335Y-48135
X93000Y-47300
X93600Y-35400
X93650Y-56750
X95500Y-42000
X97350Y-64250
X97600Y-35400
X99250Y-49250
X99865Y-48135
X100500Y-47300
X101150Y-56750
X101600Y-35400
X103000Y-42000
X104850Y-64250
X105600Y-35400
X106750Y-49250
X107335Y-48135
X108000Y-47300
X108650Y-56750
X109600Y-35400
X110500Y-42000
X112350Y-64250
X113600Y-35400
X114250Y-49250
X114835Y-48135
X115500Y-47300
X116150Y-56750
X117600Y-35400
X121600Y-35400
X121750Y-49250
X122335Y-48135
X122650Y-64250
X125600Y-35400
X128350Y-56750
X129600Y-35400
X131100Y-49250
X131700Y-48000
X132950Y-64250
X133600Y-35400
X137600Y-35400
X138948Y-40048
X139000Y-47500
X139000Y-55000
X139000Y-62500
X143930Y-33400
T2
X37609Y-35500
X38200Y-35500
T3
X52684Y-34300
X52684Y-35267
X52684Y-36233
X52684Y-37200
X52700Y-31400
X52700Y-32367
X52700Y-33333
X54684Y-34300
X54684Y-35267
X54684Y-36233
X54684Y-37200
X54700Y-31400
X54700Y-32367
X54700Y-33333
T4
X44400Y-37100
X44872Y-35092
T5
X30700Y-60900
X30700Y-68400
X33700Y-60900
X33700Y-68400
X37031Y-37100
X39000Y-37100
X41200Y-68400
X44200Y-68400
X46531Y-34900
X46800Y-68400
X48500Y-34900
X49800Y-68400
X49900Y-34400
X49900Y-37400
X51100Y-34404
X51100Y-37404
X56900Y-31200
X56900Y-37200
X57900Y-31200
X57900Y-37200
X58900Y-31200
X58900Y-37200
X59900Y-31200
X59900Y-37200
X60900Y-31200
X60900Y-37200
X61900Y-31200
X61900Y-37200
X62900Y-31200
X62900Y-37200
X63900Y-31200
X63900Y-37200
X64900Y-31200
X64900Y-37200
X65900Y-31200
X65900Y-37200
X66900Y-31200
X66900Y-37200
X67900Y-31200
X67900Y-37200
X68900Y-31200
X68900Y-37200
X69900Y-31200
X69900Y-37200
X70900Y-31200
X70900Y-37200
X71900Y-31200
X71900Y-37200
X72900Y-31200
X72900Y-37200
X73900Y-31200
X73900Y-37200
X74600Y-68400
X74900Y-31200
X74900Y-37200
X75900Y-31200
X75900Y-37200
X77600Y-68400
X78008Y-31500
X78008Y-37500
X78500Y-33543
X78500Y-35465
X78992Y-31500
X78992Y-37500
X82600Y-31400
X82600Y-34400
X83600Y-32187
X83600Y-35187
X84600Y-33000
X84600Y-36000
X85600Y-33800
X85600Y-36800
X86600Y-31400
X86600Y-34400
X87600Y-32187
X87600Y-35187
X88600Y-33000
X88600Y-36000
X89600Y-33800
X89600Y-36800
X90600Y-31400
X90600Y-34400
X91600Y-32187
X91600Y-35187
X92600Y-33000
X92600Y-36000
X93600Y-33800
X93600Y-36800
X94600Y-31400
X94600Y-34400
X95600Y-32187
X95600Y-35187
X96600Y-33000
X96600Y-36000
X97600Y-33800
X97600Y-36800
X98600Y-31400
X98600Y-34400
X99600Y-32187
X99600Y-35187
X100600Y-33000
X100600Y-36000
X101600Y-33800
X101600Y-36800
X102600Y-31400
X102600Y-34400
X103600Y-32187
X103600Y-35187
X103900Y-68400
X104600Y-33000
X104600Y-36000
X105600Y-33800
X105600Y-36800
X106600Y-31400
X106600Y-34400
X106900Y-68400
X107600Y-32187
X107600Y-35187
X108600Y-33000
X108600Y-36000
X109600Y-33800
X109600Y-36800
X109800Y-68400
X110600Y-31400
X110600Y-34400
X111600Y-32187
X111600Y-35187
X112600Y-33000
X112600Y-36000
X112800Y-68400
X113600Y-33800
X113600Y-36800
X114600Y-31400
X114600Y-34400
X115600Y-32187
X115600Y-35187
X116600Y-33000
X116600Y-36000
X117200Y-68400
X117600Y-33800
X117600Y-36800
X118615Y-31400
X118615Y-34400
X119600Y-32187
X119600Y-35187
X120200Y-68400
X120600Y-33000
X120600Y-36000
X121600Y-33800
X121600Y-36800
X122600Y-31400
X122600Y-34400
X123600Y-32187
X123600Y-35187
X124600Y-33000
X124600Y-36000
X124800Y-68400
X125600Y-33800
X125600Y-36800
X126600Y-31400
X126600Y-34400
X127600Y-32187
X127600Y-35187
X127800Y-68400
X128600Y-33000
X128600Y-36000
X129600Y-33800
X129600Y-36800
X130600Y-31400
X130600Y-34400
X131600Y-32187
X131600Y-35187
X132200Y-68400
X133600Y-33800
X133600Y-36800
X134600Y-31400
X134600Y-34400
X135200Y-68400
X135600Y-32187
X135600Y-35187
X136600Y-33000
X136600Y-36000
X137600Y-33800
X137600Y-36800
X138600Y-31400
X138600Y-34400
X139600Y-32187
X139600Y-35187
X139700Y-68400
X140600Y-33000
X140600Y-36000
X141600Y-33800
X141600Y-36800
X142700Y-68400
T6
X50300Y-32300
X51300Y-32300
T7
X46400Y-36200
X46400Y-37200
X47400Y-36200
X47400Y-37200
X48400Y-36200
X48400Y-37200
T8
X36800Y-31500
X36800Y-33272
X39359Y-31500
X39359Y-33272
X41500Y-31498
X41500Y-33270
X44059Y-31498
X44059Y-33270
T9
X34400Y-32100
X34400Y-36700
X35500Y-52800
X35500Y-68300
X80700Y-32100
X80700Y-36700
X81798Y-52800
X81798Y-68300
X138000Y-52800
X138000Y-68300
X143900Y-32100
X143900Y-36700
T2
G00X45493Y-31346
M15
G01X45493Y-31031
M16
G05
G00X45493Y-32815
M15
G01X45493Y-32224
M16
G05
G00X48898Y-31346
M15
G01X48898Y-31031
M16
G05
G00X48898Y-32815
M15
G01X48898Y-32224
M16
G05
T0
M30
