G04 #@! TF.GenerationSoftware,KiCad,Pcbnew,(5.1.10)-1*
G04 #@! TF.CreationDate,2021-10-14T18:36:26-04:00*
G04 #@! TF.ProjectId,detach,64657461-6368-42e6-9b69-6361645f7063,rev?*
G04 #@! TF.SameCoordinates,Original*
G04 #@! TF.FileFunction,Legend,Top*
G04 #@! TF.FilePolarity,Positive*
%FSLAX46Y46*%
G04 Gerber Fmt 4.6, Leading zero omitted, Abs format (unit mm)*
G04 Created by KiCad (PCBNEW (5.1.10)-1) date 2021-10-14 18:36:26*
%MOMM*%
%LPD*%
G01*
G04 APERTURE LIST*
%ADD10C,0.100000*%
%ADD11C,0.120000*%
%ADD12C,0.150000*%
G04 APERTURE END LIST*
D10*
X324763333Y-147740666D02*
X325239523Y-147740666D01*
X324668095Y-148026380D02*
X325001428Y-147026380D01*
X325334761Y-148026380D01*
X325668095Y-148026380D02*
X325668095Y-147026380D01*
X326239523Y-148026380D01*
X326239523Y-147026380D01*
X326668095Y-147978761D02*
X326810952Y-148026380D01*
X327049047Y-148026380D01*
X327144285Y-147978761D01*
X327191904Y-147931142D01*
X327239523Y-147835904D01*
X327239523Y-147740666D01*
X327191904Y-147645428D01*
X327144285Y-147597809D01*
X327049047Y-147550190D01*
X326858571Y-147502571D01*
X326763333Y-147454952D01*
X326715714Y-147407333D01*
X326668095Y-147312095D01*
X326668095Y-147216857D01*
X326715714Y-147121619D01*
X326763333Y-147074000D01*
X326858571Y-147026380D01*
X327096666Y-147026380D01*
X327239523Y-147074000D01*
X327668095Y-148026380D02*
X327668095Y-147026380D01*
X328906190Y-147502571D02*
X329239523Y-147502571D01*
X329382380Y-148026380D02*
X328906190Y-148026380D01*
X328906190Y-147026380D01*
X329382380Y-147026380D01*
X329810952Y-148026380D02*
X329810952Y-147026380D01*
X330382380Y-148026380D01*
X330382380Y-147026380D01*
X330715714Y-147026380D02*
X331287142Y-147026380D01*
X331001428Y-148026380D02*
X331001428Y-147026380D01*
X331620476Y-147502571D02*
X331953809Y-147502571D01*
X332096666Y-148026380D02*
X331620476Y-148026380D01*
X331620476Y-147026380D01*
X332096666Y-147026380D01*
X333096666Y-148026380D02*
X332763333Y-147550190D01*
X332525238Y-148026380D02*
X332525238Y-147026380D01*
X332906190Y-147026380D01*
X333001428Y-147074000D01*
X333049047Y-147121619D01*
X333096666Y-147216857D01*
X333096666Y-147359714D01*
X333049047Y-147454952D01*
X333001428Y-147502571D01*
X332906190Y-147550190D01*
X332525238Y-147550190D01*
X135617047Y-84143904D02*
X135236095Y-84143904D01*
X135198000Y-84524857D01*
X135236095Y-84486761D01*
X135312285Y-84448666D01*
X135502761Y-84448666D01*
X135578952Y-84486761D01*
X135617047Y-84524857D01*
X135655142Y-84601047D01*
X135655142Y-84791523D01*
X135617047Y-84867714D01*
X135578952Y-84905809D01*
X135502761Y-84943904D01*
X135312285Y-84943904D01*
X135236095Y-84905809D01*
X135198000Y-84867714D01*
X135998000Y-84867714D02*
X136036095Y-84905809D01*
X135998000Y-84943904D01*
X135959904Y-84905809D01*
X135998000Y-84867714D01*
X135998000Y-84943904D01*
X136798000Y-84943904D02*
X136340857Y-84943904D01*
X136569428Y-84943904D02*
X136569428Y-84143904D01*
X136493238Y-84258190D01*
X136417047Y-84334380D01*
X136340857Y-84372476D01*
X137140857Y-84943904D02*
X137140857Y-84143904D01*
X137598000Y-84943904D02*
X137255142Y-84486761D01*
X137598000Y-84143904D02*
X137140857Y-84601047D01*
D11*
X133318918Y-84395812D02*
X133563890Y-84133342D01*
D12*
X95575619Y-86812380D02*
X95242285Y-86336190D01*
X95004190Y-86812380D02*
X95004190Y-85812380D01*
X95385142Y-85812380D01*
X95480380Y-85860000D01*
X95528000Y-85907619D01*
X95575619Y-86002857D01*
X95575619Y-86145714D01*
X95528000Y-86240952D01*
X95480380Y-86288571D01*
X95385142Y-86336190D01*
X95004190Y-86336190D01*
X96004190Y-86288571D02*
X96337523Y-86288571D01*
X96480380Y-86812380D02*
X96004190Y-86812380D01*
X96004190Y-85812380D01*
X96480380Y-85812380D01*
X96861333Y-86764761D02*
X97004190Y-86812380D01*
X97242285Y-86812380D01*
X97337523Y-86764761D01*
X97385142Y-86717142D01*
X97432761Y-86621904D01*
X97432761Y-86526666D01*
X97385142Y-86431428D01*
X97337523Y-86383809D01*
X97242285Y-86336190D01*
X97051809Y-86288571D01*
X96956571Y-86240952D01*
X96908952Y-86193333D01*
X96861333Y-86098095D01*
X96861333Y-86002857D01*
X96908952Y-85907619D01*
X96956571Y-85860000D01*
X97051809Y-85812380D01*
X97289904Y-85812380D01*
X97432761Y-85860000D01*
X97861333Y-86288571D02*
X98194666Y-86288571D01*
X98337523Y-86812380D02*
X97861333Y-86812380D01*
X97861333Y-85812380D01*
X98337523Y-85812380D01*
X98623238Y-85812380D02*
X99194666Y-85812380D01*
X98908952Y-86812380D02*
X98908952Y-85812380D01*
X102108095Y-85606000D02*
X102012857Y-85558380D01*
X101870000Y-85558380D01*
X101727142Y-85606000D01*
X101631904Y-85701238D01*
X101584285Y-85796476D01*
X101536666Y-85986952D01*
X101536666Y-86129809D01*
X101584285Y-86320285D01*
X101631904Y-86415523D01*
X101727142Y-86510761D01*
X101870000Y-86558380D01*
X101965238Y-86558380D01*
X102108095Y-86510761D01*
X102155714Y-86463142D01*
X102155714Y-86129809D01*
X101965238Y-86129809D01*
X102584285Y-86558380D02*
X102584285Y-85558380D01*
X103155714Y-86558380D01*
X103155714Y-85558380D01*
X103631904Y-86558380D02*
X103631904Y-85558380D01*
X103870000Y-85558380D01*
X104012857Y-85606000D01*
X104108095Y-85701238D01*
X104155714Y-85796476D01*
X104203333Y-85986952D01*
X104203333Y-86129809D01*
X104155714Y-86320285D01*
X104108095Y-86415523D01*
X104012857Y-86510761D01*
X103870000Y-86558380D01*
X103631904Y-86558380D01*
D10*
X84207600Y-166070019D02*
X84255219Y-166022400D01*
X84350457Y-165974780D01*
X84588552Y-165974780D01*
X84683790Y-166022400D01*
X84731409Y-166070019D01*
X84779028Y-166165257D01*
X84779028Y-166260495D01*
X84731409Y-166403352D01*
X84159980Y-166974780D01*
X84779028Y-166974780D01*
X85207600Y-166879542D02*
X85255219Y-166927161D01*
X85207600Y-166974780D01*
X85159980Y-166927161D01*
X85207600Y-166879542D01*
X85207600Y-166974780D01*
X85636171Y-166070019D02*
X85683790Y-166022400D01*
X85779028Y-165974780D01*
X86017123Y-165974780D01*
X86112361Y-166022400D01*
X86159980Y-166070019D01*
X86207600Y-166165257D01*
X86207600Y-166260495D01*
X86159980Y-166403352D01*
X85588552Y-166974780D01*
X86207600Y-166974780D01*
X87112361Y-165974780D02*
X86636171Y-165974780D01*
X86588552Y-166450971D01*
X86636171Y-166403352D01*
X86731409Y-166355733D01*
X86969504Y-166355733D01*
X87064742Y-166403352D01*
X87112361Y-166450971D01*
X87159980Y-166546209D01*
X87159980Y-166784304D01*
X87112361Y-166879542D01*
X87064742Y-166927161D01*
X86969504Y-166974780D01*
X86731409Y-166974780D01*
X86636171Y-166927161D01*
X86588552Y-166879542D01*
X87588552Y-165974780D02*
X87588552Y-166784304D01*
X87636171Y-166879542D01*
X87683790Y-166927161D01*
X87779028Y-166974780D01*
X87969504Y-166974780D01*
X88064742Y-166927161D01*
X88112361Y-166879542D01*
X88159980Y-166784304D01*
X88159980Y-165974780D01*
X84731409Y-168289066D02*
X85207600Y-168289066D01*
X84636171Y-168574780D02*
X84969504Y-167574780D01*
X85302838Y-168574780D01*
X85636171Y-168574780D02*
X85636171Y-167574780D01*
X86207600Y-168574780D01*
X86207600Y-167574780D01*
X86636171Y-168527161D02*
X86779028Y-168574780D01*
X87017123Y-168574780D01*
X87112361Y-168527161D01*
X87159980Y-168479542D01*
X87207600Y-168384304D01*
X87207600Y-168289066D01*
X87159980Y-168193828D01*
X87112361Y-168146209D01*
X87017123Y-168098590D01*
X86826647Y-168050971D01*
X86731409Y-168003352D01*
X86683790Y-167955733D01*
X86636171Y-167860495D01*
X86636171Y-167765257D01*
X86683790Y-167670019D01*
X86731409Y-167622400D01*
X86826647Y-167574780D01*
X87064742Y-167574780D01*
X87207600Y-167622400D01*
X87636171Y-168574780D02*
X87636171Y-167574780D01*
X302773210Y-185908614D02*
X302201782Y-185908614D01*
X302487496Y-185908614D02*
X302487496Y-184908614D01*
X302392258Y-185051472D01*
X302297020Y-185146710D01*
X302201782Y-185194329D01*
X303201782Y-184908614D02*
X303201782Y-185718138D01*
X303249401Y-185813376D01*
X303297020Y-185860995D01*
X303392258Y-185908614D01*
X303582734Y-185908614D01*
X303677972Y-185860995D01*
X303725591Y-185813376D01*
X303773210Y-185718138D01*
X303773210Y-184908614D01*
X283682892Y-185908614D02*
X283111464Y-185908614D01*
X283397178Y-185908614D02*
X283397178Y-184908614D01*
X283301940Y-185051472D01*
X283206702Y-185146710D01*
X283111464Y-185194329D01*
X284111464Y-184908614D02*
X284111464Y-185718138D01*
X284159083Y-185813376D01*
X284206702Y-185860995D01*
X284301940Y-185908614D01*
X284492416Y-185908614D01*
X284587654Y-185860995D01*
X284635273Y-185813376D01*
X284682892Y-185718138D01*
X284682892Y-184908614D01*
X264272650Y-185908614D02*
X263701222Y-185908614D01*
X263986936Y-185908614D02*
X263986936Y-184908614D01*
X263891698Y-185051472D01*
X263796460Y-185146710D01*
X263701222Y-185194329D01*
X264701222Y-184908614D02*
X264701222Y-185718138D01*
X264748841Y-185813376D01*
X264796460Y-185860995D01*
X264891698Y-185908614D01*
X265082174Y-185908614D01*
X265177412Y-185860995D01*
X265225031Y-185813376D01*
X265272650Y-185718138D01*
X265272650Y-184908614D01*
X77986380Y-147856063D02*
X78129238Y-147903682D01*
X78367333Y-147903682D01*
X78462571Y-147856063D01*
X78510190Y-147808444D01*
X78557809Y-147713206D01*
X78557809Y-147617968D01*
X78510190Y-147522730D01*
X78462571Y-147475111D01*
X78367333Y-147427492D01*
X78176857Y-147379873D01*
X78081619Y-147332254D01*
X78034000Y-147284635D01*
X77986380Y-147189397D01*
X77986380Y-147094159D01*
X78034000Y-146998921D01*
X78081619Y-146951302D01*
X78176857Y-146903682D01*
X78414952Y-146903682D01*
X78557809Y-146951302D01*
X78843523Y-146903682D02*
X79414952Y-146903682D01*
X79129238Y-147903682D02*
X79129238Y-146903682D01*
X79700666Y-147617968D02*
X80176857Y-147617968D01*
X79605428Y-147903682D02*
X79938761Y-146903682D01*
X80272095Y-147903682D01*
X80605428Y-147903682D02*
X80605428Y-146903682D01*
X81176857Y-147903682D01*
X81176857Y-146903682D01*
X81653047Y-147903682D02*
X81653047Y-146903682D01*
X81891142Y-146903682D01*
X82034000Y-146951302D01*
X82129238Y-147046540D01*
X82176857Y-147141778D01*
X82224476Y-147332254D01*
X82224476Y-147475111D01*
X82176857Y-147665587D01*
X82129238Y-147760825D01*
X82034000Y-147856063D01*
X81891142Y-147903682D01*
X81653047Y-147903682D01*
X82605428Y-147617968D02*
X83081619Y-147617968D01*
X82510190Y-147903682D02*
X82843523Y-146903682D01*
X83176857Y-147903682D01*
X84081619Y-147903682D02*
X83748285Y-147427492D01*
X83510190Y-147903682D02*
X83510190Y-146903682D01*
X83891142Y-146903682D01*
X83986380Y-146951302D01*
X84034000Y-146998921D01*
X84081619Y-147094159D01*
X84081619Y-147237016D01*
X84034000Y-147332254D01*
X83986380Y-147379873D01*
X83891142Y-147427492D01*
X83510190Y-147427492D01*
X84510190Y-147903682D02*
X84510190Y-146903682D01*
X84748285Y-146903682D01*
X84891142Y-146951302D01*
X84986380Y-147046540D01*
X85034000Y-147141778D01*
X85081619Y-147332254D01*
X85081619Y-147475111D01*
X85034000Y-147665587D01*
X84986380Y-147760825D01*
X84891142Y-147856063D01*
X84748285Y-147903682D01*
X84510190Y-147903682D01*
X122962062Y-185908614D02*
X122390634Y-185908614D01*
X122676348Y-185908614D02*
X122676348Y-184908614D01*
X122581110Y-185051472D01*
X122485872Y-185146710D01*
X122390634Y-185194329D01*
X123390634Y-185813376D02*
X123438253Y-185860995D01*
X123390634Y-185908614D01*
X123343014Y-185860995D01*
X123390634Y-185813376D01*
X123390634Y-185908614D01*
X123819205Y-185003853D02*
X123866824Y-184956234D01*
X123962062Y-184908614D01*
X124200157Y-184908614D01*
X124295395Y-184956234D01*
X124343014Y-185003853D01*
X124390634Y-185099091D01*
X124390634Y-185194329D01*
X124343014Y-185337186D01*
X123771586Y-185908614D01*
X124390634Y-185908614D01*
X125295395Y-184908614D02*
X124819205Y-184908614D01*
X124771586Y-185384805D01*
X124819205Y-185337186D01*
X124914443Y-185289567D01*
X125152538Y-185289567D01*
X125247776Y-185337186D01*
X125295395Y-185384805D01*
X125343014Y-185480043D01*
X125343014Y-185718138D01*
X125295395Y-185813376D01*
X125247776Y-185860995D01*
X125152538Y-185908614D01*
X124914443Y-185908614D01*
X124819205Y-185860995D01*
X124771586Y-185813376D01*
X125771586Y-184908614D02*
X125771586Y-185718138D01*
X125819205Y-185813376D01*
X125866824Y-185860995D01*
X125962062Y-185908614D01*
X126152538Y-185908614D01*
X126247776Y-185860995D01*
X126295395Y-185813376D01*
X126343014Y-185718138D01*
X126343014Y-184908614D01*
X98815282Y-185908614D02*
X98243854Y-185908614D01*
X98529568Y-185908614D02*
X98529568Y-184908614D01*
X98434330Y-185051472D01*
X98339092Y-185146710D01*
X98243854Y-185194329D01*
X99243854Y-185813376D02*
X99291473Y-185860995D01*
X99243854Y-185908614D01*
X99196234Y-185860995D01*
X99243854Y-185813376D01*
X99243854Y-185908614D01*
X99672425Y-185003853D02*
X99720044Y-184956234D01*
X99815282Y-184908614D01*
X100053377Y-184908614D01*
X100148615Y-184956234D01*
X100196234Y-185003853D01*
X100243854Y-185099091D01*
X100243854Y-185194329D01*
X100196234Y-185337186D01*
X99624806Y-185908614D01*
X100243854Y-185908614D01*
X101148615Y-184908614D02*
X100672425Y-184908614D01*
X100624806Y-185384805D01*
X100672425Y-185337186D01*
X100767663Y-185289567D01*
X101005758Y-185289567D01*
X101100996Y-185337186D01*
X101148615Y-185384805D01*
X101196234Y-185480043D01*
X101196234Y-185718138D01*
X101148615Y-185813376D01*
X101100996Y-185860995D01*
X101005758Y-185908614D01*
X100767663Y-185908614D01*
X100672425Y-185860995D01*
X100624806Y-185813376D01*
X101624806Y-184908614D02*
X101624806Y-185718138D01*
X101672425Y-185813376D01*
X101720044Y-185860995D01*
X101815282Y-185908614D01*
X102005758Y-185908614D01*
X102100996Y-185860995D01*
X102148615Y-185813376D01*
X102196234Y-185718138D01*
X102196234Y-184908614D01*
X75279428Y-186126380D02*
X74708000Y-186126380D01*
X74993714Y-186126380D02*
X74993714Y-185126380D01*
X74898476Y-185269238D01*
X74803238Y-185364476D01*
X74708000Y-185412095D01*
X75708000Y-186031142D02*
X75755619Y-186078761D01*
X75708000Y-186126380D01*
X75660380Y-186078761D01*
X75708000Y-186031142D01*
X75708000Y-186126380D01*
X76136571Y-185221619D02*
X76184190Y-185174000D01*
X76279428Y-185126380D01*
X76517523Y-185126380D01*
X76612761Y-185174000D01*
X76660380Y-185221619D01*
X76708000Y-185316857D01*
X76708000Y-185412095D01*
X76660380Y-185554952D01*
X76088952Y-186126380D01*
X76708000Y-186126380D01*
X77612761Y-185126380D02*
X77136571Y-185126380D01*
X77088952Y-185602571D01*
X77136571Y-185554952D01*
X77231809Y-185507333D01*
X77469904Y-185507333D01*
X77565142Y-185554952D01*
X77612761Y-185602571D01*
X77660380Y-185697809D01*
X77660380Y-185935904D01*
X77612761Y-186031142D01*
X77565142Y-186078761D01*
X77469904Y-186126380D01*
X77231809Y-186126380D01*
X77136571Y-186078761D01*
X77088952Y-186031142D01*
X78088952Y-185126380D02*
X78088952Y-185935904D01*
X78136571Y-186031142D01*
X78184190Y-186078761D01*
X78279428Y-186126380D01*
X78469904Y-186126380D01*
X78565142Y-186078761D01*
X78612761Y-186031142D01*
X78660380Y-185935904D01*
X78660380Y-185126380D01*
D11*
X352913250Y-137203750D02*
X352913250Y-151403750D01*
X352913250Y-151403750D02*
X367113250Y-151403750D01*
X367113250Y-151403750D02*
X367113250Y-137203750D01*
X367113250Y-137203750D02*
X352913250Y-137203750D01*
X186226250Y-156253750D02*
X186226250Y-170453750D01*
X186226250Y-170453750D02*
X200426250Y-170453750D01*
X200426250Y-170453750D02*
X200426250Y-156253750D01*
X200426250Y-156253750D02*
X186226250Y-156253750D01*
X119550750Y-137203750D02*
X119550750Y-151403750D01*
X119550750Y-151403750D02*
X133750750Y-151403750D01*
X133750750Y-151403750D02*
X133750750Y-137203750D01*
X133750750Y-137203750D02*
X119550750Y-137203750D01*
X281476250Y-156253750D02*
X281476250Y-170453750D01*
X281476250Y-170453750D02*
X295676250Y-170453750D01*
X295676250Y-170453750D02*
X295676250Y-156253750D01*
X295676250Y-156253750D02*
X281476250Y-156253750D01*
X262426250Y-156253750D02*
X262426250Y-170453750D01*
X262426250Y-170453750D02*
X276626250Y-170453750D01*
X276626250Y-170453750D02*
X276626250Y-156253750D01*
X276626250Y-156253750D02*
X262426250Y-156253750D01*
X202972000Y-175300000D02*
X188772000Y-175300000D01*
X202972000Y-189500000D02*
X202972000Y-175300000D01*
X188772000Y-189500000D02*
X202972000Y-189500000D01*
X188772000Y-175300000D02*
X188772000Y-189500000D01*
X131360000Y-175300000D02*
X117160000Y-175300000D01*
X131360000Y-189500000D02*
X131360000Y-175300000D01*
X117160000Y-189500000D02*
X131360000Y-189500000D01*
X117160000Y-175300000D02*
X117160000Y-189500000D01*
X107430000Y-175300000D02*
X93230000Y-175300000D01*
X107430000Y-189500000D02*
X107430000Y-175300000D01*
X93230000Y-189500000D02*
X107430000Y-189500000D01*
X93230000Y-175300000D02*
X93230000Y-189500000D01*
X83740000Y-175300000D02*
X69540000Y-175300000D01*
X83740000Y-189500000D02*
X83740000Y-175300000D01*
X69540000Y-189500000D02*
X83740000Y-189500000D01*
X69540000Y-175300000D02*
X69540000Y-189500000D01*
X321870000Y-156230000D02*
X307670000Y-156230000D01*
X321870000Y-170430000D02*
X321870000Y-156230000D01*
X307670000Y-170430000D02*
X321870000Y-170430000D01*
X307670000Y-156230000D02*
X307670000Y-170430000D01*
X290910000Y-175300000D02*
X276710000Y-175300000D01*
X290910000Y-189500000D02*
X290910000Y-175300000D01*
X276710000Y-189500000D02*
X290910000Y-189500000D01*
X276710000Y-175300000D02*
X276710000Y-189500000D01*
X271860000Y-175300000D02*
X257660000Y-175300000D01*
X271860000Y-189500000D02*
X271860000Y-175300000D01*
X257660000Y-189500000D02*
X271860000Y-189500000D01*
X257660000Y-175300000D02*
X257660000Y-189500000D01*
X214800250Y-137203750D02*
X214800250Y-151403750D01*
X214800250Y-151403750D02*
X229000250Y-151403750D01*
X229000250Y-151403750D02*
X229000250Y-137203750D01*
X229000250Y-137203750D02*
X214800250Y-137203750D01*
X195750250Y-137203750D02*
X195750250Y-151403750D01*
X195750250Y-151403750D02*
X209950250Y-151403750D01*
X209950250Y-151403750D02*
X209950250Y-137203750D01*
X209950250Y-137203750D02*
X195750250Y-137203750D01*
X157650250Y-137203750D02*
X157650250Y-151403750D01*
X157650250Y-151403750D02*
X171850250Y-151403750D01*
X171850250Y-151403750D02*
X171850250Y-137203750D01*
X171850250Y-137203750D02*
X157650250Y-137203750D01*
X93280000Y-156250000D02*
X79080000Y-156250000D01*
X93280000Y-170450000D02*
X93280000Y-156250000D01*
X79080000Y-170450000D02*
X93280000Y-170450000D01*
X79080000Y-156250000D02*
X79080000Y-170450000D01*
X336160000Y-137210000D02*
X321960000Y-137210000D01*
X336160000Y-151410000D02*
X336160000Y-137210000D01*
X321960000Y-151410000D02*
X336160000Y-151410000D01*
X321960000Y-137210000D02*
X321960000Y-151410000D01*
X88530000Y-137200000D02*
X74330000Y-137200000D01*
X88530000Y-151400000D02*
X88530000Y-137200000D01*
X74330000Y-151400000D02*
X88530000Y-151400000D01*
X74330000Y-137200000D02*
X74330000Y-151400000D01*
X343300000Y-118170000D02*
X329100000Y-118170000D01*
X343300000Y-132370000D02*
X343300000Y-118170000D01*
X329100000Y-132370000D02*
X343300000Y-132370000D01*
X329100000Y-118170000D02*
X329100000Y-132370000D01*
X71940000Y-118150000D02*
X71940000Y-132350000D01*
X71940000Y-132350000D02*
X86140000Y-132350000D01*
X86140000Y-132350000D02*
X86140000Y-118150000D01*
X86140000Y-118150000D02*
X71940000Y-118150000D01*
X324290000Y-99110000D02*
X324290000Y-113310000D01*
X324290000Y-113310000D02*
X338490000Y-113310000D01*
X338490000Y-113310000D02*
X338490000Y-99110000D01*
X338490000Y-99110000D02*
X324290000Y-99110000D01*
X257663250Y-99103750D02*
X257663250Y-113303750D01*
X257663250Y-113303750D02*
X271863250Y-113303750D01*
X271863250Y-113303750D02*
X271863250Y-99103750D01*
X271863250Y-99103750D02*
X257663250Y-99103750D01*
X114788250Y-118153750D02*
X114788250Y-132353750D01*
X114788250Y-132353750D02*
X128988250Y-132353750D01*
X128988250Y-132353750D02*
X128988250Y-118153750D01*
X128988250Y-118153750D02*
X114788250Y-118153750D01*
X238613250Y-99103750D02*
X238613250Y-113303750D01*
X238613250Y-113303750D02*
X252813250Y-113303750D01*
X252813250Y-113303750D02*
X252813250Y-99103750D01*
X252813250Y-99103750D02*
X238613250Y-99103750D01*
X124313250Y-99103750D02*
X124313250Y-113303750D01*
X124313250Y-113303750D02*
X138513250Y-113303750D01*
X138513250Y-113303750D02*
X138513250Y-99103750D01*
X138513250Y-99103750D02*
X124313250Y-99103750D01*
X295763250Y-99103750D02*
X295763250Y-113303750D01*
X295763250Y-113303750D02*
X309963250Y-113303750D01*
X309963250Y-113303750D02*
X309963250Y-99103750D01*
X309963250Y-99103750D02*
X295763250Y-99103750D01*
X133838250Y-118153750D02*
X133838250Y-132353750D01*
X133838250Y-132353750D02*
X148038250Y-132353750D01*
X148038250Y-132353750D02*
X148038250Y-118153750D01*
X148038250Y-118153750D02*
X133838250Y-118153750D01*
X67163250Y-99103750D02*
X67163250Y-113303750D01*
X67163250Y-113303750D02*
X81363250Y-113303750D01*
X81363250Y-113303750D02*
X81363250Y-99103750D01*
X81363250Y-99103750D02*
X67163250Y-99103750D01*
X86213250Y-99103750D02*
X86213250Y-113303750D01*
X86213250Y-113303750D02*
X100413250Y-113303750D01*
X100413250Y-113303750D02*
X100413250Y-99103750D01*
X100413250Y-99103750D02*
X86213250Y-99103750D01*
X105263250Y-99103750D02*
X105263250Y-113303750D01*
X105263250Y-113303750D02*
X119463250Y-113303750D01*
X119463250Y-113303750D02*
X119463250Y-99103750D01*
X119463250Y-99103750D02*
X105263250Y-99103750D01*
X143363250Y-99103750D02*
X143363250Y-113303750D01*
X143363250Y-113303750D02*
X157563250Y-113303750D01*
X157563250Y-113303750D02*
X157563250Y-99103750D01*
X157563250Y-99103750D02*
X143363250Y-99103750D01*
X162413250Y-99103750D02*
X162413250Y-113303750D01*
X162413250Y-113303750D02*
X176613250Y-113303750D01*
X176613250Y-113303750D02*
X176613250Y-99103750D01*
X176613250Y-99103750D02*
X162413250Y-99103750D01*
X181463250Y-99103750D02*
X181463250Y-113303750D01*
X181463250Y-113303750D02*
X195663250Y-113303750D01*
X195663250Y-113303750D02*
X195663250Y-99103750D01*
X195663250Y-99103750D02*
X181463250Y-99103750D01*
X200513250Y-99103750D02*
X200513250Y-113303750D01*
X200513250Y-113303750D02*
X214713250Y-113303750D01*
X214713250Y-113303750D02*
X214713250Y-99103750D01*
X214713250Y-99103750D02*
X200513250Y-99103750D01*
X219563250Y-99103750D02*
X219563250Y-113303750D01*
X219563250Y-113303750D02*
X233763250Y-113303750D01*
X233763250Y-113303750D02*
X233763250Y-99103750D01*
X233763250Y-99103750D02*
X219563250Y-99103750D01*
X276713250Y-99103750D02*
X276713250Y-113303750D01*
X276713250Y-113303750D02*
X290913250Y-113303750D01*
X290913250Y-113303750D02*
X290913250Y-99103750D01*
X290913250Y-99103750D02*
X276713250Y-99103750D01*
X352913250Y-99103750D02*
X352913250Y-113303750D01*
X352913250Y-113303750D02*
X367113250Y-113303750D01*
X367113250Y-113303750D02*
X367113250Y-99103750D01*
X367113250Y-99103750D02*
X352913250Y-99103750D01*
X95738250Y-118153750D02*
X95738250Y-132353750D01*
X95738250Y-132353750D02*
X109938250Y-132353750D01*
X109938250Y-132353750D02*
X109938250Y-118153750D01*
X109938250Y-118153750D02*
X95738250Y-118153750D01*
X152888250Y-118153750D02*
X152888250Y-132353750D01*
X152888250Y-132353750D02*
X167088250Y-132353750D01*
X167088250Y-132353750D02*
X167088250Y-118153750D01*
X167088250Y-118153750D02*
X152888250Y-118153750D01*
X171938250Y-118153750D02*
X171938250Y-132353750D01*
X171938250Y-132353750D02*
X186138250Y-132353750D01*
X186138250Y-132353750D02*
X186138250Y-118153750D01*
X186138250Y-118153750D02*
X171938250Y-118153750D01*
X190988250Y-118153750D02*
X190988250Y-132353750D01*
X190988250Y-132353750D02*
X205188250Y-132353750D01*
X205188250Y-132353750D02*
X205188250Y-118153750D01*
X205188250Y-118153750D02*
X190988250Y-118153750D01*
X210038250Y-118153750D02*
X210038250Y-132353750D01*
X210038250Y-132353750D02*
X224238250Y-132353750D01*
X224238250Y-132353750D02*
X224238250Y-118153750D01*
X224238250Y-118153750D02*
X210038250Y-118153750D01*
X229088250Y-118153750D02*
X229088250Y-132353750D01*
X229088250Y-132353750D02*
X243288250Y-132353750D01*
X243288250Y-132353750D02*
X243288250Y-118153750D01*
X243288250Y-118153750D02*
X229088250Y-118153750D01*
X248138250Y-118153750D02*
X248138250Y-132353750D01*
X248138250Y-132353750D02*
X262338250Y-132353750D01*
X262338250Y-132353750D02*
X262338250Y-118153750D01*
X262338250Y-118153750D02*
X248138250Y-118153750D01*
X267188250Y-118153750D02*
X267188250Y-132353750D01*
X267188250Y-132353750D02*
X281388250Y-132353750D01*
X281388250Y-132353750D02*
X281388250Y-118153750D01*
X281388250Y-118153750D02*
X267188250Y-118153750D01*
X286238250Y-118153750D02*
X286238250Y-132353750D01*
X286238250Y-132353750D02*
X300438250Y-132353750D01*
X300438250Y-132353750D02*
X300438250Y-118153750D01*
X300438250Y-118153750D02*
X286238250Y-118153750D01*
X305288250Y-118153750D02*
X305288250Y-132353750D01*
X305288250Y-132353750D02*
X319488250Y-132353750D01*
X319488250Y-132353750D02*
X319488250Y-118153750D01*
X319488250Y-118153750D02*
X305288250Y-118153750D01*
X352913250Y-118153750D02*
X352913250Y-132353750D01*
X352913250Y-132353750D02*
X367113250Y-132353750D01*
X367113250Y-132353750D02*
X367113250Y-118153750D01*
X367113250Y-118153750D02*
X352913250Y-118153750D01*
X100500750Y-137203750D02*
X100500750Y-151403750D01*
X100500750Y-151403750D02*
X114700750Y-151403750D01*
X114700750Y-151403750D02*
X114700750Y-137203750D01*
X114700750Y-137203750D02*
X100500750Y-137203750D01*
X138600750Y-137203750D02*
X138600750Y-151403750D01*
X138600750Y-151403750D02*
X152800750Y-151403750D01*
X152800750Y-151403750D02*
X152800750Y-137203750D01*
X152800750Y-137203750D02*
X138600750Y-137203750D01*
X176700250Y-137203750D02*
X176700250Y-151403750D01*
X176700250Y-151403750D02*
X190900250Y-151403750D01*
X190900250Y-151403750D02*
X190900250Y-137203750D01*
X190900250Y-137203750D02*
X176700250Y-137203750D01*
X233850250Y-137203750D02*
X233850250Y-151403750D01*
X233850250Y-151403750D02*
X248050250Y-151403750D01*
X248050250Y-151403750D02*
X248050250Y-137203750D01*
X248050250Y-137203750D02*
X233850250Y-137203750D01*
X252900250Y-137203750D02*
X252900250Y-151403750D01*
X252900250Y-151403750D02*
X267100250Y-151403750D01*
X267100250Y-151403750D02*
X267100250Y-137203750D01*
X267100250Y-137203750D02*
X252900250Y-137203750D01*
X271950250Y-137203750D02*
X271950250Y-151403750D01*
X271950250Y-151403750D02*
X286150250Y-151403750D01*
X286150250Y-151403750D02*
X286150250Y-137203750D01*
X286150250Y-137203750D02*
X271950250Y-137203750D01*
X291000250Y-137203750D02*
X291000250Y-151403750D01*
X291000250Y-151403750D02*
X305200250Y-151403750D01*
X305200250Y-151403750D02*
X305200250Y-137203750D01*
X305200250Y-137203750D02*
X291000250Y-137203750D01*
X110025750Y-156253750D02*
X110025750Y-170453750D01*
X110025750Y-170453750D02*
X124225750Y-170453750D01*
X124225750Y-170453750D02*
X124225750Y-156253750D01*
X124225750Y-156253750D02*
X110025750Y-156253750D01*
X129075750Y-156253750D02*
X129075750Y-170453750D01*
X129075750Y-170453750D02*
X143275750Y-170453750D01*
X143275750Y-170453750D02*
X143275750Y-156253750D01*
X143275750Y-156253750D02*
X129075750Y-156253750D01*
X148125750Y-156253750D02*
X148125750Y-170453750D01*
X148125750Y-170453750D02*
X162325750Y-170453750D01*
X162325750Y-170453750D02*
X162325750Y-156253750D01*
X162325750Y-156253750D02*
X148125750Y-156253750D01*
X167176250Y-156253750D02*
X167176250Y-170453750D01*
X167176250Y-170453750D02*
X181376250Y-170453750D01*
X181376250Y-170453750D02*
X181376250Y-156253750D01*
X181376250Y-156253750D02*
X167176250Y-156253750D01*
X205276250Y-156253750D02*
X205276250Y-170453750D01*
X205276250Y-170453750D02*
X219476250Y-170453750D01*
X219476250Y-170453750D02*
X219476250Y-156253750D01*
X219476250Y-156253750D02*
X205276250Y-156253750D01*
X224326250Y-156253750D02*
X224326250Y-170453750D01*
X224326250Y-170453750D02*
X238526250Y-170453750D01*
X238526250Y-170453750D02*
X238526250Y-156253750D01*
X238526250Y-156253750D02*
X224326250Y-156253750D01*
X243376250Y-156253750D02*
X243376250Y-170453750D01*
X243376250Y-170453750D02*
X257576250Y-170453750D01*
X257576250Y-170453750D02*
X257576250Y-156253750D01*
X257576250Y-156253750D02*
X243376250Y-156253750D01*
X333863250Y-156253750D02*
X333863250Y-170453750D01*
X333863250Y-170453750D02*
X348063250Y-170453750D01*
X348063250Y-170453750D02*
X348063250Y-156253750D01*
X348063250Y-156253750D02*
X333863250Y-156253750D01*
X352913250Y-156253750D02*
X352913250Y-170453750D01*
X352913250Y-170453750D02*
X367113250Y-170453750D01*
X367113250Y-170453750D02*
X367113250Y-156253750D01*
X367113250Y-156253750D02*
X352913250Y-156253750D01*
X314813250Y-175300000D02*
X314813250Y-189500000D01*
X314813250Y-189500000D02*
X329013250Y-189500000D01*
X329013250Y-189500000D02*
X329013250Y-175300000D01*
X329013250Y-175300000D02*
X314813250Y-175300000D01*
X333863250Y-175300000D02*
X333863250Y-189500000D01*
X333863250Y-189500000D02*
X348063250Y-189500000D01*
X348063250Y-189500000D02*
X348063250Y-175300000D01*
X348063250Y-175300000D02*
X333863250Y-175300000D01*
X352913250Y-175300000D02*
X352913250Y-189500000D01*
X352913250Y-189500000D02*
X367113250Y-189500000D01*
X367113250Y-189500000D02*
X367113250Y-175300000D01*
X367113250Y-175300000D02*
X352913250Y-175300000D01*
X295763528Y-175300000D02*
X295763528Y-189500000D01*
X295763528Y-189500000D02*
X309963528Y-189500000D01*
X309963528Y-189500000D02*
X309963528Y-175300000D01*
X309963528Y-175300000D02*
X295763528Y-175300000D01*
X67163250Y-80052000D02*
X67163250Y-94252000D01*
X67163250Y-94252000D02*
X81363250Y-94252000D01*
X81363250Y-94252000D02*
X81363250Y-80052000D01*
X81363250Y-80052000D02*
X67163250Y-80052000D01*
X111776000Y-87884000D02*
X114976000Y-87884000D01*
X111776000Y-95485000D02*
X114976000Y-95485000D01*
X114976000Y-88445000D02*
X114976000Y-87884000D01*
X114976000Y-95485000D02*
X114976000Y-89822000D01*
X111776000Y-93545000D02*
X111776000Y-87884000D01*
X111776000Y-95485000D02*
X111776000Y-94923000D01*
X360768000Y-174856000D02*
X360768000Y-172616000D01*
X360768000Y-172616000D02*
X356528000Y-172616000D01*
X356528000Y-172616000D02*
X356528000Y-174856000D01*
X356528000Y-174856000D02*
X360768000Y-174856000D01*
X361418000Y-173736000D02*
X360768000Y-173736000D01*
X355878000Y-173736000D02*
X356528000Y-173736000D01*
X360048000Y-174856000D02*
X360048000Y-172616000D01*
X359928000Y-174856000D02*
X359928000Y-172616000D01*
X360168000Y-174856000D02*
X360168000Y-172616000D01*
X341718000Y-174856000D02*
X341718000Y-172616000D01*
X341718000Y-172616000D02*
X337478000Y-172616000D01*
X337478000Y-172616000D02*
X337478000Y-174856000D01*
X337478000Y-174856000D02*
X341718000Y-174856000D01*
X342368000Y-173736000D02*
X341718000Y-173736000D01*
X336828000Y-173736000D02*
X337478000Y-173736000D01*
X340998000Y-174856000D02*
X340998000Y-172616000D01*
X340878000Y-174856000D02*
X340878000Y-172616000D01*
X341118000Y-174856000D02*
X341118000Y-172616000D01*
X322922000Y-174856000D02*
X322922000Y-172616000D01*
X322922000Y-172616000D02*
X318682000Y-172616000D01*
X318682000Y-172616000D02*
X318682000Y-174856000D01*
X318682000Y-174856000D02*
X322922000Y-174856000D01*
X323572000Y-173736000D02*
X322922000Y-173736000D01*
X318032000Y-173736000D02*
X318682000Y-173736000D01*
X322202000Y-174856000D02*
X322202000Y-172616000D01*
X322082000Y-174856000D02*
X322082000Y-172616000D01*
X322322000Y-174856000D02*
X322322000Y-172616000D01*
X303618000Y-174856000D02*
X303618000Y-172616000D01*
X303618000Y-172616000D02*
X299378000Y-172616000D01*
X299378000Y-172616000D02*
X299378000Y-174856000D01*
X299378000Y-174856000D02*
X303618000Y-174856000D01*
X304268000Y-173736000D02*
X303618000Y-173736000D01*
X298728000Y-173736000D02*
X299378000Y-173736000D01*
X302898000Y-174856000D02*
X302898000Y-172616000D01*
X302778000Y-174856000D02*
X302778000Y-172616000D01*
X303018000Y-174856000D02*
X303018000Y-172616000D01*
X284822000Y-174856000D02*
X284822000Y-172616000D01*
X284822000Y-172616000D02*
X280582000Y-172616000D01*
X280582000Y-172616000D02*
X280582000Y-174856000D01*
X280582000Y-174856000D02*
X284822000Y-174856000D01*
X285472000Y-173736000D02*
X284822000Y-173736000D01*
X279932000Y-173736000D02*
X280582000Y-173736000D01*
X284102000Y-174856000D02*
X284102000Y-172616000D01*
X283982000Y-174856000D02*
X283982000Y-172616000D01*
X284222000Y-174856000D02*
X284222000Y-172616000D01*
X269836000Y-174856000D02*
X269836000Y-172616000D01*
X269836000Y-172616000D02*
X265596000Y-172616000D01*
X265596000Y-172616000D02*
X265596000Y-174856000D01*
X265596000Y-174856000D02*
X269836000Y-174856000D01*
X270486000Y-173736000D02*
X269836000Y-173736000D01*
X264946000Y-173736000D02*
X265596000Y-173736000D01*
X269116000Y-174856000D02*
X269116000Y-172616000D01*
X268996000Y-174856000D02*
X268996000Y-172616000D01*
X269236000Y-174856000D02*
X269236000Y-172616000D01*
X195414000Y-174856000D02*
X195414000Y-172616000D01*
X195414000Y-172616000D02*
X191174000Y-172616000D01*
X191174000Y-172616000D02*
X191174000Y-174856000D01*
X191174000Y-174856000D02*
X195414000Y-174856000D01*
X196064000Y-173736000D02*
X195414000Y-173736000D01*
X190524000Y-173736000D02*
X191174000Y-173736000D01*
X194694000Y-174856000D02*
X194694000Y-172616000D01*
X194574000Y-174856000D02*
X194574000Y-172616000D01*
X194814000Y-174856000D02*
X194814000Y-172616000D01*
X124802000Y-174856000D02*
X124802000Y-172616000D01*
X124802000Y-172616000D02*
X120562000Y-172616000D01*
X120562000Y-172616000D02*
X120562000Y-174856000D01*
X120562000Y-174856000D02*
X124802000Y-174856000D01*
X125452000Y-173736000D02*
X124802000Y-173736000D01*
X119912000Y-173736000D02*
X120562000Y-173736000D01*
X124082000Y-174856000D02*
X124082000Y-172616000D01*
X123962000Y-174856000D02*
X123962000Y-172616000D01*
X124202000Y-174856000D02*
X124202000Y-172616000D01*
X110578000Y-174856000D02*
X110578000Y-172616000D01*
X110578000Y-172616000D02*
X106338000Y-172616000D01*
X106338000Y-172616000D02*
X106338000Y-174856000D01*
X106338000Y-174856000D02*
X110578000Y-174856000D01*
X111228000Y-173736000D02*
X110578000Y-173736000D01*
X105688000Y-173736000D02*
X106338000Y-173736000D01*
X109858000Y-174856000D02*
X109858000Y-172616000D01*
X109738000Y-174856000D02*
X109738000Y-172616000D01*
X109978000Y-174856000D02*
X109978000Y-172616000D01*
X83908000Y-174856000D02*
X83908000Y-172616000D01*
X83908000Y-172616000D02*
X79668000Y-172616000D01*
X79668000Y-172616000D02*
X79668000Y-174856000D01*
X79668000Y-174856000D02*
X83908000Y-174856000D01*
X84558000Y-173736000D02*
X83908000Y-173736000D01*
X79018000Y-173736000D02*
X79668000Y-173736000D01*
X83188000Y-174856000D02*
X83188000Y-172616000D01*
X83068000Y-174856000D02*
X83068000Y-172616000D01*
X83308000Y-174856000D02*
X83308000Y-172616000D01*
X83908000Y-155806000D02*
X83908000Y-153566000D01*
X83908000Y-153566000D02*
X79668000Y-153566000D01*
X79668000Y-153566000D02*
X79668000Y-155806000D01*
X79668000Y-155806000D02*
X83908000Y-155806000D01*
X84558000Y-154686000D02*
X83908000Y-154686000D01*
X79018000Y-154686000D02*
X79668000Y-154686000D01*
X83188000Y-155806000D02*
X83188000Y-153566000D01*
X83068000Y-155806000D02*
X83068000Y-153566000D01*
X83308000Y-155806000D02*
X83308000Y-153566000D01*
X138276316Y-92952665D02*
X134436316Y-92952665D01*
X138276316Y-91112665D02*
X134436316Y-91112665D01*
X138276316Y-90497332D02*
X134436316Y-90497332D01*
X138276316Y-88657332D02*
X134436316Y-88657332D01*
X138276316Y-88041999D02*
X134436316Y-88041999D01*
X138276316Y-86201999D02*
X134436316Y-86201999D01*
X138318000Y-85586666D02*
X134478000Y-85586666D01*
X138318000Y-83746666D02*
X134478000Y-83746666D01*
X134478000Y-78836000D02*
X138318000Y-78836000D01*
X134478000Y-80676000D02*
X138318000Y-80676000D01*
X134478000Y-81291333D02*
X138318000Y-81291333D01*
X134478000Y-83131333D02*
X138318000Y-83131333D01*
X138276316Y-95408000D02*
X134436316Y-95408000D01*
X138276316Y-93568000D02*
X134436316Y-93568000D01*
X98398000Y-90170000D02*
G75*
G03*
X98398000Y-90170000I-2120000J0D01*
G01*
X96278000Y-89330000D02*
X96278000Y-88090000D01*
X96278000Y-92250000D02*
X96278000Y-91010000D01*
X96238000Y-89330000D02*
X96238000Y-88090000D01*
X96238000Y-92250000D02*
X96238000Y-91010000D01*
X96198000Y-89330000D02*
X96198000Y-88091000D01*
X96198000Y-92249000D02*
X96198000Y-91010000D01*
X96158000Y-92247000D02*
X96158000Y-91010000D01*
X96158000Y-89330000D02*
X96158000Y-88093000D01*
X96118000Y-92244000D02*
X96118000Y-91010000D01*
X96118000Y-89330000D02*
X96118000Y-88096000D01*
X96078000Y-92241000D02*
X96078000Y-91010000D01*
X96078000Y-89330000D02*
X96078000Y-88099000D01*
X96038000Y-92237000D02*
X96038000Y-91010000D01*
X96038000Y-89330000D02*
X96038000Y-88103000D01*
X95998000Y-92232000D02*
X95998000Y-91010000D01*
X95998000Y-89330000D02*
X95998000Y-88108000D01*
X95958000Y-92226000D02*
X95958000Y-91010000D01*
X95958000Y-89330000D02*
X95958000Y-88114000D01*
X95918000Y-92220000D02*
X95918000Y-91010000D01*
X95918000Y-89330000D02*
X95918000Y-88120000D01*
X95878000Y-92212000D02*
X95878000Y-91010000D01*
X95878000Y-89330000D02*
X95878000Y-88128000D01*
X95838000Y-92204000D02*
X95838000Y-91010000D01*
X95838000Y-89330000D02*
X95838000Y-88136000D01*
X95798000Y-92195000D02*
X95798000Y-91010000D01*
X95798000Y-89330000D02*
X95798000Y-88145000D01*
X95758000Y-92186000D02*
X95758000Y-91010000D01*
X95758000Y-89330000D02*
X95758000Y-88154000D01*
X95718000Y-92175000D02*
X95718000Y-91010000D01*
X95718000Y-89330000D02*
X95718000Y-88165000D01*
X95678000Y-92164000D02*
X95678000Y-91010000D01*
X95678000Y-89330000D02*
X95678000Y-88176000D01*
X95638000Y-92152000D02*
X95638000Y-91010000D01*
X95638000Y-89330000D02*
X95638000Y-88188000D01*
X95598000Y-92138000D02*
X95598000Y-91010000D01*
X95598000Y-89330000D02*
X95598000Y-88202000D01*
X95557000Y-92124000D02*
X95557000Y-91010000D01*
X95557000Y-89330000D02*
X95557000Y-88216000D01*
X95517000Y-92110000D02*
X95517000Y-91010000D01*
X95517000Y-89330000D02*
X95517000Y-88230000D01*
X95477000Y-92094000D02*
X95477000Y-91010000D01*
X95477000Y-89330000D02*
X95477000Y-88246000D01*
X95437000Y-92077000D02*
X95437000Y-91010000D01*
X95437000Y-89330000D02*
X95437000Y-88263000D01*
X95397000Y-92059000D02*
X95397000Y-91010000D01*
X95397000Y-89330000D02*
X95397000Y-88281000D01*
X95357000Y-92040000D02*
X95357000Y-91010000D01*
X95357000Y-89330000D02*
X95357000Y-88300000D01*
X95317000Y-92021000D02*
X95317000Y-91010000D01*
X95317000Y-89330000D02*
X95317000Y-88319000D01*
X95277000Y-92000000D02*
X95277000Y-91010000D01*
X95277000Y-89330000D02*
X95277000Y-88340000D01*
X95237000Y-91978000D02*
X95237000Y-91010000D01*
X95237000Y-89330000D02*
X95237000Y-88362000D01*
X95197000Y-91955000D02*
X95197000Y-91010000D01*
X95197000Y-89330000D02*
X95197000Y-88385000D01*
X95157000Y-91930000D02*
X95157000Y-91010000D01*
X95157000Y-89330000D02*
X95157000Y-88410000D01*
X95117000Y-91905000D02*
X95117000Y-91010000D01*
X95117000Y-89330000D02*
X95117000Y-88435000D01*
X95077000Y-91878000D02*
X95077000Y-91010000D01*
X95077000Y-89330000D02*
X95077000Y-88462000D01*
X95037000Y-91850000D02*
X95037000Y-91010000D01*
X95037000Y-89330000D02*
X95037000Y-88490000D01*
X94997000Y-91820000D02*
X94997000Y-91010000D01*
X94997000Y-89330000D02*
X94997000Y-88520000D01*
X94957000Y-91789000D02*
X94957000Y-91010000D01*
X94957000Y-89330000D02*
X94957000Y-88551000D01*
X94917000Y-91757000D02*
X94917000Y-91010000D01*
X94917000Y-89330000D02*
X94917000Y-88583000D01*
X94877000Y-91722000D02*
X94877000Y-91010000D01*
X94877000Y-89330000D02*
X94877000Y-88618000D01*
X94837000Y-91686000D02*
X94837000Y-91010000D01*
X94837000Y-89330000D02*
X94837000Y-88654000D01*
X94797000Y-91648000D02*
X94797000Y-91010000D01*
X94797000Y-89330000D02*
X94797000Y-88692000D01*
X94757000Y-91608000D02*
X94757000Y-91010000D01*
X94757000Y-89330000D02*
X94757000Y-88732000D01*
X94717000Y-91566000D02*
X94717000Y-91010000D01*
X94717000Y-89330000D02*
X94717000Y-88774000D01*
X94677000Y-91521000D02*
X94677000Y-88819000D01*
X94637000Y-91474000D02*
X94637000Y-88866000D01*
X94597000Y-91424000D02*
X94597000Y-88916000D01*
X94557000Y-91370000D02*
X94557000Y-88970000D01*
X94517000Y-91312000D02*
X94517000Y-89028000D01*
X94477000Y-91250000D02*
X94477000Y-89090000D01*
X94437000Y-91183000D02*
X94437000Y-89157000D01*
X94397000Y-91110000D02*
X94397000Y-89230000D01*
X94357000Y-91029000D02*
X94357000Y-89311000D01*
X94317000Y-90938000D02*
X94317000Y-89402000D01*
X94277000Y-90834000D02*
X94277000Y-89506000D01*
X94237000Y-90707000D02*
X94237000Y-89633000D01*
X94197000Y-90540000D02*
X94197000Y-89800000D01*
X98547801Y-91365000D02*
X98147801Y-91365000D01*
X98347801Y-91565000D02*
X98347801Y-91165000D01*
X122960000Y-89716000D02*
X118420000Y-89716000D01*
X122960000Y-87576000D02*
X118420000Y-87576000D01*
X122960000Y-89716000D02*
X122960000Y-89701000D01*
X122960000Y-87591000D02*
X122960000Y-87576000D01*
X118420000Y-89716000D02*
X118420000Y-89701000D01*
X118420000Y-87591000D02*
X118420000Y-87576000D01*
X98830000Y-95304000D02*
X94290000Y-95304000D01*
X98830000Y-93164000D02*
X94290000Y-93164000D01*
X98830000Y-95304000D02*
X98830000Y-95289000D01*
X98830000Y-93179000D02*
X98830000Y-93164000D01*
X94290000Y-95304000D02*
X94290000Y-95289000D01*
X94290000Y-93179000D02*
X94290000Y-93164000D01*
X200019000Y-80930000D02*
X198761000Y-80930000D01*
X200019000Y-79090000D02*
X198761000Y-79090000D01*
X200019000Y-96170000D02*
X198761000Y-96170000D01*
X200019000Y-94330000D02*
X198761000Y-94330000D01*
X196865000Y-90840000D02*
X196865000Y-84440000D01*
X201915000Y-90840000D02*
X201915000Y-84440000D01*
X201915000Y-84440000D02*
G75*
G03*
X196865000Y-84440000I-2525000J0D01*
G01*
X201915000Y-90840000D02*
G75*
G02*
X196865000Y-90840000I-2525000J0D01*
G01*
X130592000Y-83278000D02*
X130592000Y-83122000D01*
X130592000Y-80962000D02*
X130592000Y-80806000D01*
X127990870Y-80962163D02*
G75*
G02*
X130072961Y-80962000I1041130J-1079837D01*
G01*
X127990870Y-83121837D02*
G75*
G03*
X130072961Y-83122000I1041130J1079837D01*
G01*
X127359665Y-80963392D02*
G75*
G02*
X130592000Y-80806484I1672335J-1078608D01*
G01*
X127359665Y-83120608D02*
G75*
G03*
X130592000Y-83277516I1672335J1078608D01*
G01*
X116526000Y-90618000D02*
X116526000Y-95818000D01*
X121666000Y-90618000D02*
X116526000Y-90618000D01*
X124266000Y-95818000D02*
X116526000Y-95818000D01*
X121666000Y-90618000D02*
X121666000Y-93218000D01*
X121666000Y-93218000D02*
X124266000Y-93218000D01*
X124266000Y-93218000D02*
X124266000Y-95818000D01*
X122936000Y-90618000D02*
X124266000Y-90618000D01*
X124266000Y-90618000D02*
X124266000Y-91948000D01*
X143196000Y-87868000D02*
X143196000Y-93328000D01*
X143196000Y-93328000D02*
X194116000Y-93328000D01*
X194116000Y-93328000D02*
X194116000Y-80408000D01*
X194116000Y-80408000D02*
X143196000Y-80408000D01*
X143196000Y-80408000D02*
X143196000Y-85868000D01*
X143196000Y-85868000D02*
G75*
G02*
X143196000Y-87868000I0J-1000000D01*
G01*
X340464000Y-87542000D02*
X338224000Y-87542000D01*
X338224000Y-87542000D02*
X338224000Y-91782000D01*
X338224000Y-91782000D02*
X340464000Y-91782000D01*
X340464000Y-91782000D02*
X340464000Y-87542000D01*
X339344000Y-86892000D02*
X339344000Y-87542000D01*
X339344000Y-92432000D02*
X339344000Y-91782000D01*
X340464000Y-88262000D02*
X338224000Y-88262000D01*
X340464000Y-88382000D02*
X338224000Y-88382000D01*
X340464000Y-88142000D02*
X338224000Y-88142000D01*
X223624000Y-83446000D02*
X221384000Y-83446000D01*
X221384000Y-83446000D02*
X221384000Y-87686000D01*
X221384000Y-87686000D02*
X223624000Y-87686000D01*
X223624000Y-87686000D02*
X223624000Y-83446000D01*
X222504000Y-82796000D02*
X222504000Y-83446000D01*
X222504000Y-88336000D02*
X222504000Y-87686000D01*
X223624000Y-84166000D02*
X221384000Y-84166000D01*
X223624000Y-84286000D02*
X221384000Y-84286000D01*
X223624000Y-84046000D02*
X221384000Y-84046000D01*
X226164000Y-85510000D02*
X223924000Y-85510000D01*
X223924000Y-85510000D02*
X223924000Y-89750000D01*
X223924000Y-89750000D02*
X226164000Y-89750000D01*
X226164000Y-89750000D02*
X226164000Y-85510000D01*
X225044000Y-84860000D02*
X225044000Y-85510000D01*
X225044000Y-90400000D02*
X225044000Y-89750000D01*
X226164000Y-86230000D02*
X223924000Y-86230000D01*
X226164000Y-86350000D02*
X223924000Y-86350000D01*
X226164000Y-86110000D02*
X223924000Y-86110000D01*
X228704000Y-87542000D02*
X226464000Y-87542000D01*
X226464000Y-87542000D02*
X226464000Y-91782000D01*
X226464000Y-91782000D02*
X228704000Y-91782000D01*
X228704000Y-91782000D02*
X228704000Y-87542000D01*
X227584000Y-86892000D02*
X227584000Y-87542000D01*
X227584000Y-92432000D02*
X227584000Y-91782000D01*
X228704000Y-88262000D02*
X226464000Y-88262000D01*
X228704000Y-88382000D02*
X226464000Y-88382000D01*
X228704000Y-88142000D02*
X226464000Y-88142000D01*
X216004000Y-85510000D02*
X213764000Y-85510000D01*
X213764000Y-85510000D02*
X213764000Y-89750000D01*
X213764000Y-89750000D02*
X216004000Y-89750000D01*
X216004000Y-89750000D02*
X216004000Y-85510000D01*
X214884000Y-84860000D02*
X214884000Y-85510000D01*
X214884000Y-90400000D02*
X214884000Y-89750000D01*
X216004000Y-86230000D02*
X213764000Y-86230000D01*
X216004000Y-86350000D02*
X213764000Y-86350000D01*
X216004000Y-86110000D02*
X213764000Y-86110000D01*
X213464000Y-83446000D02*
X211224000Y-83446000D01*
X211224000Y-83446000D02*
X211224000Y-87686000D01*
X211224000Y-87686000D02*
X213464000Y-87686000D01*
X213464000Y-87686000D02*
X213464000Y-83446000D01*
X212344000Y-82796000D02*
X212344000Y-83446000D01*
X212344000Y-88336000D02*
X212344000Y-87686000D01*
X213464000Y-84166000D02*
X211224000Y-84166000D01*
X213464000Y-84286000D02*
X211224000Y-84286000D01*
X213464000Y-84046000D02*
X211224000Y-84046000D01*
X218544000Y-87542000D02*
X216304000Y-87542000D01*
X216304000Y-87542000D02*
X216304000Y-91782000D01*
X216304000Y-91782000D02*
X218544000Y-91782000D01*
X218544000Y-91782000D02*
X218544000Y-87542000D01*
X217424000Y-86892000D02*
X217424000Y-87542000D01*
X217424000Y-92432000D02*
X217424000Y-91782000D01*
X218544000Y-88262000D02*
X216304000Y-88262000D01*
X218544000Y-88382000D02*
X216304000Y-88382000D01*
X218544000Y-88142000D02*
X216304000Y-88142000D01*
X221084000Y-81446000D02*
X218844000Y-81446000D01*
X218844000Y-81446000D02*
X218844000Y-85686000D01*
X218844000Y-85686000D02*
X221084000Y-85686000D01*
X221084000Y-85686000D02*
X221084000Y-81446000D01*
X219964000Y-80796000D02*
X219964000Y-81446000D01*
X219964000Y-86336000D02*
X219964000Y-85686000D01*
X221084000Y-82166000D02*
X218844000Y-82166000D01*
X221084000Y-82286000D02*
X218844000Y-82286000D01*
X221084000Y-82046000D02*
X218844000Y-82046000D01*
X231244000Y-81446000D02*
X229004000Y-81446000D01*
X229004000Y-81446000D02*
X229004000Y-85686000D01*
X229004000Y-85686000D02*
X231244000Y-85686000D01*
X231244000Y-85686000D02*
X231244000Y-81446000D01*
X230124000Y-80796000D02*
X230124000Y-81446000D01*
X230124000Y-86336000D02*
X230124000Y-85686000D01*
X231244000Y-82166000D02*
X229004000Y-82166000D01*
X231244000Y-82286000D02*
X229004000Y-82286000D01*
X231244000Y-82046000D02*
X229004000Y-82046000D01*
X241404000Y-81446000D02*
X239164000Y-81446000D01*
X239164000Y-81446000D02*
X239164000Y-85686000D01*
X239164000Y-85686000D02*
X241404000Y-85686000D01*
X241404000Y-85686000D02*
X241404000Y-81446000D01*
X240284000Y-80796000D02*
X240284000Y-81446000D01*
X240284000Y-86336000D02*
X240284000Y-85686000D01*
X241404000Y-82166000D02*
X239164000Y-82166000D01*
X241404000Y-82286000D02*
X239164000Y-82286000D01*
X241404000Y-82046000D02*
X239164000Y-82046000D01*
X233784000Y-83446000D02*
X231544000Y-83446000D01*
X231544000Y-83446000D02*
X231544000Y-87686000D01*
X231544000Y-87686000D02*
X233784000Y-87686000D01*
X233784000Y-87686000D02*
X233784000Y-83446000D01*
X232664000Y-82796000D02*
X232664000Y-83446000D01*
X232664000Y-88336000D02*
X232664000Y-87686000D01*
X233784000Y-84166000D02*
X231544000Y-84166000D01*
X233784000Y-84286000D02*
X231544000Y-84286000D01*
X233784000Y-84046000D02*
X231544000Y-84046000D01*
X243944000Y-83446000D02*
X241704000Y-83446000D01*
X241704000Y-83446000D02*
X241704000Y-87686000D01*
X241704000Y-87686000D02*
X243944000Y-87686000D01*
X243944000Y-87686000D02*
X243944000Y-83446000D01*
X242824000Y-82796000D02*
X242824000Y-83446000D01*
X242824000Y-88336000D02*
X242824000Y-87686000D01*
X243944000Y-84166000D02*
X241704000Y-84166000D01*
X243944000Y-84286000D02*
X241704000Y-84286000D01*
X243944000Y-84046000D02*
X241704000Y-84046000D01*
X236324000Y-85510000D02*
X234084000Y-85510000D01*
X234084000Y-85510000D02*
X234084000Y-89750000D01*
X234084000Y-89750000D02*
X236324000Y-89750000D01*
X236324000Y-89750000D02*
X236324000Y-85510000D01*
X235204000Y-84860000D02*
X235204000Y-85510000D01*
X235204000Y-90400000D02*
X235204000Y-89750000D01*
X236324000Y-86230000D02*
X234084000Y-86230000D01*
X236324000Y-86350000D02*
X234084000Y-86350000D01*
X236324000Y-86110000D02*
X234084000Y-86110000D01*
X238864000Y-87542000D02*
X236624000Y-87542000D01*
X236624000Y-87542000D02*
X236624000Y-91782000D01*
X236624000Y-91782000D02*
X238864000Y-91782000D01*
X238864000Y-91782000D02*
X238864000Y-87542000D01*
X237744000Y-86892000D02*
X237744000Y-87542000D01*
X237744000Y-92432000D02*
X237744000Y-91782000D01*
X238864000Y-88262000D02*
X236624000Y-88262000D01*
X238864000Y-88382000D02*
X236624000Y-88382000D01*
X238864000Y-88142000D02*
X236624000Y-88142000D01*
X210924000Y-81446000D02*
X208684000Y-81446000D01*
X208684000Y-81446000D02*
X208684000Y-85686000D01*
X208684000Y-85686000D02*
X210924000Y-85686000D01*
X210924000Y-85686000D02*
X210924000Y-81446000D01*
X209804000Y-80796000D02*
X209804000Y-81446000D01*
X209804000Y-86336000D02*
X209804000Y-85686000D01*
X210924000Y-82166000D02*
X208684000Y-82166000D01*
X210924000Y-82286000D02*
X208684000Y-82286000D01*
X210924000Y-82046000D02*
X208684000Y-82046000D01*
X251564000Y-81446000D02*
X249324000Y-81446000D01*
X249324000Y-81446000D02*
X249324000Y-85686000D01*
X249324000Y-85686000D02*
X251564000Y-85686000D01*
X251564000Y-85686000D02*
X251564000Y-81446000D01*
X250444000Y-80796000D02*
X250444000Y-81446000D01*
X250444000Y-86336000D02*
X250444000Y-85686000D01*
X251564000Y-82166000D02*
X249324000Y-82166000D01*
X251564000Y-82286000D02*
X249324000Y-82286000D01*
X251564000Y-82046000D02*
X249324000Y-82046000D01*
X261724000Y-81446000D02*
X259484000Y-81446000D01*
X259484000Y-81446000D02*
X259484000Y-85686000D01*
X259484000Y-85686000D02*
X261724000Y-85686000D01*
X261724000Y-85686000D02*
X261724000Y-81446000D01*
X260604000Y-80796000D02*
X260604000Y-81446000D01*
X260604000Y-86336000D02*
X260604000Y-85686000D01*
X261724000Y-82166000D02*
X259484000Y-82166000D01*
X261724000Y-82286000D02*
X259484000Y-82286000D01*
X261724000Y-82046000D02*
X259484000Y-82046000D01*
X271884000Y-81446000D02*
X269644000Y-81446000D01*
X269644000Y-81446000D02*
X269644000Y-85686000D01*
X269644000Y-85686000D02*
X271884000Y-85686000D01*
X271884000Y-85686000D02*
X271884000Y-81446000D01*
X270764000Y-80796000D02*
X270764000Y-81446000D01*
X270764000Y-86336000D02*
X270764000Y-85686000D01*
X271884000Y-82166000D02*
X269644000Y-82166000D01*
X271884000Y-82286000D02*
X269644000Y-82286000D01*
X271884000Y-82046000D02*
X269644000Y-82046000D01*
X282044000Y-81446000D02*
X279804000Y-81446000D01*
X279804000Y-81446000D02*
X279804000Y-85686000D01*
X279804000Y-85686000D02*
X282044000Y-85686000D01*
X282044000Y-85686000D02*
X282044000Y-81446000D01*
X280924000Y-80796000D02*
X280924000Y-81446000D01*
X280924000Y-86336000D02*
X280924000Y-85686000D01*
X282044000Y-82166000D02*
X279804000Y-82166000D01*
X282044000Y-82286000D02*
X279804000Y-82286000D01*
X282044000Y-82046000D02*
X279804000Y-82046000D01*
X292204000Y-81446000D02*
X289964000Y-81446000D01*
X289964000Y-81446000D02*
X289964000Y-85686000D01*
X289964000Y-85686000D02*
X292204000Y-85686000D01*
X292204000Y-85686000D02*
X292204000Y-81446000D01*
X291084000Y-80796000D02*
X291084000Y-81446000D01*
X291084000Y-86336000D02*
X291084000Y-85686000D01*
X292204000Y-82166000D02*
X289964000Y-82166000D01*
X292204000Y-82286000D02*
X289964000Y-82286000D01*
X292204000Y-82046000D02*
X289964000Y-82046000D01*
X302402736Y-81446000D02*
X300162736Y-81446000D01*
X300162736Y-81446000D02*
X300162736Y-85686000D01*
X300162736Y-85686000D02*
X302402736Y-85686000D01*
X302402736Y-85686000D02*
X302402736Y-81446000D01*
X301282736Y-80796000D02*
X301282736Y-81446000D01*
X301282736Y-86336000D02*
X301282736Y-85686000D01*
X302402736Y-82166000D02*
X300162736Y-82166000D01*
X302402736Y-82286000D02*
X300162736Y-82286000D01*
X302402736Y-82046000D02*
X300162736Y-82046000D01*
X312524000Y-81446000D02*
X310284000Y-81446000D01*
X310284000Y-81446000D02*
X310284000Y-85686000D01*
X310284000Y-85686000D02*
X312524000Y-85686000D01*
X312524000Y-85686000D02*
X312524000Y-81446000D01*
X311404000Y-80796000D02*
X311404000Y-81446000D01*
X311404000Y-86336000D02*
X311404000Y-85686000D01*
X312524000Y-82166000D02*
X310284000Y-82166000D01*
X312524000Y-82286000D02*
X310284000Y-82286000D01*
X312524000Y-82046000D02*
X310284000Y-82046000D01*
X322684000Y-81446000D02*
X320444000Y-81446000D01*
X320444000Y-81446000D02*
X320444000Y-85686000D01*
X320444000Y-85686000D02*
X322684000Y-85686000D01*
X322684000Y-85686000D02*
X322684000Y-81446000D01*
X321564000Y-80796000D02*
X321564000Y-81446000D01*
X321564000Y-86336000D02*
X321564000Y-85686000D01*
X322684000Y-82166000D02*
X320444000Y-82166000D01*
X322684000Y-82286000D02*
X320444000Y-82286000D01*
X322684000Y-82046000D02*
X320444000Y-82046000D01*
X332844000Y-81446000D02*
X330604000Y-81446000D01*
X330604000Y-81446000D02*
X330604000Y-85686000D01*
X330604000Y-85686000D02*
X332844000Y-85686000D01*
X332844000Y-85686000D02*
X332844000Y-81446000D01*
X331724000Y-80796000D02*
X331724000Y-81446000D01*
X331724000Y-86336000D02*
X331724000Y-85686000D01*
X332844000Y-82166000D02*
X330604000Y-82166000D01*
X332844000Y-82286000D02*
X330604000Y-82286000D01*
X332844000Y-82046000D02*
X330604000Y-82046000D01*
X343004000Y-81446000D02*
X340764000Y-81446000D01*
X340764000Y-81446000D02*
X340764000Y-85686000D01*
X340764000Y-85686000D02*
X343004000Y-85686000D01*
X343004000Y-85686000D02*
X343004000Y-81446000D01*
X341884000Y-80796000D02*
X341884000Y-81446000D01*
X341884000Y-86336000D02*
X341884000Y-85686000D01*
X343004000Y-82166000D02*
X340764000Y-82166000D01*
X343004000Y-82286000D02*
X340764000Y-82286000D01*
X343004000Y-82046000D02*
X340764000Y-82046000D01*
X353164000Y-81446000D02*
X350924000Y-81446000D01*
X350924000Y-81446000D02*
X350924000Y-85686000D01*
X350924000Y-85686000D02*
X353164000Y-85686000D01*
X353164000Y-85686000D02*
X353164000Y-81446000D01*
X352044000Y-80796000D02*
X352044000Y-81446000D01*
X352044000Y-86336000D02*
X352044000Y-85686000D01*
X353164000Y-82166000D02*
X350924000Y-82166000D01*
X353164000Y-82286000D02*
X350924000Y-82286000D01*
X353164000Y-82046000D02*
X350924000Y-82046000D01*
X254104000Y-83446000D02*
X251864000Y-83446000D01*
X251864000Y-83446000D02*
X251864000Y-87686000D01*
X251864000Y-87686000D02*
X254104000Y-87686000D01*
X254104000Y-87686000D02*
X254104000Y-83446000D01*
X252984000Y-82796000D02*
X252984000Y-83446000D01*
X252984000Y-88336000D02*
X252984000Y-87686000D01*
X254104000Y-84166000D02*
X251864000Y-84166000D01*
X254104000Y-84286000D02*
X251864000Y-84286000D01*
X254104000Y-84046000D02*
X251864000Y-84046000D01*
X264264000Y-83446000D02*
X262024000Y-83446000D01*
X262024000Y-83446000D02*
X262024000Y-87686000D01*
X262024000Y-87686000D02*
X264264000Y-87686000D01*
X264264000Y-87686000D02*
X264264000Y-83446000D01*
X263144000Y-82796000D02*
X263144000Y-83446000D01*
X263144000Y-88336000D02*
X263144000Y-87686000D01*
X264264000Y-84166000D02*
X262024000Y-84166000D01*
X264264000Y-84286000D02*
X262024000Y-84286000D01*
X264264000Y-84046000D02*
X262024000Y-84046000D01*
X274424000Y-83446000D02*
X272184000Y-83446000D01*
X272184000Y-83446000D02*
X272184000Y-87686000D01*
X272184000Y-87686000D02*
X274424000Y-87686000D01*
X274424000Y-87686000D02*
X274424000Y-83446000D01*
X273304000Y-82796000D02*
X273304000Y-83446000D01*
X273304000Y-88336000D02*
X273304000Y-87686000D01*
X274424000Y-84166000D02*
X272184000Y-84166000D01*
X274424000Y-84286000D02*
X272184000Y-84286000D01*
X274424000Y-84046000D02*
X272184000Y-84046000D01*
X284584000Y-83446000D02*
X282344000Y-83446000D01*
X282344000Y-83446000D02*
X282344000Y-87686000D01*
X282344000Y-87686000D02*
X284584000Y-87686000D01*
X284584000Y-87686000D02*
X284584000Y-83446000D01*
X283464000Y-82796000D02*
X283464000Y-83446000D01*
X283464000Y-88336000D02*
X283464000Y-87686000D01*
X284584000Y-84166000D02*
X282344000Y-84166000D01*
X284584000Y-84286000D02*
X282344000Y-84286000D01*
X284584000Y-84046000D02*
X282344000Y-84046000D01*
X294744000Y-83446000D02*
X292504000Y-83446000D01*
X292504000Y-83446000D02*
X292504000Y-87686000D01*
X292504000Y-87686000D02*
X294744000Y-87686000D01*
X294744000Y-87686000D02*
X294744000Y-83446000D01*
X293624000Y-82796000D02*
X293624000Y-83446000D01*
X293624000Y-88336000D02*
X293624000Y-87686000D01*
X294744000Y-84166000D02*
X292504000Y-84166000D01*
X294744000Y-84286000D02*
X292504000Y-84286000D01*
X294744000Y-84046000D02*
X292504000Y-84046000D01*
X304904000Y-83446000D02*
X302664000Y-83446000D01*
X302664000Y-83446000D02*
X302664000Y-87686000D01*
X302664000Y-87686000D02*
X304904000Y-87686000D01*
X304904000Y-87686000D02*
X304904000Y-83446000D01*
X303784000Y-82796000D02*
X303784000Y-83446000D01*
X303784000Y-88336000D02*
X303784000Y-87686000D01*
X304904000Y-84166000D02*
X302664000Y-84166000D01*
X304904000Y-84286000D02*
X302664000Y-84286000D01*
X304904000Y-84046000D02*
X302664000Y-84046000D01*
X315064000Y-83446000D02*
X312824000Y-83446000D01*
X312824000Y-83446000D02*
X312824000Y-87686000D01*
X312824000Y-87686000D02*
X315064000Y-87686000D01*
X315064000Y-87686000D02*
X315064000Y-83446000D01*
X313944000Y-82796000D02*
X313944000Y-83446000D01*
X313944000Y-88336000D02*
X313944000Y-87686000D01*
X315064000Y-84166000D02*
X312824000Y-84166000D01*
X315064000Y-84286000D02*
X312824000Y-84286000D01*
X315064000Y-84046000D02*
X312824000Y-84046000D01*
X325224000Y-83446000D02*
X322984000Y-83446000D01*
X322984000Y-83446000D02*
X322984000Y-87686000D01*
X322984000Y-87686000D02*
X325224000Y-87686000D01*
X325224000Y-87686000D02*
X325224000Y-83446000D01*
X324104000Y-82796000D02*
X324104000Y-83446000D01*
X324104000Y-88336000D02*
X324104000Y-87686000D01*
X325224000Y-84166000D02*
X322984000Y-84166000D01*
X325224000Y-84286000D02*
X322984000Y-84286000D01*
X325224000Y-84046000D02*
X322984000Y-84046000D01*
X335384000Y-83446000D02*
X333144000Y-83446000D01*
X333144000Y-83446000D02*
X333144000Y-87686000D01*
X333144000Y-87686000D02*
X335384000Y-87686000D01*
X335384000Y-87686000D02*
X335384000Y-83446000D01*
X334264000Y-82796000D02*
X334264000Y-83446000D01*
X334264000Y-88336000D02*
X334264000Y-87686000D01*
X335384000Y-84166000D02*
X333144000Y-84166000D01*
X335384000Y-84286000D02*
X333144000Y-84286000D01*
X335384000Y-84046000D02*
X333144000Y-84046000D01*
X345544000Y-83446000D02*
X343304000Y-83446000D01*
X343304000Y-83446000D02*
X343304000Y-87686000D01*
X343304000Y-87686000D02*
X345544000Y-87686000D01*
X345544000Y-87686000D02*
X345544000Y-83446000D01*
X344424000Y-82796000D02*
X344424000Y-83446000D01*
X344424000Y-88336000D02*
X344424000Y-87686000D01*
X345544000Y-84166000D02*
X343304000Y-84166000D01*
X345544000Y-84286000D02*
X343304000Y-84286000D01*
X345544000Y-84046000D02*
X343304000Y-84046000D01*
X355704000Y-83446000D02*
X353464000Y-83446000D01*
X353464000Y-83446000D02*
X353464000Y-87686000D01*
X353464000Y-87686000D02*
X355704000Y-87686000D01*
X355704000Y-87686000D02*
X355704000Y-83446000D01*
X354584000Y-82796000D02*
X354584000Y-83446000D01*
X354584000Y-88336000D02*
X354584000Y-87686000D01*
X355704000Y-84166000D02*
X353464000Y-84166000D01*
X355704000Y-84286000D02*
X353464000Y-84286000D01*
X355704000Y-84046000D02*
X353464000Y-84046000D01*
X246484000Y-85510000D02*
X244244000Y-85510000D01*
X244244000Y-85510000D02*
X244244000Y-89750000D01*
X244244000Y-89750000D02*
X246484000Y-89750000D01*
X246484000Y-89750000D02*
X246484000Y-85510000D01*
X245364000Y-84860000D02*
X245364000Y-85510000D01*
X245364000Y-90400000D02*
X245364000Y-89750000D01*
X246484000Y-86230000D02*
X244244000Y-86230000D01*
X246484000Y-86350000D02*
X244244000Y-86350000D01*
X246484000Y-86110000D02*
X244244000Y-86110000D01*
X256644000Y-85510000D02*
X254404000Y-85510000D01*
X254404000Y-85510000D02*
X254404000Y-89750000D01*
X254404000Y-89750000D02*
X256644000Y-89750000D01*
X256644000Y-89750000D02*
X256644000Y-85510000D01*
X255524000Y-84860000D02*
X255524000Y-85510000D01*
X255524000Y-90400000D02*
X255524000Y-89750000D01*
X256644000Y-86230000D02*
X254404000Y-86230000D01*
X256644000Y-86350000D02*
X254404000Y-86350000D01*
X256644000Y-86110000D02*
X254404000Y-86110000D01*
X266804000Y-85510000D02*
X264564000Y-85510000D01*
X264564000Y-85510000D02*
X264564000Y-89750000D01*
X264564000Y-89750000D02*
X266804000Y-89750000D01*
X266804000Y-89750000D02*
X266804000Y-85510000D01*
X265684000Y-84860000D02*
X265684000Y-85510000D01*
X265684000Y-90400000D02*
X265684000Y-89750000D01*
X266804000Y-86230000D02*
X264564000Y-86230000D01*
X266804000Y-86350000D02*
X264564000Y-86350000D01*
X266804000Y-86110000D02*
X264564000Y-86110000D01*
X276964000Y-85510000D02*
X274724000Y-85510000D01*
X274724000Y-85510000D02*
X274724000Y-89750000D01*
X274724000Y-89750000D02*
X276964000Y-89750000D01*
X276964000Y-89750000D02*
X276964000Y-85510000D01*
X275844000Y-84860000D02*
X275844000Y-85510000D01*
X275844000Y-90400000D02*
X275844000Y-89750000D01*
X276964000Y-86230000D02*
X274724000Y-86230000D01*
X276964000Y-86350000D02*
X274724000Y-86350000D01*
X276964000Y-86110000D02*
X274724000Y-86110000D01*
X287124000Y-85510000D02*
X284884000Y-85510000D01*
X284884000Y-85510000D02*
X284884000Y-89750000D01*
X284884000Y-89750000D02*
X287124000Y-89750000D01*
X287124000Y-89750000D02*
X287124000Y-85510000D01*
X286004000Y-84860000D02*
X286004000Y-85510000D01*
X286004000Y-90400000D02*
X286004000Y-89750000D01*
X287124000Y-86230000D02*
X284884000Y-86230000D01*
X287124000Y-86350000D02*
X284884000Y-86350000D01*
X287124000Y-86110000D02*
X284884000Y-86110000D01*
X297284000Y-85510000D02*
X295044000Y-85510000D01*
X295044000Y-85510000D02*
X295044000Y-89750000D01*
X295044000Y-89750000D02*
X297284000Y-89750000D01*
X297284000Y-89750000D02*
X297284000Y-85510000D01*
X296164000Y-84860000D02*
X296164000Y-85510000D01*
X296164000Y-90400000D02*
X296164000Y-89750000D01*
X297284000Y-86230000D02*
X295044000Y-86230000D01*
X297284000Y-86350000D02*
X295044000Y-86350000D01*
X297284000Y-86110000D02*
X295044000Y-86110000D01*
X307444000Y-85510000D02*
X305204000Y-85510000D01*
X305204000Y-85510000D02*
X305204000Y-89750000D01*
X305204000Y-89750000D02*
X307444000Y-89750000D01*
X307444000Y-89750000D02*
X307444000Y-85510000D01*
X306324000Y-84860000D02*
X306324000Y-85510000D01*
X306324000Y-90400000D02*
X306324000Y-89750000D01*
X307444000Y-86230000D02*
X305204000Y-86230000D01*
X307444000Y-86350000D02*
X305204000Y-86350000D01*
X307444000Y-86110000D02*
X305204000Y-86110000D01*
X317604000Y-85510000D02*
X315364000Y-85510000D01*
X315364000Y-85510000D02*
X315364000Y-89750000D01*
X315364000Y-89750000D02*
X317604000Y-89750000D01*
X317604000Y-89750000D02*
X317604000Y-85510000D01*
X316484000Y-84860000D02*
X316484000Y-85510000D01*
X316484000Y-90400000D02*
X316484000Y-89750000D01*
X317604000Y-86230000D02*
X315364000Y-86230000D01*
X317604000Y-86350000D02*
X315364000Y-86350000D01*
X317604000Y-86110000D02*
X315364000Y-86110000D01*
X327764000Y-85510000D02*
X325524000Y-85510000D01*
X325524000Y-85510000D02*
X325524000Y-89750000D01*
X325524000Y-89750000D02*
X327764000Y-89750000D01*
X327764000Y-89750000D02*
X327764000Y-85510000D01*
X326644000Y-84860000D02*
X326644000Y-85510000D01*
X326644000Y-90400000D02*
X326644000Y-89750000D01*
X327764000Y-86230000D02*
X325524000Y-86230000D01*
X327764000Y-86350000D02*
X325524000Y-86350000D01*
X327764000Y-86110000D02*
X325524000Y-86110000D01*
X348084000Y-85510000D02*
X345844000Y-85510000D01*
X345844000Y-85510000D02*
X345844000Y-89750000D01*
X345844000Y-89750000D02*
X348084000Y-89750000D01*
X348084000Y-89750000D02*
X348084000Y-85510000D01*
X346964000Y-84860000D02*
X346964000Y-85510000D01*
X346964000Y-90400000D02*
X346964000Y-89750000D01*
X348084000Y-86230000D02*
X345844000Y-86230000D01*
X348084000Y-86350000D02*
X345844000Y-86350000D01*
X348084000Y-86110000D02*
X345844000Y-86110000D01*
X358244000Y-85510000D02*
X356004000Y-85510000D01*
X356004000Y-85510000D02*
X356004000Y-89750000D01*
X356004000Y-89750000D02*
X358244000Y-89750000D01*
X358244000Y-89750000D02*
X358244000Y-85510000D01*
X357124000Y-84860000D02*
X357124000Y-85510000D01*
X357124000Y-90400000D02*
X357124000Y-89750000D01*
X358244000Y-86230000D02*
X356004000Y-86230000D01*
X358244000Y-86350000D02*
X356004000Y-86350000D01*
X358244000Y-86110000D02*
X356004000Y-86110000D01*
X249024000Y-87542000D02*
X246784000Y-87542000D01*
X246784000Y-87542000D02*
X246784000Y-91782000D01*
X246784000Y-91782000D02*
X249024000Y-91782000D01*
X249024000Y-91782000D02*
X249024000Y-87542000D01*
X247904000Y-86892000D02*
X247904000Y-87542000D01*
X247904000Y-92432000D02*
X247904000Y-91782000D01*
X249024000Y-88262000D02*
X246784000Y-88262000D01*
X249024000Y-88382000D02*
X246784000Y-88382000D01*
X249024000Y-88142000D02*
X246784000Y-88142000D01*
X259184000Y-87542000D02*
X256944000Y-87542000D01*
X256944000Y-87542000D02*
X256944000Y-91782000D01*
X256944000Y-91782000D02*
X259184000Y-91782000D01*
X259184000Y-91782000D02*
X259184000Y-87542000D01*
X258064000Y-86892000D02*
X258064000Y-87542000D01*
X258064000Y-92432000D02*
X258064000Y-91782000D01*
X259184000Y-88262000D02*
X256944000Y-88262000D01*
X259184000Y-88382000D02*
X256944000Y-88382000D01*
X259184000Y-88142000D02*
X256944000Y-88142000D01*
X269344000Y-87542000D02*
X267104000Y-87542000D01*
X267104000Y-87542000D02*
X267104000Y-91782000D01*
X267104000Y-91782000D02*
X269344000Y-91782000D01*
X269344000Y-91782000D02*
X269344000Y-87542000D01*
X268224000Y-86892000D02*
X268224000Y-87542000D01*
X268224000Y-92432000D02*
X268224000Y-91782000D01*
X269344000Y-88262000D02*
X267104000Y-88262000D01*
X269344000Y-88382000D02*
X267104000Y-88382000D01*
X269344000Y-88142000D02*
X267104000Y-88142000D01*
X279504000Y-87542000D02*
X277264000Y-87542000D01*
X277264000Y-87542000D02*
X277264000Y-91782000D01*
X277264000Y-91782000D02*
X279504000Y-91782000D01*
X279504000Y-91782000D02*
X279504000Y-87542000D01*
X278384000Y-86892000D02*
X278384000Y-87542000D01*
X278384000Y-92432000D02*
X278384000Y-91782000D01*
X279504000Y-88262000D02*
X277264000Y-88262000D01*
X279504000Y-88382000D02*
X277264000Y-88382000D01*
X279504000Y-88142000D02*
X277264000Y-88142000D01*
X289664000Y-87542000D02*
X287424000Y-87542000D01*
X287424000Y-87542000D02*
X287424000Y-91782000D01*
X287424000Y-91782000D02*
X289664000Y-91782000D01*
X289664000Y-91782000D02*
X289664000Y-87542000D01*
X288544000Y-86892000D02*
X288544000Y-87542000D01*
X288544000Y-92432000D02*
X288544000Y-91782000D01*
X289664000Y-88262000D02*
X287424000Y-88262000D01*
X289664000Y-88382000D02*
X287424000Y-88382000D01*
X289664000Y-88142000D02*
X287424000Y-88142000D01*
X299824000Y-87542000D02*
X297584000Y-87542000D01*
X297584000Y-87542000D02*
X297584000Y-91782000D01*
X297584000Y-91782000D02*
X299824000Y-91782000D01*
X299824000Y-91782000D02*
X299824000Y-87542000D01*
X298704000Y-86892000D02*
X298704000Y-87542000D01*
X298704000Y-92432000D02*
X298704000Y-91782000D01*
X299824000Y-88262000D02*
X297584000Y-88262000D01*
X299824000Y-88382000D02*
X297584000Y-88382000D01*
X299824000Y-88142000D02*
X297584000Y-88142000D01*
X309984000Y-87542000D02*
X307744000Y-87542000D01*
X307744000Y-87542000D02*
X307744000Y-91782000D01*
X307744000Y-91782000D02*
X309984000Y-91782000D01*
X309984000Y-91782000D02*
X309984000Y-87542000D01*
X308864000Y-86892000D02*
X308864000Y-87542000D01*
X308864000Y-92432000D02*
X308864000Y-91782000D01*
X309984000Y-88262000D02*
X307744000Y-88262000D01*
X309984000Y-88382000D02*
X307744000Y-88382000D01*
X309984000Y-88142000D02*
X307744000Y-88142000D01*
X320144000Y-87542000D02*
X317904000Y-87542000D01*
X317904000Y-87542000D02*
X317904000Y-91782000D01*
X317904000Y-91782000D02*
X320144000Y-91782000D01*
X320144000Y-91782000D02*
X320144000Y-87542000D01*
X319024000Y-86892000D02*
X319024000Y-87542000D01*
X319024000Y-92432000D02*
X319024000Y-91782000D01*
X320144000Y-88262000D02*
X317904000Y-88262000D01*
X320144000Y-88382000D02*
X317904000Y-88382000D01*
X320144000Y-88142000D02*
X317904000Y-88142000D01*
X330304000Y-87542000D02*
X328064000Y-87542000D01*
X328064000Y-87542000D02*
X328064000Y-91782000D01*
X328064000Y-91782000D02*
X330304000Y-91782000D01*
X330304000Y-91782000D02*
X330304000Y-87542000D01*
X329184000Y-86892000D02*
X329184000Y-87542000D01*
X329184000Y-92432000D02*
X329184000Y-91782000D01*
X330304000Y-88262000D02*
X328064000Y-88262000D01*
X330304000Y-88382000D02*
X328064000Y-88382000D01*
X330304000Y-88142000D02*
X328064000Y-88142000D01*
X350624000Y-87542000D02*
X348384000Y-87542000D01*
X348384000Y-87542000D02*
X348384000Y-91782000D01*
X348384000Y-91782000D02*
X350624000Y-91782000D01*
X350624000Y-91782000D02*
X350624000Y-87542000D01*
X349504000Y-86892000D02*
X349504000Y-87542000D01*
X349504000Y-92432000D02*
X349504000Y-91782000D01*
X350624000Y-88262000D02*
X348384000Y-88262000D01*
X350624000Y-88382000D02*
X348384000Y-88382000D01*
X350624000Y-88142000D02*
X348384000Y-88142000D01*
X360784000Y-87542000D02*
X358544000Y-87542000D01*
X358544000Y-87542000D02*
X358544000Y-91782000D01*
X358544000Y-91782000D02*
X360784000Y-91782000D01*
X360784000Y-91782000D02*
X360784000Y-87542000D01*
X359664000Y-86892000D02*
X359664000Y-87542000D01*
X359664000Y-92432000D02*
X359664000Y-91782000D01*
X360784000Y-88262000D02*
X358544000Y-88262000D01*
X360784000Y-88382000D02*
X358544000Y-88382000D01*
X360784000Y-88142000D02*
X358544000Y-88142000D01*
X127866000Y-89066000D02*
X125626000Y-89066000D01*
X125626000Y-89066000D02*
X125626000Y-93306000D01*
X125626000Y-93306000D02*
X127866000Y-93306000D01*
X127866000Y-93306000D02*
X127866000Y-89066000D01*
X126746000Y-88416000D02*
X126746000Y-89066000D01*
X126746000Y-93956000D02*
X126746000Y-93306000D01*
X127866000Y-89786000D02*
X125626000Y-89786000D01*
X127866000Y-89906000D02*
X125626000Y-89906000D01*
X127866000Y-89666000D02*
X125626000Y-89666000D01*
X130914000Y-89076196D02*
X128674000Y-89076196D01*
X128674000Y-89076196D02*
X128674000Y-93316196D01*
X128674000Y-93316196D02*
X130914000Y-93316196D01*
X130914000Y-93316196D02*
X130914000Y-89076196D01*
X129794000Y-88426196D02*
X129794000Y-89076196D01*
X129794000Y-93966196D02*
X129794000Y-93316196D01*
X130914000Y-89796196D02*
X128674000Y-89796196D01*
X130914000Y-89916196D02*
X128674000Y-89916196D01*
X130914000Y-89676196D02*
X128674000Y-89676196D01*
X106410000Y-85506000D02*
X110910000Y-85506000D01*
X105160000Y-81506000D02*
X105160000Y-83006000D01*
X110910000Y-79006000D02*
X106410000Y-79006000D01*
X112160000Y-83006000D02*
X112160000Y-81506000D01*
X94472000Y-85510000D02*
X98972000Y-85510000D01*
X93222000Y-81510000D02*
X93222000Y-83010000D01*
X98972000Y-79010000D02*
X94472000Y-79010000D01*
X100222000Y-83010000D02*
X100222000Y-81510000D01*
X124472000Y-74850000D02*
X115282000Y-74850000D01*
X124352000Y-84260000D02*
X115402000Y-84260000D01*
X115282000Y-77580000D02*
X115282000Y-74850000D01*
X124472000Y-77580000D02*
X124472000Y-74850000D01*
X115282000Y-81180000D02*
X115282000Y-80280000D01*
X124472000Y-81180000D02*
X124472000Y-80280000D01*
D12*
X110450380Y-93493523D02*
X110450380Y-93969714D01*
X110926571Y-94017333D01*
X110878952Y-93969714D01*
X110831333Y-93874476D01*
X110831333Y-93636380D01*
X110878952Y-93541142D01*
X110926571Y-93493523D01*
X111021809Y-93445904D01*
X111259904Y-93445904D01*
X111355142Y-93493523D01*
X111402761Y-93541142D01*
X111450380Y-93636380D01*
X111450380Y-93874476D01*
X111402761Y-93969714D01*
X111355142Y-94017333D01*
X110450380Y-92826857D02*
X110450380Y-92731619D01*
X110498000Y-92636380D01*
X110545619Y-92588761D01*
X110640857Y-92541142D01*
X110831333Y-92493523D01*
X111069428Y-92493523D01*
X111259904Y-92541142D01*
X111355142Y-92588761D01*
X111402761Y-92636380D01*
X111450380Y-92731619D01*
X111450380Y-92826857D01*
X111402761Y-92922095D01*
X111355142Y-92969714D01*
X111259904Y-93017333D01*
X111069428Y-93064952D01*
X110831333Y-93064952D01*
X110640857Y-93017333D01*
X110545619Y-92969714D01*
X110498000Y-92922095D01*
X110450380Y-92826857D01*
X110450380Y-91874476D02*
X110450380Y-91779238D01*
X110498000Y-91684000D01*
X110545619Y-91636380D01*
X110640857Y-91588761D01*
X110831333Y-91541142D01*
X111069428Y-91541142D01*
X111259904Y-91588761D01*
X111355142Y-91636380D01*
X111402761Y-91684000D01*
X111450380Y-91779238D01*
X111450380Y-91874476D01*
X111402761Y-91969714D01*
X111355142Y-92017333D01*
X111259904Y-92064952D01*
X111069428Y-92112571D01*
X110831333Y-92112571D01*
X110640857Y-92064952D01*
X110545619Y-92017333D01*
X110498000Y-91969714D01*
X110450380Y-91874476D01*
X111450380Y-91112571D02*
X110783714Y-91112571D01*
X110878952Y-91112571D02*
X110831333Y-91064952D01*
X110783714Y-90969714D01*
X110783714Y-90826857D01*
X110831333Y-90731619D01*
X110926571Y-90684000D01*
X111450380Y-90684000D01*
X110926571Y-90684000D02*
X110831333Y-90636380D01*
X110783714Y-90541142D01*
X110783714Y-90398285D01*
X110831333Y-90303047D01*
X110926571Y-90255428D01*
X111450380Y-90255428D01*
X111164666Y-89826857D02*
X111164666Y-89350666D01*
X111450380Y-89922095D02*
X110450380Y-89588761D01*
X111450380Y-89255428D01*
X357433714Y-172410380D02*
X357433714Y-171410380D01*
X357671809Y-171410380D01*
X357814666Y-171458000D01*
X357909904Y-171553238D01*
X357957523Y-171648476D01*
X358005142Y-171838952D01*
X358005142Y-171981809D01*
X357957523Y-172172285D01*
X357909904Y-172267523D01*
X357814666Y-172362761D01*
X357671809Y-172410380D01*
X357433714Y-172410380D01*
X358862285Y-171410380D02*
X358671809Y-171410380D01*
X358576571Y-171458000D01*
X358528952Y-171505619D01*
X358433714Y-171648476D01*
X358386095Y-171838952D01*
X358386095Y-172219904D01*
X358433714Y-172315142D01*
X358481333Y-172362761D01*
X358576571Y-172410380D01*
X358767047Y-172410380D01*
X358862285Y-172362761D01*
X358909904Y-172315142D01*
X358957523Y-172219904D01*
X358957523Y-171981809D01*
X358909904Y-171886571D01*
X358862285Y-171838952D01*
X358767047Y-171791333D01*
X358576571Y-171791333D01*
X358481333Y-171838952D01*
X358433714Y-171886571D01*
X358386095Y-171981809D01*
X359433714Y-172410380D02*
X359624190Y-172410380D01*
X359719428Y-172362761D01*
X359767047Y-172315142D01*
X359862285Y-172172285D01*
X359909904Y-171981809D01*
X359909904Y-171600857D01*
X359862285Y-171505619D01*
X359814666Y-171458000D01*
X359719428Y-171410380D01*
X359528952Y-171410380D01*
X359433714Y-171458000D01*
X359386095Y-171505619D01*
X359338476Y-171600857D01*
X359338476Y-171838952D01*
X359386095Y-171934190D01*
X359433714Y-171981809D01*
X359528952Y-172029428D01*
X359719428Y-172029428D01*
X359814666Y-171981809D01*
X359862285Y-171934190D01*
X359909904Y-171838952D01*
X338129714Y-172410380D02*
X338129714Y-171410380D01*
X338367809Y-171410380D01*
X338510666Y-171458000D01*
X338605904Y-171553238D01*
X338653523Y-171648476D01*
X338701142Y-171838952D01*
X338701142Y-171981809D01*
X338653523Y-172172285D01*
X338605904Y-172267523D01*
X338510666Y-172362761D01*
X338367809Y-172410380D01*
X338129714Y-172410380D01*
X339558285Y-171410380D02*
X339367809Y-171410380D01*
X339272571Y-171458000D01*
X339224952Y-171505619D01*
X339129714Y-171648476D01*
X339082095Y-171838952D01*
X339082095Y-172219904D01*
X339129714Y-172315142D01*
X339177333Y-172362761D01*
X339272571Y-172410380D01*
X339463047Y-172410380D01*
X339558285Y-172362761D01*
X339605904Y-172315142D01*
X339653523Y-172219904D01*
X339653523Y-171981809D01*
X339605904Y-171886571D01*
X339558285Y-171838952D01*
X339463047Y-171791333D01*
X339272571Y-171791333D01*
X339177333Y-171838952D01*
X339129714Y-171886571D01*
X339082095Y-171981809D01*
X340224952Y-171838952D02*
X340129714Y-171791333D01*
X340082095Y-171743714D01*
X340034476Y-171648476D01*
X340034476Y-171600857D01*
X340082095Y-171505619D01*
X340129714Y-171458000D01*
X340224952Y-171410380D01*
X340415428Y-171410380D01*
X340510666Y-171458000D01*
X340558285Y-171505619D01*
X340605904Y-171600857D01*
X340605904Y-171648476D01*
X340558285Y-171743714D01*
X340510666Y-171791333D01*
X340415428Y-171838952D01*
X340224952Y-171838952D01*
X340129714Y-171886571D01*
X340082095Y-171934190D01*
X340034476Y-172029428D01*
X340034476Y-172219904D01*
X340082095Y-172315142D01*
X340129714Y-172362761D01*
X340224952Y-172410380D01*
X340415428Y-172410380D01*
X340510666Y-172362761D01*
X340558285Y-172315142D01*
X340605904Y-172219904D01*
X340605904Y-172029428D01*
X340558285Y-171934190D01*
X340510666Y-171886571D01*
X340415428Y-171838952D01*
X319587714Y-172410380D02*
X319587714Y-171410380D01*
X319825809Y-171410380D01*
X319968666Y-171458000D01*
X320063904Y-171553238D01*
X320111523Y-171648476D01*
X320159142Y-171838952D01*
X320159142Y-171981809D01*
X320111523Y-172172285D01*
X320063904Y-172267523D01*
X319968666Y-172362761D01*
X319825809Y-172410380D01*
X319587714Y-172410380D01*
X321016285Y-171410380D02*
X320825809Y-171410380D01*
X320730571Y-171458000D01*
X320682952Y-171505619D01*
X320587714Y-171648476D01*
X320540095Y-171838952D01*
X320540095Y-172219904D01*
X320587714Y-172315142D01*
X320635333Y-172362761D01*
X320730571Y-172410380D01*
X320921047Y-172410380D01*
X321016285Y-172362761D01*
X321063904Y-172315142D01*
X321111523Y-172219904D01*
X321111523Y-171981809D01*
X321063904Y-171886571D01*
X321016285Y-171838952D01*
X320921047Y-171791333D01*
X320730571Y-171791333D01*
X320635333Y-171838952D01*
X320587714Y-171886571D01*
X320540095Y-171981809D01*
X321444857Y-171410380D02*
X322111523Y-171410380D01*
X321682952Y-172410380D01*
X300029714Y-172410380D02*
X300029714Y-171410380D01*
X300267809Y-171410380D01*
X300410666Y-171458000D01*
X300505904Y-171553238D01*
X300553523Y-171648476D01*
X300601142Y-171838952D01*
X300601142Y-171981809D01*
X300553523Y-172172285D01*
X300505904Y-172267523D01*
X300410666Y-172362761D01*
X300267809Y-172410380D01*
X300029714Y-172410380D01*
X301458285Y-171410380D02*
X301267809Y-171410380D01*
X301172571Y-171458000D01*
X301124952Y-171505619D01*
X301029714Y-171648476D01*
X300982095Y-171838952D01*
X300982095Y-172219904D01*
X301029714Y-172315142D01*
X301077333Y-172362761D01*
X301172571Y-172410380D01*
X301363047Y-172410380D01*
X301458285Y-172362761D01*
X301505904Y-172315142D01*
X301553523Y-172219904D01*
X301553523Y-171981809D01*
X301505904Y-171886571D01*
X301458285Y-171838952D01*
X301363047Y-171791333D01*
X301172571Y-171791333D01*
X301077333Y-171838952D01*
X301029714Y-171886571D01*
X300982095Y-171981809D01*
X302410666Y-171410380D02*
X302220190Y-171410380D01*
X302124952Y-171458000D01*
X302077333Y-171505619D01*
X301982095Y-171648476D01*
X301934476Y-171838952D01*
X301934476Y-172219904D01*
X301982095Y-172315142D01*
X302029714Y-172362761D01*
X302124952Y-172410380D01*
X302315428Y-172410380D01*
X302410666Y-172362761D01*
X302458285Y-172315142D01*
X302505904Y-172219904D01*
X302505904Y-171981809D01*
X302458285Y-171886571D01*
X302410666Y-171838952D01*
X302315428Y-171791333D01*
X302124952Y-171791333D01*
X302029714Y-171838952D01*
X301982095Y-171886571D01*
X301934476Y-171981809D01*
X281233714Y-172410380D02*
X281233714Y-171410380D01*
X281471809Y-171410380D01*
X281614666Y-171458000D01*
X281709904Y-171553238D01*
X281757523Y-171648476D01*
X281805142Y-171838952D01*
X281805142Y-171981809D01*
X281757523Y-172172285D01*
X281709904Y-172267523D01*
X281614666Y-172362761D01*
X281471809Y-172410380D01*
X281233714Y-172410380D01*
X282662285Y-171410380D02*
X282471809Y-171410380D01*
X282376571Y-171458000D01*
X282328952Y-171505619D01*
X282233714Y-171648476D01*
X282186095Y-171838952D01*
X282186095Y-172219904D01*
X282233714Y-172315142D01*
X282281333Y-172362761D01*
X282376571Y-172410380D01*
X282567047Y-172410380D01*
X282662285Y-172362761D01*
X282709904Y-172315142D01*
X282757523Y-172219904D01*
X282757523Y-171981809D01*
X282709904Y-171886571D01*
X282662285Y-171838952D01*
X282567047Y-171791333D01*
X282376571Y-171791333D01*
X282281333Y-171838952D01*
X282233714Y-171886571D01*
X282186095Y-171981809D01*
X283662285Y-171410380D02*
X283186095Y-171410380D01*
X283138476Y-171886571D01*
X283186095Y-171838952D01*
X283281333Y-171791333D01*
X283519428Y-171791333D01*
X283614666Y-171838952D01*
X283662285Y-171886571D01*
X283709904Y-171981809D01*
X283709904Y-172219904D01*
X283662285Y-172315142D01*
X283614666Y-172362761D01*
X283519428Y-172410380D01*
X283281333Y-172410380D01*
X283186095Y-172362761D01*
X283138476Y-172315142D01*
X266501714Y-172410380D02*
X266501714Y-171410380D01*
X266739809Y-171410380D01*
X266882666Y-171458000D01*
X266977904Y-171553238D01*
X267025523Y-171648476D01*
X267073142Y-171838952D01*
X267073142Y-171981809D01*
X267025523Y-172172285D01*
X266977904Y-172267523D01*
X266882666Y-172362761D01*
X266739809Y-172410380D01*
X266501714Y-172410380D01*
X267930285Y-171410380D02*
X267739809Y-171410380D01*
X267644571Y-171458000D01*
X267596952Y-171505619D01*
X267501714Y-171648476D01*
X267454095Y-171838952D01*
X267454095Y-172219904D01*
X267501714Y-172315142D01*
X267549333Y-172362761D01*
X267644571Y-172410380D01*
X267835047Y-172410380D01*
X267930285Y-172362761D01*
X267977904Y-172315142D01*
X268025523Y-172219904D01*
X268025523Y-171981809D01*
X267977904Y-171886571D01*
X267930285Y-171838952D01*
X267835047Y-171791333D01*
X267644571Y-171791333D01*
X267549333Y-171838952D01*
X267501714Y-171886571D01*
X267454095Y-171981809D01*
X268882666Y-171743714D02*
X268882666Y-172410380D01*
X268644571Y-171362761D02*
X268406476Y-172077047D01*
X269025523Y-172077047D01*
X191825714Y-172410380D02*
X191825714Y-171410380D01*
X192063809Y-171410380D01*
X192206666Y-171458000D01*
X192301904Y-171553238D01*
X192349523Y-171648476D01*
X192397142Y-171838952D01*
X192397142Y-171981809D01*
X192349523Y-172172285D01*
X192301904Y-172267523D01*
X192206666Y-172362761D01*
X192063809Y-172410380D01*
X191825714Y-172410380D01*
X193254285Y-171410380D02*
X193063809Y-171410380D01*
X192968571Y-171458000D01*
X192920952Y-171505619D01*
X192825714Y-171648476D01*
X192778095Y-171838952D01*
X192778095Y-172219904D01*
X192825714Y-172315142D01*
X192873333Y-172362761D01*
X192968571Y-172410380D01*
X193159047Y-172410380D01*
X193254285Y-172362761D01*
X193301904Y-172315142D01*
X193349523Y-172219904D01*
X193349523Y-171981809D01*
X193301904Y-171886571D01*
X193254285Y-171838952D01*
X193159047Y-171791333D01*
X192968571Y-171791333D01*
X192873333Y-171838952D01*
X192825714Y-171886571D01*
X192778095Y-171981809D01*
X193682857Y-171410380D02*
X194301904Y-171410380D01*
X193968571Y-171791333D01*
X194111428Y-171791333D01*
X194206666Y-171838952D01*
X194254285Y-171886571D01*
X194301904Y-171981809D01*
X194301904Y-172219904D01*
X194254285Y-172315142D01*
X194206666Y-172362761D01*
X194111428Y-172410380D01*
X193825714Y-172410380D01*
X193730476Y-172362761D01*
X193682857Y-172315142D01*
X121213714Y-172410380D02*
X121213714Y-171410380D01*
X121451809Y-171410380D01*
X121594666Y-171458000D01*
X121689904Y-171553238D01*
X121737523Y-171648476D01*
X121785142Y-171838952D01*
X121785142Y-171981809D01*
X121737523Y-172172285D01*
X121689904Y-172267523D01*
X121594666Y-172362761D01*
X121451809Y-172410380D01*
X121213714Y-172410380D01*
X122642285Y-171410380D02*
X122451809Y-171410380D01*
X122356571Y-171458000D01*
X122308952Y-171505619D01*
X122213714Y-171648476D01*
X122166095Y-171838952D01*
X122166095Y-172219904D01*
X122213714Y-172315142D01*
X122261333Y-172362761D01*
X122356571Y-172410380D01*
X122547047Y-172410380D01*
X122642285Y-172362761D01*
X122689904Y-172315142D01*
X122737523Y-172219904D01*
X122737523Y-171981809D01*
X122689904Y-171886571D01*
X122642285Y-171838952D01*
X122547047Y-171791333D01*
X122356571Y-171791333D01*
X122261333Y-171838952D01*
X122213714Y-171886571D01*
X122166095Y-171981809D01*
X123118476Y-171505619D02*
X123166095Y-171458000D01*
X123261333Y-171410380D01*
X123499428Y-171410380D01*
X123594666Y-171458000D01*
X123642285Y-171505619D01*
X123689904Y-171600857D01*
X123689904Y-171696095D01*
X123642285Y-171838952D01*
X123070857Y-172410380D01*
X123689904Y-172410380D01*
X107243714Y-172410380D02*
X107243714Y-171410380D01*
X107481809Y-171410380D01*
X107624666Y-171458000D01*
X107719904Y-171553238D01*
X107767523Y-171648476D01*
X107815142Y-171838952D01*
X107815142Y-171981809D01*
X107767523Y-172172285D01*
X107719904Y-172267523D01*
X107624666Y-172362761D01*
X107481809Y-172410380D01*
X107243714Y-172410380D01*
X108672285Y-171410380D02*
X108481809Y-171410380D01*
X108386571Y-171458000D01*
X108338952Y-171505619D01*
X108243714Y-171648476D01*
X108196095Y-171838952D01*
X108196095Y-172219904D01*
X108243714Y-172315142D01*
X108291333Y-172362761D01*
X108386571Y-172410380D01*
X108577047Y-172410380D01*
X108672285Y-172362761D01*
X108719904Y-172315142D01*
X108767523Y-172219904D01*
X108767523Y-171981809D01*
X108719904Y-171886571D01*
X108672285Y-171838952D01*
X108577047Y-171791333D01*
X108386571Y-171791333D01*
X108291333Y-171838952D01*
X108243714Y-171886571D01*
X108196095Y-171981809D01*
X109719904Y-172410380D02*
X109148476Y-172410380D01*
X109434190Y-172410380D02*
X109434190Y-171410380D01*
X109338952Y-171553238D01*
X109243714Y-171648476D01*
X109148476Y-171696095D01*
X80573714Y-172410380D02*
X80573714Y-171410380D01*
X80811809Y-171410380D01*
X80954666Y-171458000D01*
X81049904Y-171553238D01*
X81097523Y-171648476D01*
X81145142Y-171838952D01*
X81145142Y-171981809D01*
X81097523Y-172172285D01*
X81049904Y-172267523D01*
X80954666Y-172362761D01*
X80811809Y-172410380D01*
X80573714Y-172410380D01*
X82002285Y-171410380D02*
X81811809Y-171410380D01*
X81716571Y-171458000D01*
X81668952Y-171505619D01*
X81573714Y-171648476D01*
X81526095Y-171838952D01*
X81526095Y-172219904D01*
X81573714Y-172315142D01*
X81621333Y-172362761D01*
X81716571Y-172410380D01*
X81907047Y-172410380D01*
X82002285Y-172362761D01*
X82049904Y-172315142D01*
X82097523Y-172219904D01*
X82097523Y-171981809D01*
X82049904Y-171886571D01*
X82002285Y-171838952D01*
X81907047Y-171791333D01*
X81716571Y-171791333D01*
X81621333Y-171838952D01*
X81573714Y-171886571D01*
X81526095Y-171981809D01*
X82716571Y-171410380D02*
X82811809Y-171410380D01*
X82907047Y-171458000D01*
X82954666Y-171505619D01*
X83002285Y-171600857D01*
X83049904Y-171791333D01*
X83049904Y-172029428D01*
X83002285Y-172219904D01*
X82954666Y-172315142D01*
X82907047Y-172362761D01*
X82811809Y-172410380D01*
X82716571Y-172410380D01*
X82621333Y-172362761D01*
X82573714Y-172315142D01*
X82526095Y-172219904D01*
X82478476Y-172029428D01*
X82478476Y-171791333D01*
X82526095Y-171600857D01*
X82573714Y-171505619D01*
X82621333Y-171458000D01*
X82716571Y-171410380D01*
X80573714Y-153360380D02*
X80573714Y-152360380D01*
X80811809Y-152360380D01*
X80954666Y-152408000D01*
X81049904Y-152503238D01*
X81097523Y-152598476D01*
X81145142Y-152788952D01*
X81145142Y-152931809D01*
X81097523Y-153122285D01*
X81049904Y-153217523D01*
X80954666Y-153312761D01*
X80811809Y-153360380D01*
X80573714Y-153360380D01*
X82049904Y-152360380D02*
X81573714Y-152360380D01*
X81526095Y-152836571D01*
X81573714Y-152788952D01*
X81668952Y-152741333D01*
X81907047Y-152741333D01*
X82002285Y-152788952D01*
X82049904Y-152836571D01*
X82097523Y-152931809D01*
X82097523Y-153169904D01*
X82049904Y-153265142D01*
X82002285Y-153312761D01*
X81907047Y-153360380D01*
X81668952Y-153360380D01*
X81573714Y-153312761D01*
X81526095Y-153265142D01*
X82573714Y-153360380D02*
X82764190Y-153360380D01*
X82859428Y-153312761D01*
X82907047Y-153265142D01*
X83002285Y-153122285D01*
X83049904Y-152931809D01*
X83049904Y-152550857D01*
X83002285Y-152455619D01*
X82954666Y-152408000D01*
X82859428Y-152360380D01*
X82668952Y-152360380D01*
X82573714Y-152408000D01*
X82526095Y-152455619D01*
X82478476Y-152550857D01*
X82478476Y-152788952D01*
X82526095Y-152884190D01*
X82573714Y-152931809D01*
X82668952Y-152979428D01*
X82859428Y-152979428D01*
X82954666Y-152931809D01*
X83002285Y-152884190D01*
X83049904Y-152788952D01*
D10*
X194348190Y-185114740D02*
X194157714Y-185114740D01*
X194062476Y-185162360D01*
X194014857Y-185209979D01*
X193919619Y-185352836D01*
X193872000Y-185543312D01*
X193872000Y-185924264D01*
X193919619Y-186019502D01*
X193967238Y-186067121D01*
X194062476Y-186114740D01*
X194252952Y-186114740D01*
X194348190Y-186067121D01*
X194395809Y-186019502D01*
X194443428Y-185924264D01*
X194443428Y-185686169D01*
X194395809Y-185590931D01*
X194348190Y-185543312D01*
X194252952Y-185495693D01*
X194062476Y-185495693D01*
X193967238Y-185543312D01*
X193919619Y-185590931D01*
X193872000Y-185686169D01*
X194872000Y-186019502D02*
X194919619Y-186067121D01*
X194872000Y-186114740D01*
X194824380Y-186067121D01*
X194872000Y-186019502D01*
X194872000Y-186114740D01*
X195300571Y-185209979D02*
X195348190Y-185162360D01*
X195443428Y-185114740D01*
X195681523Y-185114740D01*
X195776761Y-185162360D01*
X195824380Y-185209979D01*
X195872000Y-185305217D01*
X195872000Y-185400455D01*
X195824380Y-185543312D01*
X195252952Y-186114740D01*
X195872000Y-186114740D01*
X196776761Y-185114740D02*
X196300571Y-185114740D01*
X196252952Y-185590931D01*
X196300571Y-185543312D01*
X196395809Y-185495693D01*
X196633904Y-185495693D01*
X196729142Y-185543312D01*
X196776761Y-185590931D01*
X196824380Y-185686169D01*
X196824380Y-185924264D01*
X196776761Y-186019502D01*
X196729142Y-186067121D01*
X196633904Y-186114740D01*
X196395809Y-186114740D01*
X196300571Y-186067121D01*
X196252952Y-186019502D01*
X197252952Y-185114740D02*
X197252952Y-185924264D01*
X197300571Y-186019502D01*
X197348190Y-186067121D01*
X197443428Y-186114740D01*
X197633904Y-186114740D01*
X197729142Y-186067121D01*
X197776761Y-186019502D01*
X197824380Y-185924264D01*
X197824380Y-185114740D01*
X140722249Y-92164600D02*
X140341297Y-92431267D01*
X140722249Y-92621743D02*
X139922249Y-92621743D01*
X139922249Y-92316981D01*
X139960345Y-92240790D01*
X139998440Y-92202695D01*
X140074630Y-92164600D01*
X140188916Y-92164600D01*
X140265106Y-92202695D01*
X140303202Y-92240790D01*
X140341297Y-92316981D01*
X140341297Y-92621743D01*
X139922249Y-91440790D02*
X139922249Y-91821743D01*
X140303202Y-91859838D01*
X140265106Y-91821743D01*
X140227011Y-91745552D01*
X140227011Y-91555076D01*
X140265106Y-91478886D01*
X140303202Y-91440790D01*
X140379392Y-91402695D01*
X140569868Y-91402695D01*
X140646059Y-91440790D01*
X140684154Y-91478886D01*
X140722249Y-91555076D01*
X140722249Y-91745552D01*
X140684154Y-91821743D01*
X140646059Y-91859838D01*
X135689649Y-92445664D02*
X135232506Y-92445664D01*
X135461077Y-92445664D02*
X135461077Y-91645664D01*
X135384887Y-91759950D01*
X135308696Y-91836140D01*
X135232506Y-91874236D01*
X136032506Y-92369474D02*
X136070601Y-92407569D01*
X136032506Y-92445664D01*
X135994411Y-92407569D01*
X136032506Y-92369474D01*
X136032506Y-92445664D01*
X136794411Y-91645664D02*
X136413458Y-91645664D01*
X136375363Y-92026617D01*
X136413458Y-91988521D01*
X136489649Y-91950426D01*
X136680125Y-91950426D01*
X136756316Y-91988521D01*
X136794411Y-92026617D01*
X136832506Y-92102807D01*
X136832506Y-92293283D01*
X136794411Y-92369474D01*
X136756316Y-92407569D01*
X136680125Y-92445664D01*
X136489649Y-92445664D01*
X136413458Y-92407569D01*
X136375363Y-92369474D01*
X137175363Y-92445664D02*
X137175363Y-91645664D01*
X137251554Y-92140902D02*
X137480125Y-92445664D01*
X137480125Y-91912331D02*
X137175363Y-92217093D01*
X140722249Y-89691816D02*
X140341297Y-89958483D01*
X140722249Y-90148959D02*
X139922249Y-90148959D01*
X139922249Y-89844197D01*
X139960345Y-89768006D01*
X139998440Y-89729911D01*
X140074630Y-89691816D01*
X140188916Y-89691816D01*
X140265106Y-89729911D01*
X140303202Y-89768006D01*
X140341297Y-89844197D01*
X140341297Y-90148959D01*
X140188916Y-89006102D02*
X140722249Y-89006102D01*
X139884154Y-89196578D02*
X140455583Y-89387054D01*
X140455583Y-88891816D01*
X135308696Y-89164132D02*
X135842030Y-89164132D01*
X135499173Y-89964132D01*
X136527744Y-89164132D02*
X136146792Y-89164132D01*
X136108696Y-89545085D01*
X136146792Y-89506989D01*
X136222982Y-89468894D01*
X136413458Y-89468894D01*
X136489649Y-89506989D01*
X136527744Y-89545085D01*
X136565839Y-89621275D01*
X136565839Y-89811751D01*
X136527744Y-89887942D01*
X136489649Y-89926037D01*
X136413458Y-89964132D01*
X136222982Y-89964132D01*
X136146792Y-89926037D01*
X136108696Y-89887942D01*
X137365839Y-89964132D02*
X137099173Y-89583180D01*
X136908696Y-89964132D02*
X136908696Y-89164132D01*
X137213458Y-89164132D01*
X137289649Y-89202228D01*
X137327744Y-89240323D01*
X137365839Y-89316513D01*
X137365839Y-89430799D01*
X137327744Y-89506989D01*
X137289649Y-89545085D01*
X137213458Y-89583180D01*
X136908696Y-89583180D01*
X140722249Y-87219033D02*
X140341297Y-87485700D01*
X140722249Y-87676176D02*
X139922249Y-87676176D01*
X139922249Y-87371414D01*
X139960345Y-87295223D01*
X139998440Y-87257128D01*
X140074630Y-87219033D01*
X140188916Y-87219033D01*
X140265106Y-87257128D01*
X140303202Y-87295223D01*
X140341297Y-87371414D01*
X140341297Y-87676176D01*
X139922249Y-86952366D02*
X139922249Y-86457128D01*
X140227011Y-86723795D01*
X140227011Y-86609509D01*
X140265106Y-86533319D01*
X140303202Y-86495223D01*
X140379392Y-86457128D01*
X140569868Y-86457128D01*
X140646059Y-86495223D01*
X140684154Y-86533319D01*
X140722249Y-86609509D01*
X140722249Y-86838080D01*
X140684154Y-86914271D01*
X140646059Y-86952366D01*
X135308696Y-86735093D02*
X135842030Y-86735093D01*
X135499173Y-87535093D01*
X136527744Y-86735093D02*
X136146792Y-86735093D01*
X136108696Y-87116046D01*
X136146792Y-87077950D01*
X136222982Y-87039855D01*
X136413458Y-87039855D01*
X136489649Y-87077950D01*
X136527744Y-87116046D01*
X136565839Y-87192236D01*
X136565839Y-87382712D01*
X136527744Y-87458903D01*
X136489649Y-87496998D01*
X136413458Y-87535093D01*
X136222982Y-87535093D01*
X136146792Y-87496998D01*
X136108696Y-87458903D01*
X137365839Y-87535093D02*
X137099173Y-87154141D01*
X136908696Y-87535093D02*
X136908696Y-86735093D01*
X137213458Y-86735093D01*
X137289649Y-86773189D01*
X137327744Y-86811284D01*
X137365839Y-86887474D01*
X137365839Y-87001760D01*
X137327744Y-87077950D01*
X137289649Y-87116046D01*
X137213458Y-87154141D01*
X136908696Y-87154141D01*
X140763933Y-84768210D02*
X140382981Y-85034877D01*
X140763933Y-85225353D02*
X139963933Y-85225353D01*
X139963933Y-84920591D01*
X140002029Y-84844400D01*
X140040124Y-84806305D01*
X140116314Y-84768210D01*
X140230600Y-84768210D01*
X140306790Y-84806305D01*
X140344886Y-84844400D01*
X140382981Y-84920591D01*
X140382981Y-85225353D01*
X140763933Y-84006305D02*
X140763933Y-84463448D01*
X140763933Y-84234877D02*
X139963933Y-84234877D01*
X140078219Y-84311067D01*
X140154409Y-84387257D01*
X140192505Y-84463448D01*
X140823904Y-79889333D02*
X140442952Y-80156000D01*
X140823904Y-80346476D02*
X140023904Y-80346476D01*
X140023904Y-80041714D01*
X140062000Y-79965523D01*
X140100095Y-79927428D01*
X140176285Y-79889333D01*
X140290571Y-79889333D01*
X140366761Y-79927428D01*
X140404857Y-79965523D01*
X140442952Y-80041714D01*
X140442952Y-80346476D01*
X140100095Y-79584571D02*
X140062000Y-79546476D01*
X140023904Y-79470285D01*
X140023904Y-79279809D01*
X140062000Y-79203619D01*
X140100095Y-79165523D01*
X140176285Y-79127428D01*
X140252476Y-79127428D01*
X140366761Y-79165523D01*
X140823904Y-79622666D01*
X140823904Y-79127428D01*
X135693238Y-79317904D02*
X135312285Y-79317904D01*
X135274190Y-79698857D01*
X135312285Y-79660761D01*
X135388476Y-79622666D01*
X135578952Y-79622666D01*
X135655142Y-79660761D01*
X135693238Y-79698857D01*
X135731333Y-79775047D01*
X135731333Y-79965523D01*
X135693238Y-80041714D01*
X135655142Y-80079809D01*
X135578952Y-80117904D01*
X135388476Y-80117904D01*
X135312285Y-80079809D01*
X135274190Y-80041714D01*
X136074190Y-80041714D02*
X136112285Y-80079809D01*
X136074190Y-80117904D01*
X136036095Y-80079809D01*
X136074190Y-80041714D01*
X136074190Y-80117904D01*
X136874190Y-80117904D02*
X136417047Y-80117904D01*
X136645619Y-80117904D02*
X136645619Y-79317904D01*
X136569428Y-79432190D01*
X136493238Y-79508380D01*
X136417047Y-79546476D01*
X137217047Y-80117904D02*
X137217047Y-79317904D01*
X137293238Y-79813142D02*
X137521809Y-80117904D01*
X137521809Y-79584571D02*
X137217047Y-79889333D01*
X140763933Y-82360640D02*
X140382981Y-82627307D01*
X140763933Y-82817783D02*
X139963933Y-82817783D01*
X139963933Y-82513021D01*
X140002029Y-82436830D01*
X140040124Y-82398735D01*
X140116314Y-82360640D01*
X140230600Y-82360640D01*
X140306790Y-82398735D01*
X140344886Y-82436830D01*
X140382981Y-82513021D01*
X140382981Y-82817783D01*
X139963933Y-81674926D02*
X139963933Y-81827307D01*
X140002029Y-81903497D01*
X140040124Y-81941592D01*
X140154409Y-82017783D01*
X140306790Y-82055878D01*
X140611552Y-82055878D01*
X140687743Y-82017783D01*
X140725838Y-81979687D01*
X140763933Y-81903497D01*
X140763933Y-81751116D01*
X140725838Y-81674926D01*
X140687743Y-81636830D01*
X140611552Y-81598735D01*
X140421076Y-81598735D01*
X140344886Y-81636830D01*
X140306790Y-81674926D01*
X140268695Y-81751116D01*
X140268695Y-81903497D01*
X140306790Y-81979687D01*
X140344886Y-82017783D01*
X140421076Y-82055878D01*
X135655142Y-82616617D02*
X135198000Y-82616617D01*
X135426571Y-82616617D02*
X135426571Y-81816617D01*
X135350380Y-81930903D01*
X135274190Y-82007093D01*
X135198000Y-82045189D01*
X135998000Y-82540427D02*
X136036095Y-82578522D01*
X135998000Y-82616617D01*
X135959904Y-82578522D01*
X135998000Y-82540427D01*
X135998000Y-82616617D01*
X136759904Y-81816617D02*
X136378952Y-81816617D01*
X136340857Y-82197570D01*
X136378952Y-82159474D01*
X136455142Y-82121379D01*
X136645619Y-82121379D01*
X136721809Y-82159474D01*
X136759904Y-82197570D01*
X136798000Y-82273760D01*
X136798000Y-82464236D01*
X136759904Y-82540427D01*
X136721809Y-82578522D01*
X136645619Y-82616617D01*
X136455142Y-82616617D01*
X136378952Y-82578522D01*
X136340857Y-82540427D01*
X137140857Y-82616617D02*
X137140857Y-81816617D01*
X137598000Y-82616617D02*
X137255142Y-82159474D01*
X137598000Y-81816617D02*
X137140857Y-82273760D01*
X140722249Y-94620222D02*
X140341297Y-94886889D01*
X140722249Y-95077365D02*
X139922249Y-95077365D01*
X139922249Y-94772603D01*
X139960345Y-94696412D01*
X139998440Y-94658317D01*
X140074630Y-94620222D01*
X140188916Y-94620222D01*
X140265106Y-94658317D01*
X140303202Y-94696412D01*
X140341297Y-94772603D01*
X140341297Y-95077365D01*
X139922249Y-94353555D02*
X139922249Y-93820222D01*
X140722249Y-94163079D01*
X135880125Y-94898568D02*
X135422982Y-94898568D01*
X135651554Y-94898568D02*
X135651554Y-94098568D01*
X135575363Y-94212854D01*
X135499173Y-94289044D01*
X135422982Y-94327140D01*
X136375363Y-94098568D02*
X136451554Y-94098568D01*
X136527744Y-94136664D01*
X136565839Y-94174759D01*
X136603935Y-94250949D01*
X136642030Y-94403330D01*
X136642030Y-94593806D01*
X136603935Y-94746187D01*
X136565839Y-94822378D01*
X136527744Y-94860473D01*
X136451554Y-94898568D01*
X136375363Y-94898568D01*
X136299173Y-94860473D01*
X136261077Y-94822378D01*
X136222982Y-94746187D01*
X136184887Y-94593806D01*
X136184887Y-94403330D01*
X136222982Y-94250949D01*
X136261077Y-94174759D01*
X136299173Y-94136664D01*
X136375363Y-94098568D01*
X136984887Y-94898568D02*
X136984887Y-94098568D01*
X137061077Y-94593806D02*
X137289649Y-94898568D01*
X137289649Y-94365235D02*
X136984887Y-94669997D01*
D12*
X93710562Y-90424156D02*
X93758181Y-90471775D01*
X93805800Y-90614632D01*
X93805800Y-90709870D01*
X93758181Y-90852728D01*
X93662943Y-90947966D01*
X93567705Y-90995585D01*
X93377229Y-91043204D01*
X93234372Y-91043204D01*
X93043896Y-90995585D01*
X92948658Y-90947966D01*
X92853420Y-90852728D01*
X92805800Y-90709870D01*
X92805800Y-90614632D01*
X92853420Y-90471775D01*
X92901039Y-90424156D01*
X92805800Y-90090823D02*
X92805800Y-89471775D01*
X93186753Y-89805109D01*
X93186753Y-89662251D01*
X93234372Y-89567013D01*
X93281991Y-89519394D01*
X93377229Y-89471775D01*
X93615324Y-89471775D01*
X93710562Y-89519394D01*
X93758181Y-89567013D01*
X93805800Y-89662251D01*
X93805800Y-89947966D01*
X93758181Y-90043204D01*
X93710562Y-90090823D01*
D10*
X99142571Y-90950952D02*
X99675904Y-90950952D01*
X98837809Y-91141428D02*
X99409238Y-91331904D01*
X99409238Y-90836666D01*
X99599714Y-90531904D02*
X99637809Y-90493809D01*
X99675904Y-90531904D01*
X99637809Y-90570000D01*
X99599714Y-90531904D01*
X99675904Y-90531904D01*
X98875904Y-90227142D02*
X98875904Y-89693809D01*
X99675904Y-90036666D01*
X99142571Y-89046190D02*
X99675904Y-89046190D01*
X99142571Y-89389047D02*
X99561619Y-89389047D01*
X99637809Y-89350952D01*
X99675904Y-89274761D01*
X99675904Y-89160476D01*
X99637809Y-89084285D01*
X99599714Y-89046190D01*
D12*
X120521119Y-89020640D02*
X120473500Y-89068259D01*
X120330643Y-89115878D01*
X120235405Y-89115878D01*
X120092547Y-89068259D01*
X119997309Y-88973021D01*
X119949690Y-88877783D01*
X119902071Y-88687307D01*
X119902071Y-88544450D01*
X119949690Y-88353974D01*
X119997309Y-88258736D01*
X120092547Y-88163498D01*
X120235405Y-88115878D01*
X120330643Y-88115878D01*
X120473500Y-88163498D01*
X120521119Y-88211117D01*
X121425881Y-88115878D02*
X120949690Y-88115878D01*
X120902071Y-88592069D01*
X120949690Y-88544450D01*
X121044928Y-88496831D01*
X121283024Y-88496831D01*
X121378262Y-88544450D01*
X121425881Y-88592069D01*
X121473500Y-88687307D01*
X121473500Y-88925402D01*
X121425881Y-89020640D01*
X121378262Y-89068259D01*
X121283024Y-89115878D01*
X121044928Y-89115878D01*
X120949690Y-89068259D01*
X120902071Y-89020640D01*
D10*
X119678571Y-86429904D02*
X119754761Y-86429904D01*
X119830952Y-86468000D01*
X119869047Y-86506095D01*
X119907142Y-86582285D01*
X119945238Y-86734666D01*
X119945238Y-86925142D01*
X119907142Y-87077523D01*
X119869047Y-87153714D01*
X119830952Y-87191809D01*
X119754761Y-87229904D01*
X119678571Y-87229904D01*
X119602380Y-87191809D01*
X119564285Y-87153714D01*
X119526190Y-87077523D01*
X119488095Y-86925142D01*
X119488095Y-86734666D01*
X119526190Y-86582285D01*
X119564285Y-86506095D01*
X119602380Y-86468000D01*
X119678571Y-86429904D01*
X120288095Y-87153714D02*
X120326190Y-87191809D01*
X120288095Y-87229904D01*
X120250000Y-87191809D01*
X120288095Y-87153714D01*
X120288095Y-87229904D01*
X121088095Y-87229904D02*
X120630952Y-87229904D01*
X120859523Y-87229904D02*
X120859523Y-86429904D01*
X120783333Y-86544190D01*
X120707142Y-86620380D01*
X120630952Y-86658476D01*
X121773809Y-86696571D02*
X121773809Y-87229904D01*
X121430952Y-86696571D02*
X121430952Y-87115619D01*
X121469047Y-87191809D01*
X121545238Y-87229904D01*
X121659523Y-87229904D01*
X121735714Y-87191809D01*
X121773809Y-87153714D01*
D12*
X96391119Y-94608640D02*
X96343500Y-94656259D01*
X96200643Y-94703878D01*
X96105405Y-94703878D01*
X95962547Y-94656259D01*
X95867309Y-94561021D01*
X95819690Y-94465783D01*
X95772071Y-94275307D01*
X95772071Y-94132450D01*
X95819690Y-93941974D01*
X95867309Y-93846736D01*
X95962547Y-93751498D01*
X96105405Y-93703878D01*
X96200643Y-93703878D01*
X96343500Y-93751498D01*
X96391119Y-93799117D01*
X97248262Y-94037212D02*
X97248262Y-94703878D01*
X97010166Y-93656259D02*
X96772071Y-94370545D01*
X97391119Y-94370545D01*
D10*
X95417662Y-95573904D02*
X95493852Y-95573904D01*
X95570043Y-95612000D01*
X95608138Y-95650095D01*
X95646233Y-95726285D01*
X95684329Y-95878666D01*
X95684329Y-96069142D01*
X95646233Y-96221523D01*
X95608138Y-96297714D01*
X95570043Y-96335809D01*
X95493852Y-96373904D01*
X95417662Y-96373904D01*
X95341471Y-96335809D01*
X95303376Y-96297714D01*
X95265281Y-96221523D01*
X95227186Y-96069142D01*
X95227186Y-95878666D01*
X95265281Y-95726285D01*
X95303376Y-95650095D01*
X95341471Y-95612000D01*
X95417662Y-95573904D01*
X96027186Y-96297714D02*
X96065281Y-96335809D01*
X96027186Y-96373904D01*
X95989091Y-96335809D01*
X96027186Y-96297714D01*
X96027186Y-96373904D01*
X96827186Y-96373904D02*
X96370043Y-96373904D01*
X96598614Y-96373904D02*
X96598614Y-95573904D01*
X96522424Y-95688190D01*
X96446233Y-95764380D01*
X96370043Y-95802476D01*
X97512900Y-95840571D02*
X97512900Y-96373904D01*
X97170043Y-95840571D02*
X97170043Y-96259619D01*
X97208138Y-96335809D01*
X97284329Y-96373904D01*
X97398614Y-96373904D01*
X97474805Y-96335809D01*
X97512900Y-96297714D01*
D12*
X196715102Y-80196904D02*
X196762721Y-80244523D01*
X196810340Y-80387380D01*
X196810340Y-80482618D01*
X196762721Y-80625476D01*
X196667483Y-80720714D01*
X196572245Y-80768333D01*
X196381769Y-80815952D01*
X196238912Y-80815952D01*
X196048436Y-80768333D01*
X195953198Y-80720714D01*
X195857960Y-80625476D01*
X195810340Y-80482618D01*
X195810340Y-80387380D01*
X195857960Y-80244523D01*
X195905579Y-80196904D01*
X195905579Y-79815952D02*
X195857960Y-79768333D01*
X195810340Y-79673095D01*
X195810340Y-79434999D01*
X195857960Y-79339761D01*
X195905579Y-79292142D01*
X196000817Y-79244523D01*
X196096055Y-79244523D01*
X196238912Y-79292142D01*
X196810340Y-79863571D01*
X196810340Y-79244523D01*
D10*
X198418571Y-78124095D02*
X198456666Y-78086000D01*
X198532857Y-78047904D01*
X198723333Y-78047904D01*
X198799523Y-78086000D01*
X198837619Y-78124095D01*
X198875714Y-78200285D01*
X198875714Y-78276476D01*
X198837619Y-78390761D01*
X198380476Y-78847904D01*
X198875714Y-78847904D01*
X199180476Y-78124095D02*
X199218571Y-78086000D01*
X199294761Y-78047904D01*
X199485238Y-78047904D01*
X199561428Y-78086000D01*
X199599523Y-78124095D01*
X199637619Y-78200285D01*
X199637619Y-78276476D01*
X199599523Y-78390761D01*
X199142380Y-78847904D01*
X199637619Y-78847904D01*
X199980476Y-78314571D02*
X199980476Y-79114571D01*
X199980476Y-78352666D02*
X200056666Y-78314571D01*
X200209047Y-78314571D01*
X200285238Y-78352666D01*
X200323333Y-78390761D01*
X200361428Y-78466952D01*
X200361428Y-78695523D01*
X200323333Y-78771714D01*
X200285238Y-78809809D01*
X200209047Y-78847904D01*
X200056666Y-78847904D01*
X199980476Y-78809809D01*
D12*
X196715102Y-95364172D02*
X196762721Y-95411791D01*
X196810340Y-95554648D01*
X196810340Y-95649886D01*
X196762721Y-95792744D01*
X196667483Y-95887982D01*
X196572245Y-95935601D01*
X196381769Y-95983220D01*
X196238912Y-95983220D01*
X196048436Y-95935601D01*
X195953198Y-95887982D01*
X195857960Y-95792744D01*
X195810340Y-95649886D01*
X195810340Y-95554648D01*
X195857960Y-95411791D01*
X195905579Y-95364172D01*
X196810340Y-94411791D02*
X196810340Y-94983220D01*
X196810340Y-94697506D02*
X195810340Y-94697506D01*
X195953198Y-94792744D01*
X196048436Y-94887982D01*
X196096055Y-94983220D01*
D10*
X198418571Y-96412095D02*
X198456666Y-96374000D01*
X198532857Y-96335904D01*
X198723333Y-96335904D01*
X198799523Y-96374000D01*
X198837619Y-96412095D01*
X198875714Y-96488285D01*
X198875714Y-96564476D01*
X198837619Y-96678761D01*
X198380476Y-97135904D01*
X198875714Y-97135904D01*
X199180476Y-96412095D02*
X199218571Y-96374000D01*
X199294761Y-96335904D01*
X199485238Y-96335904D01*
X199561428Y-96374000D01*
X199599523Y-96412095D01*
X199637619Y-96488285D01*
X199637619Y-96564476D01*
X199599523Y-96678761D01*
X199142380Y-97135904D01*
X199637619Y-97135904D01*
X199980476Y-96602571D02*
X199980476Y-97402571D01*
X199980476Y-96640666D02*
X200056666Y-96602571D01*
X200209047Y-96602571D01*
X200285238Y-96640666D01*
X200323333Y-96678761D01*
X200361428Y-96754952D01*
X200361428Y-96983523D01*
X200323333Y-97059714D01*
X200285238Y-97097809D01*
X200209047Y-97135904D01*
X200056666Y-97135904D01*
X199980476Y-97097809D01*
D12*
X199385126Y-88116190D02*
X199861316Y-88116190D01*
X198861316Y-88449523D02*
X199385126Y-88116190D01*
X198861316Y-87782857D01*
X199861316Y-86925714D02*
X199861316Y-87497142D01*
X199861316Y-87211428D02*
X198861316Y-87211428D01*
X199004174Y-87306666D01*
X199099412Y-87401904D01*
X199147031Y-87497142D01*
D10*
X127184380Y-79443904D02*
X127184380Y-78643904D01*
X127489142Y-78643904D01*
X127565333Y-78682000D01*
X127603428Y-78720095D01*
X127641523Y-78796285D01*
X127641523Y-78910571D01*
X127603428Y-78986761D01*
X127565333Y-79024857D01*
X127489142Y-79062952D01*
X127184380Y-79062952D01*
X128136761Y-78643904D02*
X128289142Y-78643904D01*
X128365333Y-78682000D01*
X128441523Y-78758190D01*
X128479619Y-78910571D01*
X128479619Y-79177238D01*
X128441523Y-79329619D01*
X128365333Y-79405809D01*
X128289142Y-79443904D01*
X128136761Y-79443904D01*
X128060571Y-79405809D01*
X127984380Y-79329619D01*
X127946285Y-79177238D01*
X127946285Y-78910571D01*
X127984380Y-78758190D01*
X128060571Y-78682000D01*
X128136761Y-78643904D01*
X128746285Y-78643904D02*
X128936761Y-79443904D01*
X129089142Y-78872476D01*
X129241523Y-79443904D01*
X129432000Y-78643904D01*
X129736761Y-79024857D02*
X130003428Y-79024857D01*
X130117714Y-79443904D02*
X129736761Y-79443904D01*
X129736761Y-78643904D01*
X130117714Y-78643904D01*
X130917714Y-79443904D02*
X130651047Y-79062952D01*
X130460571Y-79443904D02*
X130460571Y-78643904D01*
X130765333Y-78643904D01*
X130841523Y-78682000D01*
X130879619Y-78720095D01*
X130917714Y-78796285D01*
X130917714Y-78910571D01*
X130879619Y-78986761D01*
X130841523Y-79024857D01*
X130765333Y-79062952D01*
X130460571Y-79062952D01*
D12*
X163345346Y-86526666D02*
X163821537Y-86526666D01*
X163250108Y-86812380D02*
X163583442Y-85812380D01*
X163916775Y-86812380D01*
X164107251Y-85812380D02*
X164678680Y-85812380D01*
X164392965Y-86812380D02*
X164392965Y-85812380D01*
X165012013Y-86812380D02*
X165012013Y-86145714D01*
X165012013Y-86240952D02*
X165059632Y-86193333D01*
X165154870Y-86145714D01*
X165297727Y-86145714D01*
X165392965Y-86193333D01*
X165440584Y-86288571D01*
X165440584Y-86812380D01*
X165440584Y-86288571D02*
X165488204Y-86193333D01*
X165583442Y-86145714D01*
X165726299Y-86145714D01*
X165821537Y-86193333D01*
X165869156Y-86288571D01*
X165869156Y-86812380D01*
X166726299Y-86764761D02*
X166631061Y-86812380D01*
X166440584Y-86812380D01*
X166345346Y-86764761D01*
X166297727Y-86669523D01*
X166297727Y-86288571D01*
X166345346Y-86193333D01*
X166440584Y-86145714D01*
X166631061Y-86145714D01*
X166726299Y-86193333D01*
X166773918Y-86288571D01*
X166773918Y-86383809D01*
X166297727Y-86479047D01*
X167631061Y-86145714D02*
X167631061Y-86955238D01*
X167583442Y-87050476D01*
X167535823Y-87098095D01*
X167440584Y-87145714D01*
X167297727Y-87145714D01*
X167202489Y-87098095D01*
X167631061Y-86764761D02*
X167535823Y-86812380D01*
X167345346Y-86812380D01*
X167250108Y-86764761D01*
X167202489Y-86717142D01*
X167154870Y-86621904D01*
X167154870Y-86336190D01*
X167202489Y-86240952D01*
X167250108Y-86193333D01*
X167345346Y-86145714D01*
X167535823Y-86145714D01*
X167631061Y-86193333D01*
X168535823Y-86812380D02*
X168535823Y-86288571D01*
X168488204Y-86193333D01*
X168392965Y-86145714D01*
X168202489Y-86145714D01*
X168107251Y-86193333D01*
X168535823Y-86764761D02*
X168440584Y-86812380D01*
X168202489Y-86812380D01*
X168107251Y-86764761D01*
X168059632Y-86669523D01*
X168059632Y-86574285D01*
X168107251Y-86479047D01*
X168202489Y-86431428D01*
X168440584Y-86431428D01*
X168535823Y-86383809D01*
X168916775Y-85812380D02*
X169535823Y-85812380D01*
X169202489Y-86193333D01*
X169345346Y-86193333D01*
X169440584Y-86240952D01*
X169488204Y-86288571D01*
X169535823Y-86383809D01*
X169535823Y-86621904D01*
X169488204Y-86717142D01*
X169440584Y-86764761D01*
X169345346Y-86812380D01*
X169059632Y-86812380D01*
X168964394Y-86764761D01*
X168916775Y-86717142D01*
X169916775Y-85907619D02*
X169964394Y-85860000D01*
X170059632Y-85812380D01*
X170297727Y-85812380D01*
X170392965Y-85860000D01*
X170440584Y-85907619D01*
X170488204Y-86002857D01*
X170488204Y-86098095D01*
X170440584Y-86240952D01*
X169869156Y-86812380D01*
X170488204Y-86812380D01*
X170869156Y-86526666D02*
X171345346Y-86526666D01*
X170773918Y-86812380D02*
X171107251Y-85812380D01*
X171440584Y-86812380D01*
X171773918Y-86431428D02*
X172535823Y-86431428D01*
X173012013Y-86812380D02*
X173012013Y-85812380D01*
X173392965Y-85812380D01*
X173488204Y-85860000D01*
X173535823Y-85907619D01*
X173583442Y-86002857D01*
X173583442Y-86145714D01*
X173535823Y-86240952D01*
X173488204Y-86288571D01*
X173392965Y-86336190D01*
X173012013Y-86336190D01*
X174012013Y-85812380D02*
X174012013Y-86621904D01*
X174059632Y-86717142D01*
X174107251Y-86764761D01*
X174202489Y-86812380D01*
X174392965Y-86812380D01*
X174488204Y-86764761D01*
X174535823Y-86717142D01*
X174583442Y-86621904D01*
X174583442Y-85812380D01*
X339705904Y-96729428D02*
X338905904Y-96729428D01*
X338905904Y-96538952D01*
X338944000Y-96424666D01*
X339020190Y-96348476D01*
X339096380Y-96310380D01*
X339248761Y-96272285D01*
X339363047Y-96272285D01*
X339515428Y-96310380D01*
X339591619Y-96348476D01*
X339667809Y-96424666D01*
X339705904Y-96538952D01*
X339705904Y-96729428D01*
X338905904Y-95548476D02*
X338905904Y-95929428D01*
X339286857Y-95967523D01*
X339248761Y-95929428D01*
X339210666Y-95853238D01*
X339210666Y-95662761D01*
X339248761Y-95586571D01*
X339286857Y-95548476D01*
X339363047Y-95510380D01*
X339553523Y-95510380D01*
X339629714Y-95548476D01*
X339667809Y-95586571D01*
X339705904Y-95662761D01*
X339705904Y-95853238D01*
X339667809Y-95929428D01*
X339629714Y-95967523D01*
X338905904Y-94824666D02*
X338905904Y-94977047D01*
X338944000Y-95053238D01*
X338982095Y-95091333D01*
X339096380Y-95167523D01*
X339248761Y-95205619D01*
X339553523Y-95205619D01*
X339629714Y-95167523D01*
X339667809Y-95129428D01*
X339705904Y-95053238D01*
X339705904Y-94900857D01*
X339667809Y-94824666D01*
X339629714Y-94786571D01*
X339553523Y-94748476D01*
X339363047Y-94748476D01*
X339286857Y-94786571D01*
X339248761Y-94824666D01*
X339210666Y-94900857D01*
X339210666Y-95053238D01*
X339248761Y-95129428D01*
X339286857Y-95167523D01*
X339363047Y-95205619D01*
X222865904Y-92665428D02*
X222065904Y-92665428D01*
X222065904Y-92474952D01*
X222104000Y-92360666D01*
X222180190Y-92284476D01*
X222256380Y-92246380D01*
X222408761Y-92208285D01*
X222523047Y-92208285D01*
X222675428Y-92246380D01*
X222751619Y-92284476D01*
X222827809Y-92360666D01*
X222865904Y-92474952D01*
X222865904Y-92665428D01*
X222865904Y-91446380D02*
X222865904Y-91903523D01*
X222865904Y-91674952D02*
X222065904Y-91674952D01*
X222180190Y-91751142D01*
X222256380Y-91827333D01*
X222294476Y-91903523D01*
X222065904Y-90760666D02*
X222065904Y-90913047D01*
X222104000Y-90989238D01*
X222142095Y-91027333D01*
X222256380Y-91103523D01*
X222408761Y-91141619D01*
X222713523Y-91141619D01*
X222789714Y-91103523D01*
X222827809Y-91065428D01*
X222865904Y-90989238D01*
X222865904Y-90836857D01*
X222827809Y-90760666D01*
X222789714Y-90722571D01*
X222713523Y-90684476D01*
X222523047Y-90684476D01*
X222446857Y-90722571D01*
X222408761Y-90760666D01*
X222370666Y-90836857D01*
X222370666Y-90989238D01*
X222408761Y-91065428D01*
X222446857Y-91103523D01*
X222523047Y-91141619D01*
X225405904Y-94697428D02*
X224605904Y-94697428D01*
X224605904Y-94506952D01*
X224644000Y-94392666D01*
X224720190Y-94316476D01*
X224796380Y-94278380D01*
X224948761Y-94240285D01*
X225063047Y-94240285D01*
X225215428Y-94278380D01*
X225291619Y-94316476D01*
X225367809Y-94392666D01*
X225405904Y-94506952D01*
X225405904Y-94697428D01*
X224605904Y-93973619D02*
X224605904Y-93478380D01*
X224910666Y-93745047D01*
X224910666Y-93630761D01*
X224948761Y-93554571D01*
X224986857Y-93516476D01*
X225063047Y-93478380D01*
X225253523Y-93478380D01*
X225329714Y-93516476D01*
X225367809Y-93554571D01*
X225405904Y-93630761D01*
X225405904Y-93859333D01*
X225367809Y-93935523D01*
X225329714Y-93973619D01*
X225405904Y-92716476D02*
X225405904Y-93173619D01*
X225405904Y-92945047D02*
X224605904Y-92945047D01*
X224720190Y-93021238D01*
X224796380Y-93097428D01*
X224834476Y-93173619D01*
X227945904Y-96729428D02*
X227145904Y-96729428D01*
X227145904Y-96538952D01*
X227184000Y-96424666D01*
X227260190Y-96348476D01*
X227336380Y-96310380D01*
X227488761Y-96272285D01*
X227603047Y-96272285D01*
X227755428Y-96310380D01*
X227831619Y-96348476D01*
X227907809Y-96424666D01*
X227945904Y-96538952D01*
X227945904Y-96729428D01*
X227412571Y-95586571D02*
X227945904Y-95586571D01*
X227107809Y-95777047D02*
X227679238Y-95967523D01*
X227679238Y-95472285D01*
X227145904Y-94786571D02*
X227145904Y-95167523D01*
X227526857Y-95205619D01*
X227488761Y-95167523D01*
X227450666Y-95091333D01*
X227450666Y-94900857D01*
X227488761Y-94824666D01*
X227526857Y-94786571D01*
X227603047Y-94748476D01*
X227793523Y-94748476D01*
X227869714Y-94786571D01*
X227907809Y-94824666D01*
X227945904Y-94900857D01*
X227945904Y-95091333D01*
X227907809Y-95167523D01*
X227869714Y-95205619D01*
X215245904Y-94697428D02*
X214445904Y-94697428D01*
X214445904Y-94506952D01*
X214484000Y-94392666D01*
X214560190Y-94316476D01*
X214636380Y-94278380D01*
X214788761Y-94240285D01*
X214903047Y-94240285D01*
X215055428Y-94278380D01*
X215131619Y-94316476D01*
X215207809Y-94392666D01*
X215245904Y-94506952D01*
X215245904Y-94697428D01*
X214445904Y-93973619D02*
X214445904Y-93478380D01*
X214750666Y-93745047D01*
X214750666Y-93630761D01*
X214788761Y-93554571D01*
X214826857Y-93516476D01*
X214903047Y-93478380D01*
X215093523Y-93478380D01*
X215169714Y-93516476D01*
X215207809Y-93554571D01*
X215245904Y-93630761D01*
X215245904Y-93859333D01*
X215207809Y-93935523D01*
X215169714Y-93973619D01*
X214445904Y-92983142D02*
X214445904Y-92906952D01*
X214484000Y-92830761D01*
X214522095Y-92792666D01*
X214598285Y-92754571D01*
X214750666Y-92716476D01*
X214941142Y-92716476D01*
X215093523Y-92754571D01*
X215169714Y-92792666D01*
X215207809Y-92830761D01*
X215245904Y-92906952D01*
X215245904Y-92983142D01*
X215207809Y-93059333D01*
X215169714Y-93097428D01*
X215093523Y-93135523D01*
X214941142Y-93173619D01*
X214750666Y-93173619D01*
X214598285Y-93135523D01*
X214522095Y-93097428D01*
X214484000Y-93059333D01*
X214445904Y-92983142D01*
X212705904Y-92665428D02*
X211905904Y-92665428D01*
X211905904Y-92474952D01*
X211944000Y-92360666D01*
X212020190Y-92284476D01*
X212096380Y-92246380D01*
X212248761Y-92208285D01*
X212363047Y-92208285D01*
X212515428Y-92246380D01*
X212591619Y-92284476D01*
X212667809Y-92360666D01*
X212705904Y-92474952D01*
X212705904Y-92665428D01*
X212705904Y-91446380D02*
X212705904Y-91903523D01*
X212705904Y-91674952D02*
X211905904Y-91674952D01*
X212020190Y-91751142D01*
X212096380Y-91827333D01*
X212134476Y-91903523D01*
X211905904Y-90722571D02*
X211905904Y-91103523D01*
X212286857Y-91141619D01*
X212248761Y-91103523D01*
X212210666Y-91027333D01*
X212210666Y-90836857D01*
X212248761Y-90760666D01*
X212286857Y-90722571D01*
X212363047Y-90684476D01*
X212553523Y-90684476D01*
X212629714Y-90722571D01*
X212667809Y-90760666D01*
X212705904Y-90836857D01*
X212705904Y-91027333D01*
X212667809Y-91103523D01*
X212629714Y-91141619D01*
X217785904Y-96729428D02*
X216985904Y-96729428D01*
X216985904Y-96538952D01*
X217024000Y-96424666D01*
X217100190Y-96348476D01*
X217176380Y-96310380D01*
X217328761Y-96272285D01*
X217443047Y-96272285D01*
X217595428Y-96310380D01*
X217671619Y-96348476D01*
X217747809Y-96424666D01*
X217785904Y-96538952D01*
X217785904Y-96729428D01*
X217252571Y-95586571D02*
X217785904Y-95586571D01*
X216947809Y-95777047D02*
X217519238Y-95967523D01*
X217519238Y-95472285D01*
X217252571Y-94824666D02*
X217785904Y-94824666D01*
X216947809Y-95015142D02*
X217519238Y-95205619D01*
X217519238Y-94710380D01*
X220325904Y-89744476D02*
X219525904Y-89744476D01*
X219525904Y-89554000D01*
X219564000Y-89439714D01*
X219640190Y-89363523D01*
X219716380Y-89325428D01*
X219868761Y-89287333D01*
X219983047Y-89287333D01*
X220135428Y-89325428D01*
X220211619Y-89363523D01*
X220287809Y-89439714D01*
X220325904Y-89554000D01*
X220325904Y-89744476D01*
X220325904Y-88525428D02*
X220325904Y-88982571D01*
X220325904Y-88754000D02*
X219525904Y-88754000D01*
X219640190Y-88830190D01*
X219716380Y-88906380D01*
X219754476Y-88982571D01*
X230485904Y-89998476D02*
X229685904Y-89998476D01*
X229685904Y-89808000D01*
X229724000Y-89693714D01*
X229800190Y-89617523D01*
X229876380Y-89579428D01*
X230028761Y-89541333D01*
X230143047Y-89541333D01*
X230295428Y-89579428D01*
X230371619Y-89617523D01*
X230447809Y-89693714D01*
X230485904Y-89808000D01*
X230485904Y-89998476D01*
X229762095Y-89236571D02*
X229724000Y-89198476D01*
X229685904Y-89122285D01*
X229685904Y-88931809D01*
X229724000Y-88855619D01*
X229762095Y-88817523D01*
X229838285Y-88779428D01*
X229914476Y-88779428D01*
X230028761Y-88817523D01*
X230485904Y-89274666D01*
X230485904Y-88779428D01*
X240645904Y-89998476D02*
X239845904Y-89998476D01*
X239845904Y-89808000D01*
X239884000Y-89693714D01*
X239960190Y-89617523D01*
X240036380Y-89579428D01*
X240188761Y-89541333D01*
X240303047Y-89541333D01*
X240455428Y-89579428D01*
X240531619Y-89617523D01*
X240607809Y-89693714D01*
X240645904Y-89808000D01*
X240645904Y-89998476D01*
X239845904Y-89274666D02*
X239845904Y-88779428D01*
X240150666Y-89046095D01*
X240150666Y-88931809D01*
X240188761Y-88855619D01*
X240226857Y-88817523D01*
X240303047Y-88779428D01*
X240493523Y-88779428D01*
X240569714Y-88817523D01*
X240607809Y-88855619D01*
X240645904Y-88931809D01*
X240645904Y-89160380D01*
X240607809Y-89236571D01*
X240569714Y-89274666D01*
X233025904Y-92665428D02*
X232225904Y-92665428D01*
X232225904Y-92474952D01*
X232264000Y-92360666D01*
X232340190Y-92284476D01*
X232416380Y-92246380D01*
X232568761Y-92208285D01*
X232683047Y-92208285D01*
X232835428Y-92246380D01*
X232911619Y-92284476D01*
X232987809Y-92360666D01*
X233025904Y-92474952D01*
X233025904Y-92665428D01*
X233025904Y-91446380D02*
X233025904Y-91903523D01*
X233025904Y-91674952D02*
X232225904Y-91674952D01*
X232340190Y-91751142D01*
X232416380Y-91827333D01*
X232454476Y-91903523D01*
X232225904Y-91179714D02*
X232225904Y-90646380D01*
X233025904Y-90989238D01*
X243185904Y-92665428D02*
X242385904Y-92665428D01*
X242385904Y-92474952D01*
X242424000Y-92360666D01*
X242500190Y-92284476D01*
X242576380Y-92246380D01*
X242728761Y-92208285D01*
X242843047Y-92208285D01*
X242995428Y-92246380D01*
X243071619Y-92284476D01*
X243147809Y-92360666D01*
X243185904Y-92474952D01*
X243185904Y-92665428D01*
X243185904Y-91446380D02*
X243185904Y-91903523D01*
X243185904Y-91674952D02*
X242385904Y-91674952D01*
X242500190Y-91751142D01*
X242576380Y-91827333D01*
X242614476Y-91903523D01*
X242728761Y-90989238D02*
X242690666Y-91065428D01*
X242652571Y-91103523D01*
X242576380Y-91141619D01*
X242538285Y-91141619D01*
X242462095Y-91103523D01*
X242424000Y-91065428D01*
X242385904Y-90989238D01*
X242385904Y-90836857D01*
X242424000Y-90760666D01*
X242462095Y-90722571D01*
X242538285Y-90684476D01*
X242576380Y-90684476D01*
X242652571Y-90722571D01*
X242690666Y-90760666D01*
X242728761Y-90836857D01*
X242728761Y-90989238D01*
X242766857Y-91065428D01*
X242804952Y-91103523D01*
X242881142Y-91141619D01*
X243033523Y-91141619D01*
X243109714Y-91103523D01*
X243147809Y-91065428D01*
X243185904Y-90989238D01*
X243185904Y-90836857D01*
X243147809Y-90760666D01*
X243109714Y-90722571D01*
X243033523Y-90684476D01*
X242881142Y-90684476D01*
X242804952Y-90722571D01*
X242766857Y-90760666D01*
X242728761Y-90836857D01*
X235565904Y-94697428D02*
X234765904Y-94697428D01*
X234765904Y-94506952D01*
X234804000Y-94392666D01*
X234880190Y-94316476D01*
X234956380Y-94278380D01*
X235108761Y-94240285D01*
X235223047Y-94240285D01*
X235375428Y-94278380D01*
X235451619Y-94316476D01*
X235527809Y-94392666D01*
X235565904Y-94506952D01*
X235565904Y-94697428D01*
X234765904Y-93973619D02*
X234765904Y-93478380D01*
X235070666Y-93745047D01*
X235070666Y-93630761D01*
X235108761Y-93554571D01*
X235146857Y-93516476D01*
X235223047Y-93478380D01*
X235413523Y-93478380D01*
X235489714Y-93516476D01*
X235527809Y-93554571D01*
X235565904Y-93630761D01*
X235565904Y-93859333D01*
X235527809Y-93935523D01*
X235489714Y-93973619D01*
X234842095Y-93173619D02*
X234804000Y-93135523D01*
X234765904Y-93059333D01*
X234765904Y-92868857D01*
X234804000Y-92792666D01*
X234842095Y-92754571D01*
X234918285Y-92716476D01*
X234994476Y-92716476D01*
X235108761Y-92754571D01*
X235565904Y-93211714D01*
X235565904Y-92716476D01*
X238105904Y-96729428D02*
X237305904Y-96729428D01*
X237305904Y-96538952D01*
X237344000Y-96424666D01*
X237420190Y-96348476D01*
X237496380Y-96310380D01*
X237648761Y-96272285D01*
X237763047Y-96272285D01*
X237915428Y-96310380D01*
X237991619Y-96348476D01*
X238067809Y-96424666D01*
X238105904Y-96538952D01*
X238105904Y-96729428D01*
X237572571Y-95586571D02*
X238105904Y-95586571D01*
X237267809Y-95777047D02*
X237839238Y-95967523D01*
X237839238Y-95472285D01*
X237305904Y-94824666D02*
X237305904Y-94977047D01*
X237344000Y-95053238D01*
X237382095Y-95091333D01*
X237496380Y-95167523D01*
X237648761Y-95205619D01*
X237953523Y-95205619D01*
X238029714Y-95167523D01*
X238067809Y-95129428D01*
X238105904Y-95053238D01*
X238105904Y-94900857D01*
X238067809Y-94824666D01*
X238029714Y-94786571D01*
X237953523Y-94748476D01*
X237763047Y-94748476D01*
X237686857Y-94786571D01*
X237648761Y-94824666D01*
X237610666Y-94900857D01*
X237610666Y-95053238D01*
X237648761Y-95129428D01*
X237686857Y-95167523D01*
X237763047Y-95205619D01*
X210165904Y-89998476D02*
X209365904Y-89998476D01*
X209365904Y-89808000D01*
X209404000Y-89693714D01*
X209480190Y-89617523D01*
X209556380Y-89579428D01*
X209708761Y-89541333D01*
X209823047Y-89541333D01*
X209975428Y-89579428D01*
X210051619Y-89617523D01*
X210127809Y-89693714D01*
X210165904Y-89808000D01*
X210165904Y-89998476D01*
X209365904Y-89046095D02*
X209365904Y-88969904D01*
X209404000Y-88893714D01*
X209442095Y-88855619D01*
X209518285Y-88817523D01*
X209670666Y-88779428D01*
X209861142Y-88779428D01*
X210013523Y-88817523D01*
X210089714Y-88855619D01*
X210127809Y-88893714D01*
X210165904Y-88969904D01*
X210165904Y-89046095D01*
X210127809Y-89122285D01*
X210089714Y-89160380D01*
X210013523Y-89198476D01*
X209861142Y-89236571D01*
X209670666Y-89236571D01*
X209518285Y-89198476D01*
X209442095Y-89160380D01*
X209404000Y-89122285D01*
X209365904Y-89046095D01*
X250805904Y-89998476D02*
X250005904Y-89998476D01*
X250005904Y-89808000D01*
X250044000Y-89693714D01*
X250120190Y-89617523D01*
X250196380Y-89579428D01*
X250348761Y-89541333D01*
X250463047Y-89541333D01*
X250615428Y-89579428D01*
X250691619Y-89617523D01*
X250767809Y-89693714D01*
X250805904Y-89808000D01*
X250805904Y-89998476D01*
X250272571Y-88855619D02*
X250805904Y-88855619D01*
X249967809Y-89046095D02*
X250539238Y-89236571D01*
X250539238Y-88741333D01*
X260965904Y-89998476D02*
X260165904Y-89998476D01*
X260165904Y-89808000D01*
X260204000Y-89693714D01*
X260280190Y-89617523D01*
X260356380Y-89579428D01*
X260508761Y-89541333D01*
X260623047Y-89541333D01*
X260775428Y-89579428D01*
X260851619Y-89617523D01*
X260927809Y-89693714D01*
X260965904Y-89808000D01*
X260965904Y-89998476D01*
X260165904Y-88817523D02*
X260165904Y-89198476D01*
X260546857Y-89236571D01*
X260508761Y-89198476D01*
X260470666Y-89122285D01*
X260470666Y-88931809D01*
X260508761Y-88855619D01*
X260546857Y-88817523D01*
X260623047Y-88779428D01*
X260813523Y-88779428D01*
X260889714Y-88817523D01*
X260927809Y-88855619D01*
X260965904Y-88931809D01*
X260965904Y-89122285D01*
X260927809Y-89198476D01*
X260889714Y-89236571D01*
X271125904Y-89998476D02*
X270325904Y-89998476D01*
X270325904Y-89808000D01*
X270364000Y-89693714D01*
X270440190Y-89617523D01*
X270516380Y-89579428D01*
X270668761Y-89541333D01*
X270783047Y-89541333D01*
X270935428Y-89579428D01*
X271011619Y-89617523D01*
X271087809Y-89693714D01*
X271125904Y-89808000D01*
X271125904Y-89998476D01*
X270325904Y-88855619D02*
X270325904Y-89008000D01*
X270364000Y-89084190D01*
X270402095Y-89122285D01*
X270516380Y-89198476D01*
X270668761Y-89236571D01*
X270973523Y-89236571D01*
X271049714Y-89198476D01*
X271087809Y-89160380D01*
X271125904Y-89084190D01*
X271125904Y-88931809D01*
X271087809Y-88855619D01*
X271049714Y-88817523D01*
X270973523Y-88779428D01*
X270783047Y-88779428D01*
X270706857Y-88817523D01*
X270668761Y-88855619D01*
X270630666Y-88931809D01*
X270630666Y-89084190D01*
X270668761Y-89160380D01*
X270706857Y-89198476D01*
X270783047Y-89236571D01*
X281285904Y-89998476D02*
X280485904Y-89998476D01*
X280485904Y-89808000D01*
X280524000Y-89693714D01*
X280600190Y-89617523D01*
X280676380Y-89579428D01*
X280828761Y-89541333D01*
X280943047Y-89541333D01*
X281095428Y-89579428D01*
X281171619Y-89617523D01*
X281247809Y-89693714D01*
X281285904Y-89808000D01*
X281285904Y-89998476D01*
X280485904Y-89274666D02*
X280485904Y-88741333D01*
X281285904Y-89084190D01*
X291445904Y-89998476D02*
X290645904Y-89998476D01*
X290645904Y-89808000D01*
X290684000Y-89693714D01*
X290760190Y-89617523D01*
X290836380Y-89579428D01*
X290988761Y-89541333D01*
X291103047Y-89541333D01*
X291255428Y-89579428D01*
X291331619Y-89617523D01*
X291407809Y-89693714D01*
X291445904Y-89808000D01*
X291445904Y-89998476D01*
X290988761Y-89084190D02*
X290950666Y-89160380D01*
X290912571Y-89198476D01*
X290836380Y-89236571D01*
X290798285Y-89236571D01*
X290722095Y-89198476D01*
X290684000Y-89160380D01*
X290645904Y-89084190D01*
X290645904Y-88931809D01*
X290684000Y-88855619D01*
X290722095Y-88817523D01*
X290798285Y-88779428D01*
X290836380Y-88779428D01*
X290912571Y-88817523D01*
X290950666Y-88855619D01*
X290988761Y-88931809D01*
X290988761Y-89084190D01*
X291026857Y-89160380D01*
X291064952Y-89198476D01*
X291141142Y-89236571D01*
X291293523Y-89236571D01*
X291369714Y-89198476D01*
X291407809Y-89160380D01*
X291445904Y-89084190D01*
X291445904Y-88931809D01*
X291407809Y-88855619D01*
X291369714Y-88817523D01*
X291293523Y-88779428D01*
X291141142Y-88779428D01*
X291064952Y-88817523D01*
X291026857Y-88855619D01*
X290988761Y-88931809D01*
X301644640Y-90252476D02*
X300844640Y-90252476D01*
X300844640Y-90062000D01*
X300882736Y-89947714D01*
X300958926Y-89871523D01*
X301035116Y-89833428D01*
X301187497Y-89795333D01*
X301301783Y-89795333D01*
X301454164Y-89833428D01*
X301530355Y-89871523D01*
X301606545Y-89947714D01*
X301644640Y-90062000D01*
X301644640Y-90252476D01*
X301644640Y-89414380D02*
X301644640Y-89262000D01*
X301606545Y-89185809D01*
X301568450Y-89147714D01*
X301454164Y-89071523D01*
X301301783Y-89033428D01*
X300997021Y-89033428D01*
X300920831Y-89071523D01*
X300882736Y-89109619D01*
X300844640Y-89185809D01*
X300844640Y-89338190D01*
X300882736Y-89414380D01*
X300920831Y-89452476D01*
X300997021Y-89490571D01*
X301187497Y-89490571D01*
X301263688Y-89452476D01*
X301301783Y-89414380D01*
X301339878Y-89338190D01*
X301339878Y-89185809D01*
X301301783Y-89109619D01*
X301263688Y-89071523D01*
X301187497Y-89033428D01*
X311765904Y-90633428D02*
X310965904Y-90633428D01*
X310965904Y-90442952D01*
X311004000Y-90328666D01*
X311080190Y-90252476D01*
X311156380Y-90214380D01*
X311308761Y-90176285D01*
X311423047Y-90176285D01*
X311575428Y-90214380D01*
X311651619Y-90252476D01*
X311727809Y-90328666D01*
X311765904Y-90442952D01*
X311765904Y-90633428D01*
X311765904Y-89414380D02*
X311765904Y-89871523D01*
X311765904Y-89642952D02*
X310965904Y-89642952D01*
X311080190Y-89719142D01*
X311156380Y-89795333D01*
X311194476Y-89871523D01*
X310965904Y-88919142D02*
X310965904Y-88842952D01*
X311004000Y-88766761D01*
X311042095Y-88728666D01*
X311118285Y-88690571D01*
X311270666Y-88652476D01*
X311461142Y-88652476D01*
X311613523Y-88690571D01*
X311689714Y-88728666D01*
X311727809Y-88766761D01*
X311765904Y-88842952D01*
X311765904Y-88919142D01*
X311727809Y-88995333D01*
X311689714Y-89033428D01*
X311613523Y-89071523D01*
X311461142Y-89109619D01*
X311270666Y-89109619D01*
X311118285Y-89071523D01*
X311042095Y-89033428D01*
X311004000Y-88995333D01*
X310965904Y-88919142D01*
X321925904Y-90633428D02*
X321125904Y-90633428D01*
X321125904Y-90442952D01*
X321164000Y-90328666D01*
X321240190Y-90252476D01*
X321316380Y-90214380D01*
X321468761Y-90176285D01*
X321583047Y-90176285D01*
X321735428Y-90214380D01*
X321811619Y-90252476D01*
X321887809Y-90328666D01*
X321925904Y-90442952D01*
X321925904Y-90633428D01*
X321925904Y-89414380D02*
X321925904Y-89871523D01*
X321925904Y-89642952D02*
X321125904Y-89642952D01*
X321240190Y-89719142D01*
X321316380Y-89795333D01*
X321354476Y-89871523D01*
X321925904Y-88652476D02*
X321925904Y-89109619D01*
X321925904Y-88881047D02*
X321125904Y-88881047D01*
X321240190Y-88957238D01*
X321316380Y-89033428D01*
X321354476Y-89109619D01*
X332085904Y-90633428D02*
X331285904Y-90633428D01*
X331285904Y-90442952D01*
X331324000Y-90328666D01*
X331400190Y-90252476D01*
X331476380Y-90214380D01*
X331628761Y-90176285D01*
X331743047Y-90176285D01*
X331895428Y-90214380D01*
X331971619Y-90252476D01*
X332047809Y-90328666D01*
X332085904Y-90442952D01*
X332085904Y-90633428D01*
X332085904Y-89414380D02*
X332085904Y-89871523D01*
X332085904Y-89642952D02*
X331285904Y-89642952D01*
X331400190Y-89719142D01*
X331476380Y-89795333D01*
X331514476Y-89871523D01*
X331362095Y-89109619D02*
X331324000Y-89071523D01*
X331285904Y-88995333D01*
X331285904Y-88804857D01*
X331324000Y-88728666D01*
X331362095Y-88690571D01*
X331438285Y-88652476D01*
X331514476Y-88652476D01*
X331628761Y-88690571D01*
X332085904Y-89147714D01*
X332085904Y-88652476D01*
X342245904Y-90633428D02*
X341445904Y-90633428D01*
X341445904Y-90442952D01*
X341484000Y-90328666D01*
X341560190Y-90252476D01*
X341636380Y-90214380D01*
X341788761Y-90176285D01*
X341903047Y-90176285D01*
X342055428Y-90214380D01*
X342131619Y-90252476D01*
X342207809Y-90328666D01*
X342245904Y-90442952D01*
X342245904Y-90633428D01*
X342245904Y-89414380D02*
X342245904Y-89871523D01*
X342245904Y-89642952D02*
X341445904Y-89642952D01*
X341560190Y-89719142D01*
X341636380Y-89795333D01*
X341674476Y-89871523D01*
X341445904Y-89147714D02*
X341445904Y-88652476D01*
X341750666Y-88919142D01*
X341750666Y-88804857D01*
X341788761Y-88728666D01*
X341826857Y-88690571D01*
X341903047Y-88652476D01*
X342093523Y-88652476D01*
X342169714Y-88690571D01*
X342207809Y-88728666D01*
X342245904Y-88804857D01*
X342245904Y-89033428D01*
X342207809Y-89109619D01*
X342169714Y-89147714D01*
X352405904Y-90633428D02*
X351605904Y-90633428D01*
X351605904Y-90442952D01*
X351644000Y-90328666D01*
X351720190Y-90252476D01*
X351796380Y-90214380D01*
X351948761Y-90176285D01*
X352063047Y-90176285D01*
X352215428Y-90214380D01*
X352291619Y-90252476D01*
X352367809Y-90328666D01*
X352405904Y-90442952D01*
X352405904Y-90633428D01*
X352405904Y-89414380D02*
X352405904Y-89871523D01*
X352405904Y-89642952D02*
X351605904Y-89642952D01*
X351720190Y-89719142D01*
X351796380Y-89795333D01*
X351834476Y-89871523D01*
X351872571Y-88728666D02*
X352405904Y-88728666D01*
X351567809Y-88919142D02*
X352139238Y-89109619D01*
X352139238Y-88614380D01*
X253345904Y-92665428D02*
X252545904Y-92665428D01*
X252545904Y-92474952D01*
X252584000Y-92360666D01*
X252660190Y-92284476D01*
X252736380Y-92246380D01*
X252888761Y-92208285D01*
X253003047Y-92208285D01*
X253155428Y-92246380D01*
X253231619Y-92284476D01*
X253307809Y-92360666D01*
X253345904Y-92474952D01*
X253345904Y-92665428D01*
X253345904Y-91446380D02*
X253345904Y-91903523D01*
X253345904Y-91674952D02*
X252545904Y-91674952D01*
X252660190Y-91751142D01*
X252736380Y-91827333D01*
X252774476Y-91903523D01*
X253345904Y-91065428D02*
X253345904Y-90913047D01*
X253307809Y-90836857D01*
X253269714Y-90798761D01*
X253155428Y-90722571D01*
X253003047Y-90684476D01*
X252698285Y-90684476D01*
X252622095Y-90722571D01*
X252584000Y-90760666D01*
X252545904Y-90836857D01*
X252545904Y-90989238D01*
X252584000Y-91065428D01*
X252622095Y-91103523D01*
X252698285Y-91141619D01*
X252888761Y-91141619D01*
X252964952Y-91103523D01*
X253003047Y-91065428D01*
X253041142Y-90989238D01*
X253041142Y-90836857D01*
X253003047Y-90760666D01*
X252964952Y-90722571D01*
X252888761Y-90684476D01*
X263505904Y-92665428D02*
X262705904Y-92665428D01*
X262705904Y-92474952D01*
X262744000Y-92360666D01*
X262820190Y-92284476D01*
X262896380Y-92246380D01*
X263048761Y-92208285D01*
X263163047Y-92208285D01*
X263315428Y-92246380D01*
X263391619Y-92284476D01*
X263467809Y-92360666D01*
X263505904Y-92474952D01*
X263505904Y-92665428D01*
X262782095Y-91903523D02*
X262744000Y-91865428D01*
X262705904Y-91789238D01*
X262705904Y-91598761D01*
X262744000Y-91522571D01*
X262782095Y-91484476D01*
X262858285Y-91446380D01*
X262934476Y-91446380D01*
X263048761Y-91484476D01*
X263505904Y-91941619D01*
X263505904Y-91446380D01*
X262705904Y-90951142D02*
X262705904Y-90874952D01*
X262744000Y-90798761D01*
X262782095Y-90760666D01*
X262858285Y-90722571D01*
X263010666Y-90684476D01*
X263201142Y-90684476D01*
X263353523Y-90722571D01*
X263429714Y-90760666D01*
X263467809Y-90798761D01*
X263505904Y-90874952D01*
X263505904Y-90951142D01*
X263467809Y-91027333D01*
X263429714Y-91065428D01*
X263353523Y-91103523D01*
X263201142Y-91141619D01*
X263010666Y-91141619D01*
X262858285Y-91103523D01*
X262782095Y-91065428D01*
X262744000Y-91027333D01*
X262705904Y-90951142D01*
X273665904Y-92665428D02*
X272865904Y-92665428D01*
X272865904Y-92474952D01*
X272904000Y-92360666D01*
X272980190Y-92284476D01*
X273056380Y-92246380D01*
X273208761Y-92208285D01*
X273323047Y-92208285D01*
X273475428Y-92246380D01*
X273551619Y-92284476D01*
X273627809Y-92360666D01*
X273665904Y-92474952D01*
X273665904Y-92665428D01*
X272942095Y-91903523D02*
X272904000Y-91865428D01*
X272865904Y-91789238D01*
X272865904Y-91598761D01*
X272904000Y-91522571D01*
X272942095Y-91484476D01*
X273018285Y-91446380D01*
X273094476Y-91446380D01*
X273208761Y-91484476D01*
X273665904Y-91941619D01*
X273665904Y-91446380D01*
X273665904Y-90684476D02*
X273665904Y-91141619D01*
X273665904Y-90913047D02*
X272865904Y-90913047D01*
X272980190Y-90989238D01*
X273056380Y-91065428D01*
X273094476Y-91141619D01*
X283825904Y-92665428D02*
X283025904Y-92665428D01*
X283025904Y-92474952D01*
X283064000Y-92360666D01*
X283140190Y-92284476D01*
X283216380Y-92246380D01*
X283368761Y-92208285D01*
X283483047Y-92208285D01*
X283635428Y-92246380D01*
X283711619Y-92284476D01*
X283787809Y-92360666D01*
X283825904Y-92474952D01*
X283825904Y-92665428D01*
X283102095Y-91903523D02*
X283064000Y-91865428D01*
X283025904Y-91789238D01*
X283025904Y-91598761D01*
X283064000Y-91522571D01*
X283102095Y-91484476D01*
X283178285Y-91446380D01*
X283254476Y-91446380D01*
X283368761Y-91484476D01*
X283825904Y-91941619D01*
X283825904Y-91446380D01*
X283102095Y-91141619D02*
X283064000Y-91103523D01*
X283025904Y-91027333D01*
X283025904Y-90836857D01*
X283064000Y-90760666D01*
X283102095Y-90722571D01*
X283178285Y-90684476D01*
X283254476Y-90684476D01*
X283368761Y-90722571D01*
X283825904Y-91179714D01*
X283825904Y-90684476D01*
X293985904Y-92665428D02*
X293185904Y-92665428D01*
X293185904Y-92474952D01*
X293224000Y-92360666D01*
X293300190Y-92284476D01*
X293376380Y-92246380D01*
X293528761Y-92208285D01*
X293643047Y-92208285D01*
X293795428Y-92246380D01*
X293871619Y-92284476D01*
X293947809Y-92360666D01*
X293985904Y-92474952D01*
X293985904Y-92665428D01*
X293262095Y-91903523D02*
X293224000Y-91865428D01*
X293185904Y-91789238D01*
X293185904Y-91598761D01*
X293224000Y-91522571D01*
X293262095Y-91484476D01*
X293338285Y-91446380D01*
X293414476Y-91446380D01*
X293528761Y-91484476D01*
X293985904Y-91941619D01*
X293985904Y-91446380D01*
X293185904Y-91179714D02*
X293185904Y-90684476D01*
X293490666Y-90951142D01*
X293490666Y-90836857D01*
X293528761Y-90760666D01*
X293566857Y-90722571D01*
X293643047Y-90684476D01*
X293833523Y-90684476D01*
X293909714Y-90722571D01*
X293947809Y-90760666D01*
X293985904Y-90836857D01*
X293985904Y-91065428D01*
X293947809Y-91141619D01*
X293909714Y-91179714D01*
X304145904Y-92665428D02*
X303345904Y-92665428D01*
X303345904Y-92474952D01*
X303384000Y-92360666D01*
X303460190Y-92284476D01*
X303536380Y-92246380D01*
X303688761Y-92208285D01*
X303803047Y-92208285D01*
X303955428Y-92246380D01*
X304031619Y-92284476D01*
X304107809Y-92360666D01*
X304145904Y-92474952D01*
X304145904Y-92665428D01*
X303422095Y-91903523D02*
X303384000Y-91865428D01*
X303345904Y-91789238D01*
X303345904Y-91598761D01*
X303384000Y-91522571D01*
X303422095Y-91484476D01*
X303498285Y-91446380D01*
X303574476Y-91446380D01*
X303688761Y-91484476D01*
X304145904Y-91941619D01*
X304145904Y-91446380D01*
X303612571Y-90760666D02*
X304145904Y-90760666D01*
X303307809Y-90951142D02*
X303879238Y-91141619D01*
X303879238Y-90646380D01*
X314305904Y-92665428D02*
X313505904Y-92665428D01*
X313505904Y-92474952D01*
X313544000Y-92360666D01*
X313620190Y-92284476D01*
X313696380Y-92246380D01*
X313848761Y-92208285D01*
X313963047Y-92208285D01*
X314115428Y-92246380D01*
X314191619Y-92284476D01*
X314267809Y-92360666D01*
X314305904Y-92474952D01*
X314305904Y-92665428D01*
X313582095Y-91903523D02*
X313544000Y-91865428D01*
X313505904Y-91789238D01*
X313505904Y-91598761D01*
X313544000Y-91522571D01*
X313582095Y-91484476D01*
X313658285Y-91446380D01*
X313734476Y-91446380D01*
X313848761Y-91484476D01*
X314305904Y-91941619D01*
X314305904Y-91446380D01*
X313505904Y-90722571D02*
X313505904Y-91103523D01*
X313886857Y-91141619D01*
X313848761Y-91103523D01*
X313810666Y-91027333D01*
X313810666Y-90836857D01*
X313848761Y-90760666D01*
X313886857Y-90722571D01*
X313963047Y-90684476D01*
X314153523Y-90684476D01*
X314229714Y-90722571D01*
X314267809Y-90760666D01*
X314305904Y-90836857D01*
X314305904Y-91027333D01*
X314267809Y-91103523D01*
X314229714Y-91141619D01*
X324465904Y-92665428D02*
X323665904Y-92665428D01*
X323665904Y-92474952D01*
X323704000Y-92360666D01*
X323780190Y-92284476D01*
X323856380Y-92246380D01*
X324008761Y-92208285D01*
X324123047Y-92208285D01*
X324275428Y-92246380D01*
X324351619Y-92284476D01*
X324427809Y-92360666D01*
X324465904Y-92474952D01*
X324465904Y-92665428D01*
X323742095Y-91903523D02*
X323704000Y-91865428D01*
X323665904Y-91789238D01*
X323665904Y-91598761D01*
X323704000Y-91522571D01*
X323742095Y-91484476D01*
X323818285Y-91446380D01*
X323894476Y-91446380D01*
X324008761Y-91484476D01*
X324465904Y-91941619D01*
X324465904Y-91446380D01*
X323665904Y-90760666D02*
X323665904Y-90913047D01*
X323704000Y-90989238D01*
X323742095Y-91027333D01*
X323856380Y-91103523D01*
X324008761Y-91141619D01*
X324313523Y-91141619D01*
X324389714Y-91103523D01*
X324427809Y-91065428D01*
X324465904Y-90989238D01*
X324465904Y-90836857D01*
X324427809Y-90760666D01*
X324389714Y-90722571D01*
X324313523Y-90684476D01*
X324123047Y-90684476D01*
X324046857Y-90722571D01*
X324008761Y-90760666D01*
X323970666Y-90836857D01*
X323970666Y-90989238D01*
X324008761Y-91065428D01*
X324046857Y-91103523D01*
X324123047Y-91141619D01*
X334625904Y-92665428D02*
X333825904Y-92665428D01*
X333825904Y-92474952D01*
X333864000Y-92360666D01*
X333940190Y-92284476D01*
X334016380Y-92246380D01*
X334168761Y-92208285D01*
X334283047Y-92208285D01*
X334435428Y-92246380D01*
X334511619Y-92284476D01*
X334587809Y-92360666D01*
X334625904Y-92474952D01*
X334625904Y-92665428D01*
X333902095Y-91903523D02*
X333864000Y-91865428D01*
X333825904Y-91789238D01*
X333825904Y-91598761D01*
X333864000Y-91522571D01*
X333902095Y-91484476D01*
X333978285Y-91446380D01*
X334054476Y-91446380D01*
X334168761Y-91484476D01*
X334625904Y-91941619D01*
X334625904Y-91446380D01*
X333825904Y-91179714D02*
X333825904Y-90646380D01*
X334625904Y-90989238D01*
X344785904Y-92665428D02*
X343985904Y-92665428D01*
X343985904Y-92474952D01*
X344024000Y-92360666D01*
X344100190Y-92284476D01*
X344176380Y-92246380D01*
X344328761Y-92208285D01*
X344443047Y-92208285D01*
X344595428Y-92246380D01*
X344671619Y-92284476D01*
X344747809Y-92360666D01*
X344785904Y-92474952D01*
X344785904Y-92665428D01*
X344062095Y-91903523D02*
X344024000Y-91865428D01*
X343985904Y-91789238D01*
X343985904Y-91598761D01*
X344024000Y-91522571D01*
X344062095Y-91484476D01*
X344138285Y-91446380D01*
X344214476Y-91446380D01*
X344328761Y-91484476D01*
X344785904Y-91941619D01*
X344785904Y-91446380D01*
X344328761Y-90989238D02*
X344290666Y-91065428D01*
X344252571Y-91103523D01*
X344176380Y-91141619D01*
X344138285Y-91141619D01*
X344062095Y-91103523D01*
X344024000Y-91065428D01*
X343985904Y-90989238D01*
X343985904Y-90836857D01*
X344024000Y-90760666D01*
X344062095Y-90722571D01*
X344138285Y-90684476D01*
X344176380Y-90684476D01*
X344252571Y-90722571D01*
X344290666Y-90760666D01*
X344328761Y-90836857D01*
X344328761Y-90989238D01*
X344366857Y-91065428D01*
X344404952Y-91103523D01*
X344481142Y-91141619D01*
X344633523Y-91141619D01*
X344709714Y-91103523D01*
X344747809Y-91065428D01*
X344785904Y-90989238D01*
X344785904Y-90836857D01*
X344747809Y-90760666D01*
X344709714Y-90722571D01*
X344633523Y-90684476D01*
X344481142Y-90684476D01*
X344404952Y-90722571D01*
X344366857Y-90760666D01*
X344328761Y-90836857D01*
X354945904Y-92665428D02*
X354145904Y-92665428D01*
X354145904Y-92474952D01*
X354184000Y-92360666D01*
X354260190Y-92284476D01*
X354336380Y-92246380D01*
X354488761Y-92208285D01*
X354603047Y-92208285D01*
X354755428Y-92246380D01*
X354831619Y-92284476D01*
X354907809Y-92360666D01*
X354945904Y-92474952D01*
X354945904Y-92665428D01*
X354222095Y-91903523D02*
X354184000Y-91865428D01*
X354145904Y-91789238D01*
X354145904Y-91598761D01*
X354184000Y-91522571D01*
X354222095Y-91484476D01*
X354298285Y-91446380D01*
X354374476Y-91446380D01*
X354488761Y-91484476D01*
X354945904Y-91941619D01*
X354945904Y-91446380D01*
X354945904Y-91065428D02*
X354945904Y-90913047D01*
X354907809Y-90836857D01*
X354869714Y-90798761D01*
X354755428Y-90722571D01*
X354603047Y-90684476D01*
X354298285Y-90684476D01*
X354222095Y-90722571D01*
X354184000Y-90760666D01*
X354145904Y-90836857D01*
X354145904Y-90989238D01*
X354184000Y-91065428D01*
X354222095Y-91103523D01*
X354298285Y-91141619D01*
X354488761Y-91141619D01*
X354564952Y-91103523D01*
X354603047Y-91065428D01*
X354641142Y-90989238D01*
X354641142Y-90836857D01*
X354603047Y-90760666D01*
X354564952Y-90722571D01*
X354488761Y-90684476D01*
X245725904Y-94697428D02*
X244925904Y-94697428D01*
X244925904Y-94506952D01*
X244964000Y-94392666D01*
X245040190Y-94316476D01*
X245116380Y-94278380D01*
X245268761Y-94240285D01*
X245383047Y-94240285D01*
X245535428Y-94278380D01*
X245611619Y-94316476D01*
X245687809Y-94392666D01*
X245725904Y-94506952D01*
X245725904Y-94697428D01*
X244925904Y-93973619D02*
X244925904Y-93478380D01*
X245230666Y-93745047D01*
X245230666Y-93630761D01*
X245268761Y-93554571D01*
X245306857Y-93516476D01*
X245383047Y-93478380D01*
X245573523Y-93478380D01*
X245649714Y-93516476D01*
X245687809Y-93554571D01*
X245725904Y-93630761D01*
X245725904Y-93859333D01*
X245687809Y-93935523D01*
X245649714Y-93973619D01*
X244925904Y-93211714D02*
X244925904Y-92716476D01*
X245230666Y-92983142D01*
X245230666Y-92868857D01*
X245268761Y-92792666D01*
X245306857Y-92754571D01*
X245383047Y-92716476D01*
X245573523Y-92716476D01*
X245649714Y-92754571D01*
X245687809Y-92792666D01*
X245725904Y-92868857D01*
X245725904Y-93097428D01*
X245687809Y-93173619D01*
X245649714Y-93211714D01*
X255885904Y-94697428D02*
X255085904Y-94697428D01*
X255085904Y-94506952D01*
X255124000Y-94392666D01*
X255200190Y-94316476D01*
X255276380Y-94278380D01*
X255428761Y-94240285D01*
X255543047Y-94240285D01*
X255695428Y-94278380D01*
X255771619Y-94316476D01*
X255847809Y-94392666D01*
X255885904Y-94506952D01*
X255885904Y-94697428D01*
X255085904Y-93973619D02*
X255085904Y-93478380D01*
X255390666Y-93745047D01*
X255390666Y-93630761D01*
X255428761Y-93554571D01*
X255466857Y-93516476D01*
X255543047Y-93478380D01*
X255733523Y-93478380D01*
X255809714Y-93516476D01*
X255847809Y-93554571D01*
X255885904Y-93630761D01*
X255885904Y-93859333D01*
X255847809Y-93935523D01*
X255809714Y-93973619D01*
X255352571Y-92792666D02*
X255885904Y-92792666D01*
X255047809Y-92983142D02*
X255619238Y-93173619D01*
X255619238Y-92678380D01*
X266045904Y-94697428D02*
X265245904Y-94697428D01*
X265245904Y-94506952D01*
X265284000Y-94392666D01*
X265360190Y-94316476D01*
X265436380Y-94278380D01*
X265588761Y-94240285D01*
X265703047Y-94240285D01*
X265855428Y-94278380D01*
X265931619Y-94316476D01*
X266007809Y-94392666D01*
X266045904Y-94506952D01*
X266045904Y-94697428D01*
X265245904Y-93973619D02*
X265245904Y-93478380D01*
X265550666Y-93745047D01*
X265550666Y-93630761D01*
X265588761Y-93554571D01*
X265626857Y-93516476D01*
X265703047Y-93478380D01*
X265893523Y-93478380D01*
X265969714Y-93516476D01*
X266007809Y-93554571D01*
X266045904Y-93630761D01*
X266045904Y-93859333D01*
X266007809Y-93935523D01*
X265969714Y-93973619D01*
X265245904Y-92754571D02*
X265245904Y-93135523D01*
X265626857Y-93173619D01*
X265588761Y-93135523D01*
X265550666Y-93059333D01*
X265550666Y-92868857D01*
X265588761Y-92792666D01*
X265626857Y-92754571D01*
X265703047Y-92716476D01*
X265893523Y-92716476D01*
X265969714Y-92754571D01*
X266007809Y-92792666D01*
X266045904Y-92868857D01*
X266045904Y-93059333D01*
X266007809Y-93135523D01*
X265969714Y-93173619D01*
X276205904Y-94697428D02*
X275405904Y-94697428D01*
X275405904Y-94506952D01*
X275444000Y-94392666D01*
X275520190Y-94316476D01*
X275596380Y-94278380D01*
X275748761Y-94240285D01*
X275863047Y-94240285D01*
X276015428Y-94278380D01*
X276091619Y-94316476D01*
X276167809Y-94392666D01*
X276205904Y-94506952D01*
X276205904Y-94697428D01*
X275405904Y-93973619D02*
X275405904Y-93478380D01*
X275710666Y-93745047D01*
X275710666Y-93630761D01*
X275748761Y-93554571D01*
X275786857Y-93516476D01*
X275863047Y-93478380D01*
X276053523Y-93478380D01*
X276129714Y-93516476D01*
X276167809Y-93554571D01*
X276205904Y-93630761D01*
X276205904Y-93859333D01*
X276167809Y-93935523D01*
X276129714Y-93973619D01*
X275405904Y-92792666D02*
X275405904Y-92945047D01*
X275444000Y-93021238D01*
X275482095Y-93059333D01*
X275596380Y-93135523D01*
X275748761Y-93173619D01*
X276053523Y-93173619D01*
X276129714Y-93135523D01*
X276167809Y-93097428D01*
X276205904Y-93021238D01*
X276205904Y-92868857D01*
X276167809Y-92792666D01*
X276129714Y-92754571D01*
X276053523Y-92716476D01*
X275863047Y-92716476D01*
X275786857Y-92754571D01*
X275748761Y-92792666D01*
X275710666Y-92868857D01*
X275710666Y-93021238D01*
X275748761Y-93097428D01*
X275786857Y-93135523D01*
X275863047Y-93173619D01*
X286365904Y-94697428D02*
X285565904Y-94697428D01*
X285565904Y-94506952D01*
X285604000Y-94392666D01*
X285680190Y-94316476D01*
X285756380Y-94278380D01*
X285908761Y-94240285D01*
X286023047Y-94240285D01*
X286175428Y-94278380D01*
X286251619Y-94316476D01*
X286327809Y-94392666D01*
X286365904Y-94506952D01*
X286365904Y-94697428D01*
X285565904Y-93973619D02*
X285565904Y-93478380D01*
X285870666Y-93745047D01*
X285870666Y-93630761D01*
X285908761Y-93554571D01*
X285946857Y-93516476D01*
X286023047Y-93478380D01*
X286213523Y-93478380D01*
X286289714Y-93516476D01*
X286327809Y-93554571D01*
X286365904Y-93630761D01*
X286365904Y-93859333D01*
X286327809Y-93935523D01*
X286289714Y-93973619D01*
X285565904Y-93211714D02*
X285565904Y-92678380D01*
X286365904Y-93021238D01*
X296525904Y-94697428D02*
X295725904Y-94697428D01*
X295725904Y-94506952D01*
X295764000Y-94392666D01*
X295840190Y-94316476D01*
X295916380Y-94278380D01*
X296068761Y-94240285D01*
X296183047Y-94240285D01*
X296335428Y-94278380D01*
X296411619Y-94316476D01*
X296487809Y-94392666D01*
X296525904Y-94506952D01*
X296525904Y-94697428D01*
X295725904Y-93973619D02*
X295725904Y-93478380D01*
X296030666Y-93745047D01*
X296030666Y-93630761D01*
X296068761Y-93554571D01*
X296106857Y-93516476D01*
X296183047Y-93478380D01*
X296373523Y-93478380D01*
X296449714Y-93516476D01*
X296487809Y-93554571D01*
X296525904Y-93630761D01*
X296525904Y-93859333D01*
X296487809Y-93935523D01*
X296449714Y-93973619D01*
X296068761Y-93021238D02*
X296030666Y-93097428D01*
X295992571Y-93135523D01*
X295916380Y-93173619D01*
X295878285Y-93173619D01*
X295802095Y-93135523D01*
X295764000Y-93097428D01*
X295725904Y-93021238D01*
X295725904Y-92868857D01*
X295764000Y-92792666D01*
X295802095Y-92754571D01*
X295878285Y-92716476D01*
X295916380Y-92716476D01*
X295992571Y-92754571D01*
X296030666Y-92792666D01*
X296068761Y-92868857D01*
X296068761Y-93021238D01*
X296106857Y-93097428D01*
X296144952Y-93135523D01*
X296221142Y-93173619D01*
X296373523Y-93173619D01*
X296449714Y-93135523D01*
X296487809Y-93097428D01*
X296525904Y-93021238D01*
X296525904Y-92868857D01*
X296487809Y-92792666D01*
X296449714Y-92754571D01*
X296373523Y-92716476D01*
X296221142Y-92716476D01*
X296144952Y-92754571D01*
X296106857Y-92792666D01*
X296068761Y-92868857D01*
X306685904Y-94697428D02*
X305885904Y-94697428D01*
X305885904Y-94506952D01*
X305924000Y-94392666D01*
X306000190Y-94316476D01*
X306076380Y-94278380D01*
X306228761Y-94240285D01*
X306343047Y-94240285D01*
X306495428Y-94278380D01*
X306571619Y-94316476D01*
X306647809Y-94392666D01*
X306685904Y-94506952D01*
X306685904Y-94697428D01*
X305885904Y-93973619D02*
X305885904Y-93478380D01*
X306190666Y-93745047D01*
X306190666Y-93630761D01*
X306228761Y-93554571D01*
X306266857Y-93516476D01*
X306343047Y-93478380D01*
X306533523Y-93478380D01*
X306609714Y-93516476D01*
X306647809Y-93554571D01*
X306685904Y-93630761D01*
X306685904Y-93859333D01*
X306647809Y-93935523D01*
X306609714Y-93973619D01*
X306685904Y-93097428D02*
X306685904Y-92945047D01*
X306647809Y-92868857D01*
X306609714Y-92830761D01*
X306495428Y-92754571D01*
X306343047Y-92716476D01*
X306038285Y-92716476D01*
X305962095Y-92754571D01*
X305924000Y-92792666D01*
X305885904Y-92868857D01*
X305885904Y-93021238D01*
X305924000Y-93097428D01*
X305962095Y-93135523D01*
X306038285Y-93173619D01*
X306228761Y-93173619D01*
X306304952Y-93135523D01*
X306343047Y-93097428D01*
X306381142Y-93021238D01*
X306381142Y-92868857D01*
X306343047Y-92792666D01*
X306304952Y-92754571D01*
X306228761Y-92716476D01*
X316845904Y-94697428D02*
X316045904Y-94697428D01*
X316045904Y-94506952D01*
X316084000Y-94392666D01*
X316160190Y-94316476D01*
X316236380Y-94278380D01*
X316388761Y-94240285D01*
X316503047Y-94240285D01*
X316655428Y-94278380D01*
X316731619Y-94316476D01*
X316807809Y-94392666D01*
X316845904Y-94506952D01*
X316845904Y-94697428D01*
X316312571Y-93554571D02*
X316845904Y-93554571D01*
X316007809Y-93745047D02*
X316579238Y-93935523D01*
X316579238Y-93440285D01*
X316045904Y-92983142D02*
X316045904Y-92906952D01*
X316084000Y-92830761D01*
X316122095Y-92792666D01*
X316198285Y-92754571D01*
X316350666Y-92716476D01*
X316541142Y-92716476D01*
X316693523Y-92754571D01*
X316769714Y-92792666D01*
X316807809Y-92830761D01*
X316845904Y-92906952D01*
X316845904Y-92983142D01*
X316807809Y-93059333D01*
X316769714Y-93097428D01*
X316693523Y-93135523D01*
X316541142Y-93173619D01*
X316350666Y-93173619D01*
X316198285Y-93135523D01*
X316122095Y-93097428D01*
X316084000Y-93059333D01*
X316045904Y-92983142D01*
X327005904Y-94697428D02*
X326205904Y-94697428D01*
X326205904Y-94506952D01*
X326244000Y-94392666D01*
X326320190Y-94316476D01*
X326396380Y-94278380D01*
X326548761Y-94240285D01*
X326663047Y-94240285D01*
X326815428Y-94278380D01*
X326891619Y-94316476D01*
X326967809Y-94392666D01*
X327005904Y-94506952D01*
X327005904Y-94697428D01*
X326472571Y-93554571D02*
X327005904Y-93554571D01*
X326167809Y-93745047D02*
X326739238Y-93935523D01*
X326739238Y-93440285D01*
X327005904Y-92716476D02*
X327005904Y-93173619D01*
X327005904Y-92945047D02*
X326205904Y-92945047D01*
X326320190Y-93021238D01*
X326396380Y-93097428D01*
X326434476Y-93173619D01*
X347325904Y-94697428D02*
X346525904Y-94697428D01*
X346525904Y-94506952D01*
X346564000Y-94392666D01*
X346640190Y-94316476D01*
X346716380Y-94278380D01*
X346868761Y-94240285D01*
X346983047Y-94240285D01*
X347135428Y-94278380D01*
X347211619Y-94316476D01*
X347287809Y-94392666D01*
X347325904Y-94506952D01*
X347325904Y-94697428D01*
X346792571Y-93554571D02*
X347325904Y-93554571D01*
X346487809Y-93745047D02*
X347059238Y-93935523D01*
X347059238Y-93440285D01*
X346602095Y-93173619D02*
X346564000Y-93135523D01*
X346525904Y-93059333D01*
X346525904Y-92868857D01*
X346564000Y-92792666D01*
X346602095Y-92754571D01*
X346678285Y-92716476D01*
X346754476Y-92716476D01*
X346868761Y-92754571D01*
X347325904Y-93211714D01*
X347325904Y-92716476D01*
X357485904Y-94697428D02*
X356685904Y-94697428D01*
X356685904Y-94506952D01*
X356724000Y-94392666D01*
X356800190Y-94316476D01*
X356876380Y-94278380D01*
X357028761Y-94240285D01*
X357143047Y-94240285D01*
X357295428Y-94278380D01*
X357371619Y-94316476D01*
X357447809Y-94392666D01*
X357485904Y-94506952D01*
X357485904Y-94697428D01*
X356952571Y-93554571D02*
X357485904Y-93554571D01*
X356647809Y-93745047D02*
X357219238Y-93935523D01*
X357219238Y-93440285D01*
X356685904Y-93211714D02*
X356685904Y-92716476D01*
X356990666Y-92983142D01*
X356990666Y-92868857D01*
X357028761Y-92792666D01*
X357066857Y-92754571D01*
X357143047Y-92716476D01*
X357333523Y-92716476D01*
X357409714Y-92754571D01*
X357447809Y-92792666D01*
X357485904Y-92868857D01*
X357485904Y-93097428D01*
X357447809Y-93173619D01*
X357409714Y-93211714D01*
X248265904Y-96729428D02*
X247465904Y-96729428D01*
X247465904Y-96538952D01*
X247504000Y-96424666D01*
X247580190Y-96348476D01*
X247656380Y-96310380D01*
X247808761Y-96272285D01*
X247923047Y-96272285D01*
X248075428Y-96310380D01*
X248151619Y-96348476D01*
X248227809Y-96424666D01*
X248265904Y-96538952D01*
X248265904Y-96729428D01*
X247732571Y-95586571D02*
X248265904Y-95586571D01*
X247427809Y-95777047D02*
X247999238Y-95967523D01*
X247999238Y-95472285D01*
X247465904Y-95243714D02*
X247465904Y-94710380D01*
X248265904Y-95053238D01*
X258425904Y-96729428D02*
X257625904Y-96729428D01*
X257625904Y-96538952D01*
X257664000Y-96424666D01*
X257740190Y-96348476D01*
X257816380Y-96310380D01*
X257968761Y-96272285D01*
X258083047Y-96272285D01*
X258235428Y-96310380D01*
X258311619Y-96348476D01*
X258387809Y-96424666D01*
X258425904Y-96538952D01*
X258425904Y-96729428D01*
X257892571Y-95586571D02*
X258425904Y-95586571D01*
X257587809Y-95777047D02*
X258159238Y-95967523D01*
X258159238Y-95472285D01*
X257968761Y-95053238D02*
X257930666Y-95129428D01*
X257892571Y-95167523D01*
X257816380Y-95205619D01*
X257778285Y-95205619D01*
X257702095Y-95167523D01*
X257664000Y-95129428D01*
X257625904Y-95053238D01*
X257625904Y-94900857D01*
X257664000Y-94824666D01*
X257702095Y-94786571D01*
X257778285Y-94748476D01*
X257816380Y-94748476D01*
X257892571Y-94786571D01*
X257930666Y-94824666D01*
X257968761Y-94900857D01*
X257968761Y-95053238D01*
X258006857Y-95129428D01*
X258044952Y-95167523D01*
X258121142Y-95205619D01*
X258273523Y-95205619D01*
X258349714Y-95167523D01*
X258387809Y-95129428D01*
X258425904Y-95053238D01*
X258425904Y-94900857D01*
X258387809Y-94824666D01*
X258349714Y-94786571D01*
X258273523Y-94748476D01*
X258121142Y-94748476D01*
X258044952Y-94786571D01*
X258006857Y-94824666D01*
X257968761Y-94900857D01*
X268585904Y-96729428D02*
X267785904Y-96729428D01*
X267785904Y-96538952D01*
X267824000Y-96424666D01*
X267900190Y-96348476D01*
X267976380Y-96310380D01*
X268128761Y-96272285D01*
X268243047Y-96272285D01*
X268395428Y-96310380D01*
X268471619Y-96348476D01*
X268547809Y-96424666D01*
X268585904Y-96538952D01*
X268585904Y-96729428D01*
X268052571Y-95586571D02*
X268585904Y-95586571D01*
X267747809Y-95777047D02*
X268319238Y-95967523D01*
X268319238Y-95472285D01*
X268585904Y-95129428D02*
X268585904Y-94977047D01*
X268547809Y-94900857D01*
X268509714Y-94862761D01*
X268395428Y-94786571D01*
X268243047Y-94748476D01*
X267938285Y-94748476D01*
X267862095Y-94786571D01*
X267824000Y-94824666D01*
X267785904Y-94900857D01*
X267785904Y-95053238D01*
X267824000Y-95129428D01*
X267862095Y-95167523D01*
X267938285Y-95205619D01*
X268128761Y-95205619D01*
X268204952Y-95167523D01*
X268243047Y-95129428D01*
X268281142Y-95053238D01*
X268281142Y-94900857D01*
X268243047Y-94824666D01*
X268204952Y-94786571D01*
X268128761Y-94748476D01*
X278745904Y-96729428D02*
X277945904Y-96729428D01*
X277945904Y-96538952D01*
X277984000Y-96424666D01*
X278060190Y-96348476D01*
X278136380Y-96310380D01*
X278288761Y-96272285D01*
X278403047Y-96272285D01*
X278555428Y-96310380D01*
X278631619Y-96348476D01*
X278707809Y-96424666D01*
X278745904Y-96538952D01*
X278745904Y-96729428D01*
X277945904Y-95548476D02*
X277945904Y-95929428D01*
X278326857Y-95967523D01*
X278288761Y-95929428D01*
X278250666Y-95853238D01*
X278250666Y-95662761D01*
X278288761Y-95586571D01*
X278326857Y-95548476D01*
X278403047Y-95510380D01*
X278593523Y-95510380D01*
X278669714Y-95548476D01*
X278707809Y-95586571D01*
X278745904Y-95662761D01*
X278745904Y-95853238D01*
X278707809Y-95929428D01*
X278669714Y-95967523D01*
X277945904Y-95015142D02*
X277945904Y-94938952D01*
X277984000Y-94862761D01*
X278022095Y-94824666D01*
X278098285Y-94786571D01*
X278250666Y-94748476D01*
X278441142Y-94748476D01*
X278593523Y-94786571D01*
X278669714Y-94824666D01*
X278707809Y-94862761D01*
X278745904Y-94938952D01*
X278745904Y-95015142D01*
X278707809Y-95091333D01*
X278669714Y-95129428D01*
X278593523Y-95167523D01*
X278441142Y-95205619D01*
X278250666Y-95205619D01*
X278098285Y-95167523D01*
X278022095Y-95129428D01*
X277984000Y-95091333D01*
X277945904Y-95015142D01*
X288905904Y-96729428D02*
X288105904Y-96729428D01*
X288105904Y-96538952D01*
X288144000Y-96424666D01*
X288220190Y-96348476D01*
X288296380Y-96310380D01*
X288448761Y-96272285D01*
X288563047Y-96272285D01*
X288715428Y-96310380D01*
X288791619Y-96348476D01*
X288867809Y-96424666D01*
X288905904Y-96538952D01*
X288905904Y-96729428D01*
X288105904Y-95548476D02*
X288105904Y-95929428D01*
X288486857Y-95967523D01*
X288448761Y-95929428D01*
X288410666Y-95853238D01*
X288410666Y-95662761D01*
X288448761Y-95586571D01*
X288486857Y-95548476D01*
X288563047Y-95510380D01*
X288753523Y-95510380D01*
X288829714Y-95548476D01*
X288867809Y-95586571D01*
X288905904Y-95662761D01*
X288905904Y-95853238D01*
X288867809Y-95929428D01*
X288829714Y-95967523D01*
X288905904Y-94748476D02*
X288905904Y-95205619D01*
X288905904Y-94977047D02*
X288105904Y-94977047D01*
X288220190Y-95053238D01*
X288296380Y-95129428D01*
X288334476Y-95205619D01*
X299065904Y-96729428D02*
X298265904Y-96729428D01*
X298265904Y-96538952D01*
X298304000Y-96424666D01*
X298380190Y-96348476D01*
X298456380Y-96310380D01*
X298608761Y-96272285D01*
X298723047Y-96272285D01*
X298875428Y-96310380D01*
X298951619Y-96348476D01*
X299027809Y-96424666D01*
X299065904Y-96538952D01*
X299065904Y-96729428D01*
X298265904Y-95548476D02*
X298265904Y-95929428D01*
X298646857Y-95967523D01*
X298608761Y-95929428D01*
X298570666Y-95853238D01*
X298570666Y-95662761D01*
X298608761Y-95586571D01*
X298646857Y-95548476D01*
X298723047Y-95510380D01*
X298913523Y-95510380D01*
X298989714Y-95548476D01*
X299027809Y-95586571D01*
X299065904Y-95662761D01*
X299065904Y-95853238D01*
X299027809Y-95929428D01*
X298989714Y-95967523D01*
X298342095Y-95205619D02*
X298304000Y-95167523D01*
X298265904Y-95091333D01*
X298265904Y-94900857D01*
X298304000Y-94824666D01*
X298342095Y-94786571D01*
X298418285Y-94748476D01*
X298494476Y-94748476D01*
X298608761Y-94786571D01*
X299065904Y-95243714D01*
X299065904Y-94748476D01*
X309225904Y-96729428D02*
X308425904Y-96729428D01*
X308425904Y-96538952D01*
X308464000Y-96424666D01*
X308540190Y-96348476D01*
X308616380Y-96310380D01*
X308768761Y-96272285D01*
X308883047Y-96272285D01*
X309035428Y-96310380D01*
X309111619Y-96348476D01*
X309187809Y-96424666D01*
X309225904Y-96538952D01*
X309225904Y-96729428D01*
X308425904Y-95548476D02*
X308425904Y-95929428D01*
X308806857Y-95967523D01*
X308768761Y-95929428D01*
X308730666Y-95853238D01*
X308730666Y-95662761D01*
X308768761Y-95586571D01*
X308806857Y-95548476D01*
X308883047Y-95510380D01*
X309073523Y-95510380D01*
X309149714Y-95548476D01*
X309187809Y-95586571D01*
X309225904Y-95662761D01*
X309225904Y-95853238D01*
X309187809Y-95929428D01*
X309149714Y-95967523D01*
X308425904Y-95243714D02*
X308425904Y-94748476D01*
X308730666Y-95015142D01*
X308730666Y-94900857D01*
X308768761Y-94824666D01*
X308806857Y-94786571D01*
X308883047Y-94748476D01*
X309073523Y-94748476D01*
X309149714Y-94786571D01*
X309187809Y-94824666D01*
X309225904Y-94900857D01*
X309225904Y-95129428D01*
X309187809Y-95205619D01*
X309149714Y-95243714D01*
X319385904Y-96729428D02*
X318585904Y-96729428D01*
X318585904Y-96538952D01*
X318624000Y-96424666D01*
X318700190Y-96348476D01*
X318776380Y-96310380D01*
X318928761Y-96272285D01*
X319043047Y-96272285D01*
X319195428Y-96310380D01*
X319271619Y-96348476D01*
X319347809Y-96424666D01*
X319385904Y-96538952D01*
X319385904Y-96729428D01*
X318585904Y-95548476D02*
X318585904Y-95929428D01*
X318966857Y-95967523D01*
X318928761Y-95929428D01*
X318890666Y-95853238D01*
X318890666Y-95662761D01*
X318928761Y-95586571D01*
X318966857Y-95548476D01*
X319043047Y-95510380D01*
X319233523Y-95510380D01*
X319309714Y-95548476D01*
X319347809Y-95586571D01*
X319385904Y-95662761D01*
X319385904Y-95853238D01*
X319347809Y-95929428D01*
X319309714Y-95967523D01*
X318852571Y-94824666D02*
X319385904Y-94824666D01*
X318547809Y-95015142D02*
X319119238Y-95205619D01*
X319119238Y-94710380D01*
X329545904Y-96729428D02*
X328745904Y-96729428D01*
X328745904Y-96538952D01*
X328784000Y-96424666D01*
X328860190Y-96348476D01*
X328936380Y-96310380D01*
X329088761Y-96272285D01*
X329203047Y-96272285D01*
X329355428Y-96310380D01*
X329431619Y-96348476D01*
X329507809Y-96424666D01*
X329545904Y-96538952D01*
X329545904Y-96729428D01*
X328745904Y-95548476D02*
X328745904Y-95929428D01*
X329126857Y-95967523D01*
X329088761Y-95929428D01*
X329050666Y-95853238D01*
X329050666Y-95662761D01*
X329088761Y-95586571D01*
X329126857Y-95548476D01*
X329203047Y-95510380D01*
X329393523Y-95510380D01*
X329469714Y-95548476D01*
X329507809Y-95586571D01*
X329545904Y-95662761D01*
X329545904Y-95853238D01*
X329507809Y-95929428D01*
X329469714Y-95967523D01*
X328745904Y-94786571D02*
X328745904Y-95167523D01*
X329126857Y-95205619D01*
X329088761Y-95167523D01*
X329050666Y-95091333D01*
X329050666Y-94900857D01*
X329088761Y-94824666D01*
X329126857Y-94786571D01*
X329203047Y-94748476D01*
X329393523Y-94748476D01*
X329469714Y-94786571D01*
X329507809Y-94824666D01*
X329545904Y-94900857D01*
X329545904Y-95091333D01*
X329507809Y-95167523D01*
X329469714Y-95205619D01*
X349865904Y-96729428D02*
X349065904Y-96729428D01*
X349065904Y-96538952D01*
X349104000Y-96424666D01*
X349180190Y-96348476D01*
X349256380Y-96310380D01*
X349408761Y-96272285D01*
X349523047Y-96272285D01*
X349675428Y-96310380D01*
X349751619Y-96348476D01*
X349827809Y-96424666D01*
X349865904Y-96538952D01*
X349865904Y-96729428D01*
X349065904Y-95548476D02*
X349065904Y-95929428D01*
X349446857Y-95967523D01*
X349408761Y-95929428D01*
X349370666Y-95853238D01*
X349370666Y-95662761D01*
X349408761Y-95586571D01*
X349446857Y-95548476D01*
X349523047Y-95510380D01*
X349713523Y-95510380D01*
X349789714Y-95548476D01*
X349827809Y-95586571D01*
X349865904Y-95662761D01*
X349865904Y-95853238D01*
X349827809Y-95929428D01*
X349789714Y-95967523D01*
X349065904Y-95243714D02*
X349065904Y-94710380D01*
X349865904Y-95053238D01*
X360025904Y-95593428D02*
X359225904Y-95593428D01*
X359225904Y-95402952D01*
X359264000Y-95288666D01*
X359340190Y-95212476D01*
X359416380Y-95174380D01*
X359568761Y-95136285D01*
X359683047Y-95136285D01*
X359835428Y-95174380D01*
X359911619Y-95212476D01*
X359987809Y-95288666D01*
X360025904Y-95402952D01*
X360025904Y-95593428D01*
X359225904Y-94412476D02*
X359225904Y-94793428D01*
X359606857Y-94831523D01*
X359568761Y-94793428D01*
X359530666Y-94717238D01*
X359530666Y-94526761D01*
X359568761Y-94450571D01*
X359606857Y-94412476D01*
X359683047Y-94374380D01*
X359873523Y-94374380D01*
X359949714Y-94412476D01*
X359987809Y-94450571D01*
X360025904Y-94526761D01*
X360025904Y-94717238D01*
X359987809Y-94793428D01*
X359949714Y-94831523D01*
X359568761Y-93917238D02*
X359530666Y-93993428D01*
X359492571Y-94031523D01*
X359416380Y-94069619D01*
X359378285Y-94069619D01*
X359302095Y-94031523D01*
X359264000Y-93993428D01*
X359225904Y-93917238D01*
X359225904Y-93764857D01*
X359264000Y-93688666D01*
X359302095Y-93650571D01*
X359378285Y-93612476D01*
X359416380Y-93612476D01*
X359492571Y-93650571D01*
X359530666Y-93688666D01*
X359568761Y-93764857D01*
X359568761Y-93917238D01*
X359606857Y-93993428D01*
X359644952Y-94031523D01*
X359721142Y-94069619D01*
X359873523Y-94069619D01*
X359949714Y-94031523D01*
X359987809Y-93993428D01*
X360025904Y-93917238D01*
X360025904Y-93764857D01*
X359987809Y-93688666D01*
X359949714Y-93650571D01*
X359873523Y-93612476D01*
X359721142Y-93612476D01*
X359644952Y-93650571D01*
X359606857Y-93688666D01*
X359568761Y-93764857D01*
X107100857Y-86288571D02*
X107243714Y-86336190D01*
X107291333Y-86383809D01*
X107338952Y-86479047D01*
X107338952Y-86621904D01*
X107291333Y-86717142D01*
X107243714Y-86764761D01*
X107148476Y-86812380D01*
X106767523Y-86812380D01*
X106767523Y-85812380D01*
X107100857Y-85812380D01*
X107196095Y-85860000D01*
X107243714Y-85907619D01*
X107291333Y-86002857D01*
X107291333Y-86098095D01*
X107243714Y-86193333D01*
X107196095Y-86240952D01*
X107100857Y-86288571D01*
X106767523Y-86288571D01*
X107958000Y-85812380D02*
X108148476Y-85812380D01*
X108243714Y-85860000D01*
X108338952Y-85955238D01*
X108386571Y-86145714D01*
X108386571Y-86479047D01*
X108338952Y-86669523D01*
X108243714Y-86764761D01*
X108148476Y-86812380D01*
X107958000Y-86812380D01*
X107862761Y-86764761D01*
X107767523Y-86669523D01*
X107719904Y-86479047D01*
X107719904Y-86145714D01*
X107767523Y-85955238D01*
X107862761Y-85860000D01*
X107958000Y-85812380D01*
X109005619Y-85812380D02*
X109196095Y-85812380D01*
X109291333Y-85860000D01*
X109386571Y-85955238D01*
X109434190Y-86145714D01*
X109434190Y-86479047D01*
X109386571Y-86669523D01*
X109291333Y-86764761D01*
X109196095Y-86812380D01*
X109005619Y-86812380D01*
X108910380Y-86764761D01*
X108815142Y-86669523D01*
X108767523Y-86479047D01*
X108767523Y-86145714D01*
X108815142Y-85955238D01*
X108910380Y-85860000D01*
X109005619Y-85812380D01*
X109719904Y-85812380D02*
X110291333Y-85812380D01*
X110005619Y-86812380D02*
X110005619Y-85812380D01*
X118153904Y-78982380D02*
X118153904Y-79791904D01*
X118201523Y-79887142D01*
X118249142Y-79934761D01*
X118344380Y-79982380D01*
X118534857Y-79982380D01*
X118630095Y-79934761D01*
X118677714Y-79887142D01*
X118725333Y-79791904D01*
X118725333Y-78982380D01*
X119153904Y-79934761D02*
X119296761Y-79982380D01*
X119534857Y-79982380D01*
X119630095Y-79934761D01*
X119677714Y-79887142D01*
X119725333Y-79791904D01*
X119725333Y-79696666D01*
X119677714Y-79601428D01*
X119630095Y-79553809D01*
X119534857Y-79506190D01*
X119344380Y-79458571D01*
X119249142Y-79410952D01*
X119201523Y-79363333D01*
X119153904Y-79268095D01*
X119153904Y-79172857D01*
X119201523Y-79077619D01*
X119249142Y-79030000D01*
X119344380Y-78982380D01*
X119582476Y-78982380D01*
X119725333Y-79030000D01*
X120487238Y-79458571D02*
X120630095Y-79506190D01*
X120677714Y-79553809D01*
X120725333Y-79649047D01*
X120725333Y-79791904D01*
X120677714Y-79887142D01*
X120630095Y-79934761D01*
X120534857Y-79982380D01*
X120153904Y-79982380D01*
X120153904Y-78982380D01*
X120487238Y-78982380D01*
X120582476Y-79030000D01*
X120630095Y-79077619D01*
X120677714Y-79172857D01*
X120677714Y-79268095D01*
X120630095Y-79363333D01*
X120582476Y-79410952D01*
X120487238Y-79458571D01*
X120153904Y-79458571D01*
X121677714Y-79982380D02*
X121106285Y-79982380D01*
X121392000Y-79982380D02*
X121392000Y-78982380D01*
X121296761Y-79125238D01*
X121201523Y-79220476D01*
X121106285Y-79268095D01*
M02*
