M48
INCH,TZ
T1C0.0157
T2C0.0236
T3C0.0276
T4C0.0315
T5C0.0354
T6C0.0400
T7C0.0433
T8C0.0591
T9C0.0866
%
G90
G05
T1
X29500Y-26600
X35400Y-43500
X37700Y-65500
X41227Y-28780
X41229Y-29302
X41561Y-28780
X41563Y-29302
X41896Y-28780
X41898Y-29302
X42231Y-28780
X42233Y-29302
X42300Y-29900
X42565Y-28780
X42567Y-29302
X42800Y-29912
X42900Y-28780
X42900Y-43500
X42902Y-29302
X43235Y-28780
X43237Y-29302
X43571Y-28780
X43571Y-29302
X45700Y-42800
X46700Y-32877
X46700Y-32200
X48300Y-30800
X48775Y-31275
X50400Y-43500
X52600Y-29945
X53200Y-42800
X53600Y-30300
X54600Y-30600
X57100Y-32100
X57900Y-43500
X60600Y-42800
X65400Y-43500
X68100Y-42800
X68900Y-31000
X69400Y-31000
X69900Y-30000
X69900Y-31000
X69900Y-30500
X72900Y-43500
X75600Y-42800
X80300Y-43500
X81300Y-30900
X83100Y-42800
X85300Y-30900
X87800Y-43500
X89300Y-30900
X90600Y-42800
X93300Y-30900
X95380Y-43500
X97300Y-30900
X98100Y-42800
X101300Y-30900
X102900Y-43500
X105300Y-30900
X109300Y-30900
X110400Y-43500
X113300Y-30900
X117300Y-30900
X117900Y-43500
X121200Y-30900
X127400Y-43500
X139630Y-28900
T2
X32785Y-30709
X32785Y-31300
T3
X40300Y-30600
X40300Y-32608
X47284Y-26814
X47284Y-27795
X47284Y-28787
X47284Y-29800
X47284Y-30782
X47284Y-31763
X47284Y-32700
X49284Y-26814
X49284Y-27795
X49284Y-28787
X49284Y-29800
X49284Y-30782
X49284Y-31763
X49284Y-32700
T4
X26900Y-56500
X26900Y-64000
X28900Y-56500
X28900Y-64000
X31831Y-32500
X33800Y-32500
X39500Y-64100
X41500Y-64100
X41731Y-30600
X43200Y-64100
X43700Y-30600
X44938Y-30704
X44938Y-32704
X45200Y-64100
X46067Y-30704
X46067Y-32704
X50600Y-26700
X50600Y-32700
X51600Y-26700
X51600Y-32700
X52600Y-26700
X52600Y-32700
X53600Y-26700
X53600Y-32700
X54600Y-26700
X54600Y-32700
X55600Y-26700
X55600Y-32700
X56600Y-26700
X56600Y-32700
X57600Y-26700
X57600Y-32700
X58600Y-26700
X58600Y-32700
X59600Y-26700
X59600Y-32700
X60600Y-26700
X60600Y-32700
X61600Y-26700
X61600Y-32700
X62600Y-26700
X62600Y-32700
X63600Y-26700
X63600Y-32700
X64600Y-26700
X64600Y-32700
X65600Y-26700
X65600Y-32700
X66600Y-26700
X66600Y-32700
X67600Y-26700
X67600Y-32700
X68600Y-26700
X68600Y-32700
X69600Y-26700
X69600Y-32700
X70900Y-64000
X72900Y-64000
X73708Y-27000
X73708Y-33000
X74200Y-29043
X74200Y-30965
X74692Y-27000
X74692Y-33000
X78300Y-27400
X78300Y-29400
X79300Y-28187
X79300Y-30187
X80300Y-29000
X80300Y-31000
X81300Y-29800
X81300Y-31800
X82300Y-27400
X82300Y-29400
X83300Y-28187
X83300Y-30187
X84300Y-29000
X84300Y-31000
X85300Y-29800
X85300Y-31800
X86300Y-27400
X86300Y-29400
X87300Y-28187
X87300Y-30187
X88300Y-29000
X88300Y-31000
X89300Y-29800
X89300Y-31800
X90300Y-27400
X90300Y-29400
X91300Y-28187
X91300Y-30187
X92300Y-29000
X92300Y-31000
X93300Y-29800
X93300Y-31800
X94300Y-27400
X94300Y-29400
X95300Y-28187
X95300Y-30187
X96300Y-29000
X96300Y-31000
X97300Y-29800
X97300Y-31800
X98300Y-27400
X98300Y-29400
X99300Y-28187
X99300Y-30187
X100200Y-64200
X100300Y-29000
X100300Y-31000
X101300Y-29800
X101300Y-31800
X102200Y-64200
X102300Y-27400
X102300Y-29400
X103300Y-28187
X103300Y-30187
X104300Y-29000
X104300Y-31000
X105300Y-29800
X105300Y-31800
X106000Y-64100
X106300Y-27400
X106300Y-29400
X107300Y-28187
X107300Y-30187
X108000Y-64100
X108300Y-29000
X108300Y-31000
X109300Y-29800
X109300Y-31800
X110300Y-27400
X110300Y-29400
X111300Y-28187
X111300Y-30187
X112300Y-29000
X112300Y-31000
X113300Y-29800
X113300Y-31800
X113400Y-64100
X114315Y-27400
X114315Y-29400
X115300Y-28187
X115300Y-30187
X115400Y-64100
X116300Y-29000
X116300Y-31000
X117300Y-29800
X117300Y-31800
X118300Y-27400
X118300Y-29400
X119300Y-28187
X119300Y-30187
X120300Y-29000
X120300Y-31000
X121000Y-64100
X121300Y-29800
X121300Y-31800
X122300Y-27400
X122300Y-29400
X123000Y-64100
X123300Y-28187
X123300Y-30187
X124300Y-29000
X124300Y-31000
X125300Y-29800
X125300Y-31800
X126300Y-27400
X126300Y-29400
X127300Y-28187
X127300Y-30187
X128400Y-64200
X129300Y-29800
X129300Y-31800
X130300Y-27400
X130300Y-29400
X130400Y-64200
X131300Y-28187
X131300Y-30187
X132300Y-29000
X132300Y-31000
X133300Y-29800
X133300Y-31800
X134300Y-27400
X134300Y-29400
X135300Y-28187
X135300Y-30187
X135900Y-64200
X136300Y-29000
X136300Y-31000
X137300Y-29800
X137300Y-31800
X137900Y-64200
T5
X45200Y-27100
X46200Y-27100
T6
X41700Y-31700
X41700Y-32700
X42700Y-31700
X42700Y-32700
X43700Y-31700
X43700Y-32700
T7
X32600Y-26900
X32600Y-28672
X35159Y-26900
X35159Y-28672
X36600Y-26900
X36600Y-28672
X39159Y-26900
X39159Y-28672
T8
X23438Y-28800
X23438Y-36313
X24375Y-66309
X24375Y-51309
X24375Y-58813
X25312Y-66309
X25313Y-43813
X25938Y-27800
X25938Y-35313
X26250Y-51309
X26875Y-65309
X26875Y-50309
X26875Y-57813
X27812Y-65309
X27813Y-42813
X28125Y-58813
X28750Y-50309
X30625Y-57813
X30938Y-36313
X32813Y-58813
X33438Y-35313
X33750Y-66313
X34688Y-43813
X35313Y-57813
X36250Y-65313
X36563Y-51313
X36572Y-66311
X37188Y-42813
X38438Y-36313
X39063Y-50313
X39072Y-65311
X40313Y-58813
X40938Y-35313
X42188Y-43813
X42813Y-57813
X43125Y-66309
X44063Y-51313
X44688Y-42813
X45625Y-65309
X45938Y-36313
X46563Y-50313
X47813Y-58813
X48438Y-35313
X49688Y-43813
X50313Y-57813
X51563Y-51313
X52188Y-42813
X53438Y-36313
X54063Y-50313
X55313Y-58813
X55938Y-35313
X57188Y-43813
X57813Y-57813
X59062Y-51313
X59688Y-42813
X60938Y-36313
X61562Y-50313
X62813Y-58813
X63438Y-35313
X64688Y-43813
X65313Y-57813
X66562Y-51313
X67188Y-42813
X68438Y-36313
X68448Y-66316
X69062Y-50313
X70313Y-58813
X70938Y-35313
X70948Y-65316
X71250Y-66313
X72188Y-43813
X72813Y-57813
X73750Y-65313
X74062Y-51313
X74688Y-42813
X75938Y-36313
X76562Y-50313
X77813Y-58813
X78438Y-35313
X79688Y-43813
X80313Y-57813
X81562Y-51313
X82188Y-42813
X83438Y-36313
X84062Y-50313
X85313Y-58813
X85938Y-35313
X87188Y-43813
X87813Y-57813
X89062Y-51313
X89688Y-42813
X90938Y-36313
X91562Y-50313
X92813Y-58813
X93438Y-35313
X94688Y-43813
X95313Y-57813
X96562Y-51313
X97188Y-42813
X98438Y-36313
X98449Y-66309
X99062Y-50313
X100313Y-58813
X100328Y-66313
X100938Y-35313
X100949Y-65309
X102188Y-43813
X102813Y-57813
X102828Y-65313
X104062Y-51313
X104688Y-42813
X105938Y-36313
X105951Y-66313
X106562Y-50313
X107813Y-58813
X108438Y-35313
X108451Y-65313
X109688Y-43813
X110313Y-57813
X111562Y-51313
X111571Y-66313
X112188Y-42813
X113438Y-36313
X113453Y-66309
X114062Y-50313
X114071Y-65313
X115938Y-35313
X115953Y-65309
X117188Y-43813
X118125Y-58813
X119063Y-51313
X119688Y-42813
X120625Y-57813
X120938Y-66313
X121563Y-50313
X123438Y-65313
X123750Y-51313
X124688Y-36313
X126250Y-50313
X126562Y-43813
X127188Y-35313
X127500Y-47563
X128438Y-58813
X128438Y-66313
X129062Y-42813
X130000Y-46563
X130938Y-57813
X130938Y-65313
X135938Y-36313
X135938Y-43813
X135938Y-51313
X135938Y-58813
X135938Y-66313
X138438Y-35313
X138438Y-42813
X138438Y-50313
X138438Y-57813
X138438Y-65313
T9
X24000Y-48600
X30100Y-27600
X30100Y-32200
X37400Y-63300
X42400Y-41000
X76400Y-27600
X76400Y-32200
X77600Y-42600
X81186Y-65732
X117587Y-41064
X124500Y-63444
X139600Y-27600
X139600Y-32200
T2
G00X40697Y-27743
M15
G01X40697Y-27428
M16
G05
G00X40697Y-29211
M15
G01X40697Y-28620
M16
G05
G00X44103Y-27743
M15
G01X44103Y-27428
M16
G05
G00X44103Y-29211
M15
G01X44103Y-28620
M16
G05
T0
M30
