G04 #@! TF.GenerationSoftware,KiCad,Pcbnew,(5.1.9)-1*
G04 #@! TF.CreationDate,2021-07-01T11:32:35-04:00*
G04 #@! TF.ProjectId,discipline-pcb,64697363-6970-46c6-996e-652d7063622e,rev?*
G04 #@! TF.SameCoordinates,Original*
G04 #@! TF.FileFunction,Soldermask,Bot*
G04 #@! TF.FilePolarity,Negative*
%FSLAX46Y46*%
G04 Gerber Fmt 4.6, Leading zero omitted, Abs format (unit mm)*
G04 Created by KiCad (PCBNEW (5.1.9)-1) date 2021-07-01 11:32:35*
%MOMM*%
%LPD*%
G01*
G04 APERTURE LIST*
%ADD10C,0.125000*%
%ADD11C,0.350000*%
%ADD12C,0.400000*%
%ADD13C,4.400000*%
%ADD14O,1.600000X1.600000*%
%ADD15R,1.600000X1.600000*%
%ADD16C,1.700000*%
%ADD17C,4.000000*%
%ADD18C,2.200000*%
%ADD19C,1.500000*%
%ADD20R,1.800000X1.800000*%
%ADD21C,1.800000*%
%ADD22C,1.600000*%
%ADD23C,1.200000*%
%ADD24R,1.200000X1.200000*%
%ADD25C,3.050000*%
%ADD26C,1.400000*%
%ADD27O,1.400000X1.400000*%
%ADD28R,1.700000X1.700000*%
%ADD29O,0.900000X1.700000*%
%ADD30O,0.900000X2.400000*%
%ADD31O,0.650000X1.000000*%
%ADD32C,2.000000*%
%ADD33C,3.048000*%
%ADD34C,3.987800*%
G04 APERTURE END LIST*
D10*
X160683758Y-173858180D02*
X160683758Y-173334371D01*
X160707568Y-173239133D01*
X160755187Y-173191514D01*
X160850425Y-173191514D01*
X160898044Y-173239133D01*
X160683758Y-173810561D02*
X160731377Y-173858180D01*
X160850425Y-173858180D01*
X160898044Y-173810561D01*
X160921854Y-173715323D01*
X160921854Y-173620085D01*
X160898044Y-173524847D01*
X160850425Y-173477228D01*
X160731377Y-173477228D01*
X160683758Y-173429609D01*
X160231377Y-173858180D02*
X160231377Y-172858180D01*
X160231377Y-173810561D02*
X160278997Y-173858180D01*
X160374235Y-173858180D01*
X160421854Y-173810561D01*
X160445663Y-173762942D01*
X160469473Y-173667704D01*
X160469473Y-173381990D01*
X160445663Y-173286752D01*
X160421854Y-173239133D01*
X160374235Y-173191514D01*
X160278997Y-173191514D01*
X160231377Y-173239133D01*
X159778997Y-173858180D02*
X159778997Y-173334371D01*
X159802806Y-173239133D01*
X159850425Y-173191514D01*
X159945663Y-173191514D01*
X159993282Y-173239133D01*
X159778997Y-173810561D02*
X159826616Y-173858180D01*
X159945663Y-173858180D01*
X159993282Y-173810561D01*
X160017092Y-173715323D01*
X160017092Y-173620085D01*
X159993282Y-173524847D01*
X159945663Y-173477228D01*
X159826616Y-173477228D01*
X159778997Y-173429609D01*
X159540901Y-173191514D02*
X159540901Y-174191514D01*
X159540901Y-173239133D02*
X159493282Y-173191514D01*
X159398044Y-173191514D01*
X159350425Y-173239133D01*
X159326616Y-173286752D01*
X159302806Y-173381990D01*
X159302806Y-173667704D01*
X159326616Y-173762942D01*
X159350425Y-173810561D01*
X159398044Y-173858180D01*
X159493282Y-173858180D01*
X159540901Y-173810561D01*
X159159949Y-173191514D02*
X158969473Y-173191514D01*
X159088520Y-172858180D02*
X159088520Y-173715323D01*
X159064711Y-173810561D01*
X159017092Y-173858180D01*
X158969473Y-173858180D01*
X158612330Y-173810561D02*
X158659949Y-173858180D01*
X158755187Y-173858180D01*
X158802806Y-173810561D01*
X158826616Y-173715323D01*
X158826616Y-173334371D01*
X158802806Y-173239133D01*
X158755187Y-173191514D01*
X158659949Y-173191514D01*
X158612330Y-173239133D01*
X158588520Y-173334371D01*
X158588520Y-173429609D01*
X158826616Y-173524847D01*
X158159949Y-173858180D02*
X158159949Y-172858180D01*
X158159949Y-173810561D02*
X158207568Y-173858180D01*
X158302806Y-173858180D01*
X158350425Y-173810561D01*
X158374235Y-173762942D01*
X158398044Y-173667704D01*
X158398044Y-173381990D01*
X158374235Y-173286752D01*
X158350425Y-173239133D01*
X158302806Y-173191514D01*
X158207568Y-173191514D01*
X158159949Y-173239133D01*
X157612330Y-173191514D02*
X157421854Y-173191514D01*
X157540901Y-173858180D02*
X157540901Y-173001038D01*
X157517092Y-172905800D01*
X157469473Y-172858180D01*
X157421854Y-172858180D01*
X157255187Y-173858180D02*
X157255187Y-173191514D01*
X157255187Y-173381990D02*
X157231377Y-173286752D01*
X157207568Y-173239133D01*
X157159949Y-173191514D01*
X157112330Y-173191514D01*
X156874235Y-173858180D02*
X156921854Y-173810561D01*
X156945663Y-173762942D01*
X156969473Y-173667704D01*
X156969473Y-173381990D01*
X156945663Y-173286752D01*
X156921854Y-173239133D01*
X156874235Y-173191514D01*
X156802806Y-173191514D01*
X156755187Y-173239133D01*
X156731377Y-173286752D01*
X156707568Y-173381990D01*
X156707568Y-173667704D01*
X156731377Y-173762942D01*
X156755187Y-173810561D01*
X156802806Y-173858180D01*
X156874235Y-173858180D01*
X156493282Y-173858180D02*
X156493282Y-173191514D01*
X156493282Y-173286752D02*
X156469473Y-173239133D01*
X156421854Y-173191514D01*
X156350425Y-173191514D01*
X156302806Y-173239133D01*
X156278997Y-173334371D01*
X156278997Y-173858180D01*
X156278997Y-173334371D02*
X156255187Y-173239133D01*
X156207568Y-173191514D01*
X156136139Y-173191514D01*
X156088520Y-173239133D01*
X156064711Y-173334371D01*
X156064711Y-173858180D01*
X155231377Y-173810561D02*
X155278997Y-173858180D01*
X155374235Y-173858180D01*
X155421854Y-173810561D01*
X155445663Y-173762942D01*
X155469473Y-173667704D01*
X155469473Y-173381990D01*
X155445663Y-173286752D01*
X155421854Y-173239133D01*
X155374235Y-173191514D01*
X155278997Y-173191514D01*
X155231377Y-173239133D01*
X154945663Y-173858180D02*
X154993282Y-173810561D01*
X155017092Y-173762942D01*
X155040901Y-173667704D01*
X155040901Y-173381990D01*
X155017092Y-173286752D01*
X154993282Y-173239133D01*
X154945663Y-173191514D01*
X154874235Y-173191514D01*
X154826616Y-173239133D01*
X154802806Y-173286752D01*
X154778997Y-173381990D01*
X154778997Y-173667704D01*
X154802806Y-173762942D01*
X154826616Y-173810561D01*
X154874235Y-173858180D01*
X154945663Y-173858180D01*
X154588520Y-173810561D02*
X154540901Y-173858180D01*
X154445663Y-173858180D01*
X154398044Y-173810561D01*
X154374235Y-173715323D01*
X154374235Y-173667704D01*
X154398044Y-173572466D01*
X154445663Y-173524847D01*
X154517092Y-173524847D01*
X154564711Y-173477228D01*
X154588520Y-173381990D01*
X154588520Y-173334371D01*
X154564711Y-173239133D01*
X154517092Y-173191514D01*
X154445663Y-173191514D01*
X154398044Y-173239133D01*
X153969473Y-173810561D02*
X154017092Y-173858180D01*
X154112330Y-173858180D01*
X154159949Y-173810561D01*
X154183758Y-173715323D01*
X154183758Y-173334371D01*
X154159949Y-173239133D01*
X154112330Y-173191514D01*
X154017092Y-173191514D01*
X153969473Y-173239133D01*
X153945663Y-173334371D01*
X153945663Y-173429609D01*
X154183758Y-173524847D01*
X153778997Y-173191514D02*
X153659949Y-173858180D01*
X153540901Y-173191514D02*
X153659949Y-173858180D01*
X153707568Y-174096276D01*
X153731377Y-174143895D01*
X153778997Y-174191514D01*
X153421854Y-173191514D02*
X153231377Y-173191514D01*
X153350425Y-173858180D02*
X153350425Y-173001038D01*
X153326616Y-172905800D01*
X153278997Y-172858180D01*
X153231377Y-172858180D01*
X152850425Y-173858180D02*
X152850425Y-173334371D01*
X152874235Y-173239133D01*
X152921854Y-173191514D01*
X153017092Y-173191514D01*
X153064711Y-173239133D01*
X152850425Y-173810561D02*
X152898044Y-173858180D01*
X153017092Y-173858180D01*
X153064711Y-173810561D01*
X153088520Y-173715323D01*
X153088520Y-173620085D01*
X153064711Y-173524847D01*
X153017092Y-173477228D01*
X152898044Y-173477228D01*
X152850425Y-173429609D01*
X152612330Y-173191514D02*
X152612330Y-173858180D01*
X152612330Y-173286752D02*
X152588520Y-173239133D01*
X152540901Y-173191514D01*
X152469473Y-173191514D01*
X152421854Y-173239133D01*
X152398044Y-173334371D01*
X152398044Y-173858180D01*
X152159949Y-173191514D02*
X152159949Y-173858180D01*
X152159949Y-173286752D02*
X152136139Y-173239133D01*
X152088520Y-173191514D01*
X152017092Y-173191514D01*
X151969473Y-173239133D01*
X151945663Y-173334371D01*
X151945663Y-173858180D01*
X151707568Y-173858180D02*
X151707568Y-173191514D01*
X151707568Y-172858180D02*
X151731377Y-172905800D01*
X151707568Y-172953419D01*
X151683758Y-172905800D01*
X151707568Y-172858180D01*
X151707568Y-172953419D01*
X151540901Y-173191514D02*
X151350425Y-173191514D01*
X151469473Y-172858180D02*
X151469473Y-173715323D01*
X151445663Y-173810561D01*
X151398044Y-173858180D01*
X151350425Y-173858180D01*
X150969473Y-173191514D02*
X150969473Y-173858180D01*
X151183758Y-173191514D02*
X151183758Y-173715323D01*
X151159949Y-173810561D01*
X151112330Y-173858180D01*
X151040901Y-173858180D01*
X150993282Y-173810561D01*
X150969473Y-173762942D01*
X150802806Y-173191514D02*
X150612330Y-173191514D01*
X150731377Y-172858180D02*
X150731377Y-173715323D01*
X150707568Y-173810561D01*
X150659949Y-173858180D01*
X150612330Y-173858180D01*
X150517092Y-173191514D02*
X150326616Y-173191514D01*
X150445663Y-172858180D02*
X150445663Y-173715323D01*
X150421854Y-173810561D01*
X150374235Y-173858180D01*
X150326616Y-173858180D01*
X150159949Y-173858180D02*
X150159949Y-173191514D01*
X150159949Y-172858180D02*
X150183758Y-172905800D01*
X150159949Y-172953419D01*
X150136139Y-172905800D01*
X150159949Y-172858180D01*
X150159949Y-172953419D01*
X161493282Y-172588180D02*
X161564711Y-172540561D01*
X161600425Y-172445323D01*
X161600425Y-171588180D01*
X161100425Y-172588180D02*
X161171854Y-172540561D01*
X161207568Y-172492942D01*
X161243282Y-172397704D01*
X161243282Y-172111990D01*
X161207568Y-172016752D01*
X161171854Y-171969133D01*
X161100425Y-171921514D01*
X160993282Y-171921514D01*
X160921854Y-171969133D01*
X160886139Y-172016752D01*
X160850425Y-172111990D01*
X160850425Y-172397704D01*
X160886139Y-172492942D01*
X160921854Y-172540561D01*
X160993282Y-172588180D01*
X161100425Y-172588180D01*
X160636139Y-171921514D02*
X160350425Y-171921514D01*
X160528997Y-171588180D02*
X160528997Y-172445323D01*
X160493282Y-172540561D01*
X160421854Y-172588180D01*
X160350425Y-172588180D01*
X160100425Y-172588180D02*
X160100425Y-171921514D01*
X160100425Y-171588180D02*
X160136139Y-171635800D01*
X160100425Y-171683419D01*
X160064711Y-171635800D01*
X160100425Y-171588180D01*
X160100425Y-171683419D01*
X159457568Y-172540561D02*
X159528997Y-172588180D01*
X159671854Y-172588180D01*
X159743282Y-172540561D01*
X159778997Y-172445323D01*
X159778997Y-172064371D01*
X159743282Y-171969133D01*
X159671854Y-171921514D01*
X159528997Y-171921514D01*
X159457568Y-171969133D01*
X159421854Y-172064371D01*
X159421854Y-172159609D01*
X159778997Y-172254847D01*
X159100425Y-172588180D02*
X159100425Y-171921514D01*
X159100425Y-172111990D02*
X159064711Y-172016752D01*
X159028997Y-171969133D01*
X158957568Y-171921514D01*
X158886139Y-171921514D01*
X158100425Y-171683419D02*
X158064711Y-171635800D01*
X157993282Y-171588180D01*
X157814711Y-171588180D01*
X157743282Y-171635800D01*
X157707568Y-171683419D01*
X157671854Y-171778657D01*
X157671854Y-171873895D01*
X157707568Y-172016752D01*
X158136139Y-172588180D01*
X157671854Y-172588180D01*
X157207568Y-171588180D02*
X157136139Y-171588180D01*
X157064711Y-171635800D01*
X157028997Y-171683419D01*
X156993282Y-171778657D01*
X156957568Y-171969133D01*
X156957568Y-172207228D01*
X156993282Y-172397704D01*
X157028997Y-172492942D01*
X157064711Y-172540561D01*
X157136139Y-172588180D01*
X157207568Y-172588180D01*
X157278997Y-172540561D01*
X157314711Y-172492942D01*
X157350425Y-172397704D01*
X157386139Y-172207228D01*
X157386139Y-171969133D01*
X157350425Y-171778657D01*
X157314711Y-171683419D01*
X157278997Y-171635800D01*
X157207568Y-171588180D01*
X156671854Y-171683419D02*
X156636139Y-171635800D01*
X156564711Y-171588180D01*
X156386139Y-171588180D01*
X156314711Y-171635800D01*
X156278997Y-171683419D01*
X156243282Y-171778657D01*
X156243282Y-171873895D01*
X156278997Y-172016752D01*
X156707568Y-172588180D01*
X156243282Y-172588180D01*
X155528997Y-172588180D02*
X155957568Y-172588180D01*
X155743282Y-172588180D02*
X155743282Y-171588180D01*
X155814711Y-171731038D01*
X155886139Y-171826276D01*
X155957568Y-171873895D01*
X154636139Y-172207228D02*
X154064711Y-172207228D01*
X153136139Y-172588180D02*
X153136139Y-171921514D01*
X153136139Y-172111990D02*
X153100425Y-172016752D01*
X153064711Y-171969133D01*
X152993282Y-171921514D01*
X152921854Y-171921514D01*
X152386139Y-172540561D02*
X152457568Y-172588180D01*
X152600425Y-172588180D01*
X152671854Y-172540561D01*
X152707568Y-172445323D01*
X152707568Y-172064371D01*
X152671854Y-171969133D01*
X152600425Y-171921514D01*
X152457568Y-171921514D01*
X152386139Y-171969133D01*
X152350425Y-172064371D01*
X152350425Y-172159609D01*
X152707568Y-172254847D01*
X152100425Y-171921514D02*
X151921854Y-172588180D01*
X151743282Y-171921514D01*
X150493282Y-172588180D02*
X150921854Y-172588180D01*
X150707568Y-172588180D02*
X150707568Y-171588180D01*
X150778997Y-171731038D01*
X150850425Y-171826276D01*
X150921854Y-171873895D01*
X150171854Y-172492942D02*
X150136139Y-172540561D01*
X150171854Y-172588180D01*
X150207568Y-172540561D01*
X150171854Y-172492942D01*
X150171854Y-172588180D01*
X149671854Y-171588180D02*
X149600425Y-171588180D01*
X149528997Y-171635800D01*
X149493282Y-171683419D01*
X149457568Y-171778657D01*
X149421854Y-171969133D01*
X149421854Y-172207228D01*
X149457568Y-172397704D01*
X149493282Y-172492942D01*
X149528997Y-172540561D01*
X149600425Y-172588180D01*
X149671854Y-172588180D01*
X149743282Y-172540561D01*
X149778997Y-172492942D01*
X149814711Y-172397704D01*
X149850425Y-172207228D01*
X149850425Y-171969133D01*
X149814711Y-171778657D01*
X149778997Y-171683419D01*
X149743282Y-171635800D01*
X149671854Y-171588180D01*
D11*
X166242763Y-167586971D02*
X166242763Y-165586971D01*
X165290382Y-165586971D01*
X164718953Y-165682210D01*
X164338001Y-165872686D01*
X164147524Y-166063162D01*
X163957048Y-166444114D01*
X163957048Y-166729829D01*
X164147524Y-167110781D01*
X164338001Y-167301257D01*
X164718953Y-167491733D01*
X165290382Y-167586971D01*
X166242763Y-167586971D01*
X162242763Y-166539352D02*
X160909429Y-166539352D01*
X160338001Y-167586971D02*
X162242763Y-167586971D01*
X162242763Y-165586971D01*
X160338001Y-165586971D01*
X156718953Y-167586971D02*
X158623715Y-167586971D01*
X158623715Y-165586971D01*
X155385620Y-167586971D02*
X155385620Y-165586971D01*
X151385620Y-165682210D02*
X151766572Y-165586971D01*
X152338001Y-165586971D01*
X152909429Y-165682210D01*
X153290382Y-165872686D01*
X153480858Y-166063162D01*
X153671334Y-166444114D01*
X153671334Y-166729829D01*
X153480858Y-167110781D01*
X153290382Y-167301257D01*
X152909429Y-167491733D01*
X152338001Y-167586971D01*
X151957048Y-167586971D01*
X151385620Y-167491733D01*
X151195144Y-167396495D01*
X151195144Y-166729829D01*
X151957048Y-166729829D01*
X149480858Y-167586971D02*
X149480858Y-165586971D01*
X149480858Y-166539352D02*
X147195144Y-166539352D01*
X147195144Y-167586971D02*
X147195144Y-165586971D01*
X145861810Y-165586971D02*
X143576096Y-165586971D01*
X144718953Y-167586971D02*
X144718953Y-165586971D01*
D12*
X166325144Y-170202210D02*
X144025144Y-170202210D01*
X166305144Y-163522210D02*
X144025144Y-163522210D01*
X166335144Y-170202210D02*
G75*
G03*
X166335144Y-163522210I0J3340000D01*
G01*
X144035144Y-163522210D02*
G75*
G03*
X144035144Y-170202210I0J-3340000D01*
G01*
D13*
X354584000Y-81788000D03*
X354584000Y-70104000D03*
X194056000Y-81788000D03*
X76454000Y-70104000D03*
X76454000Y-81788000D03*
D14*
X328422000Y-80772000D03*
D15*
X328422000Y-75692000D03*
D14*
X128524000Y-67818000D03*
X176784000Y-83058000D03*
X131064000Y-67818000D03*
X174244000Y-83058000D03*
X133604000Y-67818000D03*
X171704000Y-83058000D03*
X136144000Y-67818000D03*
X169164000Y-83058000D03*
X138684000Y-67818000D03*
X166624000Y-83058000D03*
X141224000Y-67818000D03*
X164084000Y-83058000D03*
X143764000Y-67818000D03*
X161544000Y-83058000D03*
X146304000Y-67818000D03*
X159004000Y-83058000D03*
X148844000Y-67818000D03*
X156464000Y-83058000D03*
X151384000Y-67818000D03*
X153924000Y-83058000D03*
X153924000Y-67818000D03*
X151384000Y-83058000D03*
X156464000Y-67818000D03*
X148844000Y-83058000D03*
X159004000Y-67818000D03*
X146304000Y-83058000D03*
X161544000Y-67818000D03*
X143764000Y-83058000D03*
X164084000Y-67818000D03*
X141224000Y-83058000D03*
X166624000Y-67818000D03*
X138684000Y-83058000D03*
X169164000Y-67818000D03*
X136144000Y-83058000D03*
X171704000Y-67818000D03*
X133604000Y-83058000D03*
X174244000Y-67818000D03*
X131064000Y-83058000D03*
X176784000Y-67818000D03*
D15*
X128524000Y-83058000D03*
D16*
X68421250Y-75692000D03*
X58261250Y-75692000D03*
D17*
X63341250Y-75692000D03*
D18*
X59531250Y-73152000D03*
X65881250Y-70612000D03*
D19*
X188468000Y-78650000D03*
X188468000Y-73770000D03*
D14*
X211582000Y-76676000D03*
D15*
X211582000Y-71596000D03*
D14*
X214122000Y-78740000D03*
D15*
X214122000Y-73660000D03*
D14*
X216662000Y-80772000D03*
D15*
X216662000Y-75692000D03*
D14*
X203962000Y-78740000D03*
D15*
X203962000Y-73660000D03*
D14*
X201422000Y-76676000D03*
D15*
X201422000Y-71596000D03*
D14*
X206502000Y-80772000D03*
D15*
X206502000Y-75692000D03*
D16*
X73183750Y-113823750D03*
X63023750Y-113823750D03*
D17*
X68103750Y-113823750D03*
D18*
X64293750Y-111283750D03*
X70643750Y-108743750D03*
D20*
X117348000Y-68834000D03*
D21*
X114808000Y-68834000D03*
D18*
X237331250Y-89693750D03*
X230981250Y-92233750D03*
D17*
X234791250Y-94773750D03*
D16*
X229711250Y-94773750D03*
X239871250Y-94773750D03*
D13*
X60960000Y-123444000D03*
D18*
X123031250Y-89693750D03*
X116681250Y-92233750D03*
D17*
X120491250Y-94773750D03*
D16*
X115411250Y-94773750D03*
X125571250Y-94773750D03*
D14*
X209042000Y-74676000D03*
D15*
X209042000Y-69596000D03*
D14*
X68326000Y-143510000D03*
D15*
X73406000Y-143510000D03*
D14*
X219202000Y-74676000D03*
D15*
X219202000Y-69596000D03*
D14*
X229362000Y-74676000D03*
D15*
X229362000Y-69596000D03*
D14*
X221742000Y-76676000D03*
D15*
X221742000Y-71596000D03*
D14*
X231902000Y-76676000D03*
D15*
X231902000Y-71596000D03*
D14*
X224282000Y-78740000D03*
D15*
X224282000Y-73660000D03*
D14*
X100330000Y-162814000D03*
D15*
X105410000Y-162814000D03*
D14*
X226822000Y-80772000D03*
D15*
X226822000Y-75692000D03*
X198882000Y-69596000D03*
D14*
X198882000Y-74676000D03*
D22*
X110998000Y-77724000D03*
X105998000Y-77724000D03*
X85852000Y-82550000D03*
X80852000Y-82550000D03*
D23*
X83274214Y-78002000D03*
D24*
X83274214Y-79502000D03*
D22*
X187218000Y-68580000D03*
X189718000Y-68580000D03*
X187218000Y-83820000D03*
X189718000Y-83820000D03*
D18*
X68262500Y-146843750D03*
X61912500Y-149383750D03*
D17*
X65722500Y-151923750D03*
D16*
X60642500Y-151923750D03*
X70802500Y-151923750D03*
D18*
X308768750Y-127793750D03*
X302418750Y-130333750D03*
D17*
X306228750Y-132873750D03*
D16*
X301148750Y-132873750D03*
X311308750Y-132873750D03*
D18*
X330200000Y-118268750D03*
X323850000Y-120808750D03*
D17*
X327660000Y-123348750D03*
D16*
X322580000Y-123348750D03*
X332740000Y-123348750D03*
D17*
X319420000Y-135248750D03*
D25*
X334660000Y-111448750D03*
X334660000Y-135248750D03*
D17*
X319420000Y-111448750D03*
D18*
X89693750Y-146843750D03*
X83343750Y-149383750D03*
D17*
X87153750Y-151923750D03*
D16*
X82073750Y-151923750D03*
X92233750Y-151923750D03*
D18*
X275466206Y-165893750D03*
X269116206Y-168433750D03*
D17*
X272926206Y-170973750D03*
D16*
X267846206Y-170973750D03*
X278006206Y-170973750D03*
D18*
X256410884Y-165883620D03*
X250060884Y-168423620D03*
D17*
X253870884Y-170963620D03*
D16*
X248790884Y-170963620D03*
X258950884Y-170963620D03*
D26*
X125180316Y-80678982D03*
D27*
X120100316Y-80678982D03*
D26*
X125180316Y-78185517D03*
D27*
X120100316Y-78185517D03*
D26*
X125180316Y-75692052D03*
D27*
X120100316Y-75692052D03*
D26*
X120100316Y-73120211D03*
D27*
X125180316Y-73120211D03*
D26*
X120100316Y-70600499D03*
D27*
X125180316Y-70600499D03*
D26*
X120100316Y-68107034D03*
D27*
X125180316Y-68107034D03*
D26*
X125180316Y-83058000D03*
D27*
X120100316Y-83058000D03*
D13*
X194056000Y-70104000D03*
D16*
X292280128Y-170973750D03*
X282120128Y-170973750D03*
D17*
X287200128Y-170973750D03*
D18*
X283390128Y-168433750D03*
X289740128Y-165893750D03*
D16*
X263723936Y-170973750D03*
X253563936Y-170973750D03*
D17*
X258643936Y-170973750D03*
D18*
X254833936Y-168433750D03*
X261183936Y-165893750D03*
X180207573Y-165901640D03*
X173857573Y-168441640D03*
D17*
X177667573Y-170981640D03*
D16*
X172587573Y-170981640D03*
X182747573Y-170981640D03*
X101783031Y-170969819D03*
X91623031Y-170969819D03*
D17*
X96703031Y-170969819D03*
D18*
X92893031Y-168429819D03*
X99243031Y-165889819D03*
D16*
X73183700Y-170963620D03*
X63023700Y-170963620D03*
D17*
X68103700Y-170963620D03*
D18*
X64293700Y-168423620D03*
X70643700Y-165883620D03*
X68262500Y-127783620D03*
X61912500Y-130323620D03*
D17*
X65722500Y-132863620D03*
D16*
X60642500Y-132863620D03*
X70802500Y-132863620D03*
X105918000Y-83058000D03*
X105918000Y-80518000D03*
X108458000Y-83058000D03*
X108458000Y-80518000D03*
X110998000Y-83058000D03*
D28*
X110998000Y-80518000D03*
D18*
X323056250Y-89693750D03*
X316706250Y-92233750D03*
D17*
X320516250Y-94773750D03*
D16*
X315436250Y-94773750D03*
X325596250Y-94773750D03*
D17*
X332416250Y-103013750D03*
X308616250Y-103013750D03*
D25*
X308616250Y-87773750D03*
X332416250Y-87773750D03*
X330035250Y-125873750D03*
X306235250Y-125873750D03*
D17*
X306235250Y-141113750D03*
X330035250Y-141113750D03*
D16*
X323215250Y-132873750D03*
X313055250Y-132873750D03*
D17*
X318135250Y-132873750D03*
D18*
X314325250Y-130333750D03*
X320675250Y-127793750D03*
D25*
X87147450Y-144923750D03*
X63347450Y-144923750D03*
D17*
X63347450Y-160163750D03*
X87147450Y-160163750D03*
D16*
X80327450Y-151923750D03*
X70167450Y-151923750D03*
D17*
X75247450Y-151923750D03*
D18*
X71437450Y-149383750D03*
X77787450Y-146843750D03*
X68262450Y-165883620D03*
X61912450Y-168423620D03*
D17*
X65722450Y-170963620D03*
D16*
X60642450Y-170963620D03*
X70802450Y-170963620D03*
D18*
X92075050Y-165893750D03*
X85725050Y-168433750D03*
D17*
X89535050Y-170973750D03*
D16*
X84455050Y-170973750D03*
X94615050Y-170973750D03*
D18*
X115887450Y-165883620D03*
X109537450Y-168423620D03*
D17*
X113347450Y-170963620D03*
D16*
X108267450Y-170963620D03*
X118427450Y-170963620D03*
D18*
X73025050Y-127783620D03*
X66675050Y-130323620D03*
D17*
X70485050Y-132863620D03*
D16*
X65405050Y-132863620D03*
X75565050Y-132863620D03*
D18*
X306387250Y-146843750D03*
X300037250Y-149383750D03*
D17*
X303847250Y-151923750D03*
D16*
X298767250Y-151923750D03*
X308927250Y-151923750D03*
X330358250Y-113823750D03*
X320198250Y-113823750D03*
D17*
X325278250Y-113823750D03*
D18*
X321468250Y-111283750D03*
X327818250Y-108743750D03*
X294481250Y-89693750D03*
X288131250Y-92233750D03*
D17*
X291941250Y-94773750D03*
D16*
X286861250Y-94773750D03*
X297021250Y-94773750D03*
D18*
X132556250Y-108743750D03*
X126206250Y-111283750D03*
D17*
X130016250Y-113823750D03*
D16*
X124936250Y-113823750D03*
X135096250Y-113823750D03*
D18*
X65881250Y-89693750D03*
X59531250Y-92233750D03*
D17*
X63341250Y-94773750D03*
D16*
X58261250Y-94773750D03*
X68421250Y-94773750D03*
D18*
X84931250Y-89693750D03*
X78581250Y-92233750D03*
D17*
X82391250Y-94773750D03*
D16*
X77311250Y-94773750D03*
X87471250Y-94773750D03*
D18*
X103981250Y-89693750D03*
X97631250Y-92233750D03*
D17*
X101441250Y-94773750D03*
D16*
X96361250Y-94773750D03*
X106521250Y-94773750D03*
D18*
X142081250Y-89693750D03*
X135731250Y-92233750D03*
D17*
X139541250Y-94773750D03*
D16*
X134461250Y-94773750D03*
X144621250Y-94773750D03*
D18*
X161131250Y-89693750D03*
X154781250Y-92233750D03*
D17*
X158591250Y-94773750D03*
D16*
X153511250Y-94773750D03*
X163671250Y-94773750D03*
D18*
X180181250Y-89693750D03*
X173831250Y-92233750D03*
D17*
X177641250Y-94773750D03*
D16*
X172561250Y-94773750D03*
X182721250Y-94773750D03*
D18*
X199231250Y-89693750D03*
X192881250Y-92233750D03*
D17*
X196691250Y-94773750D03*
D16*
X191611250Y-94773750D03*
X201771250Y-94773750D03*
D18*
X218281250Y-89693750D03*
X211931250Y-92233750D03*
D17*
X215741250Y-94773750D03*
D16*
X210661250Y-94773750D03*
X220821250Y-94773750D03*
D18*
X256381250Y-89693750D03*
X250031250Y-92233750D03*
D17*
X253841250Y-94773750D03*
D16*
X248761250Y-94773750D03*
X258921250Y-94773750D03*
D18*
X275431250Y-89693750D03*
X269081250Y-92233750D03*
D17*
X272891250Y-94773750D03*
D16*
X267811250Y-94773750D03*
X277971250Y-94773750D03*
D18*
X351631250Y-89693750D03*
X345281250Y-92233750D03*
D17*
X349091250Y-94773750D03*
D16*
X344011250Y-94773750D03*
X354171250Y-94773750D03*
D18*
X94456250Y-108743750D03*
X88106250Y-111283750D03*
D17*
X91916250Y-113823750D03*
D16*
X86836250Y-113823750D03*
X96996250Y-113823750D03*
D18*
X113506250Y-108743750D03*
X107156250Y-111283750D03*
D17*
X110966250Y-113823750D03*
D16*
X105886250Y-113823750D03*
X116046250Y-113823750D03*
D18*
X151606250Y-108743750D03*
X145256250Y-111283750D03*
D17*
X149066250Y-113823750D03*
D16*
X143986250Y-113823750D03*
X154146250Y-113823750D03*
D18*
X170656250Y-108743750D03*
X164306250Y-111283750D03*
D17*
X168116250Y-113823750D03*
D16*
X163036250Y-113823750D03*
X173196250Y-113823750D03*
D18*
X189706250Y-108743750D03*
X183356250Y-111283750D03*
D17*
X187166250Y-113823750D03*
D16*
X182086250Y-113823750D03*
X192246250Y-113823750D03*
D18*
X208756250Y-108743750D03*
X202406250Y-111283750D03*
D17*
X206216250Y-113823750D03*
D16*
X201136250Y-113823750D03*
X211296250Y-113823750D03*
D18*
X227806250Y-108743750D03*
X221456250Y-111283750D03*
D17*
X225266250Y-113823750D03*
D16*
X220186250Y-113823750D03*
X230346250Y-113823750D03*
D18*
X246856250Y-108743750D03*
X240506250Y-111283750D03*
D17*
X244316250Y-113823750D03*
D16*
X239236250Y-113823750D03*
X249396250Y-113823750D03*
D18*
X265906250Y-108743750D03*
X259556250Y-111283750D03*
D17*
X263366250Y-113823750D03*
D16*
X258286250Y-113823750D03*
X268446250Y-113823750D03*
D18*
X284956250Y-108743750D03*
X278606250Y-111283750D03*
D17*
X282416250Y-113823750D03*
D16*
X277336250Y-113823750D03*
X287496250Y-113823750D03*
D18*
X304006250Y-108743750D03*
X297656250Y-111283750D03*
D17*
X301466250Y-113823750D03*
D16*
X296386250Y-113823750D03*
X306546250Y-113823750D03*
D18*
X351631250Y-108743750D03*
X345281250Y-111283750D03*
D17*
X349091250Y-113823750D03*
D16*
X344011250Y-113823750D03*
X354171250Y-113823750D03*
D18*
X99218750Y-127793750D03*
X92868750Y-130333750D03*
D17*
X96678750Y-132873750D03*
D16*
X91598750Y-132873750D03*
X101758750Y-132873750D03*
D18*
X118268750Y-127793750D03*
X111918750Y-130333750D03*
D17*
X115728750Y-132873750D03*
D16*
X110648750Y-132873750D03*
X120808750Y-132873750D03*
D18*
X137318750Y-127793750D03*
X130968750Y-130333750D03*
D17*
X134778750Y-132873750D03*
D16*
X129698750Y-132873750D03*
X139858750Y-132873750D03*
D18*
X156368250Y-127793750D03*
X150018250Y-130333750D03*
D17*
X153828250Y-132873750D03*
D16*
X148748250Y-132873750D03*
X158908250Y-132873750D03*
D18*
X175418250Y-127793750D03*
X169068250Y-130333750D03*
D17*
X172878250Y-132873750D03*
D16*
X167798250Y-132873750D03*
X177958250Y-132873750D03*
D18*
X194468250Y-127793750D03*
X188118250Y-130333750D03*
D17*
X191928250Y-132873750D03*
D16*
X186848250Y-132873750D03*
X197008250Y-132873750D03*
D18*
X213518250Y-127793750D03*
X207168250Y-130333750D03*
D17*
X210978250Y-132873750D03*
D16*
X205898250Y-132873750D03*
X216058250Y-132873750D03*
D18*
X232568250Y-127793750D03*
X226218250Y-130333750D03*
D17*
X230028250Y-132873750D03*
D16*
X224948250Y-132873750D03*
X235108250Y-132873750D03*
D18*
X251618250Y-127793750D03*
X245268250Y-130333750D03*
D17*
X249078250Y-132873750D03*
D16*
X243998250Y-132873750D03*
X254158250Y-132873750D03*
D18*
X270668250Y-127793750D03*
X264318250Y-130333750D03*
D17*
X268128250Y-132873750D03*
D16*
X263048250Y-132873750D03*
X273208250Y-132873750D03*
D18*
X289718250Y-127793750D03*
X283368250Y-130333750D03*
D17*
X287178250Y-132873750D03*
D16*
X282098250Y-132873750D03*
X292258250Y-132873750D03*
D18*
X351631250Y-127793750D03*
X345281250Y-130333750D03*
D17*
X349091250Y-132873750D03*
D16*
X344011250Y-132873750D03*
X354171250Y-132873750D03*
D18*
X108743750Y-146843750D03*
X102393750Y-149383750D03*
D17*
X106203750Y-151923750D03*
D16*
X101123750Y-151923750D03*
X111283750Y-151923750D03*
D18*
X127793750Y-146843750D03*
X121443750Y-149383750D03*
D17*
X125253750Y-151923750D03*
D16*
X120173750Y-151923750D03*
X130333750Y-151923750D03*
D18*
X146843750Y-146843750D03*
X140493750Y-149383750D03*
D17*
X144303750Y-151923750D03*
D16*
X139223750Y-151923750D03*
X149383750Y-151923750D03*
D18*
X165894250Y-146843750D03*
X159544250Y-149383750D03*
D17*
X163354250Y-151923750D03*
D16*
X158274250Y-151923750D03*
X168434250Y-151923750D03*
D18*
X184944250Y-146843750D03*
X178594250Y-149383750D03*
D17*
X182404250Y-151923750D03*
D16*
X177324250Y-151923750D03*
X187484250Y-151923750D03*
D18*
X203994250Y-146843750D03*
X197644250Y-149383750D03*
D17*
X201454250Y-151923750D03*
D16*
X196374250Y-151923750D03*
X206534250Y-151923750D03*
D18*
X223044250Y-146843750D03*
X216694250Y-149383750D03*
D17*
X220504250Y-151923750D03*
D16*
X215424250Y-151923750D03*
X225584250Y-151923750D03*
D18*
X242094250Y-146843750D03*
X235744250Y-149383750D03*
D17*
X239554250Y-151923750D03*
D16*
X234474250Y-151923750D03*
X244634250Y-151923750D03*
D18*
X261144250Y-146843750D03*
X254794250Y-149383750D03*
D17*
X258604250Y-151923750D03*
D16*
X253524250Y-151923750D03*
X263684250Y-151923750D03*
D18*
X280194250Y-146843750D03*
X273844250Y-149383750D03*
D17*
X277654250Y-151923750D03*
D16*
X272574250Y-151923750D03*
X282734250Y-151923750D03*
D18*
X332581250Y-146843750D03*
X326231250Y-149383750D03*
D17*
X330041250Y-151923750D03*
D16*
X324961250Y-151923750D03*
X335121250Y-151923750D03*
D18*
X351631250Y-146843750D03*
X345281250Y-149383750D03*
D17*
X349091250Y-151923750D03*
D16*
X344011250Y-151923750D03*
X354171250Y-151923750D03*
D18*
X187325250Y-165893750D03*
X180975250Y-168433750D03*
D17*
X184785250Y-170973750D03*
D16*
X179705250Y-170973750D03*
X189865250Y-170973750D03*
D18*
X313531250Y-165893750D03*
X307181250Y-168433750D03*
D17*
X310991250Y-170973750D03*
D16*
X305911250Y-170973750D03*
X316071250Y-170973750D03*
D18*
X332581250Y-165893750D03*
X326231250Y-168433750D03*
D17*
X330041250Y-170973750D03*
D16*
X324961250Y-170973750D03*
X335121250Y-170973750D03*
D18*
X351631250Y-165893750D03*
X345281250Y-168433750D03*
D17*
X349091250Y-170973750D03*
D16*
X344011250Y-170973750D03*
X354171250Y-170973750D03*
D18*
X294521528Y-165883620D03*
X288171528Y-168423620D03*
D17*
X291981528Y-170963620D03*
D16*
X286901528Y-170963620D03*
X297061528Y-170963620D03*
D29*
X103371000Y-70066000D03*
X112021000Y-70066000D03*
D30*
X103371000Y-73446000D03*
X112021000Y-73446000D03*
D31*
X104716000Y-73101000D03*
X105566000Y-73101000D03*
X106416000Y-73101000D03*
X107266000Y-73101000D03*
X108116000Y-73101000D03*
X108966000Y-73101000D03*
X109816000Y-73101000D03*
X110671000Y-73101000D03*
X104721000Y-74426000D03*
X105571000Y-74426000D03*
X106421000Y-74426000D03*
X107271000Y-74426000D03*
X108121000Y-74426000D03*
X109821000Y-74426000D03*
X110671000Y-74426000D03*
X108971000Y-74426000D03*
D26*
X102362000Y-82824000D03*
X102362000Y-77724000D03*
D32*
X92964000Y-72826000D03*
X92964000Y-68326000D03*
X99464000Y-72826000D03*
X99464000Y-68326000D03*
X82804000Y-72826000D03*
X82804000Y-68326000D03*
X89304000Y-72826000D03*
X89304000Y-68326000D03*
D14*
X239522000Y-74676000D03*
D15*
X239522000Y-69596000D03*
D14*
X249682000Y-74676000D03*
D15*
X249682000Y-69596000D03*
D14*
X259842000Y-74676000D03*
D15*
X259842000Y-69596000D03*
D14*
X270002000Y-74676000D03*
D15*
X270002000Y-69596000D03*
X280162000Y-69596000D03*
D14*
X280162000Y-74676000D03*
X290360736Y-74676000D03*
D15*
X290360736Y-69596000D03*
D14*
X300482000Y-74676000D03*
D15*
X300482000Y-69596000D03*
D14*
X310642000Y-74676000D03*
D15*
X310642000Y-69596000D03*
D14*
X320802000Y-74676000D03*
D15*
X320802000Y-69596000D03*
D14*
X330962000Y-74676000D03*
D15*
X330962000Y-69596000D03*
D14*
X341122000Y-74676000D03*
D15*
X341122000Y-69596000D03*
D14*
X242062000Y-76676000D03*
D15*
X242062000Y-71596000D03*
D14*
X252222000Y-76676000D03*
D15*
X252222000Y-71596000D03*
D14*
X262382000Y-76676000D03*
D15*
X262382000Y-71596000D03*
D14*
X272542000Y-76676000D03*
D15*
X272542000Y-71596000D03*
X282702000Y-71596000D03*
D14*
X282702000Y-76676000D03*
X292862000Y-76676000D03*
D15*
X292862000Y-71596000D03*
D14*
X303022000Y-76676000D03*
D15*
X303022000Y-71596000D03*
D14*
X313182000Y-76676000D03*
D15*
X313182000Y-71596000D03*
D14*
X323342000Y-76676000D03*
D15*
X323342000Y-71596000D03*
D14*
X333502000Y-76676000D03*
D15*
X333502000Y-71596000D03*
D14*
X343662000Y-76676000D03*
D15*
X343662000Y-71596000D03*
D14*
X234442000Y-78740000D03*
D15*
X234442000Y-73660000D03*
D14*
X244602000Y-78740000D03*
D15*
X244602000Y-73660000D03*
D14*
X254762000Y-78740000D03*
D15*
X254762000Y-73660000D03*
D14*
X264922000Y-78740000D03*
D15*
X264922000Y-73660000D03*
D14*
X275082000Y-78740000D03*
D15*
X275082000Y-73660000D03*
X285242000Y-73660000D03*
D14*
X285242000Y-78740000D03*
X295402000Y-78740000D03*
D15*
X295402000Y-73660000D03*
D14*
X305562000Y-78740000D03*
D15*
X305562000Y-73660000D03*
D14*
X315722000Y-78740000D03*
D15*
X315722000Y-73660000D03*
D14*
X336042000Y-78740000D03*
D15*
X336042000Y-73660000D03*
D14*
X346202000Y-78740000D03*
D15*
X346202000Y-73660000D03*
D14*
X236982000Y-80772000D03*
D15*
X236982000Y-75692000D03*
D14*
X247142000Y-80772000D03*
D15*
X247142000Y-75692000D03*
D14*
X257302000Y-80772000D03*
D15*
X257302000Y-75692000D03*
D14*
X267462000Y-80772000D03*
D15*
X267462000Y-75692000D03*
D14*
X277622000Y-80772000D03*
D15*
X277622000Y-75692000D03*
X287782000Y-75692000D03*
D14*
X287782000Y-80772000D03*
X297942000Y-80772000D03*
D15*
X297942000Y-75692000D03*
D14*
X308102000Y-80772000D03*
D15*
X308102000Y-75692000D03*
D14*
X318262000Y-80772000D03*
D15*
X318262000Y-75692000D03*
D14*
X338582000Y-80772000D03*
D15*
X338582000Y-75692000D03*
D14*
X348742000Y-80772000D03*
D15*
X348742000Y-75692000D03*
D14*
X68326000Y-162560000D03*
D15*
X73406000Y-162560000D03*
D14*
X109728000Y-162814000D03*
D15*
X114808000Y-162814000D03*
D14*
X180086000Y-162560000D03*
D15*
X185166000Y-162560000D03*
D14*
X254508000Y-163068000D03*
D15*
X259588000Y-163068000D03*
D14*
X269240000Y-162814000D03*
D15*
X274320000Y-162814000D03*
D14*
X307340000Y-162814000D03*
D15*
X312420000Y-162814000D03*
D14*
X326136000Y-163068000D03*
D15*
X331216000Y-163068000D03*
D14*
X345186000Y-163068000D03*
D15*
X350266000Y-163068000D03*
D14*
X288036000Y-162814000D03*
D15*
X293116000Y-162814000D03*
X117010982Y-77988196D03*
D14*
X117010982Y-83068196D03*
D15*
X114141310Y-77988196D03*
D14*
X114141310Y-83068196D03*
D33*
X134811423Y-177966640D03*
X234811223Y-177966640D03*
D34*
X134811423Y-162726640D03*
X234811223Y-162726640D03*
X234817573Y-162726640D03*
X120517573Y-162726640D03*
D33*
X234817573Y-177966640D03*
X120517573Y-177966640D03*
D13*
X206213345Y-166958110D03*
X197104000Y-108204000D03*
X298671968Y-104302994D03*
X107696000Y-104140000D03*
X316230000Y-161146960D03*
X94996000Y-160782000D03*
M02*
