G04 #@! TF.GenerationSoftware,KiCad,Pcbnew,(5.1.9)-1*
G04 #@! TF.CreationDate,2021-07-01T11:32:35-04:00*
G04 #@! TF.ProjectId,discipline-pcb,64697363-6970-46c6-996e-652d7063622e,rev?*
G04 #@! TF.SameCoordinates,Original*
G04 #@! TF.FileFunction,Soldermask,Top*
G04 #@! TF.FilePolarity,Negative*
%FSLAX46Y46*%
G04 Gerber Fmt 4.6, Leading zero omitted, Abs format (unit mm)*
G04 Created by KiCad (PCBNEW (5.1.9)-1) date 2021-07-01 11:32:35*
%MOMM*%
%LPD*%
G01*
G04 APERTURE LIST*
%ADD10C,0.125000*%
%ADD11C,0.350000*%
%ADD12C,0.400000*%
%ADD13C,4.400000*%
%ADD14O,1.600000X1.600000*%
%ADD15R,1.600000X1.600000*%
%ADD16C,1.700000*%
%ADD17C,4.000000*%
%ADD18C,2.200000*%
%ADD19C,1.500000*%
%ADD20R,1.800000X1.800000*%
%ADD21C,1.800000*%
%ADD22C,1.600000*%
%ADD23C,1.200000*%
%ADD24R,1.200000X1.200000*%
%ADD25C,3.050000*%
%ADD26C,1.400000*%
%ADD27O,1.400000X1.400000*%
%ADD28R,1.700000X1.700000*%
%ADD29O,0.900000X1.700000*%
%ADD30O,0.900000X2.400000*%
%ADD31O,0.650000X1.000000*%
%ADD32C,2.000000*%
%ADD33C,3.048000*%
%ADD34C,3.987800*%
G04 APERTURE END LIST*
D10*
X150186841Y-173858180D02*
X150186841Y-173334371D01*
X150163031Y-173239133D01*
X150115412Y-173191514D01*
X150020174Y-173191514D01*
X149972555Y-173239133D01*
X150186841Y-173810561D02*
X150139222Y-173858180D01*
X150020174Y-173858180D01*
X149972555Y-173810561D01*
X149948745Y-173715323D01*
X149948745Y-173620085D01*
X149972555Y-173524847D01*
X150020174Y-173477228D01*
X150139222Y-173477228D01*
X150186841Y-173429609D01*
X150639222Y-173858180D02*
X150639222Y-172858180D01*
X150639222Y-173810561D02*
X150591603Y-173858180D01*
X150496364Y-173858180D01*
X150448745Y-173810561D01*
X150424936Y-173762942D01*
X150401126Y-173667704D01*
X150401126Y-173381990D01*
X150424936Y-173286752D01*
X150448745Y-173239133D01*
X150496364Y-173191514D01*
X150591603Y-173191514D01*
X150639222Y-173239133D01*
X151091603Y-173858180D02*
X151091603Y-173334371D01*
X151067793Y-173239133D01*
X151020174Y-173191514D01*
X150924936Y-173191514D01*
X150877317Y-173239133D01*
X151091603Y-173810561D02*
X151043983Y-173858180D01*
X150924936Y-173858180D01*
X150877317Y-173810561D01*
X150853507Y-173715323D01*
X150853507Y-173620085D01*
X150877317Y-173524847D01*
X150924936Y-173477228D01*
X151043983Y-173477228D01*
X151091603Y-173429609D01*
X151329698Y-173191514D02*
X151329698Y-174191514D01*
X151329698Y-173239133D02*
X151377317Y-173191514D01*
X151472555Y-173191514D01*
X151520174Y-173239133D01*
X151543983Y-173286752D01*
X151567793Y-173381990D01*
X151567793Y-173667704D01*
X151543983Y-173762942D01*
X151520174Y-173810561D01*
X151472555Y-173858180D01*
X151377317Y-173858180D01*
X151329698Y-173810561D01*
X151710650Y-173191514D02*
X151901126Y-173191514D01*
X151782079Y-172858180D02*
X151782079Y-173715323D01*
X151805888Y-173810561D01*
X151853507Y-173858180D01*
X151901126Y-173858180D01*
X152258269Y-173810561D02*
X152210650Y-173858180D01*
X152115412Y-173858180D01*
X152067793Y-173810561D01*
X152043983Y-173715323D01*
X152043983Y-173334371D01*
X152067793Y-173239133D01*
X152115412Y-173191514D01*
X152210650Y-173191514D01*
X152258269Y-173239133D01*
X152282079Y-173334371D01*
X152282079Y-173429609D01*
X152043983Y-173524847D01*
X152710650Y-173858180D02*
X152710650Y-172858180D01*
X152710650Y-173810561D02*
X152663031Y-173858180D01*
X152567793Y-173858180D01*
X152520174Y-173810561D01*
X152496364Y-173762942D01*
X152472555Y-173667704D01*
X152472555Y-173381990D01*
X152496364Y-173286752D01*
X152520174Y-173239133D01*
X152567793Y-173191514D01*
X152663031Y-173191514D01*
X152710650Y-173239133D01*
X153258269Y-173191514D02*
X153448745Y-173191514D01*
X153329698Y-173858180D02*
X153329698Y-173001038D01*
X153353507Y-172905800D01*
X153401126Y-172858180D01*
X153448745Y-172858180D01*
X153615412Y-173858180D02*
X153615412Y-173191514D01*
X153615412Y-173381990D02*
X153639222Y-173286752D01*
X153663031Y-173239133D01*
X153710650Y-173191514D01*
X153758269Y-173191514D01*
X153996364Y-173858180D02*
X153948745Y-173810561D01*
X153924936Y-173762942D01*
X153901126Y-173667704D01*
X153901126Y-173381990D01*
X153924936Y-173286752D01*
X153948745Y-173239133D01*
X153996364Y-173191514D01*
X154067793Y-173191514D01*
X154115412Y-173239133D01*
X154139222Y-173286752D01*
X154163031Y-173381990D01*
X154163031Y-173667704D01*
X154139222Y-173762942D01*
X154115412Y-173810561D01*
X154067793Y-173858180D01*
X153996364Y-173858180D01*
X154377317Y-173858180D02*
X154377317Y-173191514D01*
X154377317Y-173286752D02*
X154401126Y-173239133D01*
X154448745Y-173191514D01*
X154520174Y-173191514D01*
X154567793Y-173239133D01*
X154591603Y-173334371D01*
X154591603Y-173858180D01*
X154591603Y-173334371D02*
X154615412Y-173239133D01*
X154663031Y-173191514D01*
X154734460Y-173191514D01*
X154782079Y-173239133D01*
X154805888Y-173334371D01*
X154805888Y-173858180D01*
X155639222Y-173810561D02*
X155591603Y-173858180D01*
X155496364Y-173858180D01*
X155448745Y-173810561D01*
X155424936Y-173762942D01*
X155401126Y-173667704D01*
X155401126Y-173381990D01*
X155424936Y-173286752D01*
X155448745Y-173239133D01*
X155496364Y-173191514D01*
X155591603Y-173191514D01*
X155639222Y-173239133D01*
X155924936Y-173858180D02*
X155877317Y-173810561D01*
X155853507Y-173762942D01*
X155829698Y-173667704D01*
X155829698Y-173381990D01*
X155853507Y-173286752D01*
X155877317Y-173239133D01*
X155924936Y-173191514D01*
X155996364Y-173191514D01*
X156043983Y-173239133D01*
X156067793Y-173286752D01*
X156091603Y-173381990D01*
X156091603Y-173667704D01*
X156067793Y-173762942D01*
X156043983Y-173810561D01*
X155996364Y-173858180D01*
X155924936Y-173858180D01*
X156282079Y-173810561D02*
X156329698Y-173858180D01*
X156424936Y-173858180D01*
X156472555Y-173810561D01*
X156496364Y-173715323D01*
X156496364Y-173667704D01*
X156472555Y-173572466D01*
X156424936Y-173524847D01*
X156353507Y-173524847D01*
X156305888Y-173477228D01*
X156282079Y-173381990D01*
X156282079Y-173334371D01*
X156305888Y-173239133D01*
X156353507Y-173191514D01*
X156424936Y-173191514D01*
X156472555Y-173239133D01*
X156901126Y-173810561D02*
X156853507Y-173858180D01*
X156758269Y-173858180D01*
X156710650Y-173810561D01*
X156686841Y-173715323D01*
X156686841Y-173334371D01*
X156710650Y-173239133D01*
X156758269Y-173191514D01*
X156853507Y-173191514D01*
X156901126Y-173239133D01*
X156924936Y-173334371D01*
X156924936Y-173429609D01*
X156686841Y-173524847D01*
X157091603Y-173191514D02*
X157210650Y-173858180D01*
X157329698Y-173191514D02*
X157210650Y-173858180D01*
X157163031Y-174096276D01*
X157139222Y-174143895D01*
X157091603Y-174191514D01*
X157448745Y-173191514D02*
X157639222Y-173191514D01*
X157520174Y-173858180D02*
X157520174Y-173001038D01*
X157543983Y-172905800D01*
X157591603Y-172858180D01*
X157639222Y-172858180D01*
X158020174Y-173858180D02*
X158020174Y-173334371D01*
X157996364Y-173239133D01*
X157948745Y-173191514D01*
X157853507Y-173191514D01*
X157805888Y-173239133D01*
X158020174Y-173810561D02*
X157972555Y-173858180D01*
X157853507Y-173858180D01*
X157805888Y-173810561D01*
X157782079Y-173715323D01*
X157782079Y-173620085D01*
X157805888Y-173524847D01*
X157853507Y-173477228D01*
X157972555Y-173477228D01*
X158020174Y-173429609D01*
X158258269Y-173191514D02*
X158258269Y-173858180D01*
X158258269Y-173286752D02*
X158282079Y-173239133D01*
X158329698Y-173191514D01*
X158401126Y-173191514D01*
X158448745Y-173239133D01*
X158472555Y-173334371D01*
X158472555Y-173858180D01*
X158710650Y-173191514D02*
X158710650Y-173858180D01*
X158710650Y-173286752D02*
X158734460Y-173239133D01*
X158782079Y-173191514D01*
X158853507Y-173191514D01*
X158901126Y-173239133D01*
X158924936Y-173334371D01*
X158924936Y-173858180D01*
X159163031Y-173858180D02*
X159163031Y-173191514D01*
X159163031Y-172858180D02*
X159139222Y-172905800D01*
X159163031Y-172953419D01*
X159186841Y-172905800D01*
X159163031Y-172858180D01*
X159163031Y-172953419D01*
X159329698Y-173191514D02*
X159520174Y-173191514D01*
X159401126Y-172858180D02*
X159401126Y-173715323D01*
X159424936Y-173810561D01*
X159472555Y-173858180D01*
X159520174Y-173858180D01*
X159901126Y-173191514D02*
X159901126Y-173858180D01*
X159686841Y-173191514D02*
X159686841Y-173715323D01*
X159710650Y-173810561D01*
X159758269Y-173858180D01*
X159829698Y-173858180D01*
X159877317Y-173810561D01*
X159901126Y-173762942D01*
X160067793Y-173191514D02*
X160258269Y-173191514D01*
X160139222Y-172858180D02*
X160139222Y-173715323D01*
X160163031Y-173810561D01*
X160210650Y-173858180D01*
X160258269Y-173858180D01*
X160353507Y-173191514D02*
X160543983Y-173191514D01*
X160424936Y-172858180D02*
X160424936Y-173715323D01*
X160448745Y-173810561D01*
X160496364Y-173858180D01*
X160543983Y-173858180D01*
X160710650Y-173858180D02*
X160710650Y-173191514D01*
X160710650Y-172858180D02*
X160686841Y-172905800D01*
X160710650Y-172953419D01*
X160734460Y-172905800D01*
X160710650Y-172858180D01*
X160710650Y-172953419D01*
X149377317Y-172588180D02*
X149305888Y-172540561D01*
X149270174Y-172445323D01*
X149270174Y-171588180D01*
X149770174Y-172588180D02*
X149698745Y-172540561D01*
X149663031Y-172492942D01*
X149627317Y-172397704D01*
X149627317Y-172111990D01*
X149663031Y-172016752D01*
X149698745Y-171969133D01*
X149770174Y-171921514D01*
X149877317Y-171921514D01*
X149948745Y-171969133D01*
X149984460Y-172016752D01*
X150020174Y-172111990D01*
X150020174Y-172397704D01*
X149984460Y-172492942D01*
X149948745Y-172540561D01*
X149877317Y-172588180D01*
X149770174Y-172588180D01*
X150234460Y-171921514D02*
X150520174Y-171921514D01*
X150341603Y-171588180D02*
X150341603Y-172445323D01*
X150377317Y-172540561D01*
X150448745Y-172588180D01*
X150520174Y-172588180D01*
X150770174Y-172588180D02*
X150770174Y-171921514D01*
X150770174Y-171588180D02*
X150734460Y-171635800D01*
X150770174Y-171683419D01*
X150805888Y-171635800D01*
X150770174Y-171588180D01*
X150770174Y-171683419D01*
X151413031Y-172540561D02*
X151341603Y-172588180D01*
X151198745Y-172588180D01*
X151127317Y-172540561D01*
X151091603Y-172445323D01*
X151091603Y-172064371D01*
X151127317Y-171969133D01*
X151198745Y-171921514D01*
X151341603Y-171921514D01*
X151413031Y-171969133D01*
X151448745Y-172064371D01*
X151448745Y-172159609D01*
X151091603Y-172254847D01*
X151770174Y-172588180D02*
X151770174Y-171921514D01*
X151770174Y-172111990D02*
X151805888Y-172016752D01*
X151841603Y-171969133D01*
X151913031Y-171921514D01*
X151984460Y-171921514D01*
X152770174Y-171683419D02*
X152805888Y-171635800D01*
X152877317Y-171588180D01*
X153055888Y-171588180D01*
X153127317Y-171635800D01*
X153163031Y-171683419D01*
X153198745Y-171778657D01*
X153198745Y-171873895D01*
X153163031Y-172016752D01*
X152734460Y-172588180D01*
X153198745Y-172588180D01*
X153663031Y-171588180D02*
X153734460Y-171588180D01*
X153805888Y-171635800D01*
X153841603Y-171683419D01*
X153877317Y-171778657D01*
X153913031Y-171969133D01*
X153913031Y-172207228D01*
X153877317Y-172397704D01*
X153841603Y-172492942D01*
X153805888Y-172540561D01*
X153734460Y-172588180D01*
X153663031Y-172588180D01*
X153591603Y-172540561D01*
X153555888Y-172492942D01*
X153520174Y-172397704D01*
X153484460Y-172207228D01*
X153484460Y-171969133D01*
X153520174Y-171778657D01*
X153555888Y-171683419D01*
X153591603Y-171635800D01*
X153663031Y-171588180D01*
X154198745Y-171683419D02*
X154234460Y-171635800D01*
X154305888Y-171588180D01*
X154484460Y-171588180D01*
X154555888Y-171635800D01*
X154591603Y-171683419D01*
X154627317Y-171778657D01*
X154627317Y-171873895D01*
X154591603Y-172016752D01*
X154163031Y-172588180D01*
X154627317Y-172588180D01*
X155341603Y-172588180D02*
X154913031Y-172588180D01*
X155127317Y-172588180D02*
X155127317Y-171588180D01*
X155055888Y-171731038D01*
X154984460Y-171826276D01*
X154913031Y-171873895D01*
X156234460Y-172207228D02*
X156805888Y-172207228D01*
X157734460Y-172588180D02*
X157734460Y-171921514D01*
X157734460Y-172111990D02*
X157770174Y-172016752D01*
X157805888Y-171969133D01*
X157877317Y-171921514D01*
X157948745Y-171921514D01*
X158484460Y-172540561D02*
X158413031Y-172588180D01*
X158270174Y-172588180D01*
X158198745Y-172540561D01*
X158163031Y-172445323D01*
X158163031Y-172064371D01*
X158198745Y-171969133D01*
X158270174Y-171921514D01*
X158413031Y-171921514D01*
X158484460Y-171969133D01*
X158520174Y-172064371D01*
X158520174Y-172159609D01*
X158163031Y-172254847D01*
X158770174Y-171921514D02*
X158948745Y-172588180D01*
X159127317Y-171921514D01*
X160377317Y-172588180D02*
X159948745Y-172588180D01*
X160163031Y-172588180D02*
X160163031Y-171588180D01*
X160091603Y-171731038D01*
X160020174Y-171826276D01*
X159948745Y-171873895D01*
X160698745Y-172492942D02*
X160734460Y-172540561D01*
X160698745Y-172588180D01*
X160663031Y-172540561D01*
X160698745Y-172492942D01*
X160698745Y-172588180D01*
X161198745Y-171588180D02*
X161270174Y-171588180D01*
X161341603Y-171635800D01*
X161377317Y-171683419D01*
X161413031Y-171778657D01*
X161448745Y-171969133D01*
X161448745Y-172207228D01*
X161413031Y-172397704D01*
X161377317Y-172492942D01*
X161341603Y-172540561D01*
X161270174Y-172588180D01*
X161198745Y-172588180D01*
X161127317Y-172540561D01*
X161091603Y-172492942D01*
X161055888Y-172397704D01*
X161020174Y-172207228D01*
X161020174Y-171969133D01*
X161055888Y-171778657D01*
X161091603Y-171683419D01*
X161127317Y-171635800D01*
X161198745Y-171588180D01*
D11*
X144119836Y-167586971D02*
X144119836Y-165586971D01*
X145072217Y-165586971D01*
X145643646Y-165682210D01*
X146024598Y-165872686D01*
X146215075Y-166063162D01*
X146405551Y-166444114D01*
X146405551Y-166729829D01*
X146215075Y-167110781D01*
X146024598Y-167301257D01*
X145643646Y-167491733D01*
X145072217Y-167586971D01*
X144119836Y-167586971D01*
X148119836Y-166539352D02*
X149453170Y-166539352D01*
X150024598Y-167586971D02*
X148119836Y-167586971D01*
X148119836Y-165586971D01*
X150024598Y-165586971D01*
X153643646Y-167586971D02*
X151738884Y-167586971D01*
X151738884Y-165586971D01*
X154976979Y-167586971D02*
X154976979Y-165586971D01*
X158976979Y-165682210D02*
X158596027Y-165586971D01*
X158024598Y-165586971D01*
X157453170Y-165682210D01*
X157072217Y-165872686D01*
X156881741Y-166063162D01*
X156691265Y-166444114D01*
X156691265Y-166729829D01*
X156881741Y-167110781D01*
X157072217Y-167301257D01*
X157453170Y-167491733D01*
X158024598Y-167586971D01*
X158405551Y-167586971D01*
X158976979Y-167491733D01*
X159167456Y-167396495D01*
X159167456Y-166729829D01*
X158405551Y-166729829D01*
X160881741Y-167586971D02*
X160881741Y-165586971D01*
X160881741Y-166539352D02*
X163167456Y-166539352D01*
X163167456Y-167586971D02*
X163167456Y-165586971D01*
X164500789Y-165586971D02*
X166786503Y-165586971D01*
X165643646Y-167586971D02*
X165643646Y-165586971D01*
D12*
X144037456Y-170202210D02*
X166337456Y-170202210D01*
X144057456Y-163522210D02*
X166337456Y-163522210D01*
X144027456Y-170202210D02*
G75*
G02*
X144027456Y-163522210I0J3340000D01*
G01*
X166327456Y-163522210D02*
G75*
G02*
X166327456Y-170202210I0J-3340000D01*
G01*
D13*
X354584000Y-81788000D03*
X354584000Y-70104000D03*
X194056000Y-81788000D03*
X76454000Y-70104000D03*
X76454000Y-81788000D03*
D14*
X328422000Y-80772000D03*
D15*
X328422000Y-75692000D03*
D14*
X128524000Y-67818000D03*
X176784000Y-83058000D03*
X131064000Y-67818000D03*
X174244000Y-83058000D03*
X133604000Y-67818000D03*
X171704000Y-83058000D03*
X136144000Y-67818000D03*
X169164000Y-83058000D03*
X138684000Y-67818000D03*
X166624000Y-83058000D03*
X141224000Y-67818000D03*
X164084000Y-83058000D03*
X143764000Y-67818000D03*
X161544000Y-83058000D03*
X146304000Y-67818000D03*
X159004000Y-83058000D03*
X148844000Y-67818000D03*
X156464000Y-83058000D03*
X151384000Y-67818000D03*
X153924000Y-83058000D03*
X153924000Y-67818000D03*
X151384000Y-83058000D03*
X156464000Y-67818000D03*
X148844000Y-83058000D03*
X159004000Y-67818000D03*
X146304000Y-83058000D03*
X161544000Y-67818000D03*
X143764000Y-83058000D03*
X164084000Y-67818000D03*
X141224000Y-83058000D03*
X166624000Y-67818000D03*
X138684000Y-83058000D03*
X169164000Y-67818000D03*
X136144000Y-83058000D03*
X171704000Y-67818000D03*
X133604000Y-83058000D03*
X174244000Y-67818000D03*
X131064000Y-83058000D03*
X176784000Y-67818000D03*
D15*
X128524000Y-83058000D03*
D16*
X68421250Y-75692000D03*
X58261250Y-75692000D03*
D17*
X63341250Y-75692000D03*
D18*
X59531250Y-73152000D03*
X65881250Y-70612000D03*
D19*
X188468000Y-78650000D03*
X188468000Y-73770000D03*
D14*
X211582000Y-76676000D03*
D15*
X211582000Y-71596000D03*
D14*
X214122000Y-78740000D03*
D15*
X214122000Y-73660000D03*
D14*
X216662000Y-80772000D03*
D15*
X216662000Y-75692000D03*
D14*
X203962000Y-78740000D03*
D15*
X203962000Y-73660000D03*
D14*
X201422000Y-76676000D03*
D15*
X201422000Y-71596000D03*
D14*
X206502000Y-80772000D03*
D15*
X206502000Y-75692000D03*
D16*
X73183750Y-113823750D03*
X63023750Y-113823750D03*
D17*
X68103750Y-113823750D03*
D18*
X64293750Y-111283750D03*
X70643750Y-108743750D03*
D20*
X117348000Y-68834000D03*
D21*
X114808000Y-68834000D03*
D18*
X237331250Y-89693750D03*
X230981250Y-92233750D03*
D17*
X234791250Y-94773750D03*
D16*
X229711250Y-94773750D03*
X239871250Y-94773750D03*
D13*
X60960000Y-123444000D03*
D18*
X123031250Y-89693750D03*
X116681250Y-92233750D03*
D17*
X120491250Y-94773750D03*
D16*
X115411250Y-94773750D03*
X125571250Y-94773750D03*
D14*
X209042000Y-74676000D03*
D15*
X209042000Y-69596000D03*
D14*
X68326000Y-143510000D03*
D15*
X73406000Y-143510000D03*
D14*
X219202000Y-74676000D03*
D15*
X219202000Y-69596000D03*
D14*
X229362000Y-74676000D03*
D15*
X229362000Y-69596000D03*
D14*
X221742000Y-76676000D03*
D15*
X221742000Y-71596000D03*
D14*
X231902000Y-76676000D03*
D15*
X231902000Y-71596000D03*
D14*
X224282000Y-78740000D03*
D15*
X224282000Y-73660000D03*
D14*
X100330000Y-162814000D03*
D15*
X105410000Y-162814000D03*
D14*
X226822000Y-80772000D03*
D15*
X226822000Y-75692000D03*
X198882000Y-69596000D03*
D14*
X198882000Y-74676000D03*
D22*
X110998000Y-77724000D03*
X105998000Y-77724000D03*
X85852000Y-82550000D03*
X80852000Y-82550000D03*
D23*
X83274214Y-78002000D03*
D24*
X83274214Y-79502000D03*
D22*
X187218000Y-68580000D03*
X189718000Y-68580000D03*
X187218000Y-83820000D03*
X189718000Y-83820000D03*
D18*
X68262500Y-146843750D03*
X61912500Y-149383750D03*
D17*
X65722500Y-151923750D03*
D16*
X60642500Y-151923750D03*
X70802500Y-151923750D03*
D18*
X308768750Y-127793750D03*
X302418750Y-130333750D03*
D17*
X306228750Y-132873750D03*
D16*
X301148750Y-132873750D03*
X311308750Y-132873750D03*
D18*
X330200000Y-118268750D03*
X323850000Y-120808750D03*
D17*
X327660000Y-123348750D03*
D16*
X322580000Y-123348750D03*
X332740000Y-123348750D03*
D17*
X319420000Y-135248750D03*
D25*
X334660000Y-111448750D03*
X334660000Y-135248750D03*
D17*
X319420000Y-111448750D03*
D18*
X89693750Y-146843750D03*
X83343750Y-149383750D03*
D17*
X87153750Y-151923750D03*
D16*
X82073750Y-151923750D03*
X92233750Y-151923750D03*
D18*
X275466206Y-165893750D03*
X269116206Y-168433750D03*
D17*
X272926206Y-170973750D03*
D16*
X267846206Y-170973750D03*
X278006206Y-170973750D03*
D18*
X256410884Y-165883620D03*
X250060884Y-168423620D03*
D17*
X253870884Y-170963620D03*
D16*
X248790884Y-170963620D03*
X258950884Y-170963620D03*
D26*
X125180316Y-80678982D03*
D27*
X120100316Y-80678982D03*
D26*
X125180316Y-78185517D03*
D27*
X120100316Y-78185517D03*
D26*
X125180316Y-75692052D03*
D27*
X120100316Y-75692052D03*
D26*
X120100316Y-73120211D03*
D27*
X125180316Y-73120211D03*
D26*
X120100316Y-70600499D03*
D27*
X125180316Y-70600499D03*
D26*
X120100316Y-68107034D03*
D27*
X125180316Y-68107034D03*
D26*
X125180316Y-83058000D03*
D27*
X120100316Y-83058000D03*
D13*
X194056000Y-70104000D03*
D16*
X292280128Y-170973750D03*
X282120128Y-170973750D03*
D17*
X287200128Y-170973750D03*
D18*
X283390128Y-168433750D03*
X289740128Y-165893750D03*
D16*
X263723936Y-170973750D03*
X253563936Y-170973750D03*
D17*
X258643936Y-170973750D03*
D18*
X254833936Y-168433750D03*
X261183936Y-165893750D03*
X180207573Y-165901640D03*
X173857573Y-168441640D03*
D17*
X177667573Y-170981640D03*
D16*
X172587573Y-170981640D03*
X182747573Y-170981640D03*
X101783031Y-170969819D03*
X91623031Y-170969819D03*
D17*
X96703031Y-170969819D03*
D18*
X92893031Y-168429819D03*
X99243031Y-165889819D03*
D16*
X73183700Y-170963620D03*
X63023700Y-170963620D03*
D17*
X68103700Y-170963620D03*
D18*
X64293700Y-168423620D03*
X70643700Y-165883620D03*
X68262500Y-127783620D03*
X61912500Y-130323620D03*
D17*
X65722500Y-132863620D03*
D16*
X60642500Y-132863620D03*
X70802500Y-132863620D03*
X105918000Y-83058000D03*
X105918000Y-80518000D03*
X108458000Y-83058000D03*
X108458000Y-80518000D03*
X110998000Y-83058000D03*
D28*
X110998000Y-80518000D03*
D18*
X323056250Y-89693750D03*
X316706250Y-92233750D03*
D17*
X320516250Y-94773750D03*
D16*
X315436250Y-94773750D03*
X325596250Y-94773750D03*
D17*
X332416250Y-103013750D03*
X308616250Y-103013750D03*
D25*
X308616250Y-87773750D03*
X332416250Y-87773750D03*
X330035250Y-125873750D03*
X306235250Y-125873750D03*
D17*
X306235250Y-141113750D03*
X330035250Y-141113750D03*
D16*
X323215250Y-132873750D03*
X313055250Y-132873750D03*
D17*
X318135250Y-132873750D03*
D18*
X314325250Y-130333750D03*
X320675250Y-127793750D03*
D25*
X87147450Y-144923750D03*
X63347450Y-144923750D03*
D17*
X63347450Y-160163750D03*
X87147450Y-160163750D03*
D16*
X80327450Y-151923750D03*
X70167450Y-151923750D03*
D17*
X75247450Y-151923750D03*
D18*
X71437450Y-149383750D03*
X77787450Y-146843750D03*
X68262450Y-165883620D03*
X61912450Y-168423620D03*
D17*
X65722450Y-170963620D03*
D16*
X60642450Y-170963620D03*
X70802450Y-170963620D03*
D18*
X92075050Y-165893750D03*
X85725050Y-168433750D03*
D17*
X89535050Y-170973750D03*
D16*
X84455050Y-170973750D03*
X94615050Y-170973750D03*
D18*
X115887450Y-165883620D03*
X109537450Y-168423620D03*
D17*
X113347450Y-170963620D03*
D16*
X108267450Y-170963620D03*
X118427450Y-170963620D03*
D18*
X73025050Y-127783620D03*
X66675050Y-130323620D03*
D17*
X70485050Y-132863620D03*
D16*
X65405050Y-132863620D03*
X75565050Y-132863620D03*
D18*
X306387250Y-146843750D03*
X300037250Y-149383750D03*
D17*
X303847250Y-151923750D03*
D16*
X298767250Y-151923750D03*
X308927250Y-151923750D03*
X330358250Y-113823750D03*
X320198250Y-113823750D03*
D17*
X325278250Y-113823750D03*
D18*
X321468250Y-111283750D03*
X327818250Y-108743750D03*
X294481250Y-89693750D03*
X288131250Y-92233750D03*
D17*
X291941250Y-94773750D03*
D16*
X286861250Y-94773750D03*
X297021250Y-94773750D03*
D18*
X132556250Y-108743750D03*
X126206250Y-111283750D03*
D17*
X130016250Y-113823750D03*
D16*
X124936250Y-113823750D03*
X135096250Y-113823750D03*
D18*
X65881250Y-89693750D03*
X59531250Y-92233750D03*
D17*
X63341250Y-94773750D03*
D16*
X58261250Y-94773750D03*
X68421250Y-94773750D03*
D18*
X84931250Y-89693750D03*
X78581250Y-92233750D03*
D17*
X82391250Y-94773750D03*
D16*
X77311250Y-94773750D03*
X87471250Y-94773750D03*
D18*
X103981250Y-89693750D03*
X97631250Y-92233750D03*
D17*
X101441250Y-94773750D03*
D16*
X96361250Y-94773750D03*
X106521250Y-94773750D03*
D18*
X142081250Y-89693750D03*
X135731250Y-92233750D03*
D17*
X139541250Y-94773750D03*
D16*
X134461250Y-94773750D03*
X144621250Y-94773750D03*
D18*
X161131250Y-89693750D03*
X154781250Y-92233750D03*
D17*
X158591250Y-94773750D03*
D16*
X153511250Y-94773750D03*
X163671250Y-94773750D03*
D18*
X180181250Y-89693750D03*
X173831250Y-92233750D03*
D17*
X177641250Y-94773750D03*
D16*
X172561250Y-94773750D03*
X182721250Y-94773750D03*
D18*
X199231250Y-89693750D03*
X192881250Y-92233750D03*
D17*
X196691250Y-94773750D03*
D16*
X191611250Y-94773750D03*
X201771250Y-94773750D03*
D18*
X218281250Y-89693750D03*
X211931250Y-92233750D03*
D17*
X215741250Y-94773750D03*
D16*
X210661250Y-94773750D03*
X220821250Y-94773750D03*
D18*
X256381250Y-89693750D03*
X250031250Y-92233750D03*
D17*
X253841250Y-94773750D03*
D16*
X248761250Y-94773750D03*
X258921250Y-94773750D03*
D18*
X275431250Y-89693750D03*
X269081250Y-92233750D03*
D17*
X272891250Y-94773750D03*
D16*
X267811250Y-94773750D03*
X277971250Y-94773750D03*
D18*
X351631250Y-89693750D03*
X345281250Y-92233750D03*
D17*
X349091250Y-94773750D03*
D16*
X344011250Y-94773750D03*
X354171250Y-94773750D03*
D18*
X94456250Y-108743750D03*
X88106250Y-111283750D03*
D17*
X91916250Y-113823750D03*
D16*
X86836250Y-113823750D03*
X96996250Y-113823750D03*
D18*
X113506250Y-108743750D03*
X107156250Y-111283750D03*
D17*
X110966250Y-113823750D03*
D16*
X105886250Y-113823750D03*
X116046250Y-113823750D03*
D18*
X151606250Y-108743750D03*
X145256250Y-111283750D03*
D17*
X149066250Y-113823750D03*
D16*
X143986250Y-113823750D03*
X154146250Y-113823750D03*
D18*
X170656250Y-108743750D03*
X164306250Y-111283750D03*
D17*
X168116250Y-113823750D03*
D16*
X163036250Y-113823750D03*
X173196250Y-113823750D03*
D18*
X189706250Y-108743750D03*
X183356250Y-111283750D03*
D17*
X187166250Y-113823750D03*
D16*
X182086250Y-113823750D03*
X192246250Y-113823750D03*
D18*
X208756250Y-108743750D03*
X202406250Y-111283750D03*
D17*
X206216250Y-113823750D03*
D16*
X201136250Y-113823750D03*
X211296250Y-113823750D03*
D18*
X227806250Y-108743750D03*
X221456250Y-111283750D03*
D17*
X225266250Y-113823750D03*
D16*
X220186250Y-113823750D03*
X230346250Y-113823750D03*
D18*
X246856250Y-108743750D03*
X240506250Y-111283750D03*
D17*
X244316250Y-113823750D03*
D16*
X239236250Y-113823750D03*
X249396250Y-113823750D03*
D18*
X265906250Y-108743750D03*
X259556250Y-111283750D03*
D17*
X263366250Y-113823750D03*
D16*
X258286250Y-113823750D03*
X268446250Y-113823750D03*
D18*
X284956250Y-108743750D03*
X278606250Y-111283750D03*
D17*
X282416250Y-113823750D03*
D16*
X277336250Y-113823750D03*
X287496250Y-113823750D03*
D18*
X304006250Y-108743750D03*
X297656250Y-111283750D03*
D17*
X301466250Y-113823750D03*
D16*
X296386250Y-113823750D03*
X306546250Y-113823750D03*
D18*
X351631250Y-108743750D03*
X345281250Y-111283750D03*
D17*
X349091250Y-113823750D03*
D16*
X344011250Y-113823750D03*
X354171250Y-113823750D03*
D18*
X99218750Y-127793750D03*
X92868750Y-130333750D03*
D17*
X96678750Y-132873750D03*
D16*
X91598750Y-132873750D03*
X101758750Y-132873750D03*
D18*
X118268750Y-127793750D03*
X111918750Y-130333750D03*
D17*
X115728750Y-132873750D03*
D16*
X110648750Y-132873750D03*
X120808750Y-132873750D03*
D18*
X137318750Y-127793750D03*
X130968750Y-130333750D03*
D17*
X134778750Y-132873750D03*
D16*
X129698750Y-132873750D03*
X139858750Y-132873750D03*
D18*
X156368250Y-127793750D03*
X150018250Y-130333750D03*
D17*
X153828250Y-132873750D03*
D16*
X148748250Y-132873750D03*
X158908250Y-132873750D03*
D18*
X175418250Y-127793750D03*
X169068250Y-130333750D03*
D17*
X172878250Y-132873750D03*
D16*
X167798250Y-132873750D03*
X177958250Y-132873750D03*
D18*
X194468250Y-127793750D03*
X188118250Y-130333750D03*
D17*
X191928250Y-132873750D03*
D16*
X186848250Y-132873750D03*
X197008250Y-132873750D03*
D18*
X213518250Y-127793750D03*
X207168250Y-130333750D03*
D17*
X210978250Y-132873750D03*
D16*
X205898250Y-132873750D03*
X216058250Y-132873750D03*
D18*
X232568250Y-127793750D03*
X226218250Y-130333750D03*
D17*
X230028250Y-132873750D03*
D16*
X224948250Y-132873750D03*
X235108250Y-132873750D03*
D18*
X251618250Y-127793750D03*
X245268250Y-130333750D03*
D17*
X249078250Y-132873750D03*
D16*
X243998250Y-132873750D03*
X254158250Y-132873750D03*
D18*
X270668250Y-127793750D03*
X264318250Y-130333750D03*
D17*
X268128250Y-132873750D03*
D16*
X263048250Y-132873750D03*
X273208250Y-132873750D03*
D18*
X289718250Y-127793750D03*
X283368250Y-130333750D03*
D17*
X287178250Y-132873750D03*
D16*
X282098250Y-132873750D03*
X292258250Y-132873750D03*
D18*
X351631250Y-127793750D03*
X345281250Y-130333750D03*
D17*
X349091250Y-132873750D03*
D16*
X344011250Y-132873750D03*
X354171250Y-132873750D03*
D18*
X108743750Y-146843750D03*
X102393750Y-149383750D03*
D17*
X106203750Y-151923750D03*
D16*
X101123750Y-151923750D03*
X111283750Y-151923750D03*
D18*
X127793750Y-146843750D03*
X121443750Y-149383750D03*
D17*
X125253750Y-151923750D03*
D16*
X120173750Y-151923750D03*
X130333750Y-151923750D03*
D18*
X146843750Y-146843750D03*
X140493750Y-149383750D03*
D17*
X144303750Y-151923750D03*
D16*
X139223750Y-151923750D03*
X149383750Y-151923750D03*
D18*
X165894250Y-146843750D03*
X159544250Y-149383750D03*
D17*
X163354250Y-151923750D03*
D16*
X158274250Y-151923750D03*
X168434250Y-151923750D03*
D18*
X184944250Y-146843750D03*
X178594250Y-149383750D03*
D17*
X182404250Y-151923750D03*
D16*
X177324250Y-151923750D03*
X187484250Y-151923750D03*
D18*
X203994250Y-146843750D03*
X197644250Y-149383750D03*
D17*
X201454250Y-151923750D03*
D16*
X196374250Y-151923750D03*
X206534250Y-151923750D03*
D18*
X223044250Y-146843750D03*
X216694250Y-149383750D03*
D17*
X220504250Y-151923750D03*
D16*
X215424250Y-151923750D03*
X225584250Y-151923750D03*
D18*
X242094250Y-146843750D03*
X235744250Y-149383750D03*
D17*
X239554250Y-151923750D03*
D16*
X234474250Y-151923750D03*
X244634250Y-151923750D03*
D18*
X261144250Y-146843750D03*
X254794250Y-149383750D03*
D17*
X258604250Y-151923750D03*
D16*
X253524250Y-151923750D03*
X263684250Y-151923750D03*
D18*
X280194250Y-146843750D03*
X273844250Y-149383750D03*
D17*
X277654250Y-151923750D03*
D16*
X272574250Y-151923750D03*
X282734250Y-151923750D03*
D18*
X332581250Y-146843750D03*
X326231250Y-149383750D03*
D17*
X330041250Y-151923750D03*
D16*
X324961250Y-151923750D03*
X335121250Y-151923750D03*
D18*
X351631250Y-146843750D03*
X345281250Y-149383750D03*
D17*
X349091250Y-151923750D03*
D16*
X344011250Y-151923750D03*
X354171250Y-151923750D03*
D18*
X187325250Y-165893750D03*
X180975250Y-168433750D03*
D17*
X184785250Y-170973750D03*
D16*
X179705250Y-170973750D03*
X189865250Y-170973750D03*
D18*
X313531250Y-165893750D03*
X307181250Y-168433750D03*
D17*
X310991250Y-170973750D03*
D16*
X305911250Y-170973750D03*
X316071250Y-170973750D03*
D18*
X332581250Y-165893750D03*
X326231250Y-168433750D03*
D17*
X330041250Y-170973750D03*
D16*
X324961250Y-170973750D03*
X335121250Y-170973750D03*
D18*
X351631250Y-165893750D03*
X345281250Y-168433750D03*
D17*
X349091250Y-170973750D03*
D16*
X344011250Y-170973750D03*
X354171250Y-170973750D03*
D18*
X294521528Y-165883620D03*
X288171528Y-168423620D03*
D17*
X291981528Y-170963620D03*
D16*
X286901528Y-170963620D03*
X297061528Y-170963620D03*
D29*
X103371000Y-70066000D03*
X112021000Y-70066000D03*
D30*
X103371000Y-73446000D03*
X112021000Y-73446000D03*
D31*
X104716000Y-73101000D03*
X105566000Y-73101000D03*
X106416000Y-73101000D03*
X107266000Y-73101000D03*
X108116000Y-73101000D03*
X108966000Y-73101000D03*
X109816000Y-73101000D03*
X110671000Y-73101000D03*
X104721000Y-74426000D03*
X105571000Y-74426000D03*
X106421000Y-74426000D03*
X107271000Y-74426000D03*
X108121000Y-74426000D03*
X109821000Y-74426000D03*
X110671000Y-74426000D03*
X108971000Y-74426000D03*
D26*
X102362000Y-82824000D03*
X102362000Y-77724000D03*
D32*
X92964000Y-72826000D03*
X92964000Y-68326000D03*
X99464000Y-72826000D03*
X99464000Y-68326000D03*
X82804000Y-72826000D03*
X82804000Y-68326000D03*
X89304000Y-72826000D03*
X89304000Y-68326000D03*
D14*
X239522000Y-74676000D03*
D15*
X239522000Y-69596000D03*
D14*
X249682000Y-74676000D03*
D15*
X249682000Y-69596000D03*
D14*
X259842000Y-74676000D03*
D15*
X259842000Y-69596000D03*
D14*
X270002000Y-74676000D03*
D15*
X270002000Y-69596000D03*
X280162000Y-69596000D03*
D14*
X280162000Y-74676000D03*
X290360736Y-74676000D03*
D15*
X290360736Y-69596000D03*
D14*
X300482000Y-74676000D03*
D15*
X300482000Y-69596000D03*
D14*
X310642000Y-74676000D03*
D15*
X310642000Y-69596000D03*
D14*
X320802000Y-74676000D03*
D15*
X320802000Y-69596000D03*
D14*
X330962000Y-74676000D03*
D15*
X330962000Y-69596000D03*
D14*
X341122000Y-74676000D03*
D15*
X341122000Y-69596000D03*
D14*
X242062000Y-76676000D03*
D15*
X242062000Y-71596000D03*
D14*
X252222000Y-76676000D03*
D15*
X252222000Y-71596000D03*
D14*
X262382000Y-76676000D03*
D15*
X262382000Y-71596000D03*
D14*
X272542000Y-76676000D03*
D15*
X272542000Y-71596000D03*
X282702000Y-71596000D03*
D14*
X282702000Y-76676000D03*
X292862000Y-76676000D03*
D15*
X292862000Y-71596000D03*
D14*
X303022000Y-76676000D03*
D15*
X303022000Y-71596000D03*
D14*
X313182000Y-76676000D03*
D15*
X313182000Y-71596000D03*
D14*
X323342000Y-76676000D03*
D15*
X323342000Y-71596000D03*
D14*
X333502000Y-76676000D03*
D15*
X333502000Y-71596000D03*
D14*
X343662000Y-76676000D03*
D15*
X343662000Y-71596000D03*
D14*
X234442000Y-78740000D03*
D15*
X234442000Y-73660000D03*
D14*
X244602000Y-78740000D03*
D15*
X244602000Y-73660000D03*
D14*
X254762000Y-78740000D03*
D15*
X254762000Y-73660000D03*
D14*
X264922000Y-78740000D03*
D15*
X264922000Y-73660000D03*
D14*
X275082000Y-78740000D03*
D15*
X275082000Y-73660000D03*
X285242000Y-73660000D03*
D14*
X285242000Y-78740000D03*
X295402000Y-78740000D03*
D15*
X295402000Y-73660000D03*
D14*
X305562000Y-78740000D03*
D15*
X305562000Y-73660000D03*
D14*
X315722000Y-78740000D03*
D15*
X315722000Y-73660000D03*
D14*
X336042000Y-78740000D03*
D15*
X336042000Y-73660000D03*
D14*
X346202000Y-78740000D03*
D15*
X346202000Y-73660000D03*
D14*
X236982000Y-80772000D03*
D15*
X236982000Y-75692000D03*
D14*
X247142000Y-80772000D03*
D15*
X247142000Y-75692000D03*
D14*
X257302000Y-80772000D03*
D15*
X257302000Y-75692000D03*
D14*
X267462000Y-80772000D03*
D15*
X267462000Y-75692000D03*
D14*
X277622000Y-80772000D03*
D15*
X277622000Y-75692000D03*
X287782000Y-75692000D03*
D14*
X287782000Y-80772000D03*
X297942000Y-80772000D03*
D15*
X297942000Y-75692000D03*
D14*
X308102000Y-80772000D03*
D15*
X308102000Y-75692000D03*
D14*
X318262000Y-80772000D03*
D15*
X318262000Y-75692000D03*
D14*
X338582000Y-80772000D03*
D15*
X338582000Y-75692000D03*
D14*
X348742000Y-80772000D03*
D15*
X348742000Y-75692000D03*
D14*
X68326000Y-162560000D03*
D15*
X73406000Y-162560000D03*
D14*
X109728000Y-162814000D03*
D15*
X114808000Y-162814000D03*
D14*
X180086000Y-162560000D03*
D15*
X185166000Y-162560000D03*
D14*
X254508000Y-163068000D03*
D15*
X259588000Y-163068000D03*
D14*
X269240000Y-162814000D03*
D15*
X274320000Y-162814000D03*
D14*
X307340000Y-162814000D03*
D15*
X312420000Y-162814000D03*
D14*
X326136000Y-163068000D03*
D15*
X331216000Y-163068000D03*
D14*
X345186000Y-163068000D03*
D15*
X350266000Y-163068000D03*
D14*
X288036000Y-162814000D03*
D15*
X293116000Y-162814000D03*
X117010982Y-77988196D03*
D14*
X117010982Y-83068196D03*
D15*
X114141310Y-77988196D03*
D14*
X114141310Y-83068196D03*
D33*
X134811423Y-177966640D03*
X234811223Y-177966640D03*
D34*
X134811423Y-162726640D03*
X234811223Y-162726640D03*
X234817573Y-162726640D03*
X120517573Y-162726640D03*
D33*
X234817573Y-177966640D03*
X120517573Y-177966640D03*
D13*
X206213345Y-166958110D03*
X197104000Y-108204000D03*
X298671968Y-104302994D03*
X107696000Y-104140000D03*
X316230000Y-161146960D03*
X94996000Y-160782000D03*
M02*
