M48
INCH,TZ
T1C0.0689
T2C0.1200
T3C0.1570
T4C0.1575
%
G90
G05
T1
X27238Y-34312
X27238Y-41812
X28172Y-56811
X28172Y-64311
X28173Y-71811
X29100Y-71811
X29118Y-49311
X30059Y-56811
X31238Y-34312
X31238Y-41812
X31929Y-64311
X32172Y-56811
X32172Y-64311
X32173Y-71811
X33100Y-71811
X33118Y-49311
X34059Y-56811
X34738Y-41812
X35929Y-64311
X36613Y-64311
X37500Y-71811
X38488Y-49312
X38738Y-41812
X40363Y-56812
X40370Y-71811
X40613Y-64311
X41500Y-71811
X42238Y-41812
X42488Y-49312
X44113Y-64313
X44363Y-56812
X44370Y-71811
X45988Y-49312
X46238Y-41812
X46921Y-71811
X47863Y-56812
X48113Y-64313
X49738Y-41812
X49988Y-49312
X50921Y-71811
X51613Y-64313
X51863Y-56812
X53488Y-49312
X53738Y-41812
X55363Y-56812
X55613Y-64313
X57238Y-41812
X57488Y-49312
X59113Y-64313
X59363Y-56812
X60988Y-49312
X61238Y-41812
X62862Y-56812
X63113Y-64313
X64738Y-41812
X64988Y-49312
X66613Y-64313
X66862Y-56812
X68488Y-49312
X68738Y-41812
X70362Y-56812
X70613Y-64313
X72238Y-41812
X72300Y-71811
X72488Y-49312
X74113Y-64313
X74362Y-56812
X75115Y-71811
X75988Y-49312
X76238Y-41812
X76300Y-71811
X77862Y-56812
X78113Y-64313
X79115Y-71811
X79738Y-41812
X79988Y-49312
X81613Y-64313
X81862Y-56812
X83487Y-49312
X83738Y-41812
X85362Y-56812
X85613Y-64313
X87237Y-41812
X87488Y-49312
X89113Y-64313
X89362Y-56812
X90987Y-49312
X91238Y-41812
X92862Y-56812
X93113Y-64313
X94737Y-41812
X94988Y-49312
X96613Y-64313
X96862Y-56812
X98487Y-49312
X98738Y-41812
X100362Y-56812
X100613Y-64313
X102236Y-71811
X102237Y-41812
X102488Y-49312
X104113Y-64313
X104130Y-71811
X104362Y-56812
X105987Y-49312
X106236Y-71811
X106238Y-41812
X107862Y-56812
X108113Y-64313
X108130Y-71811
X109736Y-71811
X109737Y-41812
X109988Y-49312
X111613Y-64313
X111862Y-56812
X113487Y-49312
X113736Y-71811
X113738Y-41812
X115362Y-56812
X115382Y-71811
X115613Y-64313
X117237Y-41812
X117238Y-71811
X117488Y-49312
X119362Y-56812
X119382Y-71811
X120987Y-49312
X121238Y-41812
X121238Y-71811
X121925Y-64303
X122862Y-56812
X124737Y-71811
X124988Y-49312
X125925Y-64303
X126863Y-56812
X127551Y-56815
X128469Y-41815
X128737Y-71811
X130362Y-49319
X131551Y-56815
X132237Y-64313
X132237Y-71811
X132469Y-41815
X134362Y-49319
X136237Y-64313
X136237Y-71811
X139737Y-41812
X139737Y-49312
X139737Y-56812
X139737Y-64313
X139737Y-71811
X143737Y-41812
X143737Y-49312
X143737Y-56812
X143737Y-64313
X143737Y-71811
T2
X29229Y-61561
X38629Y-61561
X51800Y-74561
X57430Y-74561
X96800Y-74561
X96800Y-74561
X124851Y-54065
X125769Y-39065
X134251Y-54065
X135169Y-39065
T3
X29229Y-67561
X38629Y-67561
X51800Y-68561
X57430Y-68561
X96800Y-68561
X96800Y-68561
X124851Y-60065
X125769Y-45065
X134251Y-60065
X135169Y-45065
T4
X29238Y-34312
X29238Y-41812
X30172Y-56811
X30172Y-64311
X30173Y-71811
X31100Y-71811
X31118Y-49311
X32059Y-56811
X33929Y-64311
X36738Y-41812
X38613Y-64311
X39500Y-71811
X40488Y-49312
X42363Y-56812
X42370Y-71811
X44238Y-41812
X46113Y-64313
X47988Y-49312
X48921Y-71811
X49863Y-56812
X51738Y-41812
X53613Y-64313
X55488Y-49312
X57363Y-56812
X59238Y-41812
X61113Y-64313
X62988Y-49312
X64862Y-56812
X66738Y-41812
X68613Y-64313
X70488Y-49312
X72362Y-56812
X74238Y-41812
X74300Y-71811
X76113Y-64313
X77115Y-71811
X77988Y-49312
X79862Y-56812
X81738Y-41812
X83613Y-64313
X85488Y-49312
X87362Y-56812
X89238Y-41812
X91113Y-64313
X92988Y-49312
X94862Y-56812
X96738Y-41812
X98613Y-64313
X100488Y-49312
X102362Y-56812
X104236Y-71811
X104238Y-41812
X106113Y-64313
X106130Y-71811
X107988Y-49312
X109862Y-56812
X111736Y-71811
X111738Y-41812
X113613Y-64313
X115488Y-49312
X117362Y-56812
X117382Y-71811
X119238Y-41812
X119238Y-71811
X122988Y-49312
X123925Y-64303
X124863Y-56812
X126738Y-71811
X129551Y-56815
X130469Y-41815
X132362Y-49319
X133295Y-53063
X134238Y-64313
X134238Y-71811
X141738Y-41812
X141738Y-49312
X141738Y-56812
X141738Y-64313
X141738Y-71811
T0
M30
