G04 #@! TF.GenerationSoftware,KiCad,Pcbnew,(5.1.10)-1*
G04 #@! TF.CreationDate,2021-12-05T16:07:54-05:00*
G04 #@! TF.ProjectId,delight-pcb,64656c69-6768-4742-9d70-63622e6b6963,rev?*
G04 #@! TF.SameCoordinates,Original*
G04 #@! TF.FileFunction,Soldermask,Top*
G04 #@! TF.FilePolarity,Negative*
%FSLAX46Y46*%
G04 Gerber Fmt 4.6, Leading zero omitted, Abs format (unit mm)*
G04 Created by KiCad (PCBNEW (5.1.10)-1) date 2021-12-05 16:07:54*
%MOMM*%
%LPD*%
G01*
G04 APERTURE LIST*
%ADD10C,0.125000*%
%ADD11C,0.350000*%
%ADD12C,0.400000*%
%ADD13C,3.048000*%
%ADD14C,3.987800*%
%ADD15C,1.750000*%
%ADD16C,4.000000*%
%ADD17C,1.710000*%
%ADD18O,1.600000X1.600000*%
%ADD19R,1.600000X1.600000*%
%ADD20C,4.400000*%
%ADD21O,1.400000X1.400000*%
%ADD22C,1.400000*%
%ADD23C,1.200000*%
%ADD24R,1.200000X1.200000*%
%ADD25C,1.600000*%
%ADD26C,1.500000*%
%ADD27C,1.800000*%
%ADD28R,1.800000X1.800000*%
%ADD29O,1.700000X1.700000*%
%ADD30R,1.700000X1.700000*%
%ADD31C,2.000000*%
%ADD32O,0.900000X1.700000*%
%ADD33O,0.900000X2.400000*%
%ADD34C,0.700000*%
G04 APERTURE END LIST*
D10*
X157124884Y-183390590D02*
X157053456Y-183342971D01*
X157017741Y-183247733D01*
X157017741Y-182390590D01*
X157517741Y-183390590D02*
X157446313Y-183342971D01*
X157410598Y-183295352D01*
X157374884Y-183200114D01*
X157374884Y-182914400D01*
X157410598Y-182819162D01*
X157446313Y-182771543D01*
X157517741Y-182723924D01*
X157624884Y-182723924D01*
X157696313Y-182771543D01*
X157732027Y-182819162D01*
X157767741Y-182914400D01*
X157767741Y-183200114D01*
X157732027Y-183295352D01*
X157696313Y-183342971D01*
X157624884Y-183390590D01*
X157517741Y-183390590D01*
X157982027Y-182723924D02*
X158267741Y-182723924D01*
X158089170Y-182390590D02*
X158089170Y-183247733D01*
X158124884Y-183342971D01*
X158196313Y-183390590D01*
X158267741Y-183390590D01*
X158517741Y-183390590D02*
X158517741Y-182723924D01*
X158517741Y-182390590D02*
X158482027Y-182438210D01*
X158517741Y-182485829D01*
X158553456Y-182438210D01*
X158517741Y-182390590D01*
X158517741Y-182485829D01*
X159160598Y-183342971D02*
X159089170Y-183390590D01*
X158946313Y-183390590D01*
X158874884Y-183342971D01*
X158839170Y-183247733D01*
X158839170Y-182866781D01*
X158874884Y-182771543D01*
X158946313Y-182723924D01*
X159089170Y-182723924D01*
X159160598Y-182771543D01*
X159196313Y-182866781D01*
X159196313Y-182962019D01*
X158839170Y-183057257D01*
X159517741Y-183390590D02*
X159517741Y-182723924D01*
X159517741Y-182914400D02*
X159553456Y-182819162D01*
X159589170Y-182771543D01*
X159660598Y-182723924D01*
X159732027Y-182723924D01*
X160517741Y-182485829D02*
X160553456Y-182438210D01*
X160624884Y-182390590D01*
X160803456Y-182390590D01*
X160874884Y-182438210D01*
X160910598Y-182485829D01*
X160946313Y-182581067D01*
X160946313Y-182676305D01*
X160910598Y-182819162D01*
X160482027Y-183390590D01*
X160946313Y-183390590D01*
X161410598Y-182390590D02*
X161482027Y-182390590D01*
X161553456Y-182438210D01*
X161589170Y-182485829D01*
X161624884Y-182581067D01*
X161660598Y-182771543D01*
X161660598Y-183009638D01*
X161624884Y-183200114D01*
X161589170Y-183295352D01*
X161553456Y-183342971D01*
X161482027Y-183390590D01*
X161410598Y-183390590D01*
X161339170Y-183342971D01*
X161303456Y-183295352D01*
X161267741Y-183200114D01*
X161232027Y-183009638D01*
X161232027Y-182771543D01*
X161267741Y-182581067D01*
X161303456Y-182485829D01*
X161339170Y-182438210D01*
X161410598Y-182390590D01*
X161946313Y-182485829D02*
X161982027Y-182438210D01*
X162053456Y-182390590D01*
X162232027Y-182390590D01*
X162303456Y-182438210D01*
X162339170Y-182485829D01*
X162374884Y-182581067D01*
X162374884Y-182676305D01*
X162339170Y-182819162D01*
X161910598Y-183390590D01*
X162374884Y-183390590D01*
X163089170Y-183390590D02*
X162660598Y-183390590D01*
X162874884Y-183390590D02*
X162874884Y-182390590D01*
X162803456Y-182533448D01*
X162732027Y-182628686D01*
X162660598Y-182676305D01*
X163982027Y-183009638D02*
X164553456Y-183009638D01*
X165482027Y-183390590D02*
X165482027Y-182723924D01*
X165482027Y-182914400D02*
X165517741Y-182819162D01*
X165553456Y-182771543D01*
X165624884Y-182723924D01*
X165696313Y-182723924D01*
X166232027Y-183342971D02*
X166160598Y-183390590D01*
X166017741Y-183390590D01*
X165946313Y-183342971D01*
X165910598Y-183247733D01*
X165910598Y-182866781D01*
X165946313Y-182771543D01*
X166017741Y-182723924D01*
X166160598Y-182723924D01*
X166232027Y-182771543D01*
X166267741Y-182866781D01*
X166267741Y-182962019D01*
X165910598Y-183057257D01*
X166517741Y-182723924D02*
X166696313Y-183390590D01*
X166874884Y-182723924D01*
X167696313Y-182485829D02*
X167732027Y-182438210D01*
X167803456Y-182390590D01*
X167982027Y-182390590D01*
X168053456Y-182438210D01*
X168089170Y-182485829D01*
X168124884Y-182581067D01*
X168124884Y-182676305D01*
X168089170Y-182819162D01*
X167660598Y-183390590D01*
X168124884Y-183390590D01*
X168839170Y-183390590D02*
X168410598Y-183390590D01*
X168624884Y-183390590D02*
X168624884Y-182390590D01*
X168553456Y-182533448D01*
X168482027Y-182628686D01*
X168410598Y-182676305D01*
X169160598Y-183295352D02*
X169196313Y-183342971D01*
X169160598Y-183390590D01*
X169124884Y-183342971D01*
X169160598Y-183295352D01*
X169160598Y-183390590D01*
X169910598Y-183390590D02*
X169482027Y-183390590D01*
X169696313Y-183390590D02*
X169696313Y-182390590D01*
X169624884Y-182533448D01*
X169553456Y-182628686D01*
X169482027Y-182676305D01*
X170196313Y-182485829D02*
X170232027Y-182438210D01*
X170303456Y-182390590D01*
X170482027Y-182390590D01*
X170553456Y-182438210D01*
X170589170Y-182485829D01*
X170624884Y-182581067D01*
X170624884Y-182676305D01*
X170589170Y-182819162D01*
X170160598Y-183390590D01*
X170624884Y-183390590D01*
X158648694Y-184660590D02*
X158648694Y-184136781D01*
X158624884Y-184041543D01*
X158577265Y-183993924D01*
X158482027Y-183993924D01*
X158434408Y-184041543D01*
X158648694Y-184612971D02*
X158601075Y-184660590D01*
X158482027Y-184660590D01*
X158434408Y-184612971D01*
X158410598Y-184517733D01*
X158410598Y-184422495D01*
X158434408Y-184327257D01*
X158482027Y-184279638D01*
X158601075Y-184279638D01*
X158648694Y-184232019D01*
X159101075Y-184660590D02*
X159101075Y-183660590D01*
X159101075Y-184612971D02*
X159053456Y-184660590D01*
X158958217Y-184660590D01*
X158910598Y-184612971D01*
X158886789Y-184565352D01*
X158862979Y-184470114D01*
X158862979Y-184184400D01*
X158886789Y-184089162D01*
X158910598Y-184041543D01*
X158958217Y-183993924D01*
X159053456Y-183993924D01*
X159101075Y-184041543D01*
X159553456Y-184660590D02*
X159553456Y-184136781D01*
X159529646Y-184041543D01*
X159482027Y-183993924D01*
X159386789Y-183993924D01*
X159339170Y-184041543D01*
X159553456Y-184612971D02*
X159505836Y-184660590D01*
X159386789Y-184660590D01*
X159339170Y-184612971D01*
X159315360Y-184517733D01*
X159315360Y-184422495D01*
X159339170Y-184327257D01*
X159386789Y-184279638D01*
X159505836Y-184279638D01*
X159553456Y-184232019D01*
X159791551Y-183993924D02*
X159791551Y-184993924D01*
X159791551Y-184041543D02*
X159839170Y-183993924D01*
X159934408Y-183993924D01*
X159982027Y-184041543D01*
X160005836Y-184089162D01*
X160029646Y-184184400D01*
X160029646Y-184470114D01*
X160005836Y-184565352D01*
X159982027Y-184612971D01*
X159934408Y-184660590D01*
X159839170Y-184660590D01*
X159791551Y-184612971D01*
X160172503Y-183993924D02*
X160362979Y-183993924D01*
X160243932Y-183660590D02*
X160243932Y-184517733D01*
X160267741Y-184612971D01*
X160315360Y-184660590D01*
X160362979Y-184660590D01*
X160720122Y-184612971D02*
X160672503Y-184660590D01*
X160577265Y-184660590D01*
X160529646Y-184612971D01*
X160505836Y-184517733D01*
X160505836Y-184136781D01*
X160529646Y-184041543D01*
X160577265Y-183993924D01*
X160672503Y-183993924D01*
X160720122Y-184041543D01*
X160743932Y-184136781D01*
X160743932Y-184232019D01*
X160505836Y-184327257D01*
X161172503Y-184660590D02*
X161172503Y-183660590D01*
X161172503Y-184612971D02*
X161124884Y-184660590D01*
X161029646Y-184660590D01*
X160982027Y-184612971D01*
X160958217Y-184565352D01*
X160934408Y-184470114D01*
X160934408Y-184184400D01*
X160958217Y-184089162D01*
X160982027Y-184041543D01*
X161029646Y-183993924D01*
X161124884Y-183993924D01*
X161172503Y-184041543D01*
X161720122Y-183993924D02*
X161910598Y-183993924D01*
X161791551Y-184660590D02*
X161791551Y-183803448D01*
X161815360Y-183708210D01*
X161862979Y-183660590D01*
X161910598Y-183660590D01*
X162077265Y-184660590D02*
X162077265Y-183993924D01*
X162077265Y-184184400D02*
X162101075Y-184089162D01*
X162124884Y-184041543D01*
X162172503Y-183993924D01*
X162220122Y-183993924D01*
X162458217Y-184660590D02*
X162410598Y-184612971D01*
X162386789Y-184565352D01*
X162362979Y-184470114D01*
X162362979Y-184184400D01*
X162386789Y-184089162D01*
X162410598Y-184041543D01*
X162458217Y-183993924D01*
X162529646Y-183993924D01*
X162577265Y-184041543D01*
X162601075Y-184089162D01*
X162624884Y-184184400D01*
X162624884Y-184470114D01*
X162601075Y-184565352D01*
X162577265Y-184612971D01*
X162529646Y-184660590D01*
X162458217Y-184660590D01*
X162839170Y-184660590D02*
X162839170Y-183993924D01*
X162839170Y-184089162D02*
X162862979Y-184041543D01*
X162910598Y-183993924D01*
X162982027Y-183993924D01*
X163029646Y-184041543D01*
X163053456Y-184136781D01*
X163053456Y-184660590D01*
X163053456Y-184136781D02*
X163077265Y-184041543D01*
X163124884Y-183993924D01*
X163196313Y-183993924D01*
X163243932Y-184041543D01*
X163267741Y-184136781D01*
X163267741Y-184660590D01*
X164101075Y-184612971D02*
X164053456Y-184660590D01*
X163958217Y-184660590D01*
X163910598Y-184612971D01*
X163886789Y-184565352D01*
X163862979Y-184470114D01*
X163862979Y-184184400D01*
X163886789Y-184089162D01*
X163910598Y-184041543D01*
X163958217Y-183993924D01*
X164053456Y-183993924D01*
X164101075Y-184041543D01*
X164386789Y-184660590D02*
X164339170Y-184612971D01*
X164315360Y-184565352D01*
X164291551Y-184470114D01*
X164291551Y-184184400D01*
X164315360Y-184089162D01*
X164339170Y-184041543D01*
X164386789Y-183993924D01*
X164458217Y-183993924D01*
X164505836Y-184041543D01*
X164529646Y-184089162D01*
X164553456Y-184184400D01*
X164553456Y-184470114D01*
X164529646Y-184565352D01*
X164505836Y-184612971D01*
X164458217Y-184660590D01*
X164386789Y-184660590D01*
X164743932Y-184612971D02*
X164791551Y-184660590D01*
X164886789Y-184660590D01*
X164934408Y-184612971D01*
X164958217Y-184517733D01*
X164958217Y-184470114D01*
X164934408Y-184374876D01*
X164886789Y-184327257D01*
X164815360Y-184327257D01*
X164767741Y-184279638D01*
X164743932Y-184184400D01*
X164743932Y-184136781D01*
X164767741Y-184041543D01*
X164815360Y-183993924D01*
X164886789Y-183993924D01*
X164934408Y-184041543D01*
X165362979Y-184612971D02*
X165315360Y-184660590D01*
X165220122Y-184660590D01*
X165172503Y-184612971D01*
X165148694Y-184517733D01*
X165148694Y-184136781D01*
X165172503Y-184041543D01*
X165220122Y-183993924D01*
X165315360Y-183993924D01*
X165362979Y-184041543D01*
X165386789Y-184136781D01*
X165386789Y-184232019D01*
X165148694Y-184327257D01*
X165553456Y-183993924D02*
X165672503Y-184660590D01*
X165791551Y-183993924D02*
X165672503Y-184660590D01*
X165624884Y-184898686D01*
X165601075Y-184946305D01*
X165553456Y-184993924D01*
X165910598Y-183993924D02*
X166101075Y-183993924D01*
X165982027Y-184660590D02*
X165982027Y-183803448D01*
X166005836Y-183708210D01*
X166053456Y-183660590D01*
X166101075Y-183660590D01*
X166482027Y-184660590D02*
X166482027Y-184136781D01*
X166458217Y-184041543D01*
X166410598Y-183993924D01*
X166315360Y-183993924D01*
X166267741Y-184041543D01*
X166482027Y-184612971D02*
X166434408Y-184660590D01*
X166315360Y-184660590D01*
X166267741Y-184612971D01*
X166243932Y-184517733D01*
X166243932Y-184422495D01*
X166267741Y-184327257D01*
X166315360Y-184279638D01*
X166434408Y-184279638D01*
X166482027Y-184232019D01*
X166720122Y-183993924D02*
X166720122Y-184660590D01*
X166720122Y-184089162D02*
X166743932Y-184041543D01*
X166791551Y-183993924D01*
X166862979Y-183993924D01*
X166910598Y-184041543D01*
X166934408Y-184136781D01*
X166934408Y-184660590D01*
X167172503Y-183993924D02*
X167172503Y-184660590D01*
X167172503Y-184089162D02*
X167196313Y-184041543D01*
X167243932Y-183993924D01*
X167315360Y-183993924D01*
X167362979Y-184041543D01*
X167386789Y-184136781D01*
X167386789Y-184660590D01*
X167624884Y-184660590D02*
X167624884Y-183993924D01*
X167624884Y-183660590D02*
X167601075Y-183708210D01*
X167624884Y-183755829D01*
X167648694Y-183708210D01*
X167624884Y-183660590D01*
X167624884Y-183755829D01*
X167791551Y-183993924D02*
X167982027Y-183993924D01*
X167862979Y-183660590D02*
X167862979Y-184517733D01*
X167886789Y-184612971D01*
X167934408Y-184660590D01*
X167982027Y-184660590D01*
X168362979Y-183993924D02*
X168362979Y-184660590D01*
X168148694Y-183993924D02*
X168148694Y-184517733D01*
X168172503Y-184612971D01*
X168220122Y-184660590D01*
X168291551Y-184660590D01*
X168339170Y-184612971D01*
X168362979Y-184565352D01*
X168529646Y-183993924D02*
X168720122Y-183993924D01*
X168601075Y-183660590D02*
X168601075Y-184517733D01*
X168624884Y-184612971D01*
X168672503Y-184660590D01*
X168720122Y-184660590D01*
X168815360Y-183993924D02*
X169005836Y-183993924D01*
X168886789Y-183660590D02*
X168886789Y-184517733D01*
X168910598Y-184612971D01*
X168958217Y-184660590D01*
X169005836Y-184660590D01*
X169172503Y-184660590D02*
X169172503Y-183993924D01*
X169172503Y-183660590D02*
X169148694Y-183708210D01*
X169172503Y-183755829D01*
X169196313Y-183708210D01*
X169172503Y-183660590D01*
X169172503Y-183755829D01*
D11*
X152755836Y-179016971D02*
X152755836Y-177016971D01*
X153708217Y-177016971D01*
X154279646Y-177112210D01*
X154660598Y-177302686D01*
X154851075Y-177493162D01*
X155041551Y-177874114D01*
X155041551Y-178159829D01*
X154851075Y-178540781D01*
X154660598Y-178731257D01*
X154279646Y-178921733D01*
X153708217Y-179016971D01*
X152755836Y-179016971D01*
X156755836Y-177969352D02*
X158089170Y-177969352D01*
X158660598Y-179016971D02*
X156755836Y-179016971D01*
X156755836Y-177016971D01*
X158660598Y-177016971D01*
X162279646Y-179016971D02*
X160374884Y-179016971D01*
X160374884Y-177016971D01*
X163612979Y-179016971D02*
X163612979Y-177016971D01*
X167612979Y-177112210D02*
X167232027Y-177016971D01*
X166660598Y-177016971D01*
X166089170Y-177112210D01*
X165708217Y-177302686D01*
X165517741Y-177493162D01*
X165327265Y-177874114D01*
X165327265Y-178159829D01*
X165517741Y-178540781D01*
X165708217Y-178731257D01*
X166089170Y-178921733D01*
X166660598Y-179016971D01*
X167041551Y-179016971D01*
X167612979Y-178921733D01*
X167803456Y-178826495D01*
X167803456Y-178159829D01*
X167041551Y-178159829D01*
X169517741Y-179016971D02*
X169517741Y-177016971D01*
X169517741Y-177969352D02*
X171803456Y-177969352D01*
X171803456Y-179016971D02*
X171803456Y-177016971D01*
X173136789Y-177016971D02*
X175422503Y-177016971D01*
X174279646Y-179016971D02*
X174279646Y-177016971D01*
D12*
X152673456Y-181632210D02*
X174973456Y-181632210D01*
X152693456Y-174952210D02*
X174973456Y-174952210D01*
X152663456Y-181632210D02*
G75*
G02*
X152663456Y-174952210I0J3340000D01*
G01*
X174963456Y-174952210D02*
G75*
G02*
X174963456Y-181632210I0J-3340000D01*
G01*
D13*
X98118000Y-156365000D03*
X74242000Y-156365000D03*
D14*
X98118000Y-171605000D03*
X74242000Y-171605000D03*
D13*
X340998000Y-137325000D03*
X317122000Y-137325000D03*
D14*
X340998000Y-152565000D03*
X317122000Y-152565000D03*
D13*
X343328000Y-99225000D03*
X319452000Y-99225000D03*
D14*
X343328000Y-114465000D03*
X319452000Y-114465000D03*
X145872000Y-174145000D03*
X245872000Y-174145000D03*
D13*
X145872000Y-189385000D03*
X245872000Y-189385000D03*
X245872000Y-189385000D03*
D14*
X131572000Y-174145000D03*
D13*
X131572000Y-189385000D03*
D14*
X245872000Y-174145000D03*
D15*
X303230000Y-182400000D03*
X293070000Y-182400000D03*
D16*
X298150000Y-182400000D03*
D15*
X274650000Y-182400000D03*
X264490000Y-182400000D03*
D16*
X269570000Y-182400000D03*
D15*
X193802000Y-182400000D03*
X183642000Y-182400000D03*
D16*
X188722000Y-182400000D03*
D15*
X112700000Y-182400000D03*
X102540000Y-182400000D03*
D16*
X107620000Y-182400000D03*
D15*
X84074000Y-182400000D03*
X73914000Y-182400000D03*
D16*
X78994000Y-182400000D03*
D15*
X81718000Y-163350000D03*
X71558000Y-163350000D03*
D16*
X76638000Y-163350000D03*
D15*
X81718000Y-144300000D03*
X71558000Y-144300000D03*
D16*
X76638000Y-144300000D03*
D15*
X322230750Y-144303750D03*
X312070750Y-144303750D03*
D16*
X317150750Y-144303750D03*
X338570000Y-134780000D03*
D15*
X365093250Y-182400000D03*
X354933250Y-182400000D03*
D16*
X360013250Y-182400000D03*
D15*
X346043250Y-182400000D03*
X335883250Y-182400000D03*
D16*
X340963250Y-182400000D03*
D15*
X326993250Y-182400000D03*
X316833250Y-182400000D03*
D16*
X321913250Y-182400000D03*
D15*
X307943528Y-182400000D03*
X297783528Y-182400000D03*
D16*
X302863528Y-182400000D03*
D15*
X288890000Y-182400000D03*
X278730000Y-182400000D03*
D16*
X283810000Y-182400000D03*
D15*
X269840000Y-182400000D03*
X259680000Y-182400000D03*
D16*
X264760000Y-182400000D03*
D15*
X200952000Y-182400000D03*
X190792000Y-182400000D03*
D16*
X195872000Y-182400000D03*
D15*
X129340000Y-182400000D03*
X119180000Y-182400000D03*
D16*
X124260000Y-182400000D03*
D15*
X105410000Y-182400000D03*
X95250000Y-182400000D03*
D16*
X100330000Y-182400000D03*
D15*
X81720000Y-182400000D03*
X71560000Y-182400000D03*
D16*
X76640000Y-182400000D03*
D15*
X91260000Y-163350000D03*
X81100000Y-163350000D03*
D16*
X86180000Y-163350000D03*
D15*
X365093250Y-163353750D03*
X354933250Y-163353750D03*
D16*
X360013250Y-163353750D03*
D15*
X346043250Y-163353750D03*
X335883250Y-163353750D03*
D16*
X340963250Y-163353750D03*
D15*
X319850000Y-163330000D03*
X309690000Y-163330000D03*
D16*
X314770000Y-163330000D03*
D15*
X293656250Y-163353750D03*
X283496250Y-163353750D03*
D16*
X288576250Y-163353750D03*
D15*
X274606250Y-163353750D03*
X264446250Y-163353750D03*
D16*
X269526250Y-163353750D03*
D15*
X255556250Y-163353750D03*
X245396250Y-163353750D03*
D16*
X250476250Y-163353750D03*
D15*
X236506250Y-163353750D03*
X226346250Y-163353750D03*
D16*
X231426250Y-163353750D03*
D15*
X217456250Y-163353750D03*
X207296250Y-163353750D03*
D16*
X212376250Y-163353750D03*
D15*
X198406250Y-163353750D03*
X188246250Y-163353750D03*
D16*
X193326250Y-163353750D03*
D15*
X179356250Y-163353750D03*
X169196250Y-163353750D03*
D16*
X174276250Y-163353750D03*
D15*
X160305750Y-163353750D03*
X150145750Y-163353750D03*
D16*
X155225750Y-163353750D03*
D15*
X141255750Y-163353750D03*
X131095750Y-163353750D03*
D16*
X136175750Y-163353750D03*
D15*
X122205750Y-163353750D03*
X112045750Y-163353750D03*
D16*
X117125750Y-163353750D03*
D15*
X103155750Y-163350000D03*
X92995750Y-163350000D03*
D16*
X98075750Y-163350000D03*
D15*
X86510000Y-144300000D03*
X76350000Y-144300000D03*
D16*
X81430000Y-144300000D03*
D15*
X365093250Y-144303750D03*
X354933250Y-144303750D03*
D16*
X360013250Y-144303750D03*
D15*
X334140000Y-144310000D03*
X323980000Y-144310000D03*
D16*
X329060000Y-144310000D03*
D15*
X303180250Y-144303750D03*
X293020250Y-144303750D03*
D16*
X298100250Y-144303750D03*
D15*
X284130250Y-144303750D03*
X273970250Y-144303750D03*
D16*
X279050250Y-144303750D03*
D15*
X265080250Y-144303750D03*
X254920250Y-144303750D03*
D16*
X260000250Y-144303750D03*
D15*
X246030250Y-144303750D03*
X235870250Y-144303750D03*
D16*
X240950250Y-144303750D03*
D15*
X226980250Y-144303750D03*
X216820250Y-144303750D03*
D16*
X221900250Y-144303750D03*
D15*
X207930250Y-144303750D03*
X197770250Y-144303750D03*
D16*
X202850250Y-144303750D03*
D15*
X188880250Y-144303750D03*
X178720250Y-144303750D03*
D16*
X183800250Y-144303750D03*
D15*
X169830250Y-144303750D03*
X159670250Y-144303750D03*
D16*
X164750250Y-144303750D03*
D15*
X150780750Y-144303750D03*
X140620750Y-144303750D03*
D16*
X145700750Y-144303750D03*
D15*
X131730750Y-144303750D03*
X121570750Y-144303750D03*
D16*
X126650750Y-144303750D03*
D15*
X112680750Y-144303750D03*
X102520750Y-144303750D03*
D16*
X107600750Y-144303750D03*
D15*
X84120000Y-125250000D03*
X73960000Y-125250000D03*
D16*
X79040000Y-125250000D03*
D15*
X365093250Y-125253750D03*
X354933250Y-125253750D03*
D16*
X360013250Y-125253750D03*
D15*
X341280000Y-125270000D03*
X331120000Y-125270000D03*
D16*
X336200000Y-125270000D03*
D15*
X317468250Y-125253750D03*
X307308250Y-125253750D03*
D16*
X312388250Y-125253750D03*
D15*
X298418250Y-125253750D03*
X288258250Y-125253750D03*
D16*
X293338250Y-125253750D03*
D15*
X279368250Y-125253750D03*
X269208250Y-125253750D03*
D16*
X274288250Y-125253750D03*
D15*
X260318250Y-125253750D03*
X250158250Y-125253750D03*
D16*
X255238250Y-125253750D03*
D15*
X241268250Y-125253750D03*
X231108250Y-125253750D03*
D16*
X236188250Y-125253750D03*
D15*
X222218250Y-125253750D03*
X212058250Y-125253750D03*
D16*
X217138250Y-125253750D03*
D15*
X203168250Y-125253750D03*
X193008250Y-125253750D03*
D16*
X198088250Y-125253750D03*
D15*
X184118250Y-125253750D03*
X173958250Y-125253750D03*
D16*
X179038250Y-125253750D03*
D15*
X165068250Y-125253750D03*
X154908250Y-125253750D03*
D16*
X159988250Y-125253750D03*
D15*
X146018250Y-125253750D03*
X135858250Y-125253750D03*
D16*
X140938250Y-125253750D03*
D15*
X126968250Y-125253750D03*
X116808250Y-125253750D03*
D16*
X121888250Y-125253750D03*
D15*
X107918250Y-125253750D03*
X97758250Y-125253750D03*
D16*
X102838250Y-125253750D03*
D15*
X79343250Y-106203750D03*
X69183250Y-106203750D03*
D16*
X74263250Y-106203750D03*
D15*
X365093250Y-106203750D03*
X354933250Y-106203750D03*
D16*
X360013250Y-106203750D03*
D15*
X336470000Y-106210000D03*
X326310000Y-106210000D03*
D16*
X331390000Y-106210000D03*
D15*
X307943250Y-106203750D03*
X297783250Y-106203750D03*
D16*
X302863250Y-106203750D03*
D15*
X288893250Y-106203750D03*
X278733250Y-106203750D03*
D16*
X283813250Y-106203750D03*
D15*
X269843250Y-106203750D03*
X259683250Y-106203750D03*
D16*
X264763250Y-106203750D03*
D15*
X250793250Y-106203750D03*
X240633250Y-106203750D03*
D16*
X245713250Y-106203750D03*
D15*
X231743250Y-106203750D03*
X221583250Y-106203750D03*
D16*
X226663250Y-106203750D03*
D15*
X212693250Y-106203750D03*
X202533250Y-106203750D03*
D16*
X207613250Y-106203750D03*
D15*
X193643250Y-106203750D03*
X183483250Y-106203750D03*
D16*
X188563250Y-106203750D03*
D15*
X174593250Y-106203750D03*
X164433250Y-106203750D03*
D16*
X169513250Y-106203750D03*
D15*
X155543250Y-106203750D03*
X145383250Y-106203750D03*
D16*
X150463250Y-106203750D03*
D15*
X136493250Y-106203750D03*
X126333250Y-106203750D03*
D16*
X131413250Y-106203750D03*
D15*
X117443250Y-106203750D03*
X107283250Y-106203750D03*
D16*
X112363250Y-106203750D03*
D15*
X98393250Y-106203750D03*
X88233250Y-106203750D03*
D16*
X93313250Y-106203750D03*
D15*
X79343250Y-87152000D03*
X69183250Y-87152000D03*
D16*
X74263250Y-87152000D03*
D17*
X113976000Y-89134000D03*
X112776000Y-94234000D03*
D18*
X354838000Y-173736000D03*
D19*
X362458000Y-173736000D03*
D18*
X335788000Y-173736000D03*
D19*
X343408000Y-173736000D03*
D18*
X316992000Y-173736000D03*
D19*
X324612000Y-173736000D03*
D18*
X297688000Y-173736000D03*
D19*
X305308000Y-173736000D03*
D18*
X278892000Y-173736000D03*
D19*
X286512000Y-173736000D03*
D18*
X263906000Y-173736000D03*
D19*
X271526000Y-173736000D03*
D18*
X189484000Y-173736000D03*
D19*
X197104000Y-173736000D03*
D18*
X118872000Y-173736000D03*
D19*
X126492000Y-173736000D03*
D18*
X104648000Y-173736000D03*
D19*
X112268000Y-173736000D03*
D18*
X77978000Y-173736000D03*
D19*
X85598000Y-173736000D03*
D18*
X77978000Y-154686000D03*
D19*
X85598000Y-154686000D03*
D20*
X207768000Y-173482000D03*
D21*
X133816316Y-92032665D03*
D22*
X138896316Y-92032665D03*
D21*
X133816316Y-89577332D03*
D22*
X138896316Y-89577332D03*
D21*
X133816316Y-87121999D03*
D22*
X138896316Y-87121999D03*
D21*
X133858000Y-84666666D03*
D22*
X138938000Y-84666666D03*
D21*
X138938000Y-79756000D03*
D22*
X133858000Y-79756000D03*
D21*
X138938000Y-82211333D03*
D22*
X133858000Y-82211333D03*
D21*
X133816316Y-94488000D03*
D22*
X138896316Y-94488000D03*
D23*
X95528000Y-90170000D03*
D24*
X97028000Y-90170000D03*
D25*
X118190000Y-88646000D03*
X123190000Y-88646000D03*
X94060000Y-94234000D03*
X99060000Y-94234000D03*
X198140000Y-80010000D03*
X200640000Y-80010000D03*
X198140000Y-95250000D03*
X200640000Y-95250000D03*
D26*
X199390000Y-85200000D03*
X199390000Y-90080000D03*
D27*
X127762000Y-82042000D03*
D28*
X130302000Y-82042000D03*
D29*
X117856000Y-94488000D03*
X117856000Y-91948000D03*
X120396000Y-94488000D03*
X120396000Y-91948000D03*
X122936000Y-94488000D03*
D30*
X122936000Y-91948000D03*
D18*
X144526000Y-79248000D03*
X192786000Y-94488000D03*
X147066000Y-79248000D03*
X190246000Y-94488000D03*
X149606000Y-79248000D03*
X187706000Y-94488000D03*
X152146000Y-79248000D03*
X185166000Y-94488000D03*
X154686000Y-79248000D03*
X182626000Y-94488000D03*
X157226000Y-79248000D03*
X180086000Y-94488000D03*
X159766000Y-79248000D03*
X177546000Y-94488000D03*
X162306000Y-79248000D03*
X175006000Y-94488000D03*
X164846000Y-79248000D03*
X172466000Y-94488000D03*
X167386000Y-79248000D03*
X169926000Y-94488000D03*
X169926000Y-79248000D03*
X167386000Y-94488000D03*
X172466000Y-79248000D03*
X164846000Y-94488000D03*
X175006000Y-79248000D03*
X162306000Y-94488000D03*
X177546000Y-79248000D03*
X159766000Y-94488000D03*
X180086000Y-79248000D03*
X157226000Y-94488000D03*
X182626000Y-79248000D03*
X154686000Y-94488000D03*
X185166000Y-79248000D03*
X152146000Y-94488000D03*
X187706000Y-79248000D03*
X149606000Y-94488000D03*
X190246000Y-79248000D03*
X147066000Y-94488000D03*
X192786000Y-79248000D03*
D19*
X144526000Y-94488000D03*
D18*
X339344000Y-93472000D03*
D19*
X339344000Y-85852000D03*
D18*
X222504000Y-89376000D03*
D19*
X222504000Y-81756000D03*
D18*
X225044000Y-91440000D03*
D19*
X225044000Y-83820000D03*
D18*
X227584000Y-93472000D03*
D19*
X227584000Y-85852000D03*
D18*
X214884000Y-91440000D03*
D19*
X214884000Y-83820000D03*
D18*
X212344000Y-89376000D03*
D19*
X212344000Y-81756000D03*
D18*
X217424000Y-93472000D03*
D19*
X217424000Y-85852000D03*
D18*
X219964000Y-87376000D03*
D19*
X219964000Y-79756000D03*
D18*
X230124000Y-87376000D03*
D19*
X230124000Y-79756000D03*
D18*
X240284000Y-87376000D03*
D19*
X240284000Y-79756000D03*
D18*
X232664000Y-89376000D03*
D19*
X232664000Y-81756000D03*
D18*
X242824000Y-89376000D03*
D19*
X242824000Y-81756000D03*
D18*
X235204000Y-91440000D03*
D19*
X235204000Y-83820000D03*
D18*
X237744000Y-93472000D03*
D19*
X237744000Y-85852000D03*
D18*
X209804000Y-87376000D03*
D19*
X209804000Y-79756000D03*
D18*
X250444000Y-87376000D03*
D19*
X250444000Y-79756000D03*
D18*
X260604000Y-87376000D03*
D19*
X260604000Y-79756000D03*
D18*
X270764000Y-87376000D03*
D19*
X270764000Y-79756000D03*
D18*
X280924000Y-87376000D03*
D19*
X280924000Y-79756000D03*
D18*
X291084000Y-87376000D03*
D19*
X291084000Y-79756000D03*
D18*
X301282736Y-87376000D03*
D19*
X301282736Y-79756000D03*
D18*
X311404000Y-87376000D03*
D19*
X311404000Y-79756000D03*
D18*
X321564000Y-87376000D03*
D19*
X321564000Y-79756000D03*
D18*
X331724000Y-87376000D03*
D19*
X331724000Y-79756000D03*
D18*
X341884000Y-87376000D03*
D19*
X341884000Y-79756000D03*
D18*
X352044000Y-87376000D03*
D19*
X352044000Y-79756000D03*
D18*
X252984000Y-89376000D03*
D19*
X252984000Y-81756000D03*
D18*
X263144000Y-89376000D03*
D19*
X263144000Y-81756000D03*
D18*
X273304000Y-89376000D03*
D19*
X273304000Y-81756000D03*
D18*
X283464000Y-89376000D03*
D19*
X283464000Y-81756000D03*
D18*
X293624000Y-89376000D03*
D19*
X293624000Y-81756000D03*
D18*
X303784000Y-89376000D03*
D19*
X303784000Y-81756000D03*
D18*
X313944000Y-89376000D03*
D19*
X313944000Y-81756000D03*
D18*
X324104000Y-89376000D03*
D19*
X324104000Y-81756000D03*
D18*
X334264000Y-89376000D03*
D19*
X334264000Y-81756000D03*
D18*
X344424000Y-89376000D03*
D19*
X344424000Y-81756000D03*
D18*
X354584000Y-89376000D03*
D19*
X354584000Y-81756000D03*
D18*
X245364000Y-91440000D03*
D19*
X245364000Y-83820000D03*
D18*
X255524000Y-91440000D03*
D19*
X255524000Y-83820000D03*
D18*
X265684000Y-91440000D03*
D19*
X265684000Y-83820000D03*
D18*
X275844000Y-91440000D03*
D19*
X275844000Y-83820000D03*
D18*
X286004000Y-91440000D03*
D19*
X286004000Y-83820000D03*
D18*
X296164000Y-91440000D03*
D19*
X296164000Y-83820000D03*
D18*
X306324000Y-91440000D03*
D19*
X306324000Y-83820000D03*
D18*
X316484000Y-91440000D03*
D19*
X316484000Y-83820000D03*
D18*
X326644000Y-91440000D03*
D19*
X326644000Y-83820000D03*
D18*
X346964000Y-91440000D03*
D19*
X346964000Y-83820000D03*
D18*
X357124000Y-91440000D03*
D19*
X357124000Y-83820000D03*
D18*
X247904000Y-93472000D03*
D19*
X247904000Y-85852000D03*
D18*
X258064000Y-93472000D03*
D19*
X258064000Y-85852000D03*
D18*
X268224000Y-93472000D03*
D19*
X268224000Y-85852000D03*
D18*
X278384000Y-93472000D03*
D19*
X278384000Y-85852000D03*
D18*
X288544000Y-93472000D03*
D19*
X288544000Y-85852000D03*
D18*
X298704000Y-93472000D03*
D19*
X298704000Y-85852000D03*
D18*
X308864000Y-93472000D03*
D19*
X308864000Y-85852000D03*
D18*
X319024000Y-93472000D03*
D19*
X319024000Y-85852000D03*
D18*
X329184000Y-93472000D03*
D19*
X329184000Y-85852000D03*
D18*
X349504000Y-93472000D03*
D19*
X349504000Y-85852000D03*
D18*
X359664000Y-93472000D03*
D19*
X359664000Y-85852000D03*
D18*
X126746000Y-94996000D03*
D19*
X126746000Y-87376000D03*
D18*
X129794000Y-95006196D03*
D19*
X129794000Y-87386196D03*
D31*
X111910000Y-80006000D03*
X111910000Y-84506000D03*
X105410000Y-80006000D03*
X105410000Y-84506000D03*
X99972000Y-80010000D03*
X99972000Y-84510000D03*
X93472000Y-80010000D03*
X93472000Y-84510000D03*
D32*
X115552000Y-79220000D03*
X124202000Y-79220000D03*
D33*
X115552000Y-82600000D03*
X124202000Y-82600000D03*
D34*
X119452000Y-82230000D03*
X116902000Y-82230000D03*
X117752000Y-82230000D03*
X118602000Y-82230000D03*
X122852000Y-82230000D03*
X121152000Y-82230000D03*
X120302000Y-82230000D03*
X122002000Y-82230000D03*
X116902000Y-83580000D03*
X117752000Y-83580000D03*
X118602000Y-83580000D03*
X119452000Y-83580000D03*
X120302000Y-83580000D03*
X121152000Y-83580000D03*
X122002000Y-83580000D03*
X122852000Y-83580000D03*
D20*
X365506000Y-93218000D03*
X365506000Y-81534000D03*
X204978000Y-93218000D03*
X87376000Y-81534000D03*
X87376000Y-93218000D03*
X204978000Y-81534000D03*
X90170000Y-134112000D03*
X207768000Y-134112000D03*
X350520000Y-134112000D03*
X350520000Y-173482000D03*
X90170000Y-173482000D03*
M02*
