<?xml version="1.0"?>
<!-- Generated by SVGo (float) -->
<svg width="314.802mm" height="124.302mm"
     viewBox="0.000 0.000 314.802 124.302"
     xmlns="http://www.w3.org/2000/svg"
     xmlns:xlink="http://www.w3.org/1999/xlink">
<polygon points="21.023,5.000 21.001,5.001 21.236,5.010 21.470,5.037 21.701,5.083 21.928,5.147 22.149,5.229 22.362,5.327 22.568,5.443 22.764,5.573 22.949,5.719 23.122,5.879 23.282,6.052 23.428,6.237 23.558,6.433 23.674,6.639 23.772,6.852 23.854,7.073 23.918,7.300 23.964,7.531 23.991,7.765 24.001,8.001 24.000,21.500 24.010,21.736 24.037,21.970 24.083,22.201 24.147,22.428 24.229,22.649 24.327,22.862 24.443,23.068 24.573,23.264 24.719,23.449 24.879,23.622 25.052,23.782 25.237,23.928 25.433,24.058 25.639,24.174 25.852,24.272 26.073,24.354 26.300,24.418 26.531,24.464 26.765,24.491 27.001,24.501 308.456,24.501 308.565,24.573 308.750,24.719 308.923,24.879 309.083,25.052 309.229,25.237 309.359,25.433 309.475,25.639 309.573,25.852 309.655,26.073 309.719,26.300 309.765,26.531 309.792,26.765 309.802,27.001 309.802,116.301 309.792,116.537 309.765,116.771 309.719,117.002 309.655,117.229 309.573,117.450 309.475,117.663 309.359,117.869 309.229,118.065 309.083,118.250 308.923,118.423 308.750,118.583 308.565,118.729 308.369,118.859 308.163,118.975 307.950,119.073 307.729,119.155 307.502,119.219 307.271,119.265 307.037,119.292 306.802,119.302 8.001,119.301 7.765,119.292 7.531,119.265 7.300,119.219 7.073,119.155 6.852,119.073 6.639,118.975 6.433,118.859 6.237,118.729 6.052,118.583 5.879,118.423 5.719,118.250 5.573,118.065 5.443,117.869 5.327,117.663 5.229,117.450 5.147,117.229 5.083,117.002 5.037,116.771 5.010,116.537 5.000,116.301 5.001,8.001 5.010,7.765 5.037,7.531 5.083,7.300 5.147,7.073 5.229,6.852 5.327,6.639 5.443,6.433 5.573,6.237 5.719,6.052 5.879,5.879 6.052,5.719 6.237,5.573 6.433,5.443 6.639,5.327 6.852,5.229 7.073,5.147 7.300,5.083 7.531,5.037 7.765,5.010 8.001,5.000" style="fill:none;stroke-width:0.050000mm;stroke:black" />
<polygon points="184.319,103.325 184.319,104.245 182.594,104.245 182.594,107.476 181.769,107.476 181.769,110.275 182.594,110.275 182.594,116.545 184.319,116.545 184.319,117.525 187.619,117.525 187.619,116.545 189.344,116.545 189.344,110.275 190.169,110.275 190.169,107.476 189.344,107.476 189.344,104.245 187.619,104.245 187.619,103.325" style="fill:none;stroke-width:0.050000mm;stroke:black" />
<polygon points="84.319,103.325 84.319,104.245 82.594,104.245 82.594,107.476 81.769,107.476 81.769,110.275 82.594,110.275 82.594,116.545 84.319,116.545 84.319,117.525 87.619,117.525 87.619,116.545 89.344,116.545 89.344,110.275 90.169,110.275 90.169,107.476 89.344,107.476 89.344,104.245 87.619,104.245 87.619,103.325" style="fill:none;stroke-width:0.050000mm;stroke:black" />
<polygon points="293.276,102.775 293.276,103.775 292.476,103.775 292.476,106.875 293.276,106.875 293.276,112.676 292.476,112.676 292.476,115.775 293.276,115.775 293.276,116.775 307.276,116.775 307.276,115.775 308.076,115.775 308.076,112.676 307.276,112.676 307.276,106.875 308.076,106.875 308.076,103.775 307.276,103.775 307.276,102.775" style="fill:none;stroke-width:0.050000mm;stroke:black" />
<polygon points="274.226,102.775 274.226,103.775 273.426,103.775 273.426,106.875 274.226,106.875 274.226,112.676 273.426,112.676 273.426,115.775 274.226,115.775 274.226,116.775 288.226,116.775 288.226,115.775 289.026,115.775 289.026,112.676 288.226,112.676 288.226,106.875 289.026,106.875 289.026,103.775 288.226,103.775 288.226,102.775" style="fill:none;stroke-width:0.050000mm;stroke:black" />
<polygon points="255.176,102.775 255.176,103.775 254.376,103.775 254.376,106.875 255.176,106.875 255.176,112.676 254.376,112.676 254.376,115.775 255.176,115.775 255.176,116.775 269.176,116.775 269.176,115.775 269.976,115.775 269.976,112.676 269.176,112.676 269.176,106.875 269.976,106.875 269.976,103.775 269.176,103.775 269.176,102.775" style="fill:none;stroke-width:0.050000mm;stroke:black" />
<polygon points="236.126,102.775 236.126,103.775 235.326,103.775 235.326,106.875 236.126,106.875 236.126,112.676 235.326,112.676 235.326,115.775 236.126,115.775 236.126,116.775 250.126,116.775 250.126,115.775 250.926,115.775 250.926,112.676 250.126,112.676 250.126,106.875 250.926,106.875 250.926,103.775 250.126,103.775 250.126,102.775" style="fill:none;stroke-width:0.050000mm;stroke:black" />
<polygon points="217.076,102.775 217.076,103.775 216.276,103.775 216.276,106.875 217.076,106.875 217.076,112.676 216.276,112.676 216.276,115.775 217.076,115.775 217.076,116.775 231.076,116.775 231.076,115.775 231.876,115.775 231.876,112.676 231.076,112.676 231.076,106.875 231.876,106.875 231.876,103.775 231.076,103.775 231.076,102.775" style="fill:none;stroke-width:0.050000mm;stroke:black" />
<polygon points="198.026,102.775 198.026,103.775 197.226,103.775 197.226,106.875 198.026,106.875 198.026,112.676 197.226,112.676 197.226,115.775 198.026,115.775 198.026,116.775 212.026,116.775 212.026,115.775 212.826,115.775 212.826,112.676 212.026,112.676 212.026,106.875 212.826,106.875 212.826,103.775 212.026,103.775 212.026,102.775" style="fill:none;stroke-width:0.050000mm;stroke:black" />
<polygon points="128.968,102.775 128.968,103.775 128.169,103.775 128.169,106.875 128.968,106.875 128.968,112.676 128.169,112.676 128.169,115.775 128.968,115.775 128.968,116.775 142.969,116.775 142.969,115.775 143.769,115.775 143.769,112.676 142.969,112.676 142.969,106.875 143.769,106.875 143.769,103.775 142.969,103.775 142.969,102.775" style="fill:none;stroke-width:0.050000mm;stroke:black" />
<polygon points="57.532,102.775 57.532,103.775 56.732,103.775 56.732,106.875 57.532,106.875 57.532,112.676 56.732,112.676 56.732,115.775 57.532,115.775 57.532,116.775 71.532,116.775 71.532,115.775 72.332,115.775 72.332,112.676 71.532,112.676 71.532,106.875 72.332,106.875 72.332,103.775 71.532,103.775 71.532,102.775" style="fill:none;stroke-width:0.050000mm;stroke:black" />
<polygon points="33.719,102.775 33.719,103.775 32.919,103.775 32.919,106.875 33.719,106.875 33.719,112.676 32.919,112.676 32.919,115.775 33.719,115.775 33.719,116.775 47.719,116.775 47.719,115.775 48.519,115.775 48.519,112.676 47.719,112.676 47.719,106.875 48.519,106.875 48.519,103.775 47.719,103.775 47.719,102.775" style="fill:none;stroke-width:0.050000mm;stroke:black" />
<polygon points="9.907,102.775 9.907,103.775 9.107,103.775 9.107,106.875 9.907,106.875 9.907,112.676 9.107,112.676 9.107,115.775 9.907,115.775 9.907,116.775 23.907,116.775 23.907,115.775 24.707,115.775 24.707,112.676 23.907,112.676 23.907,106.875 24.707,106.875 24.707,103.775 23.907,103.775 23.907,102.775" style="fill:none;stroke-width:0.050000mm;stroke:black" />
<polygon points="30.494,99.017 30.338,99.035 30.184,99.066 30.032,99.108 29.885,99.163 29.743,99.228 29.606,99.305 29.475,99.392 29.352,99.490 29.236,99.596 29.130,99.712 29.032,99.835 28.945,99.966 28.868,100.103 28.803,100.245 28.748,100.392 28.706,100.544 28.675,100.698 28.657,100.854 28.651,101.010 28.657,101.167 28.675,101.323 28.706,101.477 28.748,101.629 28.803,101.776 28.868,101.918 28.945,102.055 29.032,102.186 29.130,102.309 29.236,102.425 29.352,102.531 29.475,102.629 29.606,102.716 29.743,102.793 29.885,102.858 30.032,102.913 30.184,102.955 30.338,102.986 30.494,103.004 30.651,103.010 30.807,103.004 30.963,102.986 31.117,102.955 31.269,102.913 31.416,102.858 31.558,102.793 31.695,102.716 31.826,102.629 31.949,102.531 32.065,102.425 32.171,102.309 32.269,102.186 32.355,102.055 32.433,101.918 32.498,101.776 32.553,101.629 32.595,101.477 32.626,101.323 32.644,101.167 32.651,101.010 32.644,100.854 32.626,100.698 32.595,100.544 32.553,100.392 32.498,100.245 32.433,100.103 32.355,99.966 32.269,99.835 32.171,99.712 32.065,99.596 31.949,99.490 31.826,99.392 31.695,99.305 31.558,99.228 31.416,99.163 31.269,99.108 31.117,99.066 30.963,99.035 30.807,99.017 30.651,99.011" style="fill:none;stroke-width:0.050000mm;stroke:black" />
<polygon points="148.094,99.017 147.938,99.035 147.784,99.066 147.632,99.108 147.485,99.163 147.343,99.228 147.206,99.305 147.075,99.392 146.952,99.490 146.836,99.596 146.730,99.712 146.632,99.835 146.545,99.966 146.468,100.103 146.403,100.245 146.348,100.392 146.306,100.544 146.275,100.698 146.257,100.854 146.250,101.010 146.257,101.167 146.275,101.323 146.306,101.477 146.348,101.629 146.403,101.776 146.468,101.918 146.545,102.055 146.632,102.186 146.730,102.309 146.836,102.425 146.952,102.531 147.075,102.629 147.206,102.716 147.343,102.793 147.485,102.858 147.632,102.913 147.784,102.955 147.938,102.986 148.094,103.004 148.251,103.010 148.407,103.004 148.563,102.986 148.717,102.955 148.869,102.913 149.016,102.858 149.158,102.793 149.295,102.716 149.426,102.629 149.549,102.531 149.665,102.425 149.771,102.309 149.869,102.186 149.956,102.055 150.033,101.918 150.098,101.776 150.153,101.629 150.195,101.477 150.226,101.323 150.244,101.167 150.251,101.010 150.244,100.854 150.226,100.698 150.195,100.544 150.153,100.392 150.098,100.245 150.033,100.103 149.956,99.966 149.869,99.835 149.771,99.712 149.665,99.596 149.549,99.490 149.426,99.392 149.295,99.305 149.158,99.228 149.016,99.163 148.869,99.108 148.717,99.066 148.563,99.035 148.407,99.017 148.251,99.011" style="fill:none;stroke-width:0.050000mm;stroke:black" />
<polygon points="290.844,99.017 290.688,99.035 290.534,99.066 290.382,99.108 290.235,99.163 290.093,99.228 289.956,99.305 289.825,99.392 289.702,99.490 289.586,99.596 289.480,99.712 289.382,99.835 289.295,99.966 289.218,100.103 289.153,100.245 289.098,100.392 289.056,100.544 289.025,100.698 289.007,100.854 289.000,101.010 289.007,101.167 289.025,101.323 289.056,101.477 289.098,101.629 289.153,101.776 289.218,101.918 289.295,102.055 289.382,102.186 289.480,102.309 289.586,102.425 289.702,102.531 289.825,102.629 289.956,102.716 290.093,102.793 290.235,102.858 290.382,102.913 290.534,102.955 290.688,102.986 290.844,103.004 291.001,103.010 291.157,103.004 291.313,102.986 291.467,102.955 291.619,102.913 291.766,102.858 291.908,102.793 292.045,102.716 292.176,102.629 292.299,102.531 292.415,102.425 292.521,102.309 292.619,102.186 292.706,102.055 292.783,101.918 292.848,101.776 292.903,101.629 292.945,101.477 292.976,101.323 292.994,101.167 293.001,101.010 292.994,100.854 292.976,100.698 292.945,100.544 292.903,100.392 292.848,100.245 292.783,100.103 292.706,99.966 292.619,99.835 292.521,99.712 292.415,99.596 292.299,99.490 292.176,99.392 292.045,99.305 291.908,99.228 291.766,99.163 291.619,99.108 291.467,99.066 291.313,99.035 291.157,99.017 291.001,99.011" style="fill:none;stroke-width:0.050000mm;stroke:black" />
<polygon points="36.682,84.275 36.682,85.196 34.957,85.196 34.957,88.426 34.132,88.426 34.132,91.226 34.957,91.226 34.957,97.495 36.682,97.495 36.682,98.476 39.982,98.476 39.982,97.495 41.707,97.495 41.707,91.226 42.532,91.226 42.532,88.426 41.707,88.426 41.707,85.196 39.982,85.196 39.982,84.275" style="fill:none;stroke-width:0.050000mm;stroke:black" />
<polygon points="12.882,84.275 12.882,85.196 11.157,85.196 11.157,88.426 10.332,88.426 10.332,91.226 11.157,91.226 11.157,97.495 12.882,97.495 12.882,98.476 16.182,98.476 16.182,97.495 17.907,97.495 17.907,91.226 18.732,91.226 18.732,88.426 17.907,88.426 17.907,85.196 16.182,85.196 16.182,84.275" style="fill:none;stroke-width:0.050000mm;stroke:black" />
<polygon points="293.276,83.726 293.276,84.726 292.476,84.726 292.476,87.825 293.276,87.825 293.276,93.626 292.476,93.626 292.476,96.726 293.276,96.726 293.276,97.726 307.276,97.726 307.276,96.726 308.076,96.726 308.076,93.626 307.276,93.626 307.276,87.825 308.076,87.825 308.076,84.726 307.276,84.726 307.276,83.726" style="fill:none;stroke-width:0.050000mm;stroke:black" />
<polygon points="274.226,83.726 274.226,84.726 273.426,84.726 273.426,87.825 274.226,87.825 274.226,93.626 273.426,93.626 273.426,96.726 274.226,96.726 274.226,97.726 288.226,97.726 288.226,96.726 289.026,96.726 289.026,93.626 288.226,93.626 288.226,87.825 289.026,87.825 289.026,84.726 288.226,84.726 288.226,83.726" style="fill:none;stroke-width:0.050000mm;stroke:black" />
<polygon points="248.032,83.726 248.032,84.726 247.232,84.726 247.232,87.825 248.032,87.825 248.032,93.626 247.232,93.626 247.232,96.726 248.032,96.726 248.032,97.726 262.032,97.726 262.032,96.726 262.832,96.726 262.832,93.626 262.032,93.626 262.032,87.825 262.832,87.825 262.832,84.726 262.032,84.726 262.032,83.726" style="fill:none;stroke-width:0.050000mm;stroke:black" />
<polygon points="221.838,83.726 221.838,84.726 221.038,84.726 221.038,87.825 221.838,87.825 221.838,93.626 221.038,93.626 221.038,96.726 221.838,96.726 221.838,97.726 235.838,97.726 235.838,96.726 236.638,96.726 236.638,93.626 235.838,93.626 235.838,87.825 236.638,87.825 236.638,84.726 235.838,84.726 235.838,83.726" style="fill:none;stroke-width:0.050000mm;stroke:black" />
<polygon points="202.788,83.726 202.788,84.726 201.988,84.726 201.988,87.825 202.788,87.825 202.788,93.626 201.988,93.626 201.988,96.726 202.788,96.726 202.788,97.726 216.788,97.726 216.788,96.726 217.588,96.726 217.588,93.626 216.788,93.626 216.788,87.825 217.588,87.825 217.588,84.726 216.788,84.726 216.788,83.726" style="fill:none;stroke-width:0.050000mm;stroke:black" />
<polygon points="183.738,83.726 183.738,84.726 182.938,84.726 182.938,87.825 183.738,87.825 183.738,93.626 182.938,93.626 182.938,96.726 183.738,96.726 183.738,97.726 197.738,97.726 197.738,96.726 198.538,96.726 198.538,93.626 197.738,93.626 197.738,87.825 198.538,87.825 198.538,84.726 197.738,84.726 197.738,83.726" style="fill:none;stroke-width:0.050000mm;stroke:black" />
<polygon points="164.688,83.726 164.688,84.726 163.888,84.726 163.888,87.825 164.688,87.825 164.688,93.626 163.888,93.626 163.888,96.726 164.688,96.726 164.688,97.726 178.688,97.726 178.688,96.726 179.488,96.726 179.488,93.626 178.688,93.626 178.688,87.825 179.488,87.825 179.488,84.726 178.688,84.726 178.688,83.726" style="fill:none;stroke-width:0.050000mm;stroke:black" />
<polygon points="145.638,83.726 145.638,84.726 144.838,84.726 144.838,87.825 145.638,87.825 145.638,93.626 144.838,93.626 144.838,96.726 145.638,96.726 145.638,97.726 159.638,97.726 159.638,96.726 160.438,96.726 160.438,93.626 159.638,93.626 159.638,87.825 160.438,87.825 160.438,84.726 159.638,84.726 159.638,83.726" style="fill:none;stroke-width:0.050000mm;stroke:black" />
<polygon points="126.588,83.726 126.588,84.726 125.788,84.726 125.788,87.825 126.588,87.825 126.588,93.626 125.788,93.626 125.788,96.726 126.588,96.726 126.588,97.726 140.588,97.726 140.588,96.726 141.388,96.726 141.388,93.626 140.588,93.626 140.588,87.825 141.388,87.825 141.388,84.726 140.588,84.726 140.588,83.726" style="fill:none;stroke-width:0.050000mm;stroke:black" />
<polygon points="107.538,83.726 107.538,84.726 106.738,84.726 106.738,87.825 107.538,87.825 107.538,93.626 106.738,93.626 106.738,96.726 107.538,96.726 107.538,97.726 121.538,97.726 121.538,96.726 122.338,96.726 122.338,93.626 121.538,93.626 121.538,87.825 122.338,87.825 122.338,84.726 121.538,84.726 121.538,83.726" style="fill:none;stroke-width:0.050000mm;stroke:black" />
<polygon points="88.488,83.726 88.488,84.726 87.688,84.726 87.688,87.825 88.488,87.825 88.488,93.626 87.688,93.626 87.688,96.726 88.488,96.726 88.488,97.726 102.488,97.726 102.488,96.726 103.288,96.726 103.288,93.626 102.488,93.626 102.488,87.825 103.288,87.825 103.288,84.726 102.488,84.726 102.488,83.726" style="fill:none;stroke-width:0.050000mm;stroke:black" />
<polygon points="69.438,83.726 69.438,84.726 68.638,84.726 68.638,87.825 69.438,87.825 69.438,93.626 68.638,93.626 68.638,96.726 69.438,96.726 69.438,97.726 83.438,97.726 83.438,96.726 84.238,96.726 84.238,93.626 83.438,93.626 83.438,87.825 84.238,87.825 84.238,84.726 83.438,84.726 83.438,83.726" style="fill:none;stroke-width:0.050000mm;stroke:black" />
<polygon points="50.388,83.726 50.388,84.726 49.588,84.726 49.588,87.825 50.388,87.825 50.388,93.626 49.588,93.626 49.588,96.726 50.388,96.726 50.388,97.726 64.388,97.726 64.388,96.726 65.188,96.726 65.188,93.626 64.388,93.626 64.388,87.825 65.188,87.825 65.188,84.726 64.388,84.726 64.388,83.726" style="fill:none;stroke-width:0.050000mm;stroke:black" />
<polygon points="19.432,83.726 19.432,84.726 18.632,84.726 18.632,87.825 19.432,87.825 19.432,93.626 18.632,93.626 18.632,96.726 19.432,96.726 19.432,97.726 33.432,97.726 33.432,96.726 34.232,96.726 34.232,93.626 33.432,93.626 33.432,87.825 34.232,87.825 34.232,84.726 33.432,84.726 33.432,83.726" style="fill:none;stroke-width:0.050000mm;stroke:black" />
<polygon points="279.569,65.225 279.569,66.146 277.844,66.146 277.844,69.376 277.019,69.376 277.019,72.176 277.844,72.176 277.844,78.446 279.569,78.446 279.569,79.426 282.869,79.426 282.869,78.446 284.594,78.446 284.594,72.176 285.419,72.176 285.419,69.376 284.594,69.376 284.594,66.146 282.869,66.146 282.869,65.225" style="fill:none;stroke-width:0.050000mm;stroke:black" />
<polygon points="255.769,65.225 255.769,66.146 254.044,66.146 254.044,69.376 253.219,69.376 253.219,72.176 254.044,72.176 254.044,78.446 255.769,78.446 255.769,79.426 259.068,79.426 259.068,78.446 260.794,78.446 260.794,72.176 261.619,72.176 261.619,69.376 260.794,69.376 260.794,66.146 259.068,66.146 259.068,65.225" style="fill:none;stroke-width:0.050000mm;stroke:black" />
<polygon points="293.276,64.676 293.276,65.676 292.476,65.676 292.476,68.775 293.276,68.775 293.276,74.576 292.476,74.576 292.476,77.676 293.276,77.676 293.276,78.676 307.276,78.676 307.276,77.676 308.076,77.676 308.076,74.576 307.276,74.576 307.276,68.775 308.076,68.775 308.076,65.676 307.276,65.676 307.276,64.676" style="fill:none;stroke-width:0.050000mm;stroke:black" />
<polygon points="262.319,64.676 262.319,65.676 261.518,65.676 261.518,68.775 262.319,68.775 262.319,74.576 261.518,74.576 261.518,77.676 262.319,77.676 262.319,78.676 276.319,78.676 276.319,77.676 277.119,77.676 277.119,74.576 276.319,74.576 276.319,68.775 277.119,68.775 277.119,65.676 276.319,65.676 276.319,64.676" style="fill:none;stroke-width:0.050000mm;stroke:black" />
<polygon points="231.363,64.676 231.363,65.676 230.563,65.676 230.563,68.775 231.363,68.775 231.363,74.576 230.563,74.576 230.563,77.676 231.363,77.676 231.363,78.676 245.363,78.676 245.363,77.676 246.163,77.676 246.163,74.576 245.363,74.576 245.363,68.775 246.163,68.775 246.163,65.676 245.363,65.676 245.363,64.676" style="fill:none;stroke-width:0.050000mm;stroke:black" />
<polygon points="212.313,64.676 212.313,65.676 211.513,65.676 211.513,68.775 212.313,68.775 212.313,74.576 211.513,74.576 211.513,77.676 212.313,77.676 212.313,78.676 226.313,78.676 226.313,77.676 227.113,77.676 227.113,74.576 226.313,74.576 226.313,68.775 227.113,68.775 227.113,65.676 226.313,65.676 226.313,64.676" style="fill:none;stroke-width:0.050000mm;stroke:black" />
<polygon points="193.263,64.676 193.263,65.676 192.463,65.676 192.463,68.775 193.263,68.775 193.263,74.576 192.463,74.576 192.463,77.676 193.263,77.676 193.263,78.676 207.263,78.676 207.263,77.676 208.063,77.676 208.063,74.576 207.263,74.576 207.263,68.775 208.063,68.775 208.063,65.676 207.263,65.676 207.263,64.676" style="fill:none;stroke-width:0.050000mm;stroke:black" />
<polygon points="174.213,64.676 174.213,65.676 173.413,65.676 173.413,68.775 174.213,68.775 174.213,74.576 173.413,74.576 173.413,77.676 174.213,77.676 174.213,78.676 188.213,78.676 188.213,77.676 189.013,77.676 189.013,74.576 188.213,74.576 188.213,68.775 189.013,68.775 189.013,65.676 188.213,65.676 188.213,64.676" style="fill:none;stroke-width:0.050000mm;stroke:black" />
<polygon points="155.163,64.676 155.163,65.676 154.363,65.676 154.363,68.775 155.163,68.775 155.163,74.576 154.363,74.576 154.363,77.676 155.163,77.676 155.163,78.676 169.163,78.676 169.163,77.676 169.963,77.676 169.963,74.576 169.163,74.576 169.163,68.775 169.963,68.775 169.963,65.676 169.163,65.676 169.163,64.676" style="fill:none;stroke-width:0.050000mm;stroke:black" />
<polygon points="136.113,64.676 136.113,65.676 135.313,65.676 135.313,68.775 136.113,68.775 136.113,74.576 135.313,74.576 135.313,77.676 136.113,77.676 136.113,78.676 150.113,78.676 150.113,77.676 150.913,77.676 150.913,74.576 150.113,74.576 150.113,68.775 150.913,68.775 150.913,65.676 150.113,65.676 150.113,64.676" style="fill:none;stroke-width:0.050000mm;stroke:black" />
<polygon points="117.063,64.676 117.063,65.676 116.263,65.676 116.263,68.775 117.063,68.775 117.063,74.576 116.263,74.576 116.263,77.676 117.063,77.676 117.063,78.676 131.063,78.676 131.063,77.676 131.863,77.676 131.863,74.576 131.063,74.576 131.063,68.775 131.863,68.775 131.863,65.676 131.063,65.676 131.063,64.676" style="fill:none;stroke-width:0.050000mm;stroke:black" />
<polygon points="98.013,64.676 98.013,65.676 97.213,65.676 97.213,68.775 98.013,68.775 98.013,74.576 97.213,74.576 97.213,77.676 98.013,77.676 98.013,78.676 112.013,78.676 112.013,77.676 112.813,77.676 112.813,74.576 112.013,74.576 112.013,68.775 112.813,68.775 112.813,65.676 112.013,65.676 112.013,64.676" style="fill:none;stroke-width:0.050000mm;stroke:black" />
<polygon points="78.963,64.676 78.963,65.676 78.163,65.676 78.163,68.775 78.963,68.775 78.963,74.576 78.163,74.576 78.163,77.676 78.963,77.676 78.963,78.676 92.963,78.676 92.963,77.676 93.763,77.676 93.763,74.576 92.963,74.576 92.963,68.775 93.763,68.775 93.763,65.676 92.963,65.676 92.963,64.676" style="fill:none;stroke-width:0.050000mm;stroke:black" />
<polygon points="59.913,64.676 59.913,65.676 59.113,65.676 59.113,68.775 59.913,68.775 59.913,74.576 59.113,74.576 59.113,77.676 59.913,77.676 59.913,78.676 73.913,78.676 73.913,77.676 74.713,77.676 74.713,74.576 73.913,74.576 73.913,68.775 74.713,68.775 74.713,65.676 73.913,65.676 73.913,64.676" style="fill:none;stroke-width:0.050000mm;stroke:black" />
<polygon points="40.863,64.676 40.863,65.676 40.063,65.676 40.063,68.775 40.863,68.775 40.863,74.576 40.063,74.576 40.063,77.676 40.863,77.676 40.863,78.676 54.863,78.676 54.863,77.676 55.663,77.676 55.663,74.576 54.863,74.576 54.863,68.775 55.663,68.775 55.663,65.676 54.863,65.676 54.863,64.676" style="fill:none;stroke-width:0.050000mm;stroke:black" />
<polygon points="14.669,64.676 14.669,65.676 13.869,65.676 13.869,68.775 14.669,68.775 14.669,74.576 13.869,74.576 13.869,77.676 14.669,77.676 14.669,78.676 28.669,78.676 28.669,77.676 29.469,77.676 29.469,74.576 28.669,74.576 28.669,68.775 29.469,68.775 29.469,65.676 28.669,65.676 28.669,64.676" style="fill:none;stroke-width:0.050000mm;stroke:black" />
<polygon points="30.494,59.647 30.338,59.665 30.184,59.696 30.032,59.738 29.885,59.793 29.743,59.858 29.606,59.935 29.475,60.022 29.352,60.120 29.236,60.226 29.130,60.342 29.032,60.465 28.945,60.596 28.868,60.733 28.803,60.875 28.748,61.022 28.706,61.174 28.675,61.328 28.657,61.484 28.651,61.641 28.657,61.797 28.675,61.953 28.706,62.107 28.748,62.259 28.803,62.406 28.868,62.548 28.945,62.685 29.032,62.816 29.130,62.939 29.236,63.055 29.352,63.161 29.475,63.259 29.606,63.346 29.743,63.423 29.885,63.488 30.032,63.543 30.184,63.585 30.338,63.616 30.494,63.634 30.651,63.641 30.807,63.634 30.963,63.616 31.117,63.585 31.269,63.543 31.416,63.488 31.558,63.423 31.695,63.346 31.826,63.259 31.949,63.161 32.065,63.055 32.171,62.939 32.269,62.816 32.355,62.685 32.433,62.548 32.498,62.406 32.553,62.259 32.595,62.107 32.626,61.953 32.644,61.797 32.651,61.641 32.644,61.484 32.626,61.328 32.595,61.174 32.553,61.022 32.498,60.875 32.433,60.733 32.355,60.596 32.269,60.465 32.171,60.342 32.065,60.226 31.949,60.120 31.826,60.022 31.695,59.935 31.558,59.858 31.416,59.793 31.269,59.738 31.117,59.696 30.963,59.665 30.807,59.647 30.651,59.641" style="fill:none;stroke-width:0.050000mm;stroke:black" />
<polygon points="148.094,59.647 147.938,59.665 147.784,59.696 147.632,59.738 147.485,59.793 147.343,59.858 147.206,59.935 147.075,60.022 146.952,60.120 146.836,60.226 146.730,60.342 146.632,60.465 146.545,60.596 146.468,60.733 146.403,60.875 146.348,61.022 146.306,61.174 146.275,61.328 146.257,61.484 146.250,61.641 146.257,61.797 146.275,61.953 146.306,62.107 146.348,62.259 146.403,62.406 146.468,62.548 146.545,62.685 146.632,62.816 146.730,62.939 146.836,63.055 146.952,63.161 147.075,63.259 147.206,63.346 147.343,63.423 147.485,63.488 147.632,63.543 147.784,63.585 147.938,63.616 148.094,63.634 148.251,63.641 148.407,63.634 148.563,63.616 148.717,63.585 148.869,63.543 149.016,63.488 149.158,63.423 149.295,63.346 149.426,63.259 149.549,63.161 149.665,63.055 149.771,62.939 149.869,62.816 149.956,62.685 150.033,62.548 150.098,62.406 150.153,62.259 150.195,62.107 150.226,61.953 150.244,61.797 150.251,61.641 150.244,61.484 150.226,61.328 150.195,61.174 150.153,61.022 150.098,60.875 150.033,60.733 149.956,60.596 149.869,60.465 149.771,60.342 149.665,60.226 149.549,60.120 149.426,60.022 149.295,59.935 149.158,59.858 149.016,59.793 148.869,59.738 148.717,59.696 148.563,59.665 148.407,59.647 148.251,59.641" style="fill:none;stroke-width:0.050000mm;stroke:black" />
<polygon points="290.844,59.647 290.688,59.665 290.534,59.696 290.382,59.738 290.235,59.793 290.093,59.858 289.956,59.935 289.825,60.022 289.702,60.120 289.586,60.226 289.480,60.342 289.382,60.465 289.295,60.596 289.218,60.733 289.153,60.875 289.098,61.022 289.056,61.174 289.025,61.328 289.007,61.484 289.000,61.641 289.007,61.797 289.025,61.953 289.056,62.107 289.098,62.259 289.153,62.406 289.218,62.548 289.295,62.685 289.382,62.816 289.480,62.939 289.586,63.055 289.702,63.161 289.825,63.259 289.956,63.346 290.093,63.423 290.235,63.488 290.382,63.543 290.534,63.585 290.688,63.616 290.844,63.634 291.001,63.641 291.157,63.634 291.313,63.616 291.467,63.585 291.619,63.543 291.766,63.488 291.908,63.423 292.045,63.346 292.176,63.259 292.299,63.161 292.415,63.055 292.521,62.939 292.619,62.816 292.706,62.685 292.783,62.548 292.848,62.406 292.903,62.259 292.945,62.107 292.976,61.953 292.994,61.797 293.001,61.641 292.994,61.484 292.976,61.328 292.945,61.174 292.903,61.022 292.848,60.875 292.783,60.733 292.706,60.596 292.619,60.465 292.521,60.342 292.415,60.226 292.299,60.120 292.176,60.022 292.045,59.935 291.908,59.858 291.766,59.793 291.619,59.738 291.467,59.696 291.313,59.665 291.157,59.647 291.001,59.641" style="fill:none;stroke-width:0.050000mm;stroke:black" />
<polygon points="293.276,45.626 293.276,46.626 292.476,46.626 292.476,49.726 293.276,49.726 293.276,55.526 292.476,55.526 292.476,58.626 293.276,58.626 293.276,59.626 307.276,59.626 307.276,58.626 308.076,58.626 308.076,55.526 307.276,55.526 307.276,49.726 308.076,49.726 308.076,46.626 307.276,46.626 307.276,45.626" style="fill:none;stroke-width:0.050000mm;stroke:black" />
<polygon points="269.463,45.626 269.463,46.626 268.663,46.626 268.663,49.726 269.463,49.726 269.463,55.526 268.663,55.526 268.663,58.626 269.463,58.626 269.463,59.626 283.463,59.626 283.463,58.626 284.263,58.626 284.263,55.526 283.463,55.526 283.463,49.726 284.263,49.726 284.263,46.626 283.463,46.626 283.463,45.626" style="fill:none;stroke-width:0.050000mm;stroke:black" />
<polygon points="245.651,45.626 245.651,46.626 244.851,46.626 244.851,49.726 245.651,49.726 245.651,55.526 244.851,55.526 244.851,58.626 245.651,58.626 245.651,59.626 259.650,59.626 259.650,58.626 260.451,58.626 260.451,55.526 259.650,55.526 259.650,49.726 260.451,49.726 260.451,46.626 259.650,46.626 259.650,45.626" style="fill:none;stroke-width:0.050000mm;stroke:black" />
<polygon points="226.601,45.626 226.601,46.626 225.801,46.626 225.801,49.726 226.601,49.726 226.601,55.526 225.801,55.526 225.801,58.626 226.601,58.626 226.601,59.626 240.601,59.626 240.601,58.626 241.401,58.626 241.401,55.526 240.601,55.526 240.601,49.726 241.401,49.726 241.401,46.626 240.601,46.626 240.601,45.626" style="fill:none;stroke-width:0.050000mm;stroke:black" />
<polygon points="207.551,45.626 207.551,46.626 206.751,46.626 206.751,49.726 207.551,49.726 207.551,55.526 206.751,55.526 206.751,58.626 207.551,58.626 207.551,59.626 221.551,59.626 221.551,58.626 222.351,58.626 222.351,55.526 221.551,55.526 221.551,49.726 222.351,49.726 222.351,46.626 221.551,46.626 221.551,45.626" style="fill:none;stroke-width:0.050000mm;stroke:black" />
<polygon points="188.501,45.626 188.501,46.626 187.701,46.626 187.701,49.726 188.501,49.726 188.501,55.526 187.701,55.526 187.701,58.626 188.501,58.626 188.501,59.626 202.501,59.626 202.501,58.626 203.301,58.626 203.301,55.526 202.501,55.526 202.501,49.726 203.301,49.726 203.301,46.626 202.501,46.626 202.501,45.626" style="fill:none;stroke-width:0.050000mm;stroke:black" />
<polygon points="169.451,45.626 169.451,46.626 168.651,46.626 168.651,49.726 169.451,49.726 169.451,55.526 168.651,55.526 168.651,58.626 169.451,58.626 169.451,59.626 183.451,59.626 183.451,58.626 184.251,58.626 184.251,55.526 183.451,55.526 183.451,49.726 184.251,49.726 184.251,46.626 183.451,46.626 183.451,45.626" style="fill:none;stroke-width:0.050000mm;stroke:black" />
<polygon points="150.401,45.626 150.401,46.626 149.601,46.626 149.601,49.726 150.401,49.726 150.401,55.526 149.601,55.526 149.601,58.626 150.401,58.626 150.401,59.626 164.401,59.626 164.401,58.626 165.201,58.626 165.201,55.526 164.401,55.526 164.401,49.726 165.201,49.726 165.201,46.626 164.401,46.626 164.401,45.626" style="fill:none;stroke-width:0.050000mm;stroke:black" />
<polygon points="131.351,45.626 131.351,46.626 130.550,46.626 130.550,49.726 131.351,49.726 131.351,55.526 130.550,55.526 130.550,58.626 131.351,58.626 131.351,59.626 145.351,59.626 145.351,58.626 146.151,58.626 146.151,55.526 145.351,55.526 145.351,49.726 146.151,49.726 146.151,46.626 145.351,46.626 145.351,45.626" style="fill:none;stroke-width:0.050000mm;stroke:black" />
<polygon points="112.301,45.626 112.301,46.626 111.501,46.626 111.501,49.726 112.301,49.726 112.301,55.526 111.501,55.526 111.501,58.626 112.301,58.626 112.301,59.626 126.301,59.626 126.301,58.626 127.101,58.626 127.101,55.526 126.301,55.526 126.301,49.726 127.101,49.726 127.101,46.626 126.301,46.626 126.301,45.626" style="fill:none;stroke-width:0.050000mm;stroke:black" />
<polygon points="93.251,45.626 93.251,46.626 92.451,46.626 92.451,49.726 93.251,49.726 93.251,55.526 92.451,55.526 92.451,58.626 93.251,58.626 93.251,59.626 107.251,59.626 107.251,58.626 108.051,58.626 108.051,55.526 107.251,55.526 107.251,49.726 108.051,49.726 108.051,46.626 107.251,46.626 107.251,45.626" style="fill:none;stroke-width:0.050000mm;stroke:black" />
<polygon points="74.201,45.626 74.201,46.626 73.401,46.626 73.401,49.726 74.201,49.726 74.201,55.526 73.401,55.526 73.401,58.626 74.201,58.626 74.201,59.626 88.201,59.626 88.201,58.626 89.001,58.626 89.001,55.526 88.201,55.526 88.201,49.726 89.001,49.726 89.001,46.626 88.201,46.626 88.201,45.626" style="fill:none;stroke-width:0.050000mm;stroke:black" />
<polygon points="55.151,45.626 55.151,46.626 54.351,46.626 54.351,49.726 55.151,49.726 55.151,55.526 54.351,55.526 54.351,58.626 55.151,58.626 55.151,59.626 69.151,59.626 69.151,58.626 69.951,58.626 69.951,55.526 69.151,55.526 69.151,49.726 69.951,49.726 69.951,46.626 69.151,46.626 69.151,45.626" style="fill:none;stroke-width:0.050000mm;stroke:black" />
<polygon points="36.101,45.626 36.101,46.626 35.301,46.626 35.301,49.726 36.101,49.726 36.101,55.526 35.301,55.526 35.301,58.626 36.101,58.626 36.101,59.626 50.101,59.626 50.101,58.626 50.901,58.626 50.901,55.526 50.101,55.526 50.101,49.726 50.901,49.726 50.901,46.626 50.101,46.626 50.101,45.626" style="fill:none;stroke-width:0.050000mm;stroke:black" />
<polygon points="12.288,45.626 12.288,46.626 11.488,46.626 11.488,49.726 12.288,49.726 12.288,55.526 11.488,55.526 11.488,58.626 12.288,58.626 12.288,59.626 26.288,59.626 26.288,58.626 27.088,58.626 27.088,55.526 26.288,55.526 26.288,49.726 27.088,49.726 27.088,46.626 26.288,46.626 26.288,45.626" style="fill:none;stroke-width:0.050000mm;stroke:black" />
<polygon points="281.951,27.126 281.951,28.046 280.226,28.046 280.226,31.276 279.401,31.276 279.401,34.076 280.226,34.076 280.226,40.346 281.951,40.346 281.951,41.326 285.251,41.326 285.251,40.346 286.976,40.346 286.976,34.076 287.801,34.076 287.801,31.276 286.976,31.276 286.976,28.046 285.251,28.046 285.251,27.126" style="fill:none;stroke-width:0.050000mm;stroke:black" />
<polygon points="258.150,27.126 258.150,28.046 256.426,28.046 256.426,31.276 255.601,31.276 255.601,34.076 256.426,34.076 256.426,40.346 258.150,40.346 258.150,41.326 261.451,41.326 261.451,40.346 263.176,40.346 263.176,34.076 264.001,34.076 264.001,31.276 263.176,31.276 263.176,28.046 261.451,28.046 261.451,27.126" style="fill:none;stroke-width:0.050000mm;stroke:black" />
<polygon points="293.276,26.576 293.276,27.576 292.476,27.576 292.476,30.676 293.276,30.676 293.276,36.476 292.476,36.476 292.476,39.576 293.276,39.576 293.276,40.576 307.276,40.576 307.276,39.576 308.076,39.576 308.076,36.476 307.276,36.476 307.276,30.676 308.076,30.676 308.076,27.576 307.276,27.576 307.276,26.576" style="fill:none;stroke-width:0.050000mm;stroke:black" />
<polygon points="264.701,26.576 264.701,27.576 263.901,27.576 263.901,30.676 264.701,30.676 264.701,36.476 263.901,36.476 263.901,39.576 264.701,39.576 264.701,40.576 278.701,40.576 278.701,39.576 279.501,39.576 279.501,36.476 278.701,36.476 278.701,30.676 279.501,30.676 279.501,27.576 278.701,27.576 278.701,26.576" style="fill:none;stroke-width:0.050000mm;stroke:black" />
<polygon points="236.126,26.576 236.126,27.576 235.326,27.576 235.326,30.676 236.126,30.676 236.126,36.476 235.326,36.476 235.326,39.576 236.126,39.576 236.126,40.576 250.126,40.576 250.126,39.576 250.926,39.576 250.926,36.476 250.126,36.476 250.126,30.676 250.926,30.676 250.926,27.576 250.126,27.576 250.126,26.576" style="fill:none;stroke-width:0.050000mm;stroke:black" />
<polygon points="217.076,26.576 217.076,27.576 216.276,27.576 216.276,30.676 217.076,30.676 217.076,36.476 216.276,36.476 216.276,39.576 217.076,39.576 217.076,40.576 231.076,40.576 231.076,39.576 231.876,39.576 231.876,36.476 231.076,36.476 231.076,30.676 231.876,30.676 231.876,27.576 231.076,27.576 231.076,26.576" style="fill:none;stroke-width:0.050000mm;stroke:black" />
<polygon points="198.026,26.576 198.026,27.576 197.226,27.576 197.226,30.676 198.026,30.676 198.026,36.476 197.226,36.476 197.226,39.576 198.026,39.576 198.026,40.576 212.026,40.576 212.026,39.576 212.826,39.576 212.826,36.476 212.026,36.476 212.026,30.676 212.826,30.676 212.826,27.576 212.026,27.576 212.026,26.576" style="fill:none;stroke-width:0.050000mm;stroke:black" />
<polygon points="178.976,26.576 178.976,27.576 178.176,27.576 178.176,30.676 178.976,30.676 178.976,36.476 178.176,36.476 178.176,39.576 178.976,39.576 178.976,40.576 192.976,40.576 192.976,39.576 193.776,39.576 193.776,36.476 192.976,36.476 192.976,30.676 193.776,30.676 193.776,27.576 192.976,27.576 192.976,26.576" style="fill:none;stroke-width:0.050000mm;stroke:black" />
<polygon points="159.926,26.576 159.926,27.576 159.126,27.576 159.126,30.676 159.926,30.676 159.926,36.476 159.126,36.476 159.126,39.576 159.926,39.576 159.926,40.576 173.926,40.576 173.926,39.576 174.726,39.576 174.726,36.476 173.926,36.476 173.926,30.676 174.726,30.676 174.726,27.576 173.926,27.576 173.926,26.576" style="fill:none;stroke-width:0.050000mm;stroke:black" />
<polygon points="140.876,26.576 140.876,27.576 140.076,27.576 140.076,30.676 140.876,30.676 140.876,36.476 140.076,36.476 140.076,39.576 140.876,39.576 140.876,40.576 154.876,40.576 154.876,39.576 155.676,39.576 155.676,36.476 154.876,36.476 154.876,30.676 155.676,30.676 155.676,27.576 154.876,27.576 154.876,26.576" style="fill:none;stroke-width:0.050000mm;stroke:black" />
<polygon points="121.825,26.576 121.825,27.576 121.025,27.576 121.025,30.676 121.825,30.676 121.825,36.476 121.025,36.476 121.025,39.576 121.825,39.576 121.825,40.576 135.826,40.576 135.826,39.576 136.626,39.576 136.626,36.476 135.826,36.476 135.826,30.676 136.626,30.676 136.626,27.576 135.826,27.576 135.826,26.576" style="fill:none;stroke-width:0.050000mm;stroke:black" />
<polygon points="102.775,26.576 102.775,27.576 101.976,27.576 101.976,30.676 102.775,30.676 102.775,36.476 101.976,36.476 101.976,39.576 102.775,39.576 102.775,40.576 116.775,40.576 116.775,39.576 117.575,39.576 117.575,36.476 116.775,36.476 116.775,30.676 117.575,30.676 117.575,27.576 116.775,27.576 116.775,26.576" style="fill:none;stroke-width:0.050000mm;stroke:black" />
<polygon points="83.726,26.576 83.726,27.576 82.926,27.576 82.926,30.676 83.726,30.676 83.726,36.476 82.926,36.476 82.926,39.576 83.726,39.576 83.726,40.576 97.726,40.576 97.726,39.576 98.525,39.576 98.525,36.476 97.726,36.476 97.726,30.676 98.525,30.676 98.525,27.576 97.726,27.576 97.726,26.576" style="fill:none;stroke-width:0.050000mm;stroke:black" />
<polygon points="64.676,26.576 64.676,27.576 63.876,27.576 63.876,30.676 64.676,30.676 64.676,36.476 63.876,36.476 63.876,39.576 64.676,39.576 64.676,40.576 78.676,40.576 78.676,39.576 79.476,39.576 79.476,36.476 78.676,36.476 78.676,30.676 79.476,30.676 79.476,27.576 78.676,27.576 78.676,26.576" style="fill:none;stroke-width:0.050000mm;stroke:black" />
<polygon points="45.626,26.576 45.626,27.576 44.826,27.576 44.826,30.676 45.626,30.676 45.626,36.476 44.826,36.476 44.826,39.576 45.626,39.576 45.626,40.576 59.626,40.576 59.626,39.576 60.426,39.576 60.426,36.476 59.626,36.476 59.626,30.676 60.426,30.676 60.426,27.576 59.626,27.576 59.626,26.576" style="fill:none;stroke-width:0.050000mm;stroke:black" />
<polygon points="26.576,26.576 26.576,27.576 25.776,27.576 25.776,30.676 26.576,30.676 26.576,36.476 25.776,36.476 25.776,39.576 26.576,39.576 26.576,40.576 40.576,40.576 40.576,39.576 41.376,39.576 41.376,36.476 40.576,36.476 40.576,30.676 41.376,30.676 41.376,27.576 40.576,27.576 40.576,26.576" style="fill:none;stroke-width:0.050000mm;stroke:black" />
<polygon points="7.526,26.576 7.526,27.576 6.726,27.576 6.726,30.676 7.526,30.676 7.526,36.476 6.726,36.476 6.726,39.576 7.526,39.576 7.526,40.576 21.526,40.576 21.526,39.576 22.326,39.576 22.326,36.476 21.526,36.476 21.526,30.676 22.326,30.676 22.326,27.576 21.526,27.576 21.526,26.576" style="fill:none;stroke-width:0.050000mm;stroke:black" />
<polygon points="7.526,7.526 7.526,8.526 6.726,8.526 6.726,11.626 7.526,11.626 7.526,17.426 6.726,17.426 6.726,20.526 7.526,20.526 7.526,21.526 21.526,21.526 21.526,20.526 22.326,20.526 22.326,17.426 21.526,17.426 21.526,11.626 22.326,11.626 22.326,8.526 21.526,8.526 21.526,7.526" style="fill:none;stroke-width:0.050000mm;stroke:black" />
</svg>
