<?xml version="1.0"?>
<!-- Generated by SVGo -->
<svg width="294.130mm" height="27.684mm"
     viewBox="0.000 0.000 294.130 27.684"
     xmlns="http://www.w3.org/2000/svg" 
     xmlns:xlink="http://www.w3.org/1999/xlink">
<polygon points="286.365,5.010 286.599,5.037 286.830,5.083 287.057,5.147 287.278,5.229 287.491,5.327 287.697,5.443 287.893,5.573 288.078,5.719 288.251,5.879 288.411,6.052 288.557,6.237 288.687,6.433 288.803,6.639 288.901,6.852 288.983,7.073 289.047,7.300 289.093,7.531 289.120,7.765 289.130,8.001 289.130,19.684 289.120,19.919 289.093,20.153 289.047,20.384 288.983,20.611 288.901,20.832 288.803,21.045 288.687,21.251 288.557,21.447 288.411,21.632 288.251,21.805 288.078,21.965 287.893,22.111 287.697,22.241 287.491,22.357 287.278,22.455 287.057,22.537 286.830,22.601 286.599,22.647 286.365,22.674 286.129,22.684 8.000,22.684 7.765,22.674 7.531,22.647 7.300,22.601 7.073,22.537 6.852,22.455 6.639,22.357 6.433,22.241 6.237,22.111 6.052,21.965 5.879,21.805 5.719,21.632 5.573,21.447 5.443,21.251 5.327,21.045 5.229,20.832 5.147,20.611 5.083,20.384 5.037,20.153 5.010,19.919 5.000,19.683 5.000,8.000 5.010,7.765 5.037,7.531 5.083,7.300 5.147,7.073 5.229,6.852 5.327,6.639 5.443,6.433 5.573,6.237 5.719,6.052 5.879,5.879 6.052,5.719 6.237,5.573 6.433,5.443 6.639,5.327 6.852,5.229 7.073,5.147 7.300,5.083 7.531,5.037 7.765,5.010 8.001,5.000 286.130,5.000" style="fill:none;stroke-width:0.050000mm;stroke:black"/>
<polygon points="7.479,18.960 7.393,18.970 7.309,18.987 7.226,19.010 7.145,19.040 7.066,19.076 6.991,19.119 6.919,19.167 6.851,19.220 6.788,19.279 6.729,19.342 6.676,19.410 6.628,19.482 6.585,19.557 6.549,19.636 6.519,19.717 6.496,19.800 6.479,19.884 6.469,19.970 6.465,20.057 6.469,20.143 6.479,20.229 6.496,20.313 6.519,20.396 6.549,20.477 6.585,20.556 6.628,20.631 6.676,20.703 6.729,20.771 6.788,20.834 6.851,20.893 6.919,20.946 6.991,20.994 7.066,21.037 7.145,21.073 7.226,21.103 7.309,21.126 7.393,21.143 7.479,21.153 7.565,21.157 7.652,21.153 7.738,21.143 7.822,21.126 7.905,21.103 7.986,21.073 8.065,21.037 8.140,20.994 8.212,20.946 8.280,20.893 8.343,20.834 8.402,20.771 8.455,20.703 8.503,20.631 8.546,20.556 8.582,20.477 8.612,20.396 8.635,20.313 8.652,20.229 8.662,20.143 8.665,20.057 8.662,19.970 8.652,19.884 8.635,19.800 8.612,19.717 8.582,19.636 8.546,19.557 8.503,19.482 8.455,19.410 8.402,19.342 8.343,19.279 8.280,19.220 8.212,19.167 8.140,19.119 8.065,19.076 7.986,19.040 7.905,19.010 7.822,18.987 7.738,18.970 7.652,18.960 7.565,18.957" style="fill:none;stroke-width:0.050000mm;stroke:black"/>
<polygon points="125.081,18.960 124.995,18.970 124.911,18.987 124.828,19.010 124.747,19.040 124.668,19.076 124.593,19.119 124.521,19.167 124.453,19.220 124.390,19.279 124.331,19.342 124.278,19.410 124.230,19.482 124.187,19.557 124.151,19.636 124.121,19.717 124.098,19.800 124.081,19.884 124.071,19.970 124.067,20.057 124.071,20.143 124.081,20.229 124.098,20.313 124.121,20.396 124.151,20.477 124.187,20.556 124.230,20.631 124.278,20.703 124.331,20.771 124.390,20.834 124.453,20.893 124.521,20.946 124.593,20.994 124.668,21.037 124.747,21.073 124.828,21.103 124.911,21.126 124.995,21.143 125.081,21.153 125.167,21.157 125.254,21.153 125.340,21.143 125.424,21.126 125.507,21.103 125.588,21.073 125.667,21.037 125.742,20.994 125.814,20.946 125.882,20.893 125.945,20.834 126.004,20.771 126.057,20.703 126.105,20.631 126.148,20.556 126.184,20.477 126.214,20.396 126.237,20.313 126.254,20.229 126.264,20.143 126.268,20.057 126.264,19.970 126.254,19.884 126.237,19.800 126.214,19.717 126.184,19.636 126.148,19.557 126.105,19.482 126.057,19.410 126.004,19.342 125.945,19.279 125.882,19.220 125.814,19.167 125.742,19.119 125.667,19.076 125.588,19.040 125.507,19.010 125.424,18.987 125.340,18.970 125.254,18.960 125.167,18.957" style="fill:none;stroke-width:0.050000mm;stroke:black"/>
<polygon points="285.608,18.960 285.522,18.970 285.438,18.987 285.355,19.010 285.274,19.040 285.195,19.076 285.120,19.119 285.048,19.167 284.980,19.220 284.917,19.279 284.858,19.342 284.805,19.410 284.757,19.482 284.714,19.557 284.678,19.636 284.648,19.717 284.625,19.800 284.608,19.884 284.598,19.970 284.595,20.057 284.598,20.143 284.608,20.229 284.625,20.313 284.648,20.396 284.678,20.477 284.714,20.556 284.757,20.631 284.805,20.703 284.858,20.771 284.917,20.834 284.980,20.893 285.048,20.946 285.120,20.994 285.195,21.037 285.274,21.073 285.355,21.103 285.438,21.126 285.522,21.143 285.608,21.153 285.695,21.157 285.781,21.153 285.867,21.143 285.951,21.126 286.034,21.103 286.115,21.073 286.194,21.037 286.269,20.994 286.341,20.946 286.409,20.893 286.472,20.834 286.531,20.771 286.584,20.703 286.632,20.631 286.675,20.556 286.711,20.477 286.741,20.396 286.764,20.313 286.781,20.229 286.791,20.143 286.795,20.057 286.791,19.970 286.781,19.884 286.764,19.800 286.741,19.717 286.711,19.636 286.675,19.557 286.632,19.482 286.584,19.410 286.531,19.342 286.472,19.279 286.409,19.220 286.341,19.167 286.269,19.119 286.194,19.076 286.115,19.040 286.034,19.010 285.951,18.987 285.867,18.970 285.781,18.960 285.695,18.957" style="fill:none;stroke-width:0.050000mm;stroke:black"/>
<polygon points="7.479,7.531 7.393,7.541 7.309,7.558 7.226,7.581 7.145,7.611 7.066,7.647 6.991,7.690 6.919,7.738 6.851,7.791 6.788,7.850 6.729,7.913 6.676,7.981 6.628,8.053 6.585,8.128 6.549,8.207 6.519,8.288 6.496,8.371 6.479,8.455 6.469,8.541 6.465,8.628 6.469,8.714 6.479,8.800 6.496,8.884 6.519,8.967 6.549,9.048 6.585,9.127 6.628,9.202 6.676,9.274 6.729,9.342 6.788,9.405 6.851,9.464 6.919,9.517 6.991,9.565 7.066,9.608 7.145,9.644 7.226,9.674 7.309,9.697 7.393,9.714 7.479,9.724 7.565,9.728 7.652,9.724 7.738,9.714 7.822,9.697 7.905,9.674 7.986,9.644 8.065,9.608 8.140,9.565 8.212,9.517 8.280,9.464 8.343,9.405 8.402,9.342 8.455,9.274 8.503,9.202 8.546,9.127 8.582,9.048 8.612,8.967 8.635,8.884 8.652,8.800 8.662,8.714 8.665,8.628 8.662,8.541 8.652,8.455 8.635,8.371 8.612,8.288 8.582,8.207 8.546,8.128 8.503,8.053 8.455,7.981 8.402,7.913 8.343,7.850 8.280,7.791 8.212,7.738 8.140,7.690 8.065,7.647 7.986,7.611 7.905,7.581 7.822,7.558 7.738,7.541 7.652,7.531 7.565,7.527" style="fill:none;stroke-width:0.050000mm;stroke:black"/>
<polygon points="125.081,7.531 124.995,7.541 124.911,7.558 124.828,7.581 124.747,7.611 124.668,7.647 124.593,7.690 124.521,7.738 124.453,7.791 124.390,7.850 124.331,7.913 124.278,7.981 124.230,8.053 124.187,8.128 124.151,8.207 124.121,8.288 124.098,8.371 124.081,8.455 124.071,8.541 124.067,8.628 124.071,8.714 124.081,8.800 124.098,8.884 124.121,8.967 124.151,9.048 124.187,9.127 124.230,9.202 124.278,9.274 124.331,9.342 124.390,9.405 124.453,9.464 124.521,9.517 124.593,9.565 124.668,9.608 124.747,9.644 124.828,9.674 124.911,9.697 124.995,9.714 125.081,9.724 125.167,9.728 125.254,9.724 125.340,9.714 125.424,9.697 125.507,9.674 125.588,9.644 125.667,9.608 125.742,9.565 125.814,9.517 125.882,9.464 125.945,9.405 126.004,9.342 126.057,9.274 126.105,9.202 126.148,9.127 126.184,9.048 126.214,8.967 126.237,8.884 126.254,8.800 126.264,8.714 126.268,8.628 126.264,8.541 126.254,8.455 126.237,8.371 126.214,8.288 126.184,8.207 126.148,8.128 126.105,8.053 126.057,7.981 126.004,7.913 125.945,7.850 125.882,7.791 125.814,7.738 125.742,7.690 125.667,7.647 125.588,7.611 125.507,7.581 125.424,7.558 125.340,7.541 125.254,7.531 125.167,7.527" style="fill:none;stroke-width:0.050000mm;stroke:black"/>
<polygon points="285.608,7.531 285.522,7.541 285.438,7.558 285.355,7.581 285.274,7.611 285.195,7.647 285.120,7.690 285.048,7.738 284.980,7.791 284.917,7.850 284.858,7.913 284.805,7.981 284.757,8.053 284.714,8.128 284.678,8.207 284.648,8.288 284.625,8.371 284.608,8.455 284.598,8.541 284.595,8.628 284.598,8.714 284.608,8.800 284.625,8.884 284.648,8.967 284.678,9.048 284.714,9.127 284.757,9.202 284.805,9.274 284.858,9.342 284.917,9.405 284.980,9.464 285.048,9.517 285.120,9.565 285.195,9.608 285.274,9.644 285.355,9.674 285.438,9.697 285.522,9.714 285.608,9.724 285.695,9.728 285.781,9.724 285.867,9.714 285.951,9.697 286.034,9.674 286.115,9.644 286.194,9.608 286.269,9.565 286.341,9.517 286.409,9.464 286.472,9.405 286.531,9.342 286.584,9.274 286.632,9.202 286.675,9.127 286.711,9.048 286.741,8.967 286.764,8.884 286.781,8.800 286.791,8.714 286.795,8.628 286.791,8.541 286.781,8.455 286.764,8.371 286.741,8.288 286.711,8.207 286.675,8.128 286.632,8.053 286.584,7.981 286.531,7.913 286.472,7.850 286.409,7.791 286.341,7.738 286.269,7.690 286.194,7.647 286.115,7.611 286.034,7.581 285.951,7.558 285.867,7.541 285.781,7.531 285.695,7.527" style="fill:none;stroke-width:0.050000mm;stroke:black"/>
</svg>
