<?xml version="1.0"?>
<!-- Generated by SVGo (float) -->
<svg width="314.802mm" height="124.302mm"
     viewBox="0.000 0.000 314.802 124.302"
     xmlns="http://www.w3.org/2000/svg"
     xmlns:xlink="http://www.w3.org/1999/xlink">
<polygon points="21.023,5.000 21.001,5.001 21.236,5.010 21.470,5.037 21.701,5.083 21.928,5.147 22.149,5.229 22.362,5.327 22.568,5.443 22.764,5.573 22.949,5.719 23.122,5.879 23.282,6.052 23.428,6.237 23.558,6.433 23.674,6.639 23.772,6.852 23.854,7.073 23.918,7.300 23.964,7.531 23.991,7.765 24.001,8.001 24.000,21.500 24.010,21.736 24.037,21.970 24.083,22.201 24.147,22.428 24.229,22.649 24.327,22.862 24.443,23.068 24.573,23.264 24.719,23.449 24.879,23.622 25.052,23.782 25.237,23.928 25.433,24.058 25.639,24.174 25.852,24.272 26.073,24.354 26.300,24.418 26.531,24.464 26.765,24.491 27.001,24.501 308.456,24.501 308.565,24.573 308.750,24.719 308.923,24.879 309.083,25.052 309.229,25.237 309.359,25.433 309.475,25.639 309.573,25.852 309.655,26.073 309.719,26.300 309.765,26.531 309.792,26.765 309.802,27.001 309.802,116.301 309.792,116.537 309.765,116.771 309.719,117.002 309.655,117.229 309.573,117.450 309.475,117.663 309.359,117.869 309.229,118.065 309.083,118.250 308.923,118.423 308.750,118.583 308.565,118.729 308.369,118.859 308.163,118.975 307.950,119.073 307.729,119.155 307.502,119.219 307.271,119.265 307.037,119.292 306.802,119.302 8.001,119.301 7.765,119.292 7.531,119.265 7.300,119.219 7.073,119.155 6.852,119.073 6.639,118.975 6.433,118.859 6.237,118.729 6.052,118.583 5.879,118.423 5.719,118.250 5.573,118.065 5.443,117.869 5.327,117.663 5.229,117.450 5.147,117.229 5.083,117.002 5.037,116.771 5.010,116.537 5.000,116.301 5.001,8.001 5.010,7.765 5.037,7.531 5.083,7.300 5.147,7.073 5.229,6.852 5.327,6.639 5.443,6.433 5.573,6.237 5.719,6.052 5.879,5.879 6.052,5.719 6.237,5.573 6.433,5.443 6.639,5.327 6.852,5.229 7.073,5.147 7.300,5.083 7.531,5.037 7.765,5.010 8.001,5.000" style="fill:none;stroke-width:0.050000mm;stroke:black" />
<polygon points="184.319,103.325 184.319,104.245 182.594,104.245 182.594,107.476 181.769,107.476 181.769,110.275 182.594,110.275 182.594,116.545 184.319,116.545 184.319,117.525 187.619,117.525 187.619,116.545 189.344,116.545 189.344,110.275 190.169,110.275 190.169,107.476 189.344,107.476 189.344,104.245 187.619,104.245 187.619,103.325" style="fill:none;stroke-width:0.050000mm;stroke:black" />
<polygon points="84.319,103.325 84.319,104.245 82.594,104.245 82.594,107.476 81.769,107.476 81.769,110.275 82.594,110.275 82.594,116.545 84.319,116.545 84.319,117.525 87.619,117.525 87.619,116.545 89.344,116.545 89.344,110.275 90.169,110.275 90.169,107.476 89.344,107.476 89.344,104.245 87.619,104.245 87.619,103.325" style="fill:none;stroke-width:0.050000mm;stroke:black" />
<polygon points="293.276,102.775 293.276,103.775 292.476,103.775 292.476,106.875 293.276,106.875 293.276,112.676 292.476,112.676 292.476,115.775 293.276,115.775 293.276,116.775 307.276,116.775 307.276,115.775 308.076,115.775 308.076,112.676 307.276,112.676 307.276,106.875 308.076,106.875 308.076,103.775 307.276,103.775 307.276,102.775" style="fill:none;stroke-width:0.050000mm;stroke:black" />
<polygon points="274.226,102.775 274.226,103.775 273.426,103.775 273.426,106.875 274.226,106.875 274.226,112.676 273.426,112.676 273.426,115.775 274.226,115.775 274.226,116.775 288.226,116.775 288.226,115.775 289.026,115.775 289.026,112.676 288.226,112.676 288.226,106.875 289.026,106.875 289.026,103.775 288.226,103.775 288.226,102.775" style="fill:none;stroke-width:0.050000mm;stroke:black" />
<polygon points="255.176,102.775 255.176,103.775 254.376,103.775 254.376,106.875 255.176,106.875 255.176,112.676 254.376,112.676 254.376,115.775 255.176,115.775 255.176,116.775 269.176,116.775 269.176,115.775 269.976,115.775 269.976,112.676 269.176,112.676 269.176,106.875 269.976,106.875 269.976,103.775 269.176,103.775 269.176,102.775" style="fill:none;stroke-width:0.050000mm;stroke:black" />
<polygon points="236.126,102.775 236.126,103.775 235.326,103.775 235.326,106.875 236.126,106.875 236.126,112.676 235.326,112.676 235.326,115.775 236.126,115.775 236.126,116.775 250.126,116.775 250.126,115.775 250.926,115.775 250.926,112.676 250.126,112.676 250.126,106.875 250.926,106.875 250.926,103.775 250.126,103.775 250.126,102.775" style="fill:none;stroke-width:0.050000mm;stroke:black" />
<polygon points="217.076,102.775 217.076,103.775 216.276,103.775 216.276,106.875 217.076,106.875 217.076,112.676 216.276,112.676 216.276,115.775 217.076,115.775 217.076,116.775 231.076,116.775 231.076,115.775 231.876,115.775 231.876,112.676 231.076,112.676 231.076,106.875 231.876,106.875 231.876,103.775 231.076,103.775 231.076,102.775" style="fill:none;stroke-width:0.050000mm;stroke:black" />
<polygon points="198.026,102.775 198.026,103.775 197.226,103.775 197.226,106.875 198.026,106.875 198.026,112.676 197.226,112.676 197.226,115.775 198.026,115.775 198.026,116.775 212.026,116.775 212.026,115.775 212.826,115.775 212.826,112.676 212.026,112.676 212.026,106.875 212.826,106.875 212.826,103.775 212.026,103.775 212.026,102.775" style="fill:none;stroke-width:0.050000mm;stroke:black" />
<polygon points="128.968,102.775 128.968,103.775 128.169,103.775 128.169,106.875 128.968,106.875 128.968,112.676 128.169,112.676 128.169,115.775 128.968,115.775 128.968,116.775 142.969,116.775 142.969,115.775 143.769,115.775 143.769,112.676 142.969,112.676 142.969,106.875 143.769,106.875 143.769,103.775 142.969,103.775 142.969,102.775" style="fill:none;stroke-width:0.050000mm;stroke:black" />
<polygon points="57.532,102.775 57.532,103.775 56.732,103.775 56.732,106.875 57.532,106.875 57.532,112.676 56.732,112.676 56.732,115.775 57.532,115.775 57.532,116.775 71.532,116.775 71.532,115.775 72.332,115.775 72.332,112.676 71.532,112.676 71.532,106.875 72.332,106.875 72.332,103.775 71.532,103.775 71.532,102.775" style="fill:none;stroke-width:0.050000mm;stroke:black" />
<polygon points="33.719,102.775 33.719,103.775 32.919,103.775 32.919,106.875 33.719,106.875 33.719,112.676 32.919,112.676 32.919,115.775 33.719,115.775 33.719,116.775 47.719,116.775 47.719,115.775 48.519,115.775 48.519,112.676 47.719,112.676 47.719,106.875 48.519,106.875 48.519,103.775 47.719,103.775 47.719,102.775" style="fill:none;stroke-width:0.050000mm;stroke:black" />
<polygon points="9.907,102.775 9.907,103.775 9.107,103.775 9.107,106.875 9.907,106.875 9.907,112.676 9.107,112.676 9.107,115.775 9.907,115.775 9.907,116.775 23.907,116.775 23.907,115.775 24.707,115.775 24.707,112.676 23.907,112.676 23.907,106.875 24.707,106.875 24.707,103.775 23.907,103.775 23.907,102.775" style="fill:none;stroke-width:0.050000mm;stroke:black" />
<polygon points="157.214,103.927 157.058,103.945 156.904,103.976 156.752,104.018 156.605,104.073 156.463,104.138 156.326,104.215 156.195,104.302 156.072,104.400 155.956,104.506 155.850,104.622 155.752,104.745 155.665,104.876 155.588,105.013 155.523,105.155 155.468,105.302 155.426,105.454 155.395,105.608 155.377,105.764 155.370,105.920 155.377,106.077 155.395,106.233 155.426,106.387 155.468,106.539 155.523,106.686 155.588,106.828 155.665,106.965 155.752,107.096 155.850,107.219 155.956,107.335 156.072,107.441 156.195,107.539 156.326,107.626 156.463,107.703 156.605,107.768 156.752,107.823 156.904,107.865 157.058,107.896 157.214,107.914 157.371,107.920 157.527,107.914 157.683,107.896 157.837,107.865 157.989,107.823 158.136,107.768 158.278,107.703 158.415,107.626 158.546,107.539 158.669,107.441 158.785,107.335 158.891,107.219 158.989,107.096 159.076,106.965 159.153,106.828 159.218,106.686 159.273,106.539 159.315,106.387 159.346,106.233 159.364,106.077 159.371,105.920 159.364,105.764 159.346,105.608 159.315,105.454 159.273,105.302 159.218,105.155 159.153,105.013 159.076,104.876 158.989,104.745 158.891,104.622 158.785,104.506 158.669,104.400 158.546,104.302 158.415,104.215 158.278,104.138 158.136,104.073 157.989,104.018 157.837,103.976 157.683,103.945 157.527,103.927 157.371,103.921" style="fill:none;stroke-width:0.050000mm;stroke:black" />
<polygon points="267.224,98.117 267.068,98.135 266.914,98.166 266.762,98.208 266.615,98.263 266.473,98.328 266.336,98.405 266.205,98.492 266.082,98.590 265.966,98.696 265.860,98.812 265.762,98.935 265.675,99.066 265.598,99.203 265.533,99.345 265.478,99.492 265.436,99.644 265.405,99.798 265.387,99.954 265.380,100.110 265.387,100.267 265.405,100.423 265.436,100.577 265.478,100.729 265.533,100.876 265.598,101.018 265.675,101.155 265.762,101.286 265.860,101.409 265.966,101.525 266.082,101.631 266.205,101.729 266.336,101.816 266.473,101.893 266.615,101.958 266.762,102.013 266.914,102.055 267.068,102.086 267.224,102.104 267.381,102.110 267.537,102.104 267.693,102.086 267.847,102.055 267.999,102.013 268.146,101.958 268.288,101.893 268.425,101.816 268.556,101.729 268.679,101.631 268.795,101.525 268.901,101.409 268.999,101.286 269.086,101.155 269.163,101.018 269.228,100.876 269.283,100.729 269.325,100.577 269.356,100.423 269.374,100.267 269.381,100.110 269.374,99.954 269.356,99.798 269.325,99.644 269.283,99.492 269.228,99.345 269.163,99.203 269.086,99.066 268.999,98.935 268.901,98.812 268.795,98.696 268.679,98.590 268.556,98.492 268.425,98.405 268.288,98.328 268.146,98.263 267.999,98.208 267.847,98.166 267.693,98.135 267.537,98.117 267.381,98.111" style="fill:none;stroke-width:0.050000mm;stroke:black" />
<polygon points="45.744,97.237 45.588,97.255 45.434,97.286 45.282,97.328 45.135,97.383 44.993,97.448 44.856,97.525 44.725,97.612 44.602,97.710 44.486,97.816 44.380,97.932 44.282,98.055 44.195,98.186 44.118,98.323 44.053,98.465 43.998,98.612 43.956,98.764 43.925,98.918 43.907,99.074 43.901,99.230 43.907,99.387 43.925,99.543 43.956,99.697 43.998,99.849 44.053,99.996 44.118,100.138 44.195,100.275 44.282,100.406 44.380,100.529 44.486,100.645 44.602,100.751 44.725,100.849 44.856,100.936 44.993,101.013 45.135,101.078 45.282,101.133 45.434,101.175 45.588,101.206 45.744,101.224 45.901,101.230 46.057,101.224 46.213,101.206 46.367,101.175 46.519,101.133 46.666,101.078 46.808,101.013 46.945,100.936 47.076,100.849 47.199,100.751 47.315,100.645 47.421,100.529 47.519,100.406 47.606,100.275 47.683,100.138 47.748,99.996 47.803,99.849 47.845,99.697 47.876,99.543 47.894,99.387 47.901,99.230 47.894,99.074 47.876,98.918 47.845,98.764 47.803,98.612 47.748,98.465 47.683,98.323 47.606,98.186 47.519,98.055 47.421,97.932 47.315,97.816 47.199,97.710 47.076,97.612 46.945,97.525 46.808,97.448 46.666,97.383 46.519,97.328 46.367,97.286 46.213,97.255 46.057,97.237 45.901,97.231" style="fill:none;stroke-width:0.050000mm;stroke:black" />
<polygon points="36.682,84.275 36.682,85.196 34.957,85.196 34.957,88.426 34.132,88.426 34.132,91.226 34.957,91.226 34.957,97.495 36.682,97.495 36.682,98.476 39.982,98.476 39.982,97.495 41.707,97.495 41.707,91.226 42.532,91.226 42.532,88.426 41.707,88.426 41.707,85.196 39.982,85.196 39.982,84.275" style="fill:none;stroke-width:0.050000mm;stroke:black" />
<polygon points="12.882,84.275 12.882,85.196 11.157,85.196 11.157,88.426 10.332,88.426 10.332,91.226 11.157,91.226 11.157,97.495 12.882,97.495 12.882,98.476 16.182,98.476 16.182,97.495 17.907,97.495 17.907,91.226 18.732,91.226 18.732,88.426 17.907,88.426 17.907,85.196 16.182,85.196 16.182,84.275" style="fill:none;stroke-width:0.050000mm;stroke:black" />
<polygon points="293.276,83.726 293.276,84.726 292.476,84.726 292.476,87.825 293.276,87.825 293.276,93.626 292.476,93.626 292.476,96.726 293.276,96.726 293.276,97.726 307.276,97.726 307.276,96.726 308.076,96.726 308.076,93.626 307.276,93.626 307.276,87.825 308.076,87.825 308.076,84.726 307.276,84.726 307.276,83.726" style="fill:none;stroke-width:0.050000mm;stroke:black" />
<polygon points="274.226,83.726 274.226,84.726 273.426,84.726 273.426,87.825 274.226,87.825 274.226,93.626 273.426,93.626 273.426,96.726 274.226,96.726 274.226,97.726 288.226,97.726 288.226,96.726 289.026,96.726 289.026,93.626 288.226,93.626 288.226,87.825 289.026,87.825 289.026,84.726 288.226,84.726 288.226,83.726" style="fill:none;stroke-width:0.050000mm;stroke:black" />
<polygon points="248.032,83.726 248.032,84.726 247.232,84.726 247.232,87.825 248.032,87.825 248.032,93.626 247.232,93.626 247.232,96.726 248.032,96.726 248.032,97.726 262.032,97.726 262.032,96.726 262.832,96.726 262.832,93.626 262.032,93.626 262.032,87.825 262.832,87.825 262.832,84.726 262.032,84.726 262.032,83.726" style="fill:none;stroke-width:0.050000mm;stroke:black" />
<polygon points="221.838,83.726 221.838,84.726 221.038,84.726 221.038,87.825 221.838,87.825 221.838,93.626 221.038,93.626 221.038,96.726 221.838,96.726 221.838,97.726 235.838,97.726 235.838,96.726 236.638,96.726 236.638,93.626 235.838,93.626 235.838,87.825 236.638,87.825 236.638,84.726 235.838,84.726 235.838,83.726" style="fill:none;stroke-width:0.050000mm;stroke:black" />
<polygon points="202.788,83.726 202.788,84.726 201.988,84.726 201.988,87.825 202.788,87.825 202.788,93.626 201.988,93.626 201.988,96.726 202.788,96.726 202.788,97.726 216.788,97.726 216.788,96.726 217.588,96.726 217.588,93.626 216.788,93.626 216.788,87.825 217.588,87.825 217.588,84.726 216.788,84.726 216.788,83.726" style="fill:none;stroke-width:0.050000mm;stroke:black" />
<polygon points="183.738,83.726 183.738,84.726 182.938,84.726 182.938,87.825 183.738,87.825 183.738,93.626 182.938,93.626 182.938,96.726 183.738,96.726 183.738,97.726 197.738,97.726 197.738,96.726 198.538,96.726 198.538,93.626 197.738,93.626 197.738,87.825 198.538,87.825 198.538,84.726 197.738,84.726 197.738,83.726" style="fill:none;stroke-width:0.050000mm;stroke:black" />
<polygon points="164.688,83.726 164.688,84.726 163.888,84.726 163.888,87.825 164.688,87.825 164.688,93.626 163.888,93.626 163.888,96.726 164.688,96.726 164.688,97.726 178.688,97.726 178.688,96.726 179.488,96.726 179.488,93.626 178.688,93.626 178.688,87.825 179.488,87.825 179.488,84.726 178.688,84.726 178.688,83.726" style="fill:none;stroke-width:0.050000mm;stroke:black" />
<polygon points="145.638,83.726 145.638,84.726 144.838,84.726 144.838,87.825 145.638,87.825 145.638,93.626 144.838,93.626 144.838,96.726 145.638,96.726 145.638,97.726 159.638,97.726 159.638,96.726 160.438,96.726 160.438,93.626 159.638,93.626 159.638,87.825 160.438,87.825 160.438,84.726 159.638,84.726 159.638,83.726" style="fill:none;stroke-width:0.050000mm;stroke:black" />
<polygon points="126.588,83.726 126.588,84.726 125.788,84.726 125.788,87.825 126.588,87.825 126.588,93.626 125.788,93.626 125.788,96.726 126.588,96.726 126.588,97.726 140.588,97.726 140.588,96.726 141.388,96.726 141.388,93.626 140.588,93.626 140.588,87.825 141.388,87.825 141.388,84.726 140.588,84.726 140.588,83.726" style="fill:none;stroke-width:0.050000mm;stroke:black" />
<polygon points="107.538,83.726 107.538,84.726 106.738,84.726 106.738,87.825 107.538,87.825 107.538,93.626 106.738,93.626 106.738,96.726 107.538,96.726 107.538,97.726 121.538,97.726 121.538,96.726 122.338,96.726 122.338,93.626 121.538,93.626 121.538,87.825 122.338,87.825 122.338,84.726 121.538,84.726 121.538,83.726" style="fill:none;stroke-width:0.050000mm;stroke:black" />
<polygon points="88.488,83.726 88.488,84.726 87.688,84.726 87.688,87.825 88.488,87.825 88.488,93.626 87.688,93.626 87.688,96.726 88.488,96.726 88.488,97.726 102.488,97.726 102.488,96.726 103.288,96.726 103.288,93.626 102.488,93.626 102.488,87.825 103.288,87.825 103.288,84.726 102.488,84.726 102.488,83.726" style="fill:none;stroke-width:0.050000mm;stroke:black" />
<polygon points="69.438,83.726 69.438,84.726 68.638,84.726 68.638,87.825 69.438,87.825 69.438,93.626 68.638,93.626 68.638,96.726 69.438,96.726 69.438,97.726 83.438,97.726 83.438,96.726 84.238,96.726 84.238,93.626 83.438,93.626 83.438,87.825 84.238,87.825 84.238,84.726 83.438,84.726 83.438,83.726" style="fill:none;stroke-width:0.050000mm;stroke:black" />
<polygon points="50.388,83.726 50.388,84.726 49.588,84.726 49.588,87.825 50.388,87.825 50.388,93.626 49.588,93.626 49.588,96.726 50.388,96.726 50.388,97.726 64.388,97.726 64.388,96.726 65.188,96.726 65.188,93.626 64.388,93.626 64.388,87.825 65.188,87.825 65.188,84.726 64.388,84.726 64.388,83.726" style="fill:none;stroke-width:0.050000mm;stroke:black" />
<polygon points="19.432,83.726 19.432,84.726 18.632,84.726 18.632,87.825 19.432,87.825 19.432,93.626 18.632,93.626 18.632,96.726 19.432,96.726 19.432,97.726 33.432,97.726 33.432,96.726 34.232,96.726 34.232,93.626 33.432,93.626 33.432,87.825 34.232,87.825 34.232,84.726 33.432,84.726 33.432,83.726" style="fill:none;stroke-width:0.050000mm;stroke:black" />
<polygon points="279.569,65.225 279.569,66.146 277.844,66.146 277.844,69.376 277.019,69.376 277.019,72.176 277.844,72.176 277.844,78.446 279.569,78.446 279.569,79.426 282.869,79.426 282.869,78.446 284.594,78.446 284.594,72.176 285.419,72.176 285.419,69.376 284.594,69.376 284.594,66.146 282.869,66.146 282.869,65.225" style="fill:none;stroke-width:0.050000mm;stroke:black" />
<polygon points="255.769,65.225 255.769,66.146 254.044,66.146 254.044,69.376 253.219,69.376 253.219,72.176 254.044,72.176 254.044,78.446 255.769,78.446 255.769,79.426 259.068,79.426 259.068,78.446 260.794,78.446 260.794,72.176 261.619,72.176 261.619,69.376 260.794,69.376 260.794,66.146 259.068,66.146 259.068,65.225" style="fill:none;stroke-width:0.050000mm;stroke:black" />
<polygon points="293.276,64.676 293.276,65.676 292.476,65.676 292.476,68.775 293.276,68.775 293.276,74.576 292.476,74.576 292.476,77.676 293.276,77.676 293.276,78.676 307.276,78.676 307.276,77.676 308.076,77.676 308.076,74.576 307.276,74.576 307.276,68.775 308.076,68.775 308.076,65.676 307.276,65.676 307.276,64.676" style="fill:none;stroke-width:0.050000mm;stroke:black" />
<polygon points="262.319,64.676 262.319,65.676 261.518,65.676 261.518,68.775 262.319,68.775 262.319,74.576 261.518,74.576 261.518,77.676 262.319,77.676 262.319,78.676 276.319,78.676 276.319,77.676 277.119,77.676 277.119,74.576 276.319,74.576 276.319,68.775 277.119,68.775 277.119,65.676 276.319,65.676 276.319,64.676" style="fill:none;stroke-width:0.050000mm;stroke:black" />
<polygon points="231.363,64.676 231.363,65.676 230.563,65.676 230.563,68.775 231.363,68.775 231.363,74.576 230.563,74.576 230.563,77.676 231.363,77.676 231.363,78.676 245.363,78.676 245.363,77.676 246.163,77.676 246.163,74.576 245.363,74.576 245.363,68.775 246.163,68.775 246.163,65.676 245.363,65.676 245.363,64.676" style="fill:none;stroke-width:0.050000mm;stroke:black" />
<polygon points="212.313,64.676 212.313,65.676 211.513,65.676 211.513,68.775 212.313,68.775 212.313,74.576 211.513,74.576 211.513,77.676 212.313,77.676 212.313,78.676 226.313,78.676 226.313,77.676 227.113,77.676 227.113,74.576 226.313,74.576 226.313,68.775 227.113,68.775 227.113,65.676 226.313,65.676 226.313,64.676" style="fill:none;stroke-width:0.050000mm;stroke:black" />
<polygon points="193.263,64.676 193.263,65.676 192.463,65.676 192.463,68.775 193.263,68.775 193.263,74.576 192.463,74.576 192.463,77.676 193.263,77.676 193.263,78.676 207.263,78.676 207.263,77.676 208.063,77.676 208.063,74.576 207.263,74.576 207.263,68.775 208.063,68.775 208.063,65.676 207.263,65.676 207.263,64.676" style="fill:none;stroke-width:0.050000mm;stroke:black" />
<polygon points="174.213,64.676 174.213,65.676 173.413,65.676 173.413,68.775 174.213,68.775 174.213,74.576 173.413,74.576 173.413,77.676 174.213,77.676 174.213,78.676 188.213,78.676 188.213,77.676 189.013,77.676 189.013,74.576 188.213,74.576 188.213,68.775 189.013,68.775 189.013,65.676 188.213,65.676 188.213,64.676" style="fill:none;stroke-width:0.050000mm;stroke:black" />
<polygon points="155.163,64.676 155.163,65.676 154.363,65.676 154.363,68.775 155.163,68.775 155.163,74.576 154.363,74.576 154.363,77.676 155.163,77.676 155.163,78.676 169.163,78.676 169.163,77.676 169.963,77.676 169.963,74.576 169.163,74.576 169.163,68.775 169.963,68.775 169.963,65.676 169.163,65.676 169.163,64.676" style="fill:none;stroke-width:0.050000mm;stroke:black" />
<polygon points="136.113,64.676 136.113,65.676 135.313,65.676 135.313,68.775 136.113,68.775 136.113,74.576 135.313,74.576 135.313,77.676 136.113,77.676 136.113,78.676 150.113,78.676 150.113,77.676 150.913,77.676 150.913,74.576 150.113,74.576 150.113,68.775 150.913,68.775 150.913,65.676 150.113,65.676 150.113,64.676" style="fill:none;stroke-width:0.050000mm;stroke:black" />
<polygon points="117.063,64.676 117.063,65.676 116.263,65.676 116.263,68.775 117.063,68.775 117.063,74.576 116.263,74.576 116.263,77.676 117.063,77.676 117.063,78.676 131.063,78.676 131.063,77.676 131.863,77.676 131.863,74.576 131.063,74.576 131.063,68.775 131.863,68.775 131.863,65.676 131.063,65.676 131.063,64.676" style="fill:none;stroke-width:0.050000mm;stroke:black" />
<polygon points="98.013,64.676 98.013,65.676 97.213,65.676 97.213,68.775 98.013,68.775 98.013,74.576 97.213,74.576 97.213,77.676 98.013,77.676 98.013,78.676 112.013,78.676 112.013,77.676 112.813,77.676 112.813,74.576 112.013,74.576 112.013,68.775 112.813,68.775 112.813,65.676 112.013,65.676 112.013,64.676" style="fill:none;stroke-width:0.050000mm;stroke:black" />
<polygon points="78.963,64.676 78.963,65.676 78.163,65.676 78.163,68.775 78.963,68.775 78.963,74.576 78.163,74.576 78.163,77.676 78.963,77.676 78.963,78.676 92.963,78.676 92.963,77.676 93.763,77.676 93.763,74.576 92.963,74.576 92.963,68.775 93.763,68.775 93.763,65.676 92.963,65.676 92.963,64.676" style="fill:none;stroke-width:0.050000mm;stroke:black" />
<polygon points="59.913,64.676 59.913,65.676 59.113,65.676 59.113,68.775 59.913,68.775 59.913,74.576 59.113,74.576 59.113,77.676 59.913,77.676 59.913,78.676 73.913,78.676 73.913,77.676 74.713,77.676 74.713,74.576 73.913,74.576 73.913,68.775 74.713,68.775 74.713,65.676 73.913,65.676 73.913,64.676" style="fill:none;stroke-width:0.050000mm;stroke:black" />
<polygon points="40.863,64.676 40.863,65.676 40.063,65.676 40.063,68.775 40.863,68.775 40.863,74.576 40.063,74.576 40.063,77.676 40.863,77.676 40.863,78.676 54.863,78.676 54.863,77.676 55.663,77.676 55.663,74.576 54.863,74.576 54.863,68.775 55.663,68.775 55.663,65.676 54.863,65.676 54.863,64.676" style="fill:none;stroke-width:0.050000mm;stroke:black" />
<polygon points="14.669,64.676 14.669,65.676 13.869,65.676 13.869,68.775 14.669,68.775 14.669,74.576 13.869,74.576 13.869,77.676 14.669,77.676 14.669,78.676 28.669,78.676 28.669,77.676 29.469,77.676 29.469,74.576 28.669,74.576 28.669,68.775 29.469,68.775 29.469,65.676 28.669,65.676 28.669,64.676" style="fill:none;stroke-width:0.050000mm;stroke:black" />
<polygon points="11.444,60.407 11.288,60.425 11.134,60.456 10.982,60.498 10.835,60.553 10.693,60.618 10.556,60.695 10.425,60.782 10.302,60.880 10.186,60.986 10.080,61.102 9.982,61.225 9.895,61.356 9.818,61.493 9.753,61.635 9.698,61.782 9.656,61.934 9.625,62.088 9.607,62.244 9.600,62.401 9.607,62.557 9.625,62.713 9.656,62.867 9.698,63.019 9.753,63.166 9.818,63.308 9.895,63.445 9.982,63.576 10.080,63.699 10.186,63.815 10.302,63.921 10.425,64.019 10.556,64.106 10.693,64.183 10.835,64.248 10.982,64.303 11.134,64.344 11.288,64.376 11.444,64.394 11.600,64.400 11.757,64.394 11.913,64.376 12.067,64.344 12.219,64.303 12.366,64.248 12.508,64.183 12.645,64.106 12.776,64.019 12.899,63.921 13.015,63.815 13.121,63.699 13.219,63.576 13.306,63.445 13.383,63.308 13.448,63.166 13.503,63.019 13.545,62.867 13.576,62.713 13.594,62.557 13.600,62.401 13.594,62.244 13.576,62.088 13.545,61.934 13.503,61.782 13.448,61.635 13.383,61.493 13.306,61.356 13.219,61.225 13.121,61.102 13.015,60.986 12.899,60.880 12.776,60.782 12.645,60.695 12.508,60.618 12.366,60.553 12.219,60.498 12.067,60.456 11.913,60.425 11.757,60.407 11.600,60.401" style="fill:none;stroke-width:0.050000mm;stroke:black" />
<polygon points="293.276,45.626 293.276,46.626 292.476,46.626 292.476,49.726 293.276,49.726 293.276,55.526 292.476,55.526 292.476,58.626 293.276,58.626 293.276,59.626 307.276,59.626 307.276,58.626 308.076,58.626 308.076,55.526 307.276,55.526 307.276,49.726 308.076,49.726 308.076,46.626 307.276,46.626 307.276,45.626" style="fill:none;stroke-width:0.050000mm;stroke:black" />
<polygon points="269.463,45.626 269.463,46.626 268.663,46.626 268.663,49.726 269.463,49.726 269.463,55.526 268.663,55.526 268.663,58.626 269.463,58.626 269.463,59.626 283.463,59.626 283.463,58.626 284.263,58.626 284.263,55.526 283.463,55.526 283.463,49.726 284.263,49.726 284.263,46.626 283.463,46.626 283.463,45.626" style="fill:none;stroke-width:0.050000mm;stroke:black" />
<polygon points="245.651,45.626 245.651,46.626 244.851,46.626 244.851,49.726 245.651,49.726 245.651,55.526 244.851,55.526 244.851,58.626 245.651,58.626 245.651,59.626 259.650,59.626 259.650,58.626 260.451,58.626 260.451,55.526 259.650,55.526 259.650,49.726 260.451,49.726 260.451,46.626 259.650,46.626 259.650,45.626" style="fill:none;stroke-width:0.050000mm;stroke:black" />
<polygon points="226.601,45.626 226.601,46.626 225.801,46.626 225.801,49.726 226.601,49.726 226.601,55.526 225.801,55.526 225.801,58.626 226.601,58.626 226.601,59.626 240.601,59.626 240.601,58.626 241.401,58.626 241.401,55.526 240.601,55.526 240.601,49.726 241.401,49.726 241.401,46.626 240.601,46.626 240.601,45.626" style="fill:none;stroke-width:0.050000mm;stroke:black" />
<polygon points="207.551,45.626 207.551,46.626 206.751,46.626 206.751,49.726 207.551,49.726 207.551,55.526 206.751,55.526 206.751,58.626 207.551,58.626 207.551,59.626 221.551,59.626 221.551,58.626 222.351,58.626 222.351,55.526 221.551,55.526 221.551,49.726 222.351,49.726 222.351,46.626 221.551,46.626 221.551,45.626" style="fill:none;stroke-width:0.050000mm;stroke:black" />
<polygon points="188.501,45.626 188.501,46.626 187.701,46.626 187.701,49.726 188.501,49.726 188.501,55.526 187.701,55.526 187.701,58.626 188.501,58.626 188.501,59.626 202.501,59.626 202.501,58.626 203.301,58.626 203.301,55.526 202.501,55.526 202.501,49.726 203.301,49.726 203.301,46.626 202.501,46.626 202.501,45.626" style="fill:none;stroke-width:0.050000mm;stroke:black" />
<polygon points="169.451,45.626 169.451,46.626 168.651,46.626 168.651,49.726 169.451,49.726 169.451,55.526 168.651,55.526 168.651,58.626 169.451,58.626 169.451,59.626 183.451,59.626 183.451,58.626 184.251,58.626 184.251,55.526 183.451,55.526 183.451,49.726 184.251,49.726 184.251,46.626 183.451,46.626 183.451,45.626" style="fill:none;stroke-width:0.050000mm;stroke:black" />
<polygon points="150.401,46.626 150.186,46.626 150.163,46.542 150.108,46.395 150.043,46.253 149.966,46.116 149.879,45.985 149.781,45.862 149.675,45.746 149.559,45.640 149.436,45.542 149.305,45.455 149.168,45.378 149.026,45.313 148.879,45.258 148.727,45.216 148.573,45.185 148.417,45.167 148.261,45.161 148.104,45.167 147.948,45.185 147.794,45.216 147.642,45.258 147.495,45.313 147.353,45.378 147.216,45.455 147.085,45.542 146.962,45.640 146.846,45.746 146.740,45.862 146.642,45.985 146.555,46.116 146.478,46.253 146.413,46.395 146.358,46.542 146.316,46.694 146.285,46.848 146.267,47.004 146.260,47.161 146.267,47.317 146.285,47.473 146.316,47.627 146.358,47.779 146.413,47.926 146.478,48.068 146.555,48.205 146.642,48.336 146.740,48.459 146.846,48.575 146.962,48.681 147.085,48.779 147.216,48.866 147.353,48.943 147.495,49.008 147.642,49.063 147.794,49.105 147.948,49.136 148.104,49.154 148.261,49.161 148.417,49.154 148.573,49.136 148.727,49.105 148.879,49.063 149.026,49.008 149.168,48.943 149.305,48.866 149.436,48.779 149.559,48.681 149.601,48.643 149.601,49.726 150.401,49.726 150.401,55.526 149.601,55.526 149.601,58.626 150.401,58.626 150.401,59.626 164.401,59.626 164.401,58.626 165.201,58.626 165.201,55.526 164.401,55.526 164.401,49.726 165.201,49.726 165.201,46.626 164.401,46.626 164.401,45.626 150.401,45.626" style="fill:none;stroke-width:0.050000mm;stroke:black" />
<polygon points="131.351,45.626 131.351,46.626 130.550,46.626 130.550,49.726 131.351,49.726 131.351,55.526 130.550,55.526 130.550,58.626 131.351,58.626 131.351,59.626 145.351,59.626 145.351,58.626 146.151,58.626 146.151,55.526 145.351,55.526 145.351,49.726 146.151,49.726 146.151,46.626 145.351,46.626 145.351,45.626" style="fill:none;stroke-width:0.050000mm;stroke:black" />
<polygon points="112.301,45.626 112.301,46.626 111.501,46.626 111.501,49.726 112.301,49.726 112.301,55.526 111.501,55.526 111.501,58.626 112.301,58.626 112.301,59.626 126.301,59.626 126.301,58.626 127.101,58.626 127.101,55.526 126.301,55.526 126.301,49.726 127.101,49.726 127.101,46.626 126.301,46.626 126.301,45.626" style="fill:none;stroke-width:0.050000mm;stroke:black" />
<polygon points="93.251,45.626 93.251,46.626 92.451,46.626 92.451,49.726 93.251,49.726 93.251,55.526 92.451,55.526 92.451,58.626 93.251,58.626 93.251,59.626 107.251,59.626 107.251,58.626 108.051,58.626 108.051,55.526 107.251,55.526 107.251,49.726 108.051,49.726 108.051,46.626 107.251,46.626 107.251,45.626" style="fill:none;stroke-width:0.050000mm;stroke:black" />
<polygon points="74.201,45.626 74.201,46.626 73.401,46.626 73.401,49.726 74.201,49.726 74.201,55.526 73.401,55.526 73.401,58.626 74.201,58.626 74.201,59.626 88.201,59.626 88.201,58.626 89.001,58.626 89.001,55.526 88.201,55.526 88.201,49.726 89.001,49.726 89.001,46.626 88.201,46.626 88.201,45.626" style="fill:none;stroke-width:0.050000mm;stroke:black" />
<polygon points="55.151,45.626 55.151,46.626 54.351,46.626 54.351,49.726 55.151,49.726 55.151,55.526 54.351,55.526 54.351,58.626 55.151,58.626 55.151,59.626 69.151,59.626 69.151,58.626 69.951,58.626 69.951,55.526 69.151,55.526 69.151,49.726 69.951,49.726 69.951,46.626 69.151,46.626 69.151,45.626" style="fill:none;stroke-width:0.050000mm;stroke:black" />
<polygon points="36.101,45.626 36.101,46.626 35.301,46.626 35.301,49.726 36.101,49.726 36.101,55.526 35.301,55.526 35.301,58.626 36.101,58.626 36.101,59.626 50.101,59.626 50.101,58.626 50.901,58.626 50.901,55.526 50.101,55.526 50.101,49.726 50.901,49.726 50.901,46.626 50.101,46.626 50.101,45.626" style="fill:none;stroke-width:0.050000mm;stroke:black" />
<polygon points="12.288,45.626 12.288,46.626 11.488,46.626 11.488,49.726 12.288,49.726 12.288,55.526 11.488,55.526 11.488,58.626 12.288,58.626 12.288,59.626 26.288,59.626 26.288,58.626 27.088,58.626 27.088,55.526 26.288,55.526 26.288,49.726 27.088,49.726 27.088,46.626 26.288,46.626 26.288,45.626" style="fill:none;stroke-width:0.050000mm;stroke:black" />
<polygon points="249.194,41.267 249.038,41.285 248.884,41.316 248.732,41.358 248.585,41.413 248.443,41.478 248.306,41.555 248.175,41.642 248.052,41.740 247.936,41.846 247.830,41.962 247.732,42.085 247.645,42.216 247.568,42.353 247.503,42.495 247.448,42.642 247.406,42.794 247.375,42.948 247.357,43.104 247.350,43.261 247.357,43.417 247.375,43.573 247.406,43.727 247.448,43.879 247.503,44.026 247.568,44.168 247.645,44.305 247.732,44.436 247.830,44.559 247.936,44.675 248.052,44.781 248.175,44.879 248.306,44.966 248.443,45.043 248.585,45.108 248.732,45.163 248.884,45.205 249.038,45.236 249.194,45.254 249.351,45.261 249.507,45.254 249.663,45.236 249.817,45.205 249.969,45.163 250.116,45.108 250.258,45.043 250.395,44.966 250.526,44.879 250.649,44.781 250.765,44.675 250.871,44.559 250.969,44.436 251.056,44.305 251.133,44.168 251.198,44.026 251.253,43.879 251.295,43.727 251.326,43.573 251.344,43.417 251.351,43.261 251.344,43.104 251.326,42.948 251.295,42.794 251.253,42.642 251.198,42.495 251.133,42.353 251.056,42.216 250.969,42.085 250.871,41.962 250.765,41.846 250.649,41.740 250.526,41.642 250.395,41.555 250.258,41.478 250.116,41.413 249.969,41.358 249.817,41.316 249.663,41.285 249.507,41.267 249.351,41.261" style="fill:none;stroke-width:0.050000mm;stroke:black" />
<polygon points="58.694,41.107 58.538,41.125 58.384,41.156 58.232,41.198 58.085,41.253 57.943,41.318 57.806,41.395 57.675,41.482 57.552,41.580 57.436,41.686 57.330,41.802 57.232,41.925 57.145,42.056 57.068,42.193 57.003,42.335 56.948,42.482 56.906,42.634 56.875,42.788 56.857,42.944 56.850,43.101 56.857,43.257 56.875,43.413 56.906,43.567 56.948,43.719 57.003,43.866 57.068,44.008 57.145,44.145 57.232,44.276 57.330,44.399 57.436,44.515 57.552,44.621 57.675,44.719 57.806,44.806 57.943,44.883 58.085,44.948 58.232,45.003 58.384,45.045 58.538,45.076 58.694,45.094 58.850,45.101 59.007,45.094 59.163,45.076 59.317,45.045 59.469,45.003 59.616,44.948 59.758,44.883 59.895,44.806 60.026,44.719 60.149,44.621 60.265,44.515 60.371,44.399 60.469,44.276 60.556,44.145 60.633,44.008 60.698,43.866 60.753,43.719 60.795,43.567 60.826,43.413 60.844,43.257 60.851,43.101 60.844,42.944 60.826,42.788 60.795,42.634 60.753,42.482 60.698,42.335 60.633,42.193 60.556,42.056 60.469,41.925 60.371,41.802 60.265,41.686 60.149,41.580 60.026,41.482 59.895,41.395 59.758,41.318 59.616,41.253 59.469,41.198 59.317,41.156 59.163,41.125 59.007,41.107 58.850,41.101" style="fill:none;stroke-width:0.050000mm;stroke:black" />
<polygon points="281.951,27.126 281.951,28.046 280.226,28.046 280.226,31.276 279.401,31.276 279.401,34.076 280.226,34.076 280.226,40.346 281.951,40.346 281.951,41.326 285.251,41.326 285.251,40.346 286.976,40.346 286.976,34.076 287.801,34.076 287.801,31.276 286.976,31.276 286.976,28.046 285.251,28.046 285.251,27.126" style="fill:none;stroke-width:0.050000mm;stroke:black" />
<polygon points="258.150,27.126 258.150,28.046 256.426,28.046 256.426,31.276 255.601,31.276 255.601,34.076 256.426,34.076 256.426,40.346 258.150,40.346 258.150,41.326 261.451,41.326 261.451,40.346 263.176,40.346 263.176,34.076 264.001,34.076 264.001,31.276 263.176,31.276 263.176,28.046 261.451,28.046 261.451,27.126" style="fill:none;stroke-width:0.050000mm;stroke:black" />
<polygon points="293.276,26.576 293.276,27.576 292.476,27.576 292.476,30.676 293.276,30.676 293.276,36.476 292.476,36.476 292.476,39.576 293.276,39.576 293.276,40.576 307.276,40.576 307.276,39.576 308.076,39.576 308.076,36.476 307.276,36.476 307.276,30.676 308.076,30.676 308.076,27.576 307.276,27.576 307.276,26.576" style="fill:none;stroke-width:0.050000mm;stroke:black" />
<polygon points="264.701,26.576 264.701,27.576 263.901,27.576 263.901,30.676 264.701,30.676 264.701,36.476 263.901,36.476 263.901,39.576 264.701,39.576 264.701,40.576 278.701,40.576 278.701,39.576 279.501,39.576 279.501,36.476 278.701,36.476 278.701,30.676 279.501,30.676 279.501,27.576 278.701,27.576 278.701,26.576" style="fill:none;stroke-width:0.050000mm;stroke:black" />
<polygon points="236.126,26.576 236.126,27.576 235.326,27.576 235.326,30.676 236.126,30.676 236.126,36.476 235.326,36.476 235.326,39.576 236.126,39.576 236.126,40.576 250.126,40.576 250.126,39.576 250.926,39.576 250.926,36.476 250.126,36.476 250.126,30.676 250.926,30.676 250.926,27.576 250.126,27.576 250.126,26.576" style="fill:none;stroke-width:0.050000mm;stroke:black" />
<polygon points="217.076,26.576 217.076,27.576 216.276,27.576 216.276,30.676 217.076,30.676 217.076,36.476 216.276,36.476 216.276,39.576 217.076,39.576 217.076,40.576 231.076,40.576 231.076,39.576 231.876,39.576 231.876,36.476 231.076,36.476 231.076,30.676 231.876,30.676 231.876,27.576 231.076,27.576 231.076,26.576" style="fill:none;stroke-width:0.050000mm;stroke:black" />
<polygon points="198.026,26.576 198.026,27.576 197.226,27.576 197.226,30.676 198.026,30.676 198.026,36.476 197.226,36.476 197.226,39.576 198.026,39.576 198.026,40.576 212.026,40.576 212.026,39.576 212.826,39.576 212.826,36.476 212.026,36.476 212.026,30.676 212.826,30.676 212.826,27.576 212.026,27.576 212.026,26.576" style="fill:none;stroke-width:0.050000mm;stroke:black" />
<polygon points="178.976,26.576 178.976,27.576 178.176,27.576 178.176,30.676 178.976,30.676 178.976,36.476 178.176,36.476 178.176,39.576 178.976,39.576 178.976,40.576 192.976,40.576 192.976,39.576 193.776,39.576 193.776,36.476 192.976,36.476 192.976,30.676 193.776,30.676 193.776,27.576 192.976,27.576 192.976,26.576" style="fill:none;stroke-width:0.050000mm;stroke:black" />
<polygon points="159.926,26.576 159.926,27.576 159.126,27.576 159.126,30.676 159.926,30.676 159.926,36.476 159.126,36.476 159.126,39.576 159.926,39.576 159.926,40.576 173.926,40.576 173.926,39.576 174.726,39.576 174.726,36.476 173.926,36.476 173.926,30.676 174.726,30.676 174.726,27.576 173.926,27.576 173.926,26.576" style="fill:none;stroke-width:0.050000mm;stroke:black" />
<polygon points="140.876,26.576 140.876,27.576 140.076,27.576 140.076,30.676 140.876,30.676 140.876,36.476 140.076,36.476 140.076,39.576 140.876,39.576 140.876,40.576 154.876,40.576 154.876,39.576 155.676,39.576 155.676,36.476 154.876,36.476 154.876,30.676 155.676,30.676 155.676,27.576 154.876,27.576 154.876,26.576" style="fill:none;stroke-width:0.050000mm;stroke:black" />
<polygon points="121.825,26.576 121.825,27.576 121.025,27.576 121.025,30.676 121.825,30.676 121.825,36.476 121.025,36.476 121.025,39.576 121.825,39.576 121.825,40.576 135.826,40.576 135.826,39.576 136.626,39.576 136.626,36.476 135.826,36.476 135.826,30.676 136.626,30.676 136.626,27.576 135.826,27.576 135.826,26.576" style="fill:none;stroke-width:0.050000mm;stroke:black" />
<polygon points="102.775,26.576 102.775,27.576 101.976,27.576 101.976,30.676 102.775,30.676 102.775,36.476 101.976,36.476 101.976,39.576 102.775,39.576 102.775,40.576 116.775,40.576 116.775,39.576 117.575,39.576 117.575,36.476 116.775,36.476 116.775,30.676 117.575,30.676 117.575,27.576 116.775,27.576 116.775,26.576" style="fill:none;stroke-width:0.050000mm;stroke:black" />
<polygon points="83.726,26.576 83.726,27.576 82.926,27.576 82.926,30.676 83.726,30.676 83.726,36.476 82.926,36.476 82.926,39.576 83.726,39.576 83.726,40.576 97.726,40.576 97.726,39.576 98.525,39.576 98.525,36.476 97.726,36.476 97.726,30.676 98.525,30.676 98.525,27.576 97.726,27.576 97.726,26.576" style="fill:none;stroke-width:0.050000mm;stroke:black" />
<polygon points="64.676,26.576 64.676,27.576 63.876,27.576 63.876,30.676 64.676,30.676 64.676,36.476 63.876,36.476 63.876,39.576 64.676,39.576 64.676,40.576 78.676,40.576 78.676,39.576 79.476,39.576 79.476,36.476 78.676,36.476 78.676,30.676 79.476,30.676 79.476,27.576 78.676,27.576 78.676,26.576" style="fill:none;stroke-width:0.050000mm;stroke:black" />
<polygon points="45.626,26.576 45.626,27.576 44.826,27.576 44.826,30.676 45.626,30.676 45.626,36.476 44.826,36.476 44.826,39.576 45.626,39.576 45.626,40.576 59.626,40.576 59.626,39.576 60.426,39.576 60.426,36.476 59.626,36.476 59.626,30.676 60.426,30.676 60.426,27.576 59.626,27.576 59.626,26.576" style="fill:none;stroke-width:0.050000mm;stroke:black" />
<polygon points="26.576,26.576 26.576,27.576 25.776,27.576 25.776,30.676 26.576,30.676 26.576,36.476 25.776,36.476 25.776,39.576 26.576,39.576 26.576,40.576 40.576,40.576 40.576,39.576 41.376,39.576 41.376,36.476 40.576,36.476 40.576,30.676 41.376,30.676 41.376,27.576 40.576,27.576 40.576,26.576" style="fill:none;stroke-width:0.050000mm;stroke:black" />
<polygon points="7.526,26.576 7.526,27.576 6.726,27.576 6.726,30.676 7.526,30.676 7.526,36.476 6.726,36.476 6.726,39.576 7.526,39.576 7.526,40.576 21.526,40.576 21.526,39.576 22.326,39.576 22.326,36.476 21.526,36.476 21.526,30.676 22.326,30.676 22.326,27.576 21.526,27.576 21.526,26.576" style="fill:none;stroke-width:0.050000mm;stroke:black" />
<polygon points="7.526,7.526 7.526,8.526 6.726,8.526 6.726,11.626 7.526,11.626 7.526,17.426 6.726,17.426 6.726,20.526 7.526,20.526 7.526,21.526 21.526,21.526 21.526,20.526 22.326,20.526 22.326,17.426 21.526,17.426 21.526,11.626 22.326,11.626 22.326,8.526 21.526,8.526 21.526,7.526" style="fill:none;stroke-width:0.050000mm;stroke:black" />
</svg>
