<?xml version="1.0"?>
<!-- Generated by SVGo -->
<svg width="294.130mm" height="27.684mm"
     viewBox="0.000 0.000 294.130 27.684"
     xmlns="http://www.w3.org/2000/svg" 
     xmlns:xlink="http://www.w3.org/1999/xlink">
<polygon points="286.365,5.010 286.599,5.037 286.830,5.083 287.057,5.147 287.278,5.229 287.491,5.327 287.697,5.443 287.893,5.573 288.078,5.719 288.251,5.879 288.411,6.052 288.557,6.237 288.687,6.433 288.803,6.639 288.901,6.852 288.983,7.073 289.047,7.300 289.093,7.531 289.120,7.765 289.130,8.001 289.130,19.684 289.120,19.919 289.093,20.153 289.047,20.384 288.983,20.611 288.901,20.832 288.803,21.045 288.687,21.251 288.557,21.447 288.411,21.632 288.251,21.805 288.078,21.965 287.893,22.111 287.697,22.241 287.491,22.357 287.278,22.455 287.057,22.537 286.830,22.601 286.599,22.647 286.365,22.674 286.129,22.684 8.000,22.684 7.765,22.674 7.531,22.647 7.300,22.601 7.073,22.537 6.852,22.455 6.639,22.357 6.433,22.241 6.237,22.111 6.052,21.965 5.879,21.805 5.719,21.632 5.573,21.447 5.443,21.251 5.327,21.045 5.229,20.832 5.147,20.611 5.083,20.384 5.037,20.153 5.010,19.919 5.000,19.683 5.000,8.000 5.010,7.765 5.037,7.531 5.083,7.300 5.147,7.073 5.229,6.852 5.327,6.639 5.443,6.433 5.573,6.237 5.719,6.052 5.879,5.879 6.052,5.719 6.237,5.573 6.433,5.443 6.639,5.327 6.852,5.229 7.073,5.147 7.300,5.083 7.531,5.037 7.765,5.010 8.001,5.000 286.130,5.000" style="fill:none;stroke-width:0.050000mm;stroke:black"/>
<polygon points="9.979,18.960 9.893,18.970 9.809,18.987 9.726,19.010 9.645,19.040 9.566,19.076 9.491,19.119 9.419,19.167 9.351,19.220 9.288,19.279 9.229,19.342 9.176,19.410 9.128,19.482 9.085,19.557 9.049,19.636 9.019,19.717 8.996,19.800 8.979,19.884 8.969,19.970 8.965,20.057 8.969,20.143 8.979,20.229 8.996,20.313 9.019,20.396 9.049,20.477 9.085,20.556 9.128,20.631 9.176,20.703 9.229,20.771 9.288,20.834 9.351,20.893 9.419,20.946 9.491,20.994 9.566,21.037 9.645,21.073 9.726,21.103 9.809,21.126 9.893,21.143 9.979,21.153 10.065,21.157 10.152,21.153 10.238,21.143 10.322,21.126 10.405,21.103 10.486,21.073 10.565,21.037 10.640,20.994 10.712,20.946 10.780,20.893 10.843,20.834 10.902,20.771 10.955,20.703 11.003,20.631 11.046,20.556 11.082,20.477 11.112,20.396 11.135,20.313 11.152,20.229 11.162,20.143 11.165,20.057 11.162,19.970 11.152,19.884 11.135,19.800 11.112,19.717 11.082,19.636 11.046,19.557 11.003,19.482 10.955,19.410 10.902,19.342 10.843,19.279 10.780,19.220 10.712,19.167 10.640,19.119 10.565,19.076 10.486,19.040 10.405,19.010 10.322,18.987 10.238,18.970 10.152,18.960 10.065,18.957" style="fill:none;stroke-width:0.050000mm;stroke:black"/>
<polygon points="127.581,18.960 127.495,18.970 127.411,18.987 127.328,19.010 127.247,19.040 127.168,19.076 127.093,19.119 127.021,19.167 126.953,19.220 126.890,19.279 126.831,19.342 126.778,19.410 126.730,19.482 126.687,19.557 126.651,19.636 126.621,19.717 126.598,19.800 126.581,19.884 126.571,19.970 126.567,20.057 126.571,20.143 126.581,20.229 126.598,20.313 126.621,20.396 126.651,20.477 126.687,20.556 126.730,20.631 126.778,20.703 126.831,20.771 126.890,20.834 126.953,20.893 127.021,20.946 127.093,20.994 127.168,21.037 127.247,21.073 127.328,21.103 127.411,21.126 127.495,21.143 127.581,21.153 127.667,21.157 127.754,21.153 127.840,21.143 127.924,21.126 128.007,21.103 128.088,21.073 128.167,21.037 128.242,20.994 128.314,20.946 128.382,20.893 128.445,20.834 128.504,20.771 128.557,20.703 128.605,20.631 128.648,20.556 128.684,20.477 128.714,20.396 128.737,20.313 128.754,20.229 128.764,20.143 128.768,20.057 128.764,19.970 128.754,19.884 128.737,19.800 128.714,19.717 128.684,19.636 128.648,19.557 128.605,19.482 128.557,19.410 128.504,19.342 128.445,19.279 128.382,19.220 128.314,19.167 128.242,19.119 128.167,19.076 128.088,19.040 128.007,19.010 127.924,18.987 127.840,18.970 127.754,18.960 127.667,18.957" style="fill:none;stroke-width:0.050000mm;stroke:black"/>
<polygon points="284.108,18.960 284.022,18.970 283.938,18.987 283.855,19.010 283.774,19.040 283.695,19.076 283.620,19.119 283.548,19.167 283.480,19.220 283.417,19.279 283.358,19.342 283.305,19.410 283.257,19.482 283.214,19.557 283.178,19.636 283.148,19.717 283.125,19.800 283.108,19.884 283.098,19.970 283.095,20.057 283.098,20.143 283.108,20.229 283.125,20.313 283.148,20.396 283.178,20.477 283.214,20.556 283.257,20.631 283.305,20.703 283.358,20.771 283.417,20.834 283.480,20.893 283.548,20.946 283.620,20.994 283.695,21.037 283.774,21.073 283.855,21.103 283.938,21.126 284.022,21.143 284.108,21.153 284.195,21.157 284.281,21.153 284.367,21.143 284.451,21.126 284.534,21.103 284.615,21.073 284.694,21.037 284.769,20.994 284.841,20.946 284.909,20.893 284.972,20.834 285.031,20.771 285.084,20.703 285.132,20.631 285.175,20.556 285.211,20.477 285.241,20.396 285.264,20.313 285.281,20.229 285.291,20.143 285.295,20.057 285.291,19.970 285.281,19.884 285.264,19.800 285.241,19.717 285.211,19.636 285.175,19.557 285.132,19.482 285.084,19.410 285.031,19.342 284.972,19.279 284.909,19.220 284.841,19.167 284.769,19.119 284.694,19.076 284.615,19.040 284.534,19.010 284.451,18.987 284.367,18.970 284.281,18.960 284.195,18.957" style="fill:none;stroke-width:0.050000mm;stroke:black"/>
<polygon points="9.979,7.531 9.893,7.541 9.809,7.558 9.726,7.581 9.645,7.611 9.566,7.647 9.491,7.690 9.419,7.738 9.351,7.791 9.288,7.850 9.229,7.913 9.176,7.981 9.128,8.053 9.085,8.128 9.049,8.207 9.019,8.288 8.996,8.371 8.979,8.455 8.969,8.541 8.965,8.628 8.969,8.714 8.979,8.800 8.996,8.884 9.019,8.967 9.049,9.048 9.085,9.127 9.128,9.202 9.176,9.274 9.229,9.342 9.288,9.405 9.351,9.464 9.419,9.517 9.491,9.565 9.566,9.608 9.645,9.644 9.726,9.674 9.809,9.697 9.893,9.714 9.979,9.724 10.065,9.728 10.152,9.724 10.238,9.714 10.322,9.697 10.405,9.674 10.486,9.644 10.565,9.608 10.640,9.565 10.712,9.517 10.780,9.464 10.843,9.405 10.902,9.342 10.955,9.274 11.003,9.202 11.046,9.127 11.082,9.048 11.112,8.967 11.135,8.884 11.152,8.800 11.162,8.714 11.165,8.628 11.162,8.541 11.152,8.455 11.135,8.371 11.112,8.288 11.082,8.207 11.046,8.128 11.003,8.053 10.955,7.981 10.902,7.913 10.843,7.850 10.780,7.791 10.712,7.738 10.640,7.690 10.565,7.647 10.486,7.611 10.405,7.581 10.322,7.558 10.238,7.541 10.152,7.531 10.065,7.527" style="fill:none;stroke-width:0.050000mm;stroke:black"/>
<polygon points="127.581,7.531 127.495,7.541 127.411,7.558 127.328,7.581 127.247,7.611 127.168,7.647 127.093,7.690 127.021,7.738 126.953,7.791 126.890,7.850 126.831,7.913 126.778,7.981 126.730,8.053 126.687,8.128 126.651,8.207 126.621,8.288 126.598,8.371 126.581,8.455 126.571,8.541 126.567,8.628 126.571,8.714 126.581,8.800 126.598,8.884 126.621,8.967 126.651,9.048 126.687,9.127 126.730,9.202 126.778,9.274 126.831,9.342 126.890,9.405 126.953,9.464 127.021,9.517 127.093,9.565 127.168,9.608 127.247,9.644 127.328,9.674 127.411,9.697 127.495,9.714 127.581,9.724 127.667,9.728 127.754,9.724 127.840,9.714 127.924,9.697 128.007,9.674 128.088,9.644 128.167,9.608 128.242,9.565 128.314,9.517 128.382,9.464 128.445,9.405 128.504,9.342 128.557,9.274 128.605,9.202 128.648,9.127 128.684,9.048 128.714,8.967 128.737,8.884 128.754,8.800 128.764,8.714 128.768,8.628 128.764,8.541 128.754,8.455 128.737,8.371 128.714,8.288 128.684,8.207 128.648,8.128 128.605,8.053 128.557,7.981 128.504,7.913 128.445,7.850 128.382,7.791 128.314,7.738 128.242,7.690 128.167,7.647 128.088,7.611 128.007,7.581 127.924,7.558 127.840,7.541 127.754,7.531 127.667,7.527" style="fill:none;stroke-width:0.050000mm;stroke:black"/>
<polygon points="284.108,7.531 284.022,7.541 283.938,7.558 283.855,7.581 283.774,7.611 283.695,7.647 283.620,7.690 283.548,7.738 283.480,7.791 283.417,7.850 283.358,7.913 283.305,7.981 283.257,8.053 283.214,8.128 283.178,8.207 283.148,8.288 283.125,8.371 283.108,8.455 283.098,8.541 283.095,8.628 283.098,8.714 283.108,8.800 283.125,8.884 283.148,8.967 283.178,9.048 283.214,9.127 283.257,9.202 283.305,9.274 283.358,9.342 283.417,9.405 283.480,9.464 283.548,9.517 283.620,9.565 283.695,9.608 283.774,9.644 283.855,9.674 283.938,9.697 284.022,9.714 284.108,9.724 284.195,9.728 284.281,9.724 284.367,9.714 284.451,9.697 284.534,9.674 284.615,9.644 284.694,9.608 284.769,9.565 284.841,9.517 284.909,9.464 284.972,9.405 285.031,9.342 285.084,9.274 285.132,9.202 285.175,9.127 285.211,9.048 285.241,8.967 285.264,8.884 285.281,8.800 285.291,8.714 285.295,8.628 285.291,8.541 285.281,8.455 285.264,8.371 285.241,8.288 285.211,8.207 285.175,8.128 285.132,8.053 285.084,7.981 285.031,7.913 284.972,7.850 284.909,7.791 284.841,7.738 284.769,7.690 284.694,7.647 284.615,7.611 284.534,7.581 284.451,7.558 284.367,7.541 284.281,7.531 284.195,7.527" style="fill:none;stroke-width:0.050000mm;stroke:black"/>
</svg>
