M48
INCH,TZ
T1C0.0157
T2C0.0236
T3C0.0276
T4C0.0280
T5C0.0315
T6C0.0354
T7C0.0394
T8C0.0433
T9C0.0591
T10C0.0866
%
G90
G05
T1
X39700Y-48000
X46024Y-32374
X46024Y-32906
X46359Y-32374
X46359Y-32906
X46694Y-32374
X46694Y-32906
X47028Y-32374
X47028Y-32906
X47033Y-33467
X47200Y-48000
X47363Y-32374
X47363Y-32906
X47698Y-32374
X47698Y-32906
X48032Y-32374
X48032Y-32906
X48367Y-32374
X48367Y-32906
X48600Y-34000
X50000Y-47300
X52700Y-38200
X54700Y-48000
X57500Y-47300
X61500Y-36300
X62200Y-48000
X64900Y-47300
X69700Y-48000
X72400Y-47300
X73200Y-36500
X73500Y-36200
X73800Y-35900
X74100Y-35600
X74400Y-35300
X77200Y-48000
X79900Y-47300
X84700Y-48000
X85600Y-35400
X87400Y-47300
X89600Y-35400
X92200Y-48000
X93600Y-35400
X94900Y-47300
X97600Y-35400
X99680Y-48000
X101600Y-35400
X102400Y-47300
X105600Y-35400
X107200Y-48000
X109600Y-35400
X113600Y-35400
X114300Y-70300
X114700Y-48000
X117400Y-47300
X117600Y-35400
X121600Y-35400
X122200Y-48000
X125000Y-47300
X125600Y-35400
X127000Y-55300
X129600Y-35400
X131700Y-48000
X133600Y-35400
X137600Y-35400
X143930Y-33400
T2
X37609Y-35500
X38200Y-35500
T3
X52684Y-34300
X52684Y-35267
X52684Y-36233
X52684Y-37200
X52700Y-31400
X52700Y-32367
X52700Y-33333
X54684Y-34300
X54684Y-35267
X54684Y-36233
X54684Y-37200
X54700Y-31400
X54700Y-32367
X54700Y-33333
T4
X44400Y-37100
X44872Y-35092
T5
X30700Y-60900
X30700Y-68400
X33700Y-60900
X33700Y-68400
X37031Y-37100
X39000Y-37100
X41200Y-68400
X44200Y-68400
X46531Y-34900
X46800Y-68400
X48500Y-34900
X49800Y-68400
X49900Y-34400
X49900Y-37400
X51100Y-34404
X51100Y-37404
X56900Y-31200
X56900Y-37200
X57900Y-31200
X57900Y-37200
X58900Y-31200
X58900Y-37200
X59900Y-31200
X59900Y-37200
X60900Y-31200
X60900Y-37200
X61900Y-31200
X61900Y-37200
X62900Y-31200
X62900Y-37200
X63900Y-31200
X63900Y-37200
X64900Y-31200
X64900Y-37200
X65900Y-31200
X65900Y-37200
X66900Y-31200
X66900Y-37200
X67900Y-31200
X67900Y-37200
X68900Y-31200
X68900Y-37200
X69900Y-31200
X69900Y-37200
X70900Y-31200
X70900Y-37200
X71900Y-31200
X71900Y-37200
X72900Y-31200
X72900Y-37200
X73900Y-31200
X73900Y-37200
X74600Y-68400
X74900Y-31200
X74900Y-37200
X75900Y-31200
X75900Y-37200
X77600Y-68400
X78008Y-31500
X78008Y-37500
X78500Y-33543
X78500Y-35465
X78992Y-31500
X78992Y-37500
X82600Y-31400
X82600Y-34400
X83600Y-32187
X83600Y-35187
X84600Y-33000
X84600Y-36000
X85600Y-33800
X85600Y-36800
X86600Y-31400
X86600Y-34400
X87600Y-32187
X87600Y-35187
X88600Y-33000
X88600Y-36000
X89600Y-33800
X89600Y-36800
X90600Y-31400
X90600Y-34400
X91600Y-32187
X91600Y-35187
X92600Y-33000
X92600Y-36000
X93600Y-33800
X93600Y-36800
X94600Y-31400
X94600Y-34400
X95600Y-32187
X95600Y-35187
X96600Y-33000
X96600Y-36000
X97600Y-33800
X97600Y-36800
X98600Y-31400
X98600Y-34400
X99600Y-32187
X99600Y-35187
X100600Y-33000
X100600Y-36000
X101600Y-33800
X101600Y-36800
X102600Y-31400
X102600Y-34400
X103600Y-32187
X103600Y-35187
X103900Y-68400
X104600Y-33000
X104600Y-36000
X105600Y-33800
X105600Y-36800
X106600Y-31400
X106600Y-34400
X106900Y-68400
X107600Y-32187
X107600Y-35187
X108600Y-33000
X108600Y-36000
X109600Y-33800
X109600Y-36800
X109800Y-68400
X110600Y-31400
X110600Y-34400
X111600Y-32187
X111600Y-35187
X112600Y-33000
X112600Y-36000
X112800Y-68400
X113600Y-33800
X113600Y-36800
X114600Y-31400
X114600Y-34400
X115600Y-32187
X115600Y-35187
X116600Y-33000
X116600Y-36000
X117200Y-68400
X117600Y-33800
X117600Y-36800
X118615Y-31400
X118615Y-34400
X119600Y-32187
X119600Y-35187
X120200Y-68400
X120600Y-33000
X120600Y-36000
X121600Y-33800
X121600Y-36800
X122600Y-31400
X122600Y-34400
X123600Y-32187
X123600Y-35187
X124600Y-33000
X124600Y-36000
X124800Y-68400
X125600Y-33800
X125600Y-36800
X126600Y-31400
X126600Y-34400
X127600Y-32187
X127600Y-35187
X127800Y-68400
X128600Y-33000
X128600Y-36000
X129600Y-33800
X129600Y-36800
X130600Y-31400
X130600Y-34400
X131600Y-32187
X131600Y-35187
X132200Y-68400
X133600Y-33800
X133600Y-36800
X134600Y-31400
X134600Y-34400
X135200Y-68400
X135600Y-32187
X135600Y-35187
X136600Y-33000
X136600Y-36000
X137600Y-33800
X137600Y-36800
X138600Y-31400
X138600Y-34400
X139600Y-32187
X139600Y-35187
X139700Y-68400
X140600Y-33000
X140600Y-36000
X141600Y-33800
X141600Y-36800
X142700Y-68400
T6
X50300Y-32300
X51300Y-32300
T7
X46400Y-36200
X46400Y-37200
X47400Y-36200
X47400Y-37200
X48400Y-36200
X48400Y-37200
T8
X36800Y-31500
X36800Y-33272
X39359Y-31500
X39359Y-33272
X41500Y-31498
X41500Y-33270
X44059Y-31498
X44059Y-33270
T9
X27738Y-33312
X27738Y-40813
X28672Y-55811
X28672Y-63311
X28673Y-70811
X29600Y-70811
X29618Y-48311
X30238Y-32312
X30238Y-39813
X30559Y-55811
X31172Y-54811
X31172Y-62311
X31173Y-69811
X32100Y-69811
X32118Y-47311
X32429Y-63311
X33059Y-54811
X34929Y-62311
X35238Y-40813
X37113Y-63311
X37738Y-39813
X38000Y-70811
X38988Y-48313
X39613Y-62311
X40500Y-69811
X40863Y-55813
X40870Y-70811
X41488Y-47313
X42738Y-40813
X43363Y-54813
X43370Y-69811
X44613Y-63313
X45238Y-39813
X46488Y-48313
X47113Y-62313
X47421Y-70811
X48363Y-55813
X48988Y-47313
X49921Y-69811
X50238Y-40813
X50863Y-54813
X52113Y-63313
X52738Y-39813
X53988Y-48313
X54613Y-62313
X55863Y-55813
X56488Y-47313
X57738Y-40813
X58363Y-54813
X59613Y-63313
X60238Y-39813
X61488Y-48313
X62113Y-62313
X63362Y-55813
X63988Y-47313
X65238Y-40813
X65862Y-54813
X67113Y-63313
X67738Y-39813
X68988Y-48313
X69613Y-62313
X70862Y-55813
X71488Y-47313
X72738Y-40813
X72800Y-70811
X73362Y-54813
X74613Y-63313
X75238Y-39813
X75300Y-69811
X75615Y-70811
X76488Y-48313
X77113Y-62313
X78115Y-69811
X78362Y-55813
X78988Y-47313
X80238Y-40813
X80862Y-54813
X82113Y-63313
X82738Y-39813
X83988Y-48313
X84613Y-62313
X85862Y-55813
X86488Y-47313
X87738Y-40813
X88362Y-54813
X89613Y-63313
X90238Y-39813
X91488Y-48313
X92113Y-62313
X93362Y-55813
X93988Y-47313
X95238Y-40813
X95862Y-54813
X97113Y-63313
X97738Y-39813
X98988Y-48313
X99613Y-62313
X100862Y-55813
X101488Y-47313
X102736Y-70811
X102738Y-40813
X103362Y-54813
X104613Y-63313
X104630Y-70811
X105236Y-69811
X105238Y-39813
X106488Y-48313
X107113Y-62313
X107130Y-69811
X108362Y-55813
X108988Y-47313
X110236Y-70811
X110238Y-40813
X110862Y-54813
X112113Y-63313
X112736Y-69811
X112738Y-39813
X113988Y-48313
X114613Y-62313
X115862Y-55813
X115882Y-70811
X116488Y-47313
X117738Y-40813
X117738Y-70811
X118362Y-54813
X118382Y-69811
X120238Y-39813
X120238Y-69811
X121488Y-48313
X122425Y-63303
X123363Y-55813
X123988Y-47313
X124925Y-62303
X125238Y-70811
X125863Y-54813
X127738Y-69811
X128051Y-55815
X128969Y-40815
X130551Y-54815
X130862Y-48319
X131469Y-39815
X131795Y-52063
X132738Y-63313
X132738Y-70811
X133362Y-47319
X134295Y-51063
X135238Y-62313
X135238Y-69811
X140238Y-40813
X140238Y-48313
X140238Y-55813
X140238Y-63313
X140238Y-70811
X142738Y-39813
X142738Y-47313
X142738Y-54813
X142738Y-62313
X142738Y-69811
T10
X34400Y-32100
X34400Y-36700
X35500Y-52800
X35500Y-68300
X80700Y-32100
X80700Y-36700
X81798Y-52800
X81798Y-68300
X138000Y-52800
X138000Y-68300
X143900Y-32100
X143900Y-36700
T2
G00X45493Y-31346
M15
G01X45493Y-31031
M16
G05
G00X45493Y-32815
M15
G01X45493Y-32224
M16
G05
G00X48898Y-31346
M15
G01X48898Y-31031
M16
G05
G00X48898Y-32815
M15
G01X48898Y-32224
M16
G05
T0
M30
