M48
INCH,TZ
T1C0.0669
T2C0.1200
T3C0.1201
T4C0.1570
T5C0.1575
%
G90
G05
T1
X22937Y-29800
X22937Y-37313
X23875Y-67309
X23875Y-52309
X23875Y-59813
X24812Y-67309
X24812Y-44813
X25750Y-52309
X26938Y-29800
X26938Y-37313
X27625Y-59813
X27875Y-67309
X27875Y-52309
X27875Y-59813
X28812Y-67309
X28813Y-44813
X29750Y-52309
X30437Y-37313
X31625Y-59813
X32313Y-59813
X33250Y-67313
X34188Y-44813
X34438Y-37313
X36063Y-52313
X36072Y-67311
X36313Y-59813
X37250Y-67313
X37938Y-37313
X38188Y-44813
X39813Y-59813
X40063Y-52313
X40072Y-67311
X41688Y-44813
X41938Y-37313
X42625Y-67309
X43563Y-52313
X43813Y-59813
X45438Y-37313
X45688Y-44813
X46625Y-67309
X47313Y-59813
X47563Y-52313
X49188Y-44813
X49438Y-37313
X51063Y-52313
X51313Y-59813
X52938Y-37313
X53188Y-44813
X54813Y-59813
X55063Y-52313
X56688Y-44813
X56938Y-37313
X58562Y-52313
X58813Y-59813
X60438Y-37313
X60688Y-44813
X62313Y-59813
X62562Y-52313
X64188Y-44813
X64438Y-37313
X66062Y-52313
X66313Y-59813
X67938Y-37313
X67948Y-67316
X68188Y-44813
X69813Y-59813
X70062Y-52313
X70750Y-67313
X71688Y-44813
X71938Y-37313
X71948Y-67316
X73562Y-52313
X73813Y-59813
X74750Y-67313
X75438Y-37313
X75688Y-44813
X77313Y-59813
X77562Y-52313
X79188Y-44813
X79438Y-37313
X81062Y-52313
X81313Y-59813
X82938Y-37313
X83188Y-44813
X84813Y-59813
X85062Y-52313
X86688Y-44813
X86938Y-37313
X88562Y-52313
X88813Y-59813
X90438Y-37313
X90688Y-44813
X92313Y-59813
X92562Y-52313
X94188Y-44813
X94438Y-37313
X96062Y-52313
X96313Y-59813
X97938Y-37313
X97949Y-67309
X98188Y-44813
X99813Y-59813
X99828Y-67313
X100062Y-52313
X101688Y-44813
X101938Y-37313
X101949Y-67309
X103562Y-52313
X103813Y-59813
X103828Y-67313
X105438Y-37313
X105451Y-67313
X105688Y-44813
X107313Y-59813
X107562Y-52313
X109188Y-44813
X109438Y-37313
X109451Y-67313
X111062Y-52313
X111071Y-67313
X111313Y-59813
X112938Y-37313
X112953Y-67309
X113188Y-44813
X115062Y-52313
X115071Y-67313
X116688Y-44813
X116938Y-37313
X116953Y-67309
X117625Y-59813
X118563Y-52313
X120438Y-67313
X120688Y-44813
X121625Y-59813
X122563Y-52313
X123250Y-52313
X124188Y-37313
X124438Y-67313
X126062Y-44813
X127000Y-48563
X127250Y-52313
X127938Y-59813
X127938Y-67313
X128188Y-37313
X130062Y-44813
X131000Y-48563
X131938Y-59813
X131938Y-67313
X135438Y-37313
X135438Y-44813
X135438Y-52313
X135438Y-59813
X135438Y-67313
X139438Y-37313
X139438Y-44813
X139438Y-52313
X139438Y-59813
X139438Y-67313
T2
X47448Y-70066
X53075Y-70066
X92445Y-70066
X92448Y-70066
T3
X24940Y-57057
X34310Y-57057
X120565Y-49557
X121502Y-34557
X129935Y-49557
X130873Y-34557
X131756Y-43877
X131756Y-53248
T4
X47448Y-64066
X53075Y-64066
X92445Y-64066
X92448Y-64066
T5
X24938Y-29800
X24938Y-37313
X24940Y-63057
X25875Y-67309
X25875Y-52309
X25875Y-59813
X26812Y-67309
X26813Y-44813
X27750Y-52309
X29625Y-59813
X32438Y-37313
X34310Y-63057
X34313Y-59813
X35250Y-67313
X36188Y-44813
X38063Y-52313
X38072Y-67311
X39938Y-37313
X41812Y-59813
X43687Y-44813
X44625Y-67309
X45562Y-52313
X47437Y-37313
X49312Y-59813
X51187Y-44813
X53062Y-52313
X54937Y-37313
X56812Y-59813
X58687Y-44813
X60562Y-52313
X62437Y-37313
X64313Y-59813
X66188Y-44813
X68062Y-52313
X69938Y-37313
X69948Y-67316
X71813Y-59813
X72750Y-67313
X73688Y-44813
X75562Y-52313
X77438Y-37313
X79313Y-59813
X81188Y-44813
X83062Y-52313
X84938Y-37313
X86813Y-59813
X88688Y-44813
X90562Y-52313
X92438Y-37313
X94313Y-59813
X96188Y-44813
X98062Y-52313
X99938Y-37313
X99949Y-67309
X101813Y-59813
X101828Y-67313
X103688Y-44813
X105562Y-52313
X107438Y-37313
X107451Y-67313
X109313Y-59813
X111188Y-44813
X113062Y-52313
X113071Y-67313
X114938Y-37313
X114953Y-67309
X118688Y-44813
X119625Y-59813
X120563Y-52313
X120565Y-55557
X121502Y-40557
X122438Y-67313
X125250Y-52313
X125756Y-43877
X125756Y-53248
X126188Y-37313
X128062Y-44813
X129000Y-48563
X129935Y-55557
X129938Y-59813
X129938Y-67313
X130873Y-40557
X137438Y-37313
X137438Y-44813
X137438Y-52313
X137438Y-59813
X137438Y-67313
T0
M30
