G04 #@! TF.GenerationSoftware,KiCad,Pcbnew,(5.1.10)-1*
G04 #@! TF.CreationDate,2021-10-13T00:14:03-04:00*
G04 #@! TF.ProjectId,delight-pcb,64656c69-6768-4742-9d70-63622e6b6963,rev?*
G04 #@! TF.SameCoordinates,Original*
G04 #@! TF.FileFunction,Soldermask,Bot*
G04 #@! TF.FilePolarity,Negative*
%FSLAX46Y46*%
G04 Gerber Fmt 4.6, Leading zero omitted, Abs format (unit mm)*
G04 Created by KiCad (PCBNEW (5.1.10)-1) date 2021-10-13 00:14:03*
%MOMM*%
%LPD*%
G01*
G04 APERTURE LIST*
%ADD10C,0.125000*%
%ADD11C,0.350000*%
%ADD12C,0.400000*%
%ADD13C,1.710000*%
%ADD14O,1.600000X1.600000*%
%ADD15R,1.600000X1.600000*%
%ADD16C,4.400000*%
%ADD17C,3.048000*%
%ADD18C,3.987800*%
%ADD19C,1.750000*%
%ADD20C,4.000000*%
%ADD21C,2.500000*%
%ADD22O,1.400000X1.400000*%
%ADD23C,1.400000*%
%ADD24C,1.200000*%
%ADD25R,1.200000X1.200000*%
%ADD26C,1.600000*%
%ADD27C,1.500000*%
%ADD28C,1.800000*%
%ADD29R,1.800000X1.800000*%
%ADD30O,1.700000X1.700000*%
%ADD31R,1.700000X1.700000*%
%ADD32C,2.000000*%
%ADD33O,0.900000X1.700000*%
%ADD34O,0.900000X2.400000*%
%ADD35C,0.700000*%
G04 APERTURE END LIST*
D10*
X169238761Y-185364380D02*
X169238761Y-184840571D01*
X169262571Y-184745333D01*
X169310190Y-184697714D01*
X169405428Y-184697714D01*
X169453047Y-184745333D01*
X169238761Y-185316761D02*
X169286380Y-185364380D01*
X169405428Y-185364380D01*
X169453047Y-185316761D01*
X169476857Y-185221523D01*
X169476857Y-185126285D01*
X169453047Y-185031047D01*
X169405428Y-184983428D01*
X169286380Y-184983428D01*
X169238761Y-184935809D01*
X168786380Y-185364380D02*
X168786380Y-184364380D01*
X168786380Y-185316761D02*
X168834000Y-185364380D01*
X168929238Y-185364380D01*
X168976857Y-185316761D01*
X169000666Y-185269142D01*
X169024476Y-185173904D01*
X169024476Y-184888190D01*
X169000666Y-184792952D01*
X168976857Y-184745333D01*
X168929238Y-184697714D01*
X168834000Y-184697714D01*
X168786380Y-184745333D01*
X168334000Y-185364380D02*
X168334000Y-184840571D01*
X168357809Y-184745333D01*
X168405428Y-184697714D01*
X168500666Y-184697714D01*
X168548285Y-184745333D01*
X168334000Y-185316761D02*
X168381619Y-185364380D01*
X168500666Y-185364380D01*
X168548285Y-185316761D01*
X168572095Y-185221523D01*
X168572095Y-185126285D01*
X168548285Y-185031047D01*
X168500666Y-184983428D01*
X168381619Y-184983428D01*
X168334000Y-184935809D01*
X168095904Y-184697714D02*
X168095904Y-185697714D01*
X168095904Y-184745333D02*
X168048285Y-184697714D01*
X167953047Y-184697714D01*
X167905428Y-184745333D01*
X167881619Y-184792952D01*
X167857809Y-184888190D01*
X167857809Y-185173904D01*
X167881619Y-185269142D01*
X167905428Y-185316761D01*
X167953047Y-185364380D01*
X168048285Y-185364380D01*
X168095904Y-185316761D01*
X167714952Y-184697714D02*
X167524476Y-184697714D01*
X167643523Y-184364380D02*
X167643523Y-185221523D01*
X167619714Y-185316761D01*
X167572095Y-185364380D01*
X167524476Y-185364380D01*
X167167333Y-185316761D02*
X167214952Y-185364380D01*
X167310190Y-185364380D01*
X167357809Y-185316761D01*
X167381619Y-185221523D01*
X167381619Y-184840571D01*
X167357809Y-184745333D01*
X167310190Y-184697714D01*
X167214952Y-184697714D01*
X167167333Y-184745333D01*
X167143523Y-184840571D01*
X167143523Y-184935809D01*
X167381619Y-185031047D01*
X166714952Y-185364380D02*
X166714952Y-184364380D01*
X166714952Y-185316761D02*
X166762571Y-185364380D01*
X166857809Y-185364380D01*
X166905428Y-185316761D01*
X166929238Y-185269142D01*
X166953047Y-185173904D01*
X166953047Y-184888190D01*
X166929238Y-184792952D01*
X166905428Y-184745333D01*
X166857809Y-184697714D01*
X166762571Y-184697714D01*
X166714952Y-184745333D01*
X166167333Y-184697714D02*
X165976857Y-184697714D01*
X166095904Y-185364380D02*
X166095904Y-184507238D01*
X166072095Y-184412000D01*
X166024476Y-184364380D01*
X165976857Y-184364380D01*
X165810190Y-185364380D02*
X165810190Y-184697714D01*
X165810190Y-184888190D02*
X165786380Y-184792952D01*
X165762571Y-184745333D01*
X165714952Y-184697714D01*
X165667333Y-184697714D01*
X165429238Y-185364380D02*
X165476857Y-185316761D01*
X165500666Y-185269142D01*
X165524476Y-185173904D01*
X165524476Y-184888190D01*
X165500666Y-184792952D01*
X165476857Y-184745333D01*
X165429238Y-184697714D01*
X165357809Y-184697714D01*
X165310190Y-184745333D01*
X165286380Y-184792952D01*
X165262571Y-184888190D01*
X165262571Y-185173904D01*
X165286380Y-185269142D01*
X165310190Y-185316761D01*
X165357809Y-185364380D01*
X165429238Y-185364380D01*
X165048285Y-185364380D02*
X165048285Y-184697714D01*
X165048285Y-184792952D02*
X165024476Y-184745333D01*
X164976857Y-184697714D01*
X164905428Y-184697714D01*
X164857809Y-184745333D01*
X164834000Y-184840571D01*
X164834000Y-185364380D01*
X164834000Y-184840571D02*
X164810190Y-184745333D01*
X164762571Y-184697714D01*
X164691142Y-184697714D01*
X164643523Y-184745333D01*
X164619714Y-184840571D01*
X164619714Y-185364380D01*
X163786380Y-185316761D02*
X163834000Y-185364380D01*
X163929238Y-185364380D01*
X163976857Y-185316761D01*
X164000666Y-185269142D01*
X164024476Y-185173904D01*
X164024476Y-184888190D01*
X164000666Y-184792952D01*
X163976857Y-184745333D01*
X163929238Y-184697714D01*
X163834000Y-184697714D01*
X163786380Y-184745333D01*
X163500666Y-185364380D02*
X163548285Y-185316761D01*
X163572095Y-185269142D01*
X163595904Y-185173904D01*
X163595904Y-184888190D01*
X163572095Y-184792952D01*
X163548285Y-184745333D01*
X163500666Y-184697714D01*
X163429238Y-184697714D01*
X163381619Y-184745333D01*
X163357809Y-184792952D01*
X163334000Y-184888190D01*
X163334000Y-185173904D01*
X163357809Y-185269142D01*
X163381619Y-185316761D01*
X163429238Y-185364380D01*
X163500666Y-185364380D01*
X163143523Y-185316761D02*
X163095904Y-185364380D01*
X163000666Y-185364380D01*
X162953047Y-185316761D01*
X162929238Y-185221523D01*
X162929238Y-185173904D01*
X162953047Y-185078666D01*
X163000666Y-185031047D01*
X163072095Y-185031047D01*
X163119714Y-184983428D01*
X163143523Y-184888190D01*
X163143523Y-184840571D01*
X163119714Y-184745333D01*
X163072095Y-184697714D01*
X163000666Y-184697714D01*
X162953047Y-184745333D01*
X162524476Y-185316761D02*
X162572095Y-185364380D01*
X162667333Y-185364380D01*
X162714952Y-185316761D01*
X162738761Y-185221523D01*
X162738761Y-184840571D01*
X162714952Y-184745333D01*
X162667333Y-184697714D01*
X162572095Y-184697714D01*
X162524476Y-184745333D01*
X162500666Y-184840571D01*
X162500666Y-184935809D01*
X162738761Y-185031047D01*
X162334000Y-184697714D02*
X162214952Y-185364380D01*
X162095904Y-184697714D02*
X162214952Y-185364380D01*
X162262571Y-185602476D01*
X162286380Y-185650095D01*
X162334000Y-185697714D01*
X161976857Y-184697714D02*
X161786380Y-184697714D01*
X161905428Y-185364380D02*
X161905428Y-184507238D01*
X161881619Y-184412000D01*
X161834000Y-184364380D01*
X161786380Y-184364380D01*
X161405428Y-185364380D02*
X161405428Y-184840571D01*
X161429238Y-184745333D01*
X161476857Y-184697714D01*
X161572095Y-184697714D01*
X161619714Y-184745333D01*
X161405428Y-185316761D02*
X161453047Y-185364380D01*
X161572095Y-185364380D01*
X161619714Y-185316761D01*
X161643523Y-185221523D01*
X161643523Y-185126285D01*
X161619714Y-185031047D01*
X161572095Y-184983428D01*
X161453047Y-184983428D01*
X161405428Y-184935809D01*
X161167333Y-184697714D02*
X161167333Y-185364380D01*
X161167333Y-184792952D02*
X161143523Y-184745333D01*
X161095904Y-184697714D01*
X161024476Y-184697714D01*
X160976857Y-184745333D01*
X160953047Y-184840571D01*
X160953047Y-185364380D01*
X160714952Y-184697714D02*
X160714952Y-185364380D01*
X160714952Y-184792952D02*
X160691142Y-184745333D01*
X160643523Y-184697714D01*
X160572095Y-184697714D01*
X160524476Y-184745333D01*
X160500666Y-184840571D01*
X160500666Y-185364380D01*
X160262571Y-185364380D02*
X160262571Y-184697714D01*
X160262571Y-184364380D02*
X160286380Y-184412000D01*
X160262571Y-184459619D01*
X160238761Y-184412000D01*
X160262571Y-184364380D01*
X160262571Y-184459619D01*
X160095904Y-184697714D02*
X159905428Y-184697714D01*
X160024476Y-184364380D02*
X160024476Y-185221523D01*
X160000666Y-185316761D01*
X159953047Y-185364380D01*
X159905428Y-185364380D01*
X159524476Y-184697714D02*
X159524476Y-185364380D01*
X159738761Y-184697714D02*
X159738761Y-185221523D01*
X159714952Y-185316761D01*
X159667333Y-185364380D01*
X159595904Y-185364380D01*
X159548285Y-185316761D01*
X159524476Y-185269142D01*
X159357809Y-184697714D02*
X159167333Y-184697714D01*
X159286380Y-184364380D02*
X159286380Y-185221523D01*
X159262571Y-185316761D01*
X159214952Y-185364380D01*
X159167333Y-185364380D01*
X159072095Y-184697714D02*
X158881619Y-184697714D01*
X159000666Y-184364380D02*
X159000666Y-185221523D01*
X158976857Y-185316761D01*
X158929238Y-185364380D01*
X158881619Y-185364380D01*
X158714952Y-185364380D02*
X158714952Y-184697714D01*
X158714952Y-184364380D02*
X158738761Y-184412000D01*
X158714952Y-184459619D01*
X158691142Y-184412000D01*
X158714952Y-184364380D01*
X158714952Y-184459619D01*
X170048285Y-184094380D02*
X170119714Y-184046761D01*
X170155428Y-183951523D01*
X170155428Y-183094380D01*
X169655428Y-184094380D02*
X169726857Y-184046761D01*
X169762571Y-183999142D01*
X169798285Y-183903904D01*
X169798285Y-183618190D01*
X169762571Y-183522952D01*
X169726857Y-183475333D01*
X169655428Y-183427714D01*
X169548285Y-183427714D01*
X169476857Y-183475333D01*
X169441142Y-183522952D01*
X169405428Y-183618190D01*
X169405428Y-183903904D01*
X169441142Y-183999142D01*
X169476857Y-184046761D01*
X169548285Y-184094380D01*
X169655428Y-184094380D01*
X169191142Y-183427714D02*
X168905428Y-183427714D01*
X169084000Y-183094380D02*
X169084000Y-183951523D01*
X169048285Y-184046761D01*
X168976857Y-184094380D01*
X168905428Y-184094380D01*
X168655428Y-184094380D02*
X168655428Y-183427714D01*
X168655428Y-183094380D02*
X168691142Y-183142000D01*
X168655428Y-183189619D01*
X168619714Y-183142000D01*
X168655428Y-183094380D01*
X168655428Y-183189619D01*
X168012571Y-184046761D02*
X168084000Y-184094380D01*
X168226857Y-184094380D01*
X168298285Y-184046761D01*
X168334000Y-183951523D01*
X168334000Y-183570571D01*
X168298285Y-183475333D01*
X168226857Y-183427714D01*
X168084000Y-183427714D01*
X168012571Y-183475333D01*
X167976857Y-183570571D01*
X167976857Y-183665809D01*
X168334000Y-183761047D01*
X167655428Y-184094380D02*
X167655428Y-183427714D01*
X167655428Y-183618190D02*
X167619714Y-183522952D01*
X167584000Y-183475333D01*
X167512571Y-183427714D01*
X167441142Y-183427714D01*
X166655428Y-183189619D02*
X166619714Y-183142000D01*
X166548285Y-183094380D01*
X166369714Y-183094380D01*
X166298285Y-183142000D01*
X166262571Y-183189619D01*
X166226857Y-183284857D01*
X166226857Y-183380095D01*
X166262571Y-183522952D01*
X166691142Y-184094380D01*
X166226857Y-184094380D01*
X165762571Y-183094380D02*
X165691142Y-183094380D01*
X165619714Y-183142000D01*
X165584000Y-183189619D01*
X165548285Y-183284857D01*
X165512571Y-183475333D01*
X165512571Y-183713428D01*
X165548285Y-183903904D01*
X165584000Y-183999142D01*
X165619714Y-184046761D01*
X165691142Y-184094380D01*
X165762571Y-184094380D01*
X165834000Y-184046761D01*
X165869714Y-183999142D01*
X165905428Y-183903904D01*
X165941142Y-183713428D01*
X165941142Y-183475333D01*
X165905428Y-183284857D01*
X165869714Y-183189619D01*
X165834000Y-183142000D01*
X165762571Y-183094380D01*
X165226857Y-183189619D02*
X165191142Y-183142000D01*
X165119714Y-183094380D01*
X164941142Y-183094380D01*
X164869714Y-183142000D01*
X164834000Y-183189619D01*
X164798285Y-183284857D01*
X164798285Y-183380095D01*
X164834000Y-183522952D01*
X165262571Y-184094380D01*
X164798285Y-184094380D01*
X164084000Y-184094380D02*
X164512571Y-184094380D01*
X164298285Y-184094380D02*
X164298285Y-183094380D01*
X164369714Y-183237238D01*
X164441142Y-183332476D01*
X164512571Y-183380095D01*
X163191142Y-183713428D02*
X162619714Y-183713428D01*
X161691142Y-184094380D02*
X161691142Y-183427714D01*
X161691142Y-183618190D02*
X161655428Y-183522952D01*
X161619714Y-183475333D01*
X161548285Y-183427714D01*
X161476857Y-183427714D01*
X160941142Y-184046761D02*
X161012571Y-184094380D01*
X161155428Y-184094380D01*
X161226857Y-184046761D01*
X161262571Y-183951523D01*
X161262571Y-183570571D01*
X161226857Y-183475333D01*
X161155428Y-183427714D01*
X161012571Y-183427714D01*
X160941142Y-183475333D01*
X160905428Y-183570571D01*
X160905428Y-183665809D01*
X161262571Y-183761047D01*
X160655428Y-183427714D02*
X160476857Y-184094380D01*
X160298285Y-183427714D01*
X159048285Y-184094380D02*
X159476857Y-184094380D01*
X159262571Y-184094380D02*
X159262571Y-183094380D01*
X159334000Y-183237238D01*
X159405428Y-183332476D01*
X159476857Y-183380095D01*
X158726857Y-183999142D02*
X158691142Y-184046761D01*
X158726857Y-184094380D01*
X158762571Y-184046761D01*
X158726857Y-183999142D01*
X158726857Y-184094380D01*
X157976857Y-184094380D02*
X158405428Y-184094380D01*
X158191142Y-184094380D02*
X158191142Y-183094380D01*
X158262571Y-183237238D01*
X158334000Y-183332476D01*
X158405428Y-183380095D01*
D11*
X174878763Y-179016971D02*
X174878763Y-177016971D01*
X173926382Y-177016971D01*
X173354953Y-177112210D01*
X172974001Y-177302686D01*
X172783524Y-177493162D01*
X172593048Y-177874114D01*
X172593048Y-178159829D01*
X172783524Y-178540781D01*
X172974001Y-178731257D01*
X173354953Y-178921733D01*
X173926382Y-179016971D01*
X174878763Y-179016971D01*
X170878763Y-177969352D02*
X169545429Y-177969352D01*
X168974001Y-179016971D02*
X170878763Y-179016971D01*
X170878763Y-177016971D01*
X168974001Y-177016971D01*
X165354953Y-179016971D02*
X167259715Y-179016971D01*
X167259715Y-177016971D01*
X164021620Y-179016971D02*
X164021620Y-177016971D01*
X160021620Y-177112210D02*
X160402572Y-177016971D01*
X160974001Y-177016971D01*
X161545429Y-177112210D01*
X161926382Y-177302686D01*
X162116858Y-177493162D01*
X162307334Y-177874114D01*
X162307334Y-178159829D01*
X162116858Y-178540781D01*
X161926382Y-178731257D01*
X161545429Y-178921733D01*
X160974001Y-179016971D01*
X160593048Y-179016971D01*
X160021620Y-178921733D01*
X159831144Y-178826495D01*
X159831144Y-178159829D01*
X160593048Y-178159829D01*
X158116858Y-179016971D02*
X158116858Y-177016971D01*
X158116858Y-177969352D02*
X155831144Y-177969352D01*
X155831144Y-179016971D02*
X155831144Y-177016971D01*
X154497810Y-177016971D02*
X152212096Y-177016971D01*
X153354953Y-179016971D02*
X153354953Y-177016971D01*
D12*
X174941144Y-174952210D02*
X152661144Y-174952210D01*
X174961144Y-181632210D02*
X152661144Y-181632210D01*
X174971144Y-181632210D02*
G75*
G03*
X174971144Y-174952210I0J3340000D01*
G01*
X152671144Y-174952210D02*
G75*
G03*
X152671144Y-181632210I0J-3340000D01*
G01*
D13*
X113976000Y-89134000D03*
X112776000Y-94234000D03*
D14*
X354838000Y-173736000D03*
D15*
X362458000Y-173736000D03*
D14*
X335788000Y-173736000D03*
D15*
X343408000Y-173736000D03*
D14*
X316992000Y-173736000D03*
D15*
X324612000Y-173736000D03*
D14*
X297688000Y-173736000D03*
D15*
X305308000Y-173736000D03*
D14*
X278892000Y-173736000D03*
D15*
X286512000Y-173736000D03*
D14*
X263906000Y-173736000D03*
D15*
X271526000Y-173736000D03*
D14*
X189484000Y-173736000D03*
D15*
X197104000Y-173736000D03*
D14*
X118872000Y-173736000D03*
D15*
X126492000Y-173736000D03*
D14*
X104648000Y-173736000D03*
D15*
X112268000Y-173736000D03*
D14*
X77978000Y-173736000D03*
D15*
X85598000Y-173736000D03*
D14*
X77978000Y-154686000D03*
D15*
X85598000Y-154686000D03*
D16*
X207768000Y-173482000D03*
D17*
X98118000Y-156365000D03*
X74242000Y-156365000D03*
D18*
X98118000Y-171605000D03*
X74242000Y-171605000D03*
D17*
X340998000Y-137325000D03*
X317122000Y-137325000D03*
D18*
X340998000Y-152565000D03*
X317122000Y-152565000D03*
D17*
X343328000Y-99225000D03*
X319452000Y-99225000D03*
D18*
X343328000Y-114465000D03*
X319452000Y-114465000D03*
X145872000Y-174145000D03*
X245872000Y-174145000D03*
D17*
X145872000Y-189385000D03*
X245872000Y-189385000D03*
X245872000Y-189385000D03*
D18*
X131572000Y-174145000D03*
D17*
X131572000Y-189385000D03*
D18*
X245872000Y-174145000D03*
D19*
X336470000Y-106210000D03*
X326310000Y-106210000D03*
D20*
X331390000Y-106210000D03*
D21*
X333930000Y-101130000D03*
X327580000Y-103670000D03*
D19*
X288890000Y-182400000D03*
X278730000Y-182400000D03*
D20*
X283810000Y-182400000D03*
D21*
X286350000Y-177320000D03*
X280000000Y-179860000D03*
D19*
X303230000Y-182400000D03*
X293070000Y-182400000D03*
D20*
X298150000Y-182400000D03*
D21*
X300690000Y-177320000D03*
X294340000Y-179860000D03*
D19*
X274650000Y-182400000D03*
X264490000Y-182400000D03*
D20*
X269570000Y-182400000D03*
D21*
X272110000Y-177320000D03*
X265760000Y-179860000D03*
D19*
X269840000Y-182400000D03*
X259680000Y-182400000D03*
D20*
X264760000Y-182400000D03*
D21*
X267300000Y-177320000D03*
X260950000Y-179860000D03*
D19*
X129340000Y-182400000D03*
X119180000Y-182400000D03*
D20*
X124260000Y-182400000D03*
D21*
X126800000Y-177320000D03*
X120450000Y-179860000D03*
D19*
X105410000Y-182400000D03*
X95250000Y-182400000D03*
D20*
X100330000Y-182400000D03*
D21*
X102870000Y-177320000D03*
X96520000Y-179860000D03*
D19*
X112700000Y-182400000D03*
X102540000Y-182400000D03*
D20*
X107620000Y-182400000D03*
D21*
X110160000Y-177320000D03*
X103810000Y-179860000D03*
D19*
X319850000Y-163330000D03*
X309690000Y-163330000D03*
D20*
X314770000Y-163330000D03*
D21*
X317310000Y-158250000D03*
X310960000Y-160790000D03*
D19*
X334140000Y-144310000D03*
X323980000Y-144310000D03*
D20*
X329060000Y-144310000D03*
D21*
X331600000Y-139230000D03*
X325250000Y-141770000D03*
D20*
X338570000Y-134780000D03*
D21*
X341110000Y-129700000D03*
X334760000Y-132240000D03*
D19*
X341280000Y-125270000D03*
X331120000Y-125270000D03*
D20*
X336200000Y-125270000D03*
D21*
X338740000Y-120190000D03*
X332390000Y-122730000D03*
D19*
X81720000Y-182400000D03*
X71560000Y-182400000D03*
D20*
X76640000Y-182400000D03*
D21*
X79180000Y-177320000D03*
X72830000Y-179860000D03*
D19*
X84074000Y-182400000D03*
X73914000Y-182400000D03*
D20*
X78994000Y-182400000D03*
D21*
X81534000Y-177320000D03*
X75184000Y-179860000D03*
D19*
X91260000Y-163350000D03*
X81100000Y-163350000D03*
D20*
X86180000Y-163350000D03*
D21*
X88720000Y-158270000D03*
X82370000Y-160810000D03*
D19*
X81718000Y-163350000D03*
X71558000Y-163350000D03*
D20*
X76638000Y-163350000D03*
D21*
X79178000Y-158270000D03*
X72828000Y-160810000D03*
D19*
X86510000Y-144300000D03*
X76350000Y-144300000D03*
D20*
X81430000Y-144300000D03*
D21*
X83970000Y-139220000D03*
X77620000Y-141760000D03*
D19*
X81718000Y-144300000D03*
X71558000Y-144300000D03*
D20*
X76638000Y-144300000D03*
D21*
X79178000Y-139220000D03*
X72828000Y-141760000D03*
D19*
X84120000Y-125250000D03*
X73960000Y-125250000D03*
D20*
X79040000Y-125250000D03*
D21*
X81580000Y-120170000D03*
X75230000Y-122710000D03*
D19*
X250793250Y-106203750D03*
X240633250Y-106203750D03*
D20*
X245713250Y-106203750D03*
D21*
X248253250Y-101123750D03*
X241903250Y-103663750D03*
D19*
X136493250Y-106203750D03*
X126333250Y-106203750D03*
D20*
X131413250Y-106203750D03*
D21*
X133953250Y-101123750D03*
X127603250Y-103663750D03*
D19*
X322230750Y-144303750D03*
X312070750Y-144303750D03*
D20*
X317150750Y-144303750D03*
D21*
X319690750Y-139223750D03*
X313340750Y-141763750D03*
D19*
X103155750Y-163350000D03*
X92995750Y-163350000D03*
D20*
X98075750Y-163350000D03*
D21*
X100615750Y-158270000D03*
X94265750Y-160810000D03*
D19*
X193802000Y-182400000D03*
X183642000Y-182400000D03*
D20*
X188722000Y-182400000D03*
D21*
X191262000Y-177320000D03*
X184912000Y-179860000D03*
D19*
X307943250Y-106203750D03*
X297783250Y-106203750D03*
D20*
X302863250Y-106203750D03*
D21*
X305403250Y-101123750D03*
X299053250Y-103663750D03*
D19*
X146018250Y-125253750D03*
X135858250Y-125253750D03*
D20*
X140938250Y-125253750D03*
D21*
X143478250Y-120173750D03*
X137128250Y-122713750D03*
D19*
X79343250Y-106203750D03*
X69183250Y-106203750D03*
D20*
X74263250Y-106203750D03*
D21*
X76803250Y-101123750D03*
X70453250Y-103663750D03*
D19*
X98393250Y-106203750D03*
X88233250Y-106203750D03*
D20*
X93313250Y-106203750D03*
D21*
X95853250Y-101123750D03*
X89503250Y-103663750D03*
D19*
X117443250Y-106203750D03*
X107283250Y-106203750D03*
D20*
X112363250Y-106203750D03*
D21*
X114903250Y-101123750D03*
X108553250Y-103663750D03*
D19*
X155543250Y-106203750D03*
X145383250Y-106203750D03*
D20*
X150463250Y-106203750D03*
D21*
X153003250Y-101123750D03*
X146653250Y-103663750D03*
D19*
X174593250Y-106203750D03*
X164433250Y-106203750D03*
D20*
X169513250Y-106203750D03*
D21*
X172053250Y-101123750D03*
X165703250Y-103663750D03*
D19*
X193643250Y-106203750D03*
X183483250Y-106203750D03*
D20*
X188563250Y-106203750D03*
D21*
X191103250Y-101123750D03*
X184753250Y-103663750D03*
D19*
X212693250Y-106203750D03*
X202533250Y-106203750D03*
D20*
X207613250Y-106203750D03*
D21*
X210153250Y-101123750D03*
X203803250Y-103663750D03*
D19*
X231743250Y-106203750D03*
X221583250Y-106203750D03*
D20*
X226663250Y-106203750D03*
D21*
X229203250Y-101123750D03*
X222853250Y-103663750D03*
D19*
X269843250Y-106203750D03*
X259683250Y-106203750D03*
D20*
X264763250Y-106203750D03*
D21*
X267303250Y-101123750D03*
X260953250Y-103663750D03*
D19*
X288893250Y-106203750D03*
X278733250Y-106203750D03*
D20*
X283813250Y-106203750D03*
D21*
X286353250Y-101123750D03*
X280003250Y-103663750D03*
D19*
X365093250Y-106203750D03*
X354933250Y-106203750D03*
D20*
X360013250Y-106203750D03*
D21*
X362553250Y-101123750D03*
X356203250Y-103663750D03*
D19*
X107918250Y-125253750D03*
X97758250Y-125253750D03*
D20*
X102838250Y-125253750D03*
D21*
X105378250Y-120173750D03*
X99028250Y-122713750D03*
D19*
X126968250Y-125253750D03*
X116808250Y-125253750D03*
D20*
X121888250Y-125253750D03*
D21*
X124428250Y-120173750D03*
X118078250Y-122713750D03*
D19*
X165068250Y-125253750D03*
X154908250Y-125253750D03*
D20*
X159988250Y-125253750D03*
D21*
X162528250Y-120173750D03*
X156178250Y-122713750D03*
D19*
X184118250Y-125253750D03*
X173958250Y-125253750D03*
D20*
X179038250Y-125253750D03*
D21*
X181578250Y-120173750D03*
X175228250Y-122713750D03*
D19*
X203168250Y-125253750D03*
X193008250Y-125253750D03*
D20*
X198088250Y-125253750D03*
D21*
X200628250Y-120173750D03*
X194278250Y-122713750D03*
D19*
X222218250Y-125253750D03*
X212058250Y-125253750D03*
D20*
X217138250Y-125253750D03*
D21*
X219678250Y-120173750D03*
X213328250Y-122713750D03*
D19*
X241268250Y-125253750D03*
X231108250Y-125253750D03*
D20*
X236188250Y-125253750D03*
D21*
X238728250Y-120173750D03*
X232378250Y-122713750D03*
D19*
X260318250Y-125253750D03*
X250158250Y-125253750D03*
D20*
X255238250Y-125253750D03*
D21*
X257778250Y-120173750D03*
X251428250Y-122713750D03*
D19*
X279368250Y-125253750D03*
X269208250Y-125253750D03*
D20*
X274288250Y-125253750D03*
D21*
X276828250Y-120173750D03*
X270478250Y-122713750D03*
D19*
X298418250Y-125253750D03*
X288258250Y-125253750D03*
D20*
X293338250Y-125253750D03*
D21*
X295878250Y-120173750D03*
X289528250Y-122713750D03*
D19*
X317468250Y-125253750D03*
X307308250Y-125253750D03*
D20*
X312388250Y-125253750D03*
D21*
X314928250Y-120173750D03*
X308578250Y-122713750D03*
D19*
X365093250Y-125253750D03*
X354933250Y-125253750D03*
D20*
X360013250Y-125253750D03*
D21*
X362553250Y-120173750D03*
X356203250Y-122713750D03*
D19*
X112680750Y-144303750D03*
X102520750Y-144303750D03*
D20*
X107600750Y-144303750D03*
D21*
X110140750Y-139223750D03*
X103790750Y-141763750D03*
D19*
X131730750Y-144303750D03*
X121570750Y-144303750D03*
D20*
X126650750Y-144303750D03*
D21*
X129190750Y-139223750D03*
X122840750Y-141763750D03*
D19*
X150780750Y-144303750D03*
X140620750Y-144303750D03*
D20*
X145700750Y-144303750D03*
D21*
X148240750Y-139223750D03*
X141890750Y-141763750D03*
D19*
X169830250Y-144303750D03*
X159670250Y-144303750D03*
D20*
X164750250Y-144303750D03*
D21*
X167290250Y-139223750D03*
X160940250Y-141763750D03*
D19*
X188880250Y-144303750D03*
X178720250Y-144303750D03*
D20*
X183800250Y-144303750D03*
D21*
X186340250Y-139223750D03*
X179990250Y-141763750D03*
D19*
X207930250Y-144303750D03*
X197770250Y-144303750D03*
D20*
X202850250Y-144303750D03*
D21*
X205390250Y-139223750D03*
X199040250Y-141763750D03*
D19*
X226980250Y-144303750D03*
X216820250Y-144303750D03*
D20*
X221900250Y-144303750D03*
D21*
X224440250Y-139223750D03*
X218090250Y-141763750D03*
D19*
X246030250Y-144303750D03*
X235870250Y-144303750D03*
D20*
X240950250Y-144303750D03*
D21*
X243490250Y-139223750D03*
X237140250Y-141763750D03*
D19*
X265080250Y-144303750D03*
X254920250Y-144303750D03*
D20*
X260000250Y-144303750D03*
D21*
X262540250Y-139223750D03*
X256190250Y-141763750D03*
D19*
X284130250Y-144303750D03*
X273970250Y-144303750D03*
D20*
X279050250Y-144303750D03*
D21*
X281590250Y-139223750D03*
X275240250Y-141763750D03*
D19*
X303180250Y-144303750D03*
X293020250Y-144303750D03*
D20*
X298100250Y-144303750D03*
D21*
X300640250Y-139223750D03*
X294290250Y-141763750D03*
D19*
X365093250Y-144303750D03*
X354933250Y-144303750D03*
D20*
X360013250Y-144303750D03*
D21*
X362553250Y-139223750D03*
X356203250Y-141763750D03*
D19*
X122205750Y-163353750D03*
X112045750Y-163353750D03*
D20*
X117125750Y-163353750D03*
D21*
X119665750Y-158273750D03*
X113315750Y-160813750D03*
D19*
X141255750Y-163353750D03*
X131095750Y-163353750D03*
D20*
X136175750Y-163353750D03*
D21*
X138715750Y-158273750D03*
X132365750Y-160813750D03*
D19*
X160305750Y-163353750D03*
X150145750Y-163353750D03*
D20*
X155225750Y-163353750D03*
D21*
X157765750Y-158273750D03*
X151415750Y-160813750D03*
D19*
X179356250Y-163353750D03*
X169196250Y-163353750D03*
D20*
X174276250Y-163353750D03*
D21*
X176816250Y-158273750D03*
X170466250Y-160813750D03*
D19*
X198406250Y-163353750D03*
X188246250Y-163353750D03*
D20*
X193326250Y-163353750D03*
D21*
X195866250Y-158273750D03*
X189516250Y-160813750D03*
D19*
X217456250Y-163353750D03*
X207296250Y-163353750D03*
D20*
X212376250Y-163353750D03*
D21*
X214916250Y-158273750D03*
X208566250Y-160813750D03*
D19*
X236506250Y-163353750D03*
X226346250Y-163353750D03*
D20*
X231426250Y-163353750D03*
D21*
X233966250Y-158273750D03*
X227616250Y-160813750D03*
D19*
X255556250Y-163353750D03*
X245396250Y-163353750D03*
D20*
X250476250Y-163353750D03*
D21*
X253016250Y-158273750D03*
X246666250Y-160813750D03*
D19*
X274606250Y-163353750D03*
X264446250Y-163353750D03*
D20*
X269526250Y-163353750D03*
D21*
X272066250Y-158273750D03*
X265716250Y-160813750D03*
D19*
X293656250Y-163353750D03*
X283496250Y-163353750D03*
D20*
X288576250Y-163353750D03*
D21*
X291116250Y-158273750D03*
X284766250Y-160813750D03*
D19*
X346043250Y-163353750D03*
X335883250Y-163353750D03*
D20*
X340963250Y-163353750D03*
D21*
X343503250Y-158273750D03*
X337153250Y-160813750D03*
D19*
X365093250Y-163353750D03*
X354933250Y-163353750D03*
D20*
X360013250Y-163353750D03*
D21*
X362553250Y-158273750D03*
X356203250Y-160813750D03*
D19*
X200952000Y-182400000D03*
X190792000Y-182400000D03*
D20*
X195872000Y-182400000D03*
D21*
X198412000Y-177320000D03*
X192062000Y-179860000D03*
D19*
X326993250Y-182400000D03*
X316833250Y-182400000D03*
D20*
X321913250Y-182400000D03*
D21*
X324453250Y-177320000D03*
X318103250Y-179860000D03*
D19*
X346043250Y-182400000D03*
X335883250Y-182400000D03*
D20*
X340963250Y-182400000D03*
D21*
X343503250Y-177320000D03*
X337153250Y-179860000D03*
D19*
X365093250Y-182400000D03*
X354933250Y-182400000D03*
D20*
X360013250Y-182400000D03*
D21*
X362553250Y-177320000D03*
X356203250Y-179860000D03*
D19*
X307943528Y-182400000D03*
X297783528Y-182400000D03*
D20*
X302863528Y-182400000D03*
D21*
X305403528Y-177320000D03*
X299053528Y-179860000D03*
D19*
X79343250Y-87152000D03*
X69183250Y-87152000D03*
D20*
X74263250Y-87152000D03*
D21*
X76803250Y-82072000D03*
X70453250Y-84612000D03*
D22*
X133816316Y-92032665D03*
D23*
X138896316Y-92032665D03*
D22*
X133816316Y-89577332D03*
D23*
X138896316Y-89577332D03*
D22*
X133816316Y-87121999D03*
D23*
X138896316Y-87121999D03*
D22*
X133858000Y-84666666D03*
D23*
X138938000Y-84666666D03*
D22*
X138938000Y-79756000D03*
D23*
X133858000Y-79756000D03*
D22*
X138938000Y-82211333D03*
D23*
X133858000Y-82211333D03*
D22*
X133816316Y-94488000D03*
D23*
X138896316Y-94488000D03*
D24*
X95528000Y-90170000D03*
D25*
X97028000Y-90170000D03*
D26*
X118190000Y-88646000D03*
X123190000Y-88646000D03*
X94060000Y-94234000D03*
X99060000Y-94234000D03*
X198140000Y-80010000D03*
X200640000Y-80010000D03*
X198140000Y-95250000D03*
X200640000Y-95250000D03*
D27*
X199390000Y-85200000D03*
X199390000Y-90080000D03*
D28*
X127762000Y-82042000D03*
D29*
X130302000Y-82042000D03*
D30*
X117856000Y-94488000D03*
X117856000Y-91948000D03*
X120396000Y-94488000D03*
X120396000Y-91948000D03*
X122936000Y-94488000D03*
D31*
X122936000Y-91948000D03*
D14*
X144526000Y-79248000D03*
X192786000Y-94488000D03*
X147066000Y-79248000D03*
X190246000Y-94488000D03*
X149606000Y-79248000D03*
X187706000Y-94488000D03*
X152146000Y-79248000D03*
X185166000Y-94488000D03*
X154686000Y-79248000D03*
X182626000Y-94488000D03*
X157226000Y-79248000D03*
X180086000Y-94488000D03*
X159766000Y-79248000D03*
X177546000Y-94488000D03*
X162306000Y-79248000D03*
X175006000Y-94488000D03*
X164846000Y-79248000D03*
X172466000Y-94488000D03*
X167386000Y-79248000D03*
X169926000Y-94488000D03*
X169926000Y-79248000D03*
X167386000Y-94488000D03*
X172466000Y-79248000D03*
X164846000Y-94488000D03*
X175006000Y-79248000D03*
X162306000Y-94488000D03*
X177546000Y-79248000D03*
X159766000Y-94488000D03*
X180086000Y-79248000D03*
X157226000Y-94488000D03*
X182626000Y-79248000D03*
X154686000Y-94488000D03*
X185166000Y-79248000D03*
X152146000Y-94488000D03*
X187706000Y-79248000D03*
X149606000Y-94488000D03*
X190246000Y-79248000D03*
X147066000Y-94488000D03*
X192786000Y-79248000D03*
D15*
X144526000Y-94488000D03*
D14*
X339344000Y-93472000D03*
D15*
X339344000Y-85852000D03*
D14*
X222504000Y-89376000D03*
D15*
X222504000Y-81756000D03*
D14*
X225044000Y-91440000D03*
D15*
X225044000Y-83820000D03*
D14*
X227584000Y-93472000D03*
D15*
X227584000Y-85852000D03*
D14*
X214884000Y-91440000D03*
D15*
X214884000Y-83820000D03*
D14*
X212344000Y-89376000D03*
D15*
X212344000Y-81756000D03*
D14*
X217424000Y-93472000D03*
D15*
X217424000Y-85852000D03*
D14*
X219964000Y-87376000D03*
D15*
X219964000Y-79756000D03*
D14*
X230124000Y-87376000D03*
D15*
X230124000Y-79756000D03*
D14*
X240284000Y-87376000D03*
D15*
X240284000Y-79756000D03*
D14*
X232664000Y-89376000D03*
D15*
X232664000Y-81756000D03*
D14*
X242824000Y-89376000D03*
D15*
X242824000Y-81756000D03*
D14*
X235204000Y-91440000D03*
D15*
X235204000Y-83820000D03*
D14*
X237744000Y-93472000D03*
D15*
X237744000Y-85852000D03*
D14*
X209804000Y-87376000D03*
D15*
X209804000Y-79756000D03*
D14*
X250444000Y-87376000D03*
D15*
X250444000Y-79756000D03*
D14*
X260604000Y-87376000D03*
D15*
X260604000Y-79756000D03*
D14*
X270764000Y-87376000D03*
D15*
X270764000Y-79756000D03*
D14*
X280924000Y-87376000D03*
D15*
X280924000Y-79756000D03*
D14*
X291084000Y-87376000D03*
D15*
X291084000Y-79756000D03*
D14*
X301282736Y-87376000D03*
D15*
X301282736Y-79756000D03*
D14*
X311404000Y-87376000D03*
D15*
X311404000Y-79756000D03*
D14*
X321564000Y-87376000D03*
D15*
X321564000Y-79756000D03*
D14*
X331724000Y-87376000D03*
D15*
X331724000Y-79756000D03*
D14*
X341884000Y-87376000D03*
D15*
X341884000Y-79756000D03*
D14*
X352044000Y-87376000D03*
D15*
X352044000Y-79756000D03*
D14*
X252984000Y-89376000D03*
D15*
X252984000Y-81756000D03*
D14*
X263144000Y-89376000D03*
D15*
X263144000Y-81756000D03*
D14*
X273304000Y-89376000D03*
D15*
X273304000Y-81756000D03*
D14*
X283464000Y-89376000D03*
D15*
X283464000Y-81756000D03*
D14*
X293624000Y-89376000D03*
D15*
X293624000Y-81756000D03*
D14*
X303784000Y-89376000D03*
D15*
X303784000Y-81756000D03*
D14*
X313944000Y-89376000D03*
D15*
X313944000Y-81756000D03*
D14*
X324104000Y-89376000D03*
D15*
X324104000Y-81756000D03*
D14*
X334264000Y-89376000D03*
D15*
X334264000Y-81756000D03*
D14*
X344424000Y-89376000D03*
D15*
X344424000Y-81756000D03*
D14*
X354584000Y-89376000D03*
D15*
X354584000Y-81756000D03*
D14*
X245364000Y-91440000D03*
D15*
X245364000Y-83820000D03*
D14*
X255524000Y-91440000D03*
D15*
X255524000Y-83820000D03*
D14*
X265684000Y-91440000D03*
D15*
X265684000Y-83820000D03*
D14*
X275844000Y-91440000D03*
D15*
X275844000Y-83820000D03*
D14*
X286004000Y-91440000D03*
D15*
X286004000Y-83820000D03*
D14*
X296164000Y-91440000D03*
D15*
X296164000Y-83820000D03*
D14*
X306324000Y-91440000D03*
D15*
X306324000Y-83820000D03*
D14*
X316484000Y-91440000D03*
D15*
X316484000Y-83820000D03*
D14*
X326644000Y-91440000D03*
D15*
X326644000Y-83820000D03*
D14*
X346964000Y-91440000D03*
D15*
X346964000Y-83820000D03*
D14*
X357124000Y-91440000D03*
D15*
X357124000Y-83820000D03*
D14*
X247904000Y-93472000D03*
D15*
X247904000Y-85852000D03*
D14*
X258064000Y-93472000D03*
D15*
X258064000Y-85852000D03*
D14*
X268224000Y-93472000D03*
D15*
X268224000Y-85852000D03*
D14*
X278384000Y-93472000D03*
D15*
X278384000Y-85852000D03*
D14*
X288544000Y-93472000D03*
D15*
X288544000Y-85852000D03*
D14*
X298704000Y-93472000D03*
D15*
X298704000Y-85852000D03*
D14*
X308864000Y-93472000D03*
D15*
X308864000Y-85852000D03*
D14*
X319024000Y-93472000D03*
D15*
X319024000Y-85852000D03*
D14*
X329184000Y-93472000D03*
D15*
X329184000Y-85852000D03*
D14*
X349504000Y-93472000D03*
D15*
X349504000Y-85852000D03*
D14*
X359664000Y-93472000D03*
D15*
X359664000Y-85852000D03*
D14*
X126746000Y-94996000D03*
D15*
X126746000Y-87376000D03*
D14*
X129794000Y-95006196D03*
D15*
X129794000Y-87386196D03*
D32*
X111910000Y-80006000D03*
X111910000Y-84506000D03*
X105410000Y-80006000D03*
X105410000Y-84506000D03*
X99972000Y-80010000D03*
X99972000Y-84510000D03*
X93472000Y-80010000D03*
X93472000Y-84510000D03*
D33*
X115552000Y-79220000D03*
X124202000Y-79220000D03*
D34*
X115552000Y-82600000D03*
X124202000Y-82600000D03*
D35*
X119452000Y-82230000D03*
X116902000Y-82230000D03*
X117752000Y-82230000D03*
X118602000Y-82230000D03*
X122852000Y-82230000D03*
X121152000Y-82230000D03*
X120302000Y-82230000D03*
X122002000Y-82230000D03*
X116902000Y-83580000D03*
X117752000Y-83580000D03*
X118602000Y-83580000D03*
X119452000Y-83580000D03*
X120302000Y-83580000D03*
X121152000Y-83580000D03*
X122002000Y-83580000D03*
X122852000Y-83580000D03*
D16*
X365506000Y-93218000D03*
X365506000Y-81534000D03*
X204978000Y-93218000D03*
X87376000Y-81534000D03*
X87376000Y-93218000D03*
X204978000Y-81534000D03*
X90170000Y-134112000D03*
X207768000Y-134112000D03*
X350520000Y-134112000D03*
X350520000Y-173482000D03*
X90170000Y-173482000D03*
M02*
