G04 #@! TF.GenerationSoftware,KiCad,Pcbnew,(5.1.10)-1*
G04 #@! TF.CreationDate,2021-10-13T00:14:03-04:00*
G04 #@! TF.ProjectId,delight-pcb,64656c69-6768-4742-9d70-63622e6b6963,rev?*
G04 #@! TF.SameCoordinates,Original*
G04 #@! TF.FileFunction,Soldermask,Top*
G04 #@! TF.FilePolarity,Negative*
%FSLAX46Y46*%
G04 Gerber Fmt 4.6, Leading zero omitted, Abs format (unit mm)*
G04 Created by KiCad (PCBNEW (5.1.10)-1) date 2021-10-13 00:14:03*
%MOMM*%
%LPD*%
G01*
G04 APERTURE LIST*
%ADD10C,0.125000*%
%ADD11C,0.350000*%
%ADD12C,0.400000*%
%ADD13C,1.710000*%
%ADD14O,1.600000X1.600000*%
%ADD15R,1.600000X1.600000*%
%ADD16C,4.400000*%
%ADD17C,3.048000*%
%ADD18C,3.987800*%
%ADD19C,1.750000*%
%ADD20C,4.000000*%
%ADD21O,1.400000X1.400000*%
%ADD22C,1.400000*%
%ADD23C,1.200000*%
%ADD24R,1.200000X1.200000*%
%ADD25C,1.600000*%
%ADD26C,1.500000*%
%ADD27C,1.800000*%
%ADD28R,1.800000X1.800000*%
%ADD29O,1.700000X1.700000*%
%ADD30R,1.700000X1.700000*%
%ADD31C,2.000000*%
%ADD32O,0.900000X1.700000*%
%ADD33O,0.900000X2.400000*%
%ADD34C,0.700000*%
G04 APERTURE END LIST*
D10*
X158929238Y-185364380D02*
X158929238Y-184840571D01*
X158905428Y-184745333D01*
X158857809Y-184697714D01*
X158762571Y-184697714D01*
X158714952Y-184745333D01*
X158929238Y-185316761D02*
X158881619Y-185364380D01*
X158762571Y-185364380D01*
X158714952Y-185316761D01*
X158691142Y-185221523D01*
X158691142Y-185126285D01*
X158714952Y-185031047D01*
X158762571Y-184983428D01*
X158881619Y-184983428D01*
X158929238Y-184935809D01*
X159381619Y-185364380D02*
X159381619Y-184364380D01*
X159381619Y-185316761D02*
X159334000Y-185364380D01*
X159238761Y-185364380D01*
X159191142Y-185316761D01*
X159167333Y-185269142D01*
X159143523Y-185173904D01*
X159143523Y-184888190D01*
X159167333Y-184792952D01*
X159191142Y-184745333D01*
X159238761Y-184697714D01*
X159334000Y-184697714D01*
X159381619Y-184745333D01*
X159834000Y-185364380D02*
X159834000Y-184840571D01*
X159810190Y-184745333D01*
X159762571Y-184697714D01*
X159667333Y-184697714D01*
X159619714Y-184745333D01*
X159834000Y-185316761D02*
X159786380Y-185364380D01*
X159667333Y-185364380D01*
X159619714Y-185316761D01*
X159595904Y-185221523D01*
X159595904Y-185126285D01*
X159619714Y-185031047D01*
X159667333Y-184983428D01*
X159786380Y-184983428D01*
X159834000Y-184935809D01*
X160072095Y-184697714D02*
X160072095Y-185697714D01*
X160072095Y-184745333D02*
X160119714Y-184697714D01*
X160214952Y-184697714D01*
X160262571Y-184745333D01*
X160286380Y-184792952D01*
X160310190Y-184888190D01*
X160310190Y-185173904D01*
X160286380Y-185269142D01*
X160262571Y-185316761D01*
X160214952Y-185364380D01*
X160119714Y-185364380D01*
X160072095Y-185316761D01*
X160453047Y-184697714D02*
X160643523Y-184697714D01*
X160524476Y-184364380D02*
X160524476Y-185221523D01*
X160548285Y-185316761D01*
X160595904Y-185364380D01*
X160643523Y-185364380D01*
X161000666Y-185316761D02*
X160953047Y-185364380D01*
X160857809Y-185364380D01*
X160810190Y-185316761D01*
X160786380Y-185221523D01*
X160786380Y-184840571D01*
X160810190Y-184745333D01*
X160857809Y-184697714D01*
X160953047Y-184697714D01*
X161000666Y-184745333D01*
X161024476Y-184840571D01*
X161024476Y-184935809D01*
X160786380Y-185031047D01*
X161453047Y-185364380D02*
X161453047Y-184364380D01*
X161453047Y-185316761D02*
X161405428Y-185364380D01*
X161310190Y-185364380D01*
X161262571Y-185316761D01*
X161238761Y-185269142D01*
X161214952Y-185173904D01*
X161214952Y-184888190D01*
X161238761Y-184792952D01*
X161262571Y-184745333D01*
X161310190Y-184697714D01*
X161405428Y-184697714D01*
X161453047Y-184745333D01*
X162000666Y-184697714D02*
X162191142Y-184697714D01*
X162072095Y-185364380D02*
X162072095Y-184507238D01*
X162095904Y-184412000D01*
X162143523Y-184364380D01*
X162191142Y-184364380D01*
X162357809Y-185364380D02*
X162357809Y-184697714D01*
X162357809Y-184888190D02*
X162381619Y-184792952D01*
X162405428Y-184745333D01*
X162453047Y-184697714D01*
X162500666Y-184697714D01*
X162738761Y-185364380D02*
X162691142Y-185316761D01*
X162667333Y-185269142D01*
X162643523Y-185173904D01*
X162643523Y-184888190D01*
X162667333Y-184792952D01*
X162691142Y-184745333D01*
X162738761Y-184697714D01*
X162810190Y-184697714D01*
X162857809Y-184745333D01*
X162881619Y-184792952D01*
X162905428Y-184888190D01*
X162905428Y-185173904D01*
X162881619Y-185269142D01*
X162857809Y-185316761D01*
X162810190Y-185364380D01*
X162738761Y-185364380D01*
X163119714Y-185364380D02*
X163119714Y-184697714D01*
X163119714Y-184792952D02*
X163143523Y-184745333D01*
X163191142Y-184697714D01*
X163262571Y-184697714D01*
X163310190Y-184745333D01*
X163334000Y-184840571D01*
X163334000Y-185364380D01*
X163334000Y-184840571D02*
X163357809Y-184745333D01*
X163405428Y-184697714D01*
X163476857Y-184697714D01*
X163524476Y-184745333D01*
X163548285Y-184840571D01*
X163548285Y-185364380D01*
X164381619Y-185316761D02*
X164334000Y-185364380D01*
X164238761Y-185364380D01*
X164191142Y-185316761D01*
X164167333Y-185269142D01*
X164143523Y-185173904D01*
X164143523Y-184888190D01*
X164167333Y-184792952D01*
X164191142Y-184745333D01*
X164238761Y-184697714D01*
X164334000Y-184697714D01*
X164381619Y-184745333D01*
X164667333Y-185364380D02*
X164619714Y-185316761D01*
X164595904Y-185269142D01*
X164572095Y-185173904D01*
X164572095Y-184888190D01*
X164595904Y-184792952D01*
X164619714Y-184745333D01*
X164667333Y-184697714D01*
X164738761Y-184697714D01*
X164786380Y-184745333D01*
X164810190Y-184792952D01*
X164834000Y-184888190D01*
X164834000Y-185173904D01*
X164810190Y-185269142D01*
X164786380Y-185316761D01*
X164738761Y-185364380D01*
X164667333Y-185364380D01*
X165024476Y-185316761D02*
X165072095Y-185364380D01*
X165167333Y-185364380D01*
X165214952Y-185316761D01*
X165238761Y-185221523D01*
X165238761Y-185173904D01*
X165214952Y-185078666D01*
X165167333Y-185031047D01*
X165095904Y-185031047D01*
X165048285Y-184983428D01*
X165024476Y-184888190D01*
X165024476Y-184840571D01*
X165048285Y-184745333D01*
X165095904Y-184697714D01*
X165167333Y-184697714D01*
X165214952Y-184745333D01*
X165643523Y-185316761D02*
X165595904Y-185364380D01*
X165500666Y-185364380D01*
X165453047Y-185316761D01*
X165429238Y-185221523D01*
X165429238Y-184840571D01*
X165453047Y-184745333D01*
X165500666Y-184697714D01*
X165595904Y-184697714D01*
X165643523Y-184745333D01*
X165667333Y-184840571D01*
X165667333Y-184935809D01*
X165429238Y-185031047D01*
X165834000Y-184697714D02*
X165953047Y-185364380D01*
X166072095Y-184697714D02*
X165953047Y-185364380D01*
X165905428Y-185602476D01*
X165881619Y-185650095D01*
X165834000Y-185697714D01*
X166191142Y-184697714D02*
X166381619Y-184697714D01*
X166262571Y-185364380D02*
X166262571Y-184507238D01*
X166286380Y-184412000D01*
X166334000Y-184364380D01*
X166381619Y-184364380D01*
X166762571Y-185364380D02*
X166762571Y-184840571D01*
X166738761Y-184745333D01*
X166691142Y-184697714D01*
X166595904Y-184697714D01*
X166548285Y-184745333D01*
X166762571Y-185316761D02*
X166714952Y-185364380D01*
X166595904Y-185364380D01*
X166548285Y-185316761D01*
X166524476Y-185221523D01*
X166524476Y-185126285D01*
X166548285Y-185031047D01*
X166595904Y-184983428D01*
X166714952Y-184983428D01*
X166762571Y-184935809D01*
X167000666Y-184697714D02*
X167000666Y-185364380D01*
X167000666Y-184792952D02*
X167024476Y-184745333D01*
X167072095Y-184697714D01*
X167143523Y-184697714D01*
X167191142Y-184745333D01*
X167214952Y-184840571D01*
X167214952Y-185364380D01*
X167453047Y-184697714D02*
X167453047Y-185364380D01*
X167453047Y-184792952D02*
X167476857Y-184745333D01*
X167524476Y-184697714D01*
X167595904Y-184697714D01*
X167643523Y-184745333D01*
X167667333Y-184840571D01*
X167667333Y-185364380D01*
X167905428Y-185364380D02*
X167905428Y-184697714D01*
X167905428Y-184364380D02*
X167881619Y-184412000D01*
X167905428Y-184459619D01*
X167929238Y-184412000D01*
X167905428Y-184364380D01*
X167905428Y-184459619D01*
X168072095Y-184697714D02*
X168262571Y-184697714D01*
X168143523Y-184364380D02*
X168143523Y-185221523D01*
X168167333Y-185316761D01*
X168214952Y-185364380D01*
X168262571Y-185364380D01*
X168643523Y-184697714D02*
X168643523Y-185364380D01*
X168429238Y-184697714D02*
X168429238Y-185221523D01*
X168453047Y-185316761D01*
X168500666Y-185364380D01*
X168572095Y-185364380D01*
X168619714Y-185316761D01*
X168643523Y-185269142D01*
X168810190Y-184697714D02*
X169000666Y-184697714D01*
X168881619Y-184364380D02*
X168881619Y-185221523D01*
X168905428Y-185316761D01*
X168953047Y-185364380D01*
X169000666Y-185364380D01*
X169095904Y-184697714D02*
X169286380Y-184697714D01*
X169167333Y-184364380D02*
X169167333Y-185221523D01*
X169191142Y-185316761D01*
X169238761Y-185364380D01*
X169286380Y-185364380D01*
X169453047Y-185364380D02*
X169453047Y-184697714D01*
X169453047Y-184364380D02*
X169429238Y-184412000D01*
X169453047Y-184459619D01*
X169476857Y-184412000D01*
X169453047Y-184364380D01*
X169453047Y-184459619D01*
X158119714Y-184094380D02*
X158048285Y-184046761D01*
X158012571Y-183951523D01*
X158012571Y-183094380D01*
X158512571Y-184094380D02*
X158441142Y-184046761D01*
X158405428Y-183999142D01*
X158369714Y-183903904D01*
X158369714Y-183618190D01*
X158405428Y-183522952D01*
X158441142Y-183475333D01*
X158512571Y-183427714D01*
X158619714Y-183427714D01*
X158691142Y-183475333D01*
X158726857Y-183522952D01*
X158762571Y-183618190D01*
X158762571Y-183903904D01*
X158726857Y-183999142D01*
X158691142Y-184046761D01*
X158619714Y-184094380D01*
X158512571Y-184094380D01*
X158976857Y-183427714D02*
X159262571Y-183427714D01*
X159084000Y-183094380D02*
X159084000Y-183951523D01*
X159119714Y-184046761D01*
X159191142Y-184094380D01*
X159262571Y-184094380D01*
X159512571Y-184094380D02*
X159512571Y-183427714D01*
X159512571Y-183094380D02*
X159476857Y-183142000D01*
X159512571Y-183189619D01*
X159548285Y-183142000D01*
X159512571Y-183094380D01*
X159512571Y-183189619D01*
X160155428Y-184046761D02*
X160084000Y-184094380D01*
X159941142Y-184094380D01*
X159869714Y-184046761D01*
X159834000Y-183951523D01*
X159834000Y-183570571D01*
X159869714Y-183475333D01*
X159941142Y-183427714D01*
X160084000Y-183427714D01*
X160155428Y-183475333D01*
X160191142Y-183570571D01*
X160191142Y-183665809D01*
X159834000Y-183761047D01*
X160512571Y-184094380D02*
X160512571Y-183427714D01*
X160512571Y-183618190D02*
X160548285Y-183522952D01*
X160584000Y-183475333D01*
X160655428Y-183427714D01*
X160726857Y-183427714D01*
X161512571Y-183189619D02*
X161548285Y-183142000D01*
X161619714Y-183094380D01*
X161798285Y-183094380D01*
X161869714Y-183142000D01*
X161905428Y-183189619D01*
X161941142Y-183284857D01*
X161941142Y-183380095D01*
X161905428Y-183522952D01*
X161476857Y-184094380D01*
X161941142Y-184094380D01*
X162405428Y-183094380D02*
X162476857Y-183094380D01*
X162548285Y-183142000D01*
X162584000Y-183189619D01*
X162619714Y-183284857D01*
X162655428Y-183475333D01*
X162655428Y-183713428D01*
X162619714Y-183903904D01*
X162584000Y-183999142D01*
X162548285Y-184046761D01*
X162476857Y-184094380D01*
X162405428Y-184094380D01*
X162334000Y-184046761D01*
X162298285Y-183999142D01*
X162262571Y-183903904D01*
X162226857Y-183713428D01*
X162226857Y-183475333D01*
X162262571Y-183284857D01*
X162298285Y-183189619D01*
X162334000Y-183142000D01*
X162405428Y-183094380D01*
X162941142Y-183189619D02*
X162976857Y-183142000D01*
X163048285Y-183094380D01*
X163226857Y-183094380D01*
X163298285Y-183142000D01*
X163334000Y-183189619D01*
X163369714Y-183284857D01*
X163369714Y-183380095D01*
X163334000Y-183522952D01*
X162905428Y-184094380D01*
X163369714Y-184094380D01*
X164084000Y-184094380D02*
X163655428Y-184094380D01*
X163869714Y-184094380D02*
X163869714Y-183094380D01*
X163798285Y-183237238D01*
X163726857Y-183332476D01*
X163655428Y-183380095D01*
X164976857Y-183713428D02*
X165548285Y-183713428D01*
X166476857Y-184094380D02*
X166476857Y-183427714D01*
X166476857Y-183618190D02*
X166512571Y-183522952D01*
X166548285Y-183475333D01*
X166619714Y-183427714D01*
X166691142Y-183427714D01*
X167226857Y-184046761D02*
X167155428Y-184094380D01*
X167012571Y-184094380D01*
X166941142Y-184046761D01*
X166905428Y-183951523D01*
X166905428Y-183570571D01*
X166941142Y-183475333D01*
X167012571Y-183427714D01*
X167155428Y-183427714D01*
X167226857Y-183475333D01*
X167262571Y-183570571D01*
X167262571Y-183665809D01*
X166905428Y-183761047D01*
X167512571Y-183427714D02*
X167691142Y-184094380D01*
X167869714Y-183427714D01*
X169119714Y-184094380D02*
X168691142Y-184094380D01*
X168905428Y-184094380D02*
X168905428Y-183094380D01*
X168834000Y-183237238D01*
X168762571Y-183332476D01*
X168691142Y-183380095D01*
X169441142Y-183999142D02*
X169476857Y-184046761D01*
X169441142Y-184094380D01*
X169405428Y-184046761D01*
X169441142Y-183999142D01*
X169441142Y-184094380D01*
X170191142Y-184094380D02*
X169762571Y-184094380D01*
X169976857Y-184094380D02*
X169976857Y-183094380D01*
X169905428Y-183237238D01*
X169834000Y-183332476D01*
X169762571Y-183380095D01*
D11*
X152755836Y-179016971D02*
X152755836Y-177016971D01*
X153708217Y-177016971D01*
X154279646Y-177112210D01*
X154660598Y-177302686D01*
X154851075Y-177493162D01*
X155041551Y-177874114D01*
X155041551Y-178159829D01*
X154851075Y-178540781D01*
X154660598Y-178731257D01*
X154279646Y-178921733D01*
X153708217Y-179016971D01*
X152755836Y-179016971D01*
X156755836Y-177969352D02*
X158089170Y-177969352D01*
X158660598Y-179016971D02*
X156755836Y-179016971D01*
X156755836Y-177016971D01*
X158660598Y-177016971D01*
X162279646Y-179016971D02*
X160374884Y-179016971D01*
X160374884Y-177016971D01*
X163612979Y-179016971D02*
X163612979Y-177016971D01*
X167612979Y-177112210D02*
X167232027Y-177016971D01*
X166660598Y-177016971D01*
X166089170Y-177112210D01*
X165708217Y-177302686D01*
X165517741Y-177493162D01*
X165327265Y-177874114D01*
X165327265Y-178159829D01*
X165517741Y-178540781D01*
X165708217Y-178731257D01*
X166089170Y-178921733D01*
X166660598Y-179016971D01*
X167041551Y-179016971D01*
X167612979Y-178921733D01*
X167803456Y-178826495D01*
X167803456Y-178159829D01*
X167041551Y-178159829D01*
X169517741Y-179016971D02*
X169517741Y-177016971D01*
X169517741Y-177969352D02*
X171803456Y-177969352D01*
X171803456Y-179016971D02*
X171803456Y-177016971D01*
X173136789Y-177016971D02*
X175422503Y-177016971D01*
X174279646Y-179016971D02*
X174279646Y-177016971D01*
D12*
X152693456Y-174952210D02*
X174973456Y-174952210D01*
X152673456Y-181632210D02*
X174973456Y-181632210D01*
X152663456Y-181632210D02*
G75*
G02*
X152663456Y-174952210I0J3340000D01*
G01*
X174963456Y-174952210D02*
G75*
G02*
X174963456Y-181632210I0J-3340000D01*
G01*
D13*
X113976000Y-89134000D03*
X112776000Y-94234000D03*
D14*
X354838000Y-173736000D03*
D15*
X362458000Y-173736000D03*
D14*
X335788000Y-173736000D03*
D15*
X343408000Y-173736000D03*
D14*
X316992000Y-173736000D03*
D15*
X324612000Y-173736000D03*
D14*
X297688000Y-173736000D03*
D15*
X305308000Y-173736000D03*
D14*
X278892000Y-173736000D03*
D15*
X286512000Y-173736000D03*
D14*
X263906000Y-173736000D03*
D15*
X271526000Y-173736000D03*
D14*
X189484000Y-173736000D03*
D15*
X197104000Y-173736000D03*
D14*
X118872000Y-173736000D03*
D15*
X126492000Y-173736000D03*
D14*
X104648000Y-173736000D03*
D15*
X112268000Y-173736000D03*
D14*
X77978000Y-173736000D03*
D15*
X85598000Y-173736000D03*
D14*
X77978000Y-154686000D03*
D15*
X85598000Y-154686000D03*
D16*
X207768000Y-173482000D03*
D17*
X98118000Y-156365000D03*
X74242000Y-156365000D03*
D18*
X98118000Y-171605000D03*
X74242000Y-171605000D03*
D17*
X340998000Y-137325000D03*
X317122000Y-137325000D03*
D18*
X340998000Y-152565000D03*
X317122000Y-152565000D03*
D17*
X343328000Y-99225000D03*
X319452000Y-99225000D03*
D18*
X343328000Y-114465000D03*
X319452000Y-114465000D03*
X145872000Y-174145000D03*
X245872000Y-174145000D03*
D17*
X145872000Y-189385000D03*
X245872000Y-189385000D03*
X245872000Y-189385000D03*
D18*
X131572000Y-174145000D03*
D17*
X131572000Y-189385000D03*
D18*
X245872000Y-174145000D03*
D19*
X336470000Y-106210000D03*
X326310000Y-106210000D03*
D20*
X331390000Y-106210000D03*
D19*
X288890000Y-182400000D03*
X278730000Y-182400000D03*
D20*
X283810000Y-182400000D03*
D19*
X303230000Y-182400000D03*
X293070000Y-182400000D03*
D20*
X298150000Y-182400000D03*
D19*
X274650000Y-182400000D03*
X264490000Y-182400000D03*
D20*
X269570000Y-182400000D03*
D19*
X269840000Y-182400000D03*
X259680000Y-182400000D03*
D20*
X264760000Y-182400000D03*
D19*
X129340000Y-182400000D03*
X119180000Y-182400000D03*
D20*
X124260000Y-182400000D03*
D19*
X105410000Y-182400000D03*
X95250000Y-182400000D03*
D20*
X100330000Y-182400000D03*
D19*
X112700000Y-182400000D03*
X102540000Y-182400000D03*
D20*
X107620000Y-182400000D03*
D19*
X319850000Y-163330000D03*
X309690000Y-163330000D03*
D20*
X314770000Y-163330000D03*
D19*
X334140000Y-144310000D03*
X323980000Y-144310000D03*
D20*
X329060000Y-144310000D03*
X338570000Y-134780000D03*
D19*
X341280000Y-125270000D03*
X331120000Y-125270000D03*
D20*
X336200000Y-125270000D03*
D19*
X81720000Y-182400000D03*
X71560000Y-182400000D03*
D20*
X76640000Y-182400000D03*
D19*
X84074000Y-182400000D03*
X73914000Y-182400000D03*
D20*
X78994000Y-182400000D03*
D19*
X91260000Y-163350000D03*
X81100000Y-163350000D03*
D20*
X86180000Y-163350000D03*
D19*
X81718000Y-163350000D03*
X71558000Y-163350000D03*
D20*
X76638000Y-163350000D03*
D19*
X86510000Y-144300000D03*
X76350000Y-144300000D03*
D20*
X81430000Y-144300000D03*
D19*
X81718000Y-144300000D03*
X71558000Y-144300000D03*
D20*
X76638000Y-144300000D03*
D19*
X84120000Y-125250000D03*
X73960000Y-125250000D03*
D20*
X79040000Y-125250000D03*
D19*
X250793250Y-106203750D03*
X240633250Y-106203750D03*
D20*
X245713250Y-106203750D03*
D19*
X136493250Y-106203750D03*
X126333250Y-106203750D03*
D20*
X131413250Y-106203750D03*
D19*
X322230750Y-144303750D03*
X312070750Y-144303750D03*
D20*
X317150750Y-144303750D03*
D19*
X103155750Y-163350000D03*
X92995750Y-163350000D03*
D20*
X98075750Y-163350000D03*
D19*
X193802000Y-182400000D03*
X183642000Y-182400000D03*
D20*
X188722000Y-182400000D03*
D19*
X307943250Y-106203750D03*
X297783250Y-106203750D03*
D20*
X302863250Y-106203750D03*
D19*
X146018250Y-125253750D03*
X135858250Y-125253750D03*
D20*
X140938250Y-125253750D03*
D19*
X79343250Y-106203750D03*
X69183250Y-106203750D03*
D20*
X74263250Y-106203750D03*
D19*
X98393250Y-106203750D03*
X88233250Y-106203750D03*
D20*
X93313250Y-106203750D03*
D19*
X117443250Y-106203750D03*
X107283250Y-106203750D03*
D20*
X112363250Y-106203750D03*
D19*
X155543250Y-106203750D03*
X145383250Y-106203750D03*
D20*
X150463250Y-106203750D03*
D19*
X174593250Y-106203750D03*
X164433250Y-106203750D03*
D20*
X169513250Y-106203750D03*
D19*
X193643250Y-106203750D03*
X183483250Y-106203750D03*
D20*
X188563250Y-106203750D03*
D19*
X212693250Y-106203750D03*
X202533250Y-106203750D03*
D20*
X207613250Y-106203750D03*
D19*
X231743250Y-106203750D03*
X221583250Y-106203750D03*
D20*
X226663250Y-106203750D03*
D19*
X269843250Y-106203750D03*
X259683250Y-106203750D03*
D20*
X264763250Y-106203750D03*
D19*
X288893250Y-106203750D03*
X278733250Y-106203750D03*
D20*
X283813250Y-106203750D03*
D19*
X365093250Y-106203750D03*
X354933250Y-106203750D03*
D20*
X360013250Y-106203750D03*
D19*
X107918250Y-125253750D03*
X97758250Y-125253750D03*
D20*
X102838250Y-125253750D03*
D19*
X126968250Y-125253750D03*
X116808250Y-125253750D03*
D20*
X121888250Y-125253750D03*
D19*
X165068250Y-125253750D03*
X154908250Y-125253750D03*
D20*
X159988250Y-125253750D03*
D19*
X184118250Y-125253750D03*
X173958250Y-125253750D03*
D20*
X179038250Y-125253750D03*
D19*
X203168250Y-125253750D03*
X193008250Y-125253750D03*
D20*
X198088250Y-125253750D03*
D19*
X222218250Y-125253750D03*
X212058250Y-125253750D03*
D20*
X217138250Y-125253750D03*
D19*
X241268250Y-125253750D03*
X231108250Y-125253750D03*
D20*
X236188250Y-125253750D03*
D19*
X260318250Y-125253750D03*
X250158250Y-125253750D03*
D20*
X255238250Y-125253750D03*
D19*
X279368250Y-125253750D03*
X269208250Y-125253750D03*
D20*
X274288250Y-125253750D03*
D19*
X298418250Y-125253750D03*
X288258250Y-125253750D03*
D20*
X293338250Y-125253750D03*
D19*
X317468250Y-125253750D03*
X307308250Y-125253750D03*
D20*
X312388250Y-125253750D03*
D19*
X365093250Y-125253750D03*
X354933250Y-125253750D03*
D20*
X360013250Y-125253750D03*
D19*
X112680750Y-144303750D03*
X102520750Y-144303750D03*
D20*
X107600750Y-144303750D03*
D19*
X131730750Y-144303750D03*
X121570750Y-144303750D03*
D20*
X126650750Y-144303750D03*
D19*
X150780750Y-144303750D03*
X140620750Y-144303750D03*
D20*
X145700750Y-144303750D03*
D19*
X169830250Y-144303750D03*
X159670250Y-144303750D03*
D20*
X164750250Y-144303750D03*
D19*
X188880250Y-144303750D03*
X178720250Y-144303750D03*
D20*
X183800250Y-144303750D03*
D19*
X207930250Y-144303750D03*
X197770250Y-144303750D03*
D20*
X202850250Y-144303750D03*
D19*
X226980250Y-144303750D03*
X216820250Y-144303750D03*
D20*
X221900250Y-144303750D03*
D19*
X246030250Y-144303750D03*
X235870250Y-144303750D03*
D20*
X240950250Y-144303750D03*
D19*
X265080250Y-144303750D03*
X254920250Y-144303750D03*
D20*
X260000250Y-144303750D03*
D19*
X284130250Y-144303750D03*
X273970250Y-144303750D03*
D20*
X279050250Y-144303750D03*
D19*
X303180250Y-144303750D03*
X293020250Y-144303750D03*
D20*
X298100250Y-144303750D03*
D19*
X365093250Y-144303750D03*
X354933250Y-144303750D03*
D20*
X360013250Y-144303750D03*
D19*
X122205750Y-163353750D03*
X112045750Y-163353750D03*
D20*
X117125750Y-163353750D03*
D19*
X141255750Y-163353750D03*
X131095750Y-163353750D03*
D20*
X136175750Y-163353750D03*
D19*
X160305750Y-163353750D03*
X150145750Y-163353750D03*
D20*
X155225750Y-163353750D03*
D19*
X179356250Y-163353750D03*
X169196250Y-163353750D03*
D20*
X174276250Y-163353750D03*
D19*
X198406250Y-163353750D03*
X188246250Y-163353750D03*
D20*
X193326250Y-163353750D03*
D19*
X217456250Y-163353750D03*
X207296250Y-163353750D03*
D20*
X212376250Y-163353750D03*
D19*
X236506250Y-163353750D03*
X226346250Y-163353750D03*
D20*
X231426250Y-163353750D03*
D19*
X255556250Y-163353750D03*
X245396250Y-163353750D03*
D20*
X250476250Y-163353750D03*
D19*
X274606250Y-163353750D03*
X264446250Y-163353750D03*
D20*
X269526250Y-163353750D03*
D19*
X293656250Y-163353750D03*
X283496250Y-163353750D03*
D20*
X288576250Y-163353750D03*
D19*
X346043250Y-163353750D03*
X335883250Y-163353750D03*
D20*
X340963250Y-163353750D03*
D19*
X365093250Y-163353750D03*
X354933250Y-163353750D03*
D20*
X360013250Y-163353750D03*
D19*
X200952000Y-182400000D03*
X190792000Y-182400000D03*
D20*
X195872000Y-182400000D03*
D19*
X326993250Y-182400000D03*
X316833250Y-182400000D03*
D20*
X321913250Y-182400000D03*
D19*
X346043250Y-182400000D03*
X335883250Y-182400000D03*
D20*
X340963250Y-182400000D03*
D19*
X365093250Y-182400000D03*
X354933250Y-182400000D03*
D20*
X360013250Y-182400000D03*
D19*
X307943528Y-182400000D03*
X297783528Y-182400000D03*
D20*
X302863528Y-182400000D03*
D19*
X79343250Y-87152000D03*
X69183250Y-87152000D03*
D20*
X74263250Y-87152000D03*
D21*
X133816316Y-92032665D03*
D22*
X138896316Y-92032665D03*
D21*
X133816316Y-89577332D03*
D22*
X138896316Y-89577332D03*
D21*
X133816316Y-87121999D03*
D22*
X138896316Y-87121999D03*
D21*
X133858000Y-84666666D03*
D22*
X138938000Y-84666666D03*
D21*
X138938000Y-79756000D03*
D22*
X133858000Y-79756000D03*
D21*
X138938000Y-82211333D03*
D22*
X133858000Y-82211333D03*
D21*
X133816316Y-94488000D03*
D22*
X138896316Y-94488000D03*
D23*
X95528000Y-90170000D03*
D24*
X97028000Y-90170000D03*
D25*
X118190000Y-88646000D03*
X123190000Y-88646000D03*
X94060000Y-94234000D03*
X99060000Y-94234000D03*
X198140000Y-80010000D03*
X200640000Y-80010000D03*
X198140000Y-95250000D03*
X200640000Y-95250000D03*
D26*
X199390000Y-85200000D03*
X199390000Y-90080000D03*
D27*
X127762000Y-82042000D03*
D28*
X130302000Y-82042000D03*
D29*
X117856000Y-94488000D03*
X117856000Y-91948000D03*
X120396000Y-94488000D03*
X120396000Y-91948000D03*
X122936000Y-94488000D03*
D30*
X122936000Y-91948000D03*
D14*
X144526000Y-79248000D03*
X192786000Y-94488000D03*
X147066000Y-79248000D03*
X190246000Y-94488000D03*
X149606000Y-79248000D03*
X187706000Y-94488000D03*
X152146000Y-79248000D03*
X185166000Y-94488000D03*
X154686000Y-79248000D03*
X182626000Y-94488000D03*
X157226000Y-79248000D03*
X180086000Y-94488000D03*
X159766000Y-79248000D03*
X177546000Y-94488000D03*
X162306000Y-79248000D03*
X175006000Y-94488000D03*
X164846000Y-79248000D03*
X172466000Y-94488000D03*
X167386000Y-79248000D03*
X169926000Y-94488000D03*
X169926000Y-79248000D03*
X167386000Y-94488000D03*
X172466000Y-79248000D03*
X164846000Y-94488000D03*
X175006000Y-79248000D03*
X162306000Y-94488000D03*
X177546000Y-79248000D03*
X159766000Y-94488000D03*
X180086000Y-79248000D03*
X157226000Y-94488000D03*
X182626000Y-79248000D03*
X154686000Y-94488000D03*
X185166000Y-79248000D03*
X152146000Y-94488000D03*
X187706000Y-79248000D03*
X149606000Y-94488000D03*
X190246000Y-79248000D03*
X147066000Y-94488000D03*
X192786000Y-79248000D03*
D15*
X144526000Y-94488000D03*
D14*
X339344000Y-93472000D03*
D15*
X339344000Y-85852000D03*
D14*
X222504000Y-89376000D03*
D15*
X222504000Y-81756000D03*
D14*
X225044000Y-91440000D03*
D15*
X225044000Y-83820000D03*
D14*
X227584000Y-93472000D03*
D15*
X227584000Y-85852000D03*
D14*
X214884000Y-91440000D03*
D15*
X214884000Y-83820000D03*
D14*
X212344000Y-89376000D03*
D15*
X212344000Y-81756000D03*
D14*
X217424000Y-93472000D03*
D15*
X217424000Y-85852000D03*
D14*
X219964000Y-87376000D03*
D15*
X219964000Y-79756000D03*
D14*
X230124000Y-87376000D03*
D15*
X230124000Y-79756000D03*
D14*
X240284000Y-87376000D03*
D15*
X240284000Y-79756000D03*
D14*
X232664000Y-89376000D03*
D15*
X232664000Y-81756000D03*
D14*
X242824000Y-89376000D03*
D15*
X242824000Y-81756000D03*
D14*
X235204000Y-91440000D03*
D15*
X235204000Y-83820000D03*
D14*
X237744000Y-93472000D03*
D15*
X237744000Y-85852000D03*
D14*
X209804000Y-87376000D03*
D15*
X209804000Y-79756000D03*
D14*
X250444000Y-87376000D03*
D15*
X250444000Y-79756000D03*
D14*
X260604000Y-87376000D03*
D15*
X260604000Y-79756000D03*
D14*
X270764000Y-87376000D03*
D15*
X270764000Y-79756000D03*
D14*
X280924000Y-87376000D03*
D15*
X280924000Y-79756000D03*
D14*
X291084000Y-87376000D03*
D15*
X291084000Y-79756000D03*
D14*
X301282736Y-87376000D03*
D15*
X301282736Y-79756000D03*
D14*
X311404000Y-87376000D03*
D15*
X311404000Y-79756000D03*
D14*
X321564000Y-87376000D03*
D15*
X321564000Y-79756000D03*
D14*
X331724000Y-87376000D03*
D15*
X331724000Y-79756000D03*
D14*
X341884000Y-87376000D03*
D15*
X341884000Y-79756000D03*
D14*
X352044000Y-87376000D03*
D15*
X352044000Y-79756000D03*
D14*
X252984000Y-89376000D03*
D15*
X252984000Y-81756000D03*
D14*
X263144000Y-89376000D03*
D15*
X263144000Y-81756000D03*
D14*
X273304000Y-89376000D03*
D15*
X273304000Y-81756000D03*
D14*
X283464000Y-89376000D03*
D15*
X283464000Y-81756000D03*
D14*
X293624000Y-89376000D03*
D15*
X293624000Y-81756000D03*
D14*
X303784000Y-89376000D03*
D15*
X303784000Y-81756000D03*
D14*
X313944000Y-89376000D03*
D15*
X313944000Y-81756000D03*
D14*
X324104000Y-89376000D03*
D15*
X324104000Y-81756000D03*
D14*
X334264000Y-89376000D03*
D15*
X334264000Y-81756000D03*
D14*
X344424000Y-89376000D03*
D15*
X344424000Y-81756000D03*
D14*
X354584000Y-89376000D03*
D15*
X354584000Y-81756000D03*
D14*
X245364000Y-91440000D03*
D15*
X245364000Y-83820000D03*
D14*
X255524000Y-91440000D03*
D15*
X255524000Y-83820000D03*
D14*
X265684000Y-91440000D03*
D15*
X265684000Y-83820000D03*
D14*
X275844000Y-91440000D03*
D15*
X275844000Y-83820000D03*
D14*
X286004000Y-91440000D03*
D15*
X286004000Y-83820000D03*
D14*
X296164000Y-91440000D03*
D15*
X296164000Y-83820000D03*
D14*
X306324000Y-91440000D03*
D15*
X306324000Y-83820000D03*
D14*
X316484000Y-91440000D03*
D15*
X316484000Y-83820000D03*
D14*
X326644000Y-91440000D03*
D15*
X326644000Y-83820000D03*
D14*
X346964000Y-91440000D03*
D15*
X346964000Y-83820000D03*
D14*
X357124000Y-91440000D03*
D15*
X357124000Y-83820000D03*
D14*
X247904000Y-93472000D03*
D15*
X247904000Y-85852000D03*
D14*
X258064000Y-93472000D03*
D15*
X258064000Y-85852000D03*
D14*
X268224000Y-93472000D03*
D15*
X268224000Y-85852000D03*
D14*
X278384000Y-93472000D03*
D15*
X278384000Y-85852000D03*
D14*
X288544000Y-93472000D03*
D15*
X288544000Y-85852000D03*
D14*
X298704000Y-93472000D03*
D15*
X298704000Y-85852000D03*
D14*
X308864000Y-93472000D03*
D15*
X308864000Y-85852000D03*
D14*
X319024000Y-93472000D03*
D15*
X319024000Y-85852000D03*
D14*
X329184000Y-93472000D03*
D15*
X329184000Y-85852000D03*
D14*
X349504000Y-93472000D03*
D15*
X349504000Y-85852000D03*
D14*
X359664000Y-93472000D03*
D15*
X359664000Y-85852000D03*
D14*
X126746000Y-94996000D03*
D15*
X126746000Y-87376000D03*
D14*
X129794000Y-95006196D03*
D15*
X129794000Y-87386196D03*
D31*
X111910000Y-80006000D03*
X111910000Y-84506000D03*
X105410000Y-80006000D03*
X105410000Y-84506000D03*
X99972000Y-80010000D03*
X99972000Y-84510000D03*
X93472000Y-80010000D03*
X93472000Y-84510000D03*
D32*
X115552000Y-79220000D03*
X124202000Y-79220000D03*
D33*
X115552000Y-82600000D03*
X124202000Y-82600000D03*
D34*
X119452000Y-82230000D03*
X116902000Y-82230000D03*
X117752000Y-82230000D03*
X118602000Y-82230000D03*
X122852000Y-82230000D03*
X121152000Y-82230000D03*
X120302000Y-82230000D03*
X122002000Y-82230000D03*
X116902000Y-83580000D03*
X117752000Y-83580000D03*
X118602000Y-83580000D03*
X119452000Y-83580000D03*
X120302000Y-83580000D03*
X121152000Y-83580000D03*
X122002000Y-83580000D03*
X122852000Y-83580000D03*
D16*
X365506000Y-93218000D03*
X365506000Y-81534000D03*
X204978000Y-93218000D03*
X87376000Y-81534000D03*
X87376000Y-93218000D03*
X204978000Y-81534000D03*
X90170000Y-134112000D03*
X207768000Y-134112000D03*
X350520000Y-134112000D03*
X350520000Y-173482000D03*
X90170000Y-173482000D03*
M02*
