G04 #@! TF.GenerationSoftware,KiCad,Pcbnew,(5.1.10)-1*
G04 #@! TF.CreationDate,2021-10-14T17:02:51-04:00*
G04 #@! TF.ProjectId,delight-pcb,64656c69-6768-4742-9d70-63622e6b6963,rev?*
G04 #@! TF.SameCoordinates,Original*
G04 #@! TF.FileFunction,Soldermask,Bot*
G04 #@! TF.FilePolarity,Negative*
%FSLAX46Y46*%
G04 Gerber Fmt 4.6, Leading zero omitted, Abs format (unit mm)*
G04 Created by KiCad (PCBNEW (5.1.10)-1) date 2021-10-14 17:02:51*
%MOMM*%
%LPD*%
G01*
G04 APERTURE LIST*
%ADD10C,0.350000*%
%ADD11C,0.125000*%
%ADD12C,0.400000*%
%ADD13R,2.550000X2.500000*%
%ADD14C,1.750000*%
%ADD15C,4.000000*%
%ADD16C,3.000000*%
%ADD17C,1.710000*%
%ADD18O,1.600000X1.600000*%
%ADD19R,1.600000X1.600000*%
%ADD20C,4.400000*%
%ADD21C,3.048000*%
%ADD22C,3.987800*%
%ADD23O,1.400000X1.400000*%
%ADD24C,1.400000*%
%ADD25C,1.200000*%
%ADD26R,1.200000X1.200000*%
%ADD27C,1.600000*%
%ADD28C,1.500000*%
%ADD29C,1.800000*%
%ADD30R,1.800000X1.800000*%
%ADD31O,1.700000X1.700000*%
%ADD32R,1.700000X1.700000*%
%ADD33C,2.000000*%
%ADD34O,0.900000X1.700000*%
%ADD35O,0.900000X2.400000*%
%ADD36C,0.700000*%
G04 APERTURE END LIST*
D10*
X174878763Y-179016971D02*
X174878763Y-177016971D01*
X173926382Y-177016971D01*
X173354953Y-177112210D01*
X172974001Y-177302686D01*
X172783524Y-177493162D01*
X172593048Y-177874114D01*
X172593048Y-178159829D01*
X172783524Y-178540781D01*
X172974001Y-178731257D01*
X173354953Y-178921733D01*
X173926382Y-179016971D01*
X174878763Y-179016971D01*
X170878763Y-177969352D02*
X169545429Y-177969352D01*
X168974001Y-179016971D02*
X170878763Y-179016971D01*
X170878763Y-177016971D01*
X168974001Y-177016971D01*
X165354953Y-179016971D02*
X167259715Y-179016971D01*
X167259715Y-177016971D01*
X164021620Y-179016971D02*
X164021620Y-177016971D01*
X160021620Y-177112210D02*
X160402572Y-177016971D01*
X160974001Y-177016971D01*
X161545429Y-177112210D01*
X161926382Y-177302686D01*
X162116858Y-177493162D01*
X162307334Y-177874114D01*
X162307334Y-178159829D01*
X162116858Y-178540781D01*
X161926382Y-178731257D01*
X161545429Y-178921733D01*
X160974001Y-179016971D01*
X160593048Y-179016971D01*
X160021620Y-178921733D01*
X159831144Y-178826495D01*
X159831144Y-178159829D01*
X160593048Y-178159829D01*
X158116858Y-179016971D02*
X158116858Y-177016971D01*
X158116858Y-177969352D02*
X155831144Y-177969352D01*
X155831144Y-179016971D02*
X155831144Y-177016971D01*
X154497810Y-177016971D02*
X152212096Y-177016971D01*
X153354953Y-179016971D02*
X153354953Y-177016971D01*
D11*
X169795429Y-183390590D02*
X169866858Y-183342971D01*
X169902572Y-183247733D01*
X169902572Y-182390590D01*
X169402572Y-183390590D02*
X169474001Y-183342971D01*
X169509715Y-183295352D01*
X169545429Y-183200114D01*
X169545429Y-182914400D01*
X169509715Y-182819162D01*
X169474001Y-182771543D01*
X169402572Y-182723924D01*
X169295429Y-182723924D01*
X169224001Y-182771543D01*
X169188286Y-182819162D01*
X169152572Y-182914400D01*
X169152572Y-183200114D01*
X169188286Y-183295352D01*
X169224001Y-183342971D01*
X169295429Y-183390590D01*
X169402572Y-183390590D01*
X168938286Y-182723924D02*
X168652572Y-182723924D01*
X168831144Y-182390590D02*
X168831144Y-183247733D01*
X168795429Y-183342971D01*
X168724001Y-183390590D01*
X168652572Y-183390590D01*
X168402572Y-183390590D02*
X168402572Y-182723924D01*
X168402572Y-182390590D02*
X168438286Y-182438210D01*
X168402572Y-182485829D01*
X168366858Y-182438210D01*
X168402572Y-182390590D01*
X168402572Y-182485829D01*
X167759715Y-183342971D02*
X167831144Y-183390590D01*
X167974001Y-183390590D01*
X168045429Y-183342971D01*
X168081144Y-183247733D01*
X168081144Y-182866781D01*
X168045429Y-182771543D01*
X167974001Y-182723924D01*
X167831144Y-182723924D01*
X167759715Y-182771543D01*
X167724001Y-182866781D01*
X167724001Y-182962019D01*
X168081144Y-183057257D01*
X167402572Y-183390590D02*
X167402572Y-182723924D01*
X167402572Y-182914400D02*
X167366858Y-182819162D01*
X167331144Y-182771543D01*
X167259715Y-182723924D01*
X167188286Y-182723924D01*
X166402572Y-182485829D02*
X166366858Y-182438210D01*
X166295429Y-182390590D01*
X166116858Y-182390590D01*
X166045429Y-182438210D01*
X166009715Y-182485829D01*
X165974001Y-182581067D01*
X165974001Y-182676305D01*
X166009715Y-182819162D01*
X166438286Y-183390590D01*
X165974001Y-183390590D01*
X165509715Y-182390590D02*
X165438286Y-182390590D01*
X165366858Y-182438210D01*
X165331144Y-182485829D01*
X165295429Y-182581067D01*
X165259715Y-182771543D01*
X165259715Y-183009638D01*
X165295429Y-183200114D01*
X165331144Y-183295352D01*
X165366858Y-183342971D01*
X165438286Y-183390590D01*
X165509715Y-183390590D01*
X165581144Y-183342971D01*
X165616858Y-183295352D01*
X165652572Y-183200114D01*
X165688286Y-183009638D01*
X165688286Y-182771543D01*
X165652572Y-182581067D01*
X165616858Y-182485829D01*
X165581144Y-182438210D01*
X165509715Y-182390590D01*
X164974001Y-182485829D02*
X164938286Y-182438210D01*
X164866858Y-182390590D01*
X164688286Y-182390590D01*
X164616858Y-182438210D01*
X164581144Y-182485829D01*
X164545429Y-182581067D01*
X164545429Y-182676305D01*
X164581144Y-182819162D01*
X165009715Y-183390590D01*
X164545429Y-183390590D01*
X163831144Y-183390590D02*
X164259715Y-183390590D01*
X164045429Y-183390590D02*
X164045429Y-182390590D01*
X164116858Y-182533448D01*
X164188286Y-182628686D01*
X164259715Y-182676305D01*
X162938286Y-183009638D02*
X162366858Y-183009638D01*
X161438286Y-183390590D02*
X161438286Y-182723924D01*
X161438286Y-182914400D02*
X161402572Y-182819162D01*
X161366858Y-182771543D01*
X161295429Y-182723924D01*
X161224001Y-182723924D01*
X160688286Y-183342971D02*
X160759715Y-183390590D01*
X160902572Y-183390590D01*
X160974001Y-183342971D01*
X161009715Y-183247733D01*
X161009715Y-182866781D01*
X160974001Y-182771543D01*
X160902572Y-182723924D01*
X160759715Y-182723924D01*
X160688286Y-182771543D01*
X160652572Y-182866781D01*
X160652572Y-182962019D01*
X161009715Y-183057257D01*
X160402572Y-182723924D02*
X160224001Y-183390590D01*
X160045429Y-182723924D01*
X158795429Y-183390590D02*
X159224001Y-183390590D01*
X159009715Y-183390590D02*
X159009715Y-182390590D01*
X159081144Y-182533448D01*
X159152572Y-182628686D01*
X159224001Y-182676305D01*
X158474001Y-183295352D02*
X158438286Y-183342971D01*
X158474001Y-183390590D01*
X158509715Y-183342971D01*
X158474001Y-183295352D01*
X158474001Y-183390590D01*
X157974001Y-182390590D02*
X157902572Y-182390590D01*
X157831144Y-182438210D01*
X157795429Y-182485829D01*
X157759715Y-182581067D01*
X157724001Y-182771543D01*
X157724001Y-183009638D01*
X157759715Y-183200114D01*
X157795429Y-183295352D01*
X157831144Y-183342971D01*
X157902572Y-183390590D01*
X157974001Y-183390590D01*
X158045429Y-183342971D01*
X158081144Y-183295352D01*
X158116858Y-183200114D01*
X158152572Y-183009638D01*
X158152572Y-182771543D01*
X158116858Y-182581067D01*
X158081144Y-182485829D01*
X158045429Y-182438210D01*
X157974001Y-182390590D01*
X168985905Y-184660590D02*
X168985905Y-184136781D01*
X169009715Y-184041543D01*
X169057334Y-183993924D01*
X169152572Y-183993924D01*
X169200191Y-184041543D01*
X168985905Y-184612971D02*
X169033524Y-184660590D01*
X169152572Y-184660590D01*
X169200191Y-184612971D01*
X169224001Y-184517733D01*
X169224001Y-184422495D01*
X169200191Y-184327257D01*
X169152572Y-184279638D01*
X169033524Y-184279638D01*
X168985905Y-184232019D01*
X168533524Y-184660590D02*
X168533524Y-183660590D01*
X168533524Y-184612971D02*
X168581144Y-184660590D01*
X168676382Y-184660590D01*
X168724001Y-184612971D01*
X168747810Y-184565352D01*
X168771620Y-184470114D01*
X168771620Y-184184400D01*
X168747810Y-184089162D01*
X168724001Y-184041543D01*
X168676382Y-183993924D01*
X168581144Y-183993924D01*
X168533524Y-184041543D01*
X168081144Y-184660590D02*
X168081144Y-184136781D01*
X168104953Y-184041543D01*
X168152572Y-183993924D01*
X168247810Y-183993924D01*
X168295429Y-184041543D01*
X168081144Y-184612971D02*
X168128763Y-184660590D01*
X168247810Y-184660590D01*
X168295429Y-184612971D01*
X168319239Y-184517733D01*
X168319239Y-184422495D01*
X168295429Y-184327257D01*
X168247810Y-184279638D01*
X168128763Y-184279638D01*
X168081144Y-184232019D01*
X167843048Y-183993924D02*
X167843048Y-184993924D01*
X167843048Y-184041543D02*
X167795429Y-183993924D01*
X167700191Y-183993924D01*
X167652572Y-184041543D01*
X167628763Y-184089162D01*
X167604953Y-184184400D01*
X167604953Y-184470114D01*
X167628763Y-184565352D01*
X167652572Y-184612971D01*
X167700191Y-184660590D01*
X167795429Y-184660590D01*
X167843048Y-184612971D01*
X167462096Y-183993924D02*
X167271620Y-183993924D01*
X167390667Y-183660590D02*
X167390667Y-184517733D01*
X167366858Y-184612971D01*
X167319239Y-184660590D01*
X167271620Y-184660590D01*
X166914477Y-184612971D02*
X166962096Y-184660590D01*
X167057334Y-184660590D01*
X167104953Y-184612971D01*
X167128763Y-184517733D01*
X167128763Y-184136781D01*
X167104953Y-184041543D01*
X167057334Y-183993924D01*
X166962096Y-183993924D01*
X166914477Y-184041543D01*
X166890667Y-184136781D01*
X166890667Y-184232019D01*
X167128763Y-184327257D01*
X166462096Y-184660590D02*
X166462096Y-183660590D01*
X166462096Y-184612971D02*
X166509715Y-184660590D01*
X166604953Y-184660590D01*
X166652572Y-184612971D01*
X166676382Y-184565352D01*
X166700191Y-184470114D01*
X166700191Y-184184400D01*
X166676382Y-184089162D01*
X166652572Y-184041543D01*
X166604953Y-183993924D01*
X166509715Y-183993924D01*
X166462096Y-184041543D01*
X165914477Y-183993924D02*
X165724001Y-183993924D01*
X165843048Y-184660590D02*
X165843048Y-183803448D01*
X165819239Y-183708210D01*
X165771620Y-183660590D01*
X165724001Y-183660590D01*
X165557334Y-184660590D02*
X165557334Y-183993924D01*
X165557334Y-184184400D02*
X165533524Y-184089162D01*
X165509715Y-184041543D01*
X165462096Y-183993924D01*
X165414477Y-183993924D01*
X165176382Y-184660590D02*
X165224001Y-184612971D01*
X165247810Y-184565352D01*
X165271620Y-184470114D01*
X165271620Y-184184400D01*
X165247810Y-184089162D01*
X165224001Y-184041543D01*
X165176382Y-183993924D01*
X165104953Y-183993924D01*
X165057334Y-184041543D01*
X165033524Y-184089162D01*
X165009715Y-184184400D01*
X165009715Y-184470114D01*
X165033524Y-184565352D01*
X165057334Y-184612971D01*
X165104953Y-184660590D01*
X165176382Y-184660590D01*
X164795429Y-184660590D02*
X164795429Y-183993924D01*
X164795429Y-184089162D02*
X164771620Y-184041543D01*
X164724001Y-183993924D01*
X164652572Y-183993924D01*
X164604953Y-184041543D01*
X164581144Y-184136781D01*
X164581144Y-184660590D01*
X164581144Y-184136781D02*
X164557334Y-184041543D01*
X164509715Y-183993924D01*
X164438286Y-183993924D01*
X164390667Y-184041543D01*
X164366858Y-184136781D01*
X164366858Y-184660590D01*
X163533524Y-184612971D02*
X163581144Y-184660590D01*
X163676382Y-184660590D01*
X163724001Y-184612971D01*
X163747810Y-184565352D01*
X163771620Y-184470114D01*
X163771620Y-184184400D01*
X163747810Y-184089162D01*
X163724001Y-184041543D01*
X163676382Y-183993924D01*
X163581144Y-183993924D01*
X163533524Y-184041543D01*
X163247810Y-184660590D02*
X163295429Y-184612971D01*
X163319239Y-184565352D01*
X163343048Y-184470114D01*
X163343048Y-184184400D01*
X163319239Y-184089162D01*
X163295429Y-184041543D01*
X163247810Y-183993924D01*
X163176382Y-183993924D01*
X163128763Y-184041543D01*
X163104953Y-184089162D01*
X163081144Y-184184400D01*
X163081144Y-184470114D01*
X163104953Y-184565352D01*
X163128763Y-184612971D01*
X163176382Y-184660590D01*
X163247810Y-184660590D01*
X162890667Y-184612971D02*
X162843048Y-184660590D01*
X162747810Y-184660590D01*
X162700191Y-184612971D01*
X162676382Y-184517733D01*
X162676382Y-184470114D01*
X162700191Y-184374876D01*
X162747810Y-184327257D01*
X162819239Y-184327257D01*
X162866858Y-184279638D01*
X162890667Y-184184400D01*
X162890667Y-184136781D01*
X162866858Y-184041543D01*
X162819239Y-183993924D01*
X162747810Y-183993924D01*
X162700191Y-184041543D01*
X162271620Y-184612971D02*
X162319239Y-184660590D01*
X162414477Y-184660590D01*
X162462096Y-184612971D01*
X162485905Y-184517733D01*
X162485905Y-184136781D01*
X162462096Y-184041543D01*
X162414477Y-183993924D01*
X162319239Y-183993924D01*
X162271620Y-184041543D01*
X162247810Y-184136781D01*
X162247810Y-184232019D01*
X162485905Y-184327257D01*
X162081144Y-183993924D02*
X161962096Y-184660590D01*
X161843048Y-183993924D02*
X161962096Y-184660590D01*
X162009715Y-184898686D01*
X162033524Y-184946305D01*
X162081144Y-184993924D01*
X161724001Y-183993924D02*
X161533524Y-183993924D01*
X161652572Y-184660590D02*
X161652572Y-183803448D01*
X161628763Y-183708210D01*
X161581144Y-183660590D01*
X161533524Y-183660590D01*
X161152572Y-184660590D02*
X161152572Y-184136781D01*
X161176382Y-184041543D01*
X161224001Y-183993924D01*
X161319239Y-183993924D01*
X161366858Y-184041543D01*
X161152572Y-184612971D02*
X161200191Y-184660590D01*
X161319239Y-184660590D01*
X161366858Y-184612971D01*
X161390667Y-184517733D01*
X161390667Y-184422495D01*
X161366858Y-184327257D01*
X161319239Y-184279638D01*
X161200191Y-184279638D01*
X161152572Y-184232019D01*
X160914477Y-183993924D02*
X160914477Y-184660590D01*
X160914477Y-184089162D02*
X160890667Y-184041543D01*
X160843048Y-183993924D01*
X160771620Y-183993924D01*
X160724001Y-184041543D01*
X160700191Y-184136781D01*
X160700191Y-184660590D01*
X160462096Y-183993924D02*
X160462096Y-184660590D01*
X160462096Y-184089162D02*
X160438286Y-184041543D01*
X160390667Y-183993924D01*
X160319239Y-183993924D01*
X160271620Y-184041543D01*
X160247810Y-184136781D01*
X160247810Y-184660590D01*
X160009715Y-184660590D02*
X160009715Y-183993924D01*
X160009715Y-183660590D02*
X160033524Y-183708210D01*
X160009715Y-183755829D01*
X159985905Y-183708210D01*
X160009715Y-183660590D01*
X160009715Y-183755829D01*
X159843048Y-183993924D02*
X159652572Y-183993924D01*
X159771620Y-183660590D02*
X159771620Y-184517733D01*
X159747810Y-184612971D01*
X159700191Y-184660590D01*
X159652572Y-184660590D01*
X159271620Y-183993924D02*
X159271620Y-184660590D01*
X159485905Y-183993924D02*
X159485905Y-184517733D01*
X159462096Y-184612971D01*
X159414477Y-184660590D01*
X159343048Y-184660590D01*
X159295429Y-184612971D01*
X159271620Y-184565352D01*
X159104953Y-183993924D02*
X158914477Y-183993924D01*
X159033524Y-183660590D02*
X159033524Y-184517733D01*
X159009715Y-184612971D01*
X158962096Y-184660590D01*
X158914477Y-184660590D01*
X158819239Y-183993924D02*
X158628763Y-183993924D01*
X158747810Y-183660590D02*
X158747810Y-184517733D01*
X158724001Y-184612971D01*
X158676382Y-184660590D01*
X158628763Y-184660590D01*
X158462096Y-184660590D02*
X158462096Y-183993924D01*
X158462096Y-183660590D02*
X158485905Y-183708210D01*
X158462096Y-183755829D01*
X158438286Y-183708210D01*
X158462096Y-183660590D01*
X158462096Y-183755829D01*
D10*
X174021620Y-179016971D02*
X174021620Y-177016971D01*
X173069239Y-177016971D01*
X172497810Y-177112210D01*
X172116858Y-177302686D01*
X171926382Y-177493162D01*
X171735905Y-177874114D01*
X171735905Y-178159829D01*
X171926382Y-178540781D01*
X172116858Y-178731257D01*
X172497810Y-178921733D01*
X173069239Y-179016971D01*
X174021620Y-179016971D01*
X170021620Y-177969352D02*
X168688286Y-177969352D01*
X168116858Y-179016971D02*
X170021620Y-179016971D01*
X170021620Y-177016971D01*
X168116858Y-177016971D01*
X166974001Y-177016971D02*
X164688286Y-177016971D01*
X165831144Y-179016971D02*
X165831144Y-177016971D01*
X163545429Y-178445543D02*
X161640667Y-178445543D01*
X163926382Y-179016971D02*
X162593048Y-177016971D01*
X161259715Y-179016971D01*
X157640667Y-178826495D02*
X157831144Y-178921733D01*
X158402572Y-179016971D01*
X158783524Y-179016971D01*
X159354953Y-178921733D01*
X159735905Y-178731257D01*
X159926382Y-178540781D01*
X160116858Y-178159829D01*
X160116858Y-177874114D01*
X159926382Y-177493162D01*
X159735905Y-177302686D01*
X159354953Y-177112210D01*
X158783524Y-177016971D01*
X158402572Y-177016971D01*
X157831144Y-177112210D01*
X157640667Y-177207448D01*
X155926382Y-179016971D02*
X155926382Y-177016971D01*
X155926382Y-177969352D02*
X153640667Y-177969352D01*
X153640667Y-179016971D02*
X153640667Y-177016971D01*
D12*
X174941144Y-174952210D02*
X152661144Y-174952210D01*
X174961144Y-181632210D02*
X152661144Y-181632210D01*
X152671144Y-174952210D02*
G75*
G03*
X152671144Y-181632210I0J-3340000D01*
G01*
X174971144Y-181632210D02*
G75*
G03*
X174971144Y-174952210I0J3340000D01*
G01*
D13*
X365855250Y-139223750D03*
X352928250Y-141763750D03*
D14*
X365093250Y-144303750D03*
X354933250Y-144303750D03*
D15*
X360013250Y-144303750D03*
D16*
X362553250Y-139223750D03*
X356203250Y-141763750D03*
D13*
X199168250Y-158273750D03*
X186241250Y-160813750D03*
D14*
X198406250Y-163353750D03*
X188246250Y-163353750D03*
D15*
X193326250Y-163353750D03*
D16*
X195866250Y-158273750D03*
X189516250Y-160813750D03*
D13*
X132492750Y-139223750D03*
X119565750Y-141763750D03*
D14*
X131730750Y-144303750D03*
X121570750Y-144303750D03*
D15*
X126650750Y-144303750D03*
D16*
X129190750Y-139223750D03*
X122840750Y-141763750D03*
D13*
X294418250Y-158273750D03*
X281491250Y-160813750D03*
D14*
X293656250Y-163353750D03*
X283496250Y-163353750D03*
D15*
X288576250Y-163353750D03*
D16*
X291116250Y-158273750D03*
X284766250Y-160813750D03*
D13*
X275368250Y-158273750D03*
X262441250Y-160813750D03*
D14*
X274606250Y-163353750D03*
X264446250Y-163353750D03*
D15*
X269526250Y-163353750D03*
D16*
X272066250Y-158273750D03*
X265716250Y-160813750D03*
D13*
X201714000Y-177320000D03*
X188787000Y-179860000D03*
D14*
X200952000Y-182400000D03*
X190792000Y-182400000D03*
D15*
X195872000Y-182400000D03*
D16*
X198412000Y-177320000D03*
X192062000Y-179860000D03*
D13*
X130102000Y-177320000D03*
X117175000Y-179860000D03*
D14*
X129340000Y-182400000D03*
X119180000Y-182400000D03*
D15*
X124260000Y-182400000D03*
D16*
X126800000Y-177320000D03*
X120450000Y-179860000D03*
D13*
X106172000Y-177320000D03*
X93245000Y-179860000D03*
D14*
X105410000Y-182400000D03*
X95250000Y-182400000D03*
D15*
X100330000Y-182400000D03*
D16*
X102870000Y-177320000D03*
X96520000Y-179860000D03*
D13*
X82482000Y-177320000D03*
X69555000Y-179860000D03*
D14*
X81720000Y-182400000D03*
X71560000Y-182400000D03*
D15*
X76640000Y-182400000D03*
D16*
X79180000Y-177320000D03*
X72830000Y-179860000D03*
D13*
X320612000Y-158250000D03*
X307685000Y-160790000D03*
D14*
X319850000Y-163330000D03*
X309690000Y-163330000D03*
D15*
X314770000Y-163330000D03*
D16*
X317310000Y-158250000D03*
X310960000Y-160790000D03*
D13*
X289652000Y-177320000D03*
X276725000Y-179860000D03*
D14*
X288890000Y-182400000D03*
X278730000Y-182400000D03*
D15*
X283810000Y-182400000D03*
D16*
X286350000Y-177320000D03*
X280000000Y-179860000D03*
D13*
X270602000Y-177320000D03*
X257675000Y-179860000D03*
D14*
X269840000Y-182400000D03*
X259680000Y-182400000D03*
D15*
X264760000Y-182400000D03*
D16*
X267300000Y-177320000D03*
X260950000Y-179860000D03*
D13*
X227742250Y-139223750D03*
X214815250Y-141763750D03*
D14*
X226980250Y-144303750D03*
X216820250Y-144303750D03*
D15*
X221900250Y-144303750D03*
D16*
X224440250Y-139223750D03*
X218090250Y-141763750D03*
D13*
X208692250Y-139223750D03*
X195765250Y-141763750D03*
D14*
X207930250Y-144303750D03*
X197770250Y-144303750D03*
D15*
X202850250Y-144303750D03*
D16*
X205390250Y-139223750D03*
X199040250Y-141763750D03*
D13*
X170592250Y-139223750D03*
X157665250Y-141763750D03*
D14*
X169830250Y-144303750D03*
X159670250Y-144303750D03*
D15*
X164750250Y-144303750D03*
D16*
X167290250Y-139223750D03*
X160940250Y-141763750D03*
D13*
X92022000Y-158270000D03*
X79095000Y-160810000D03*
D14*
X91260000Y-163350000D03*
X81100000Y-163350000D03*
D15*
X86180000Y-163350000D03*
D16*
X88720000Y-158270000D03*
X82370000Y-160810000D03*
D13*
X334902000Y-139230000D03*
X321975000Y-141770000D03*
D14*
X334140000Y-144310000D03*
X323980000Y-144310000D03*
D15*
X329060000Y-144310000D03*
D16*
X331600000Y-139230000D03*
X325250000Y-141770000D03*
D13*
X87272000Y-139220000D03*
X74345000Y-141760000D03*
D14*
X86510000Y-144300000D03*
X76350000Y-144300000D03*
D15*
X81430000Y-144300000D03*
D16*
X83970000Y-139220000D03*
X77620000Y-141760000D03*
D13*
X342042000Y-120190000D03*
X329115000Y-122730000D03*
D14*
X341280000Y-125270000D03*
X331120000Y-125270000D03*
D15*
X336200000Y-125270000D03*
D16*
X338740000Y-120190000D03*
X332390000Y-122730000D03*
D13*
X84882000Y-120170000D03*
X71955000Y-122710000D03*
D14*
X84120000Y-125250000D03*
X73960000Y-125250000D03*
D15*
X79040000Y-125250000D03*
D16*
X81580000Y-120170000D03*
X75230000Y-122710000D03*
D13*
X337232000Y-101130000D03*
X324305000Y-103670000D03*
D14*
X336470000Y-106210000D03*
X326310000Y-106210000D03*
D15*
X331390000Y-106210000D03*
D16*
X333930000Y-101130000D03*
X327580000Y-103670000D03*
D13*
X270605250Y-101123750D03*
X257678250Y-103663750D03*
D14*
X269843250Y-106203750D03*
X259683250Y-106203750D03*
D15*
X264763250Y-106203750D03*
D16*
X267303250Y-101123750D03*
X260953250Y-103663750D03*
D13*
X127730250Y-120173750D03*
X114803250Y-122713750D03*
D14*
X126968250Y-125253750D03*
X116808250Y-125253750D03*
D15*
X121888250Y-125253750D03*
D16*
X124428250Y-120173750D03*
X118078250Y-122713750D03*
D13*
X251555250Y-101123750D03*
X238628250Y-103663750D03*
D14*
X250793250Y-106203750D03*
X240633250Y-106203750D03*
D15*
X245713250Y-106203750D03*
D16*
X248253250Y-101123750D03*
X241903250Y-103663750D03*
D13*
X137255250Y-101123750D03*
X124328250Y-103663750D03*
D14*
X136493250Y-106203750D03*
X126333250Y-106203750D03*
D15*
X131413250Y-106203750D03*
D16*
X133953250Y-101123750D03*
X127603250Y-103663750D03*
D13*
X308705250Y-101123750D03*
X295778250Y-103663750D03*
D14*
X307943250Y-106203750D03*
X297783250Y-106203750D03*
D15*
X302863250Y-106203750D03*
D16*
X305403250Y-101123750D03*
X299053250Y-103663750D03*
D13*
X146780250Y-120173750D03*
X133853250Y-122713750D03*
D14*
X146018250Y-125253750D03*
X135858250Y-125253750D03*
D15*
X140938250Y-125253750D03*
D16*
X143478250Y-120173750D03*
X137128250Y-122713750D03*
D13*
X80105250Y-101123750D03*
X67178250Y-103663750D03*
D14*
X79343250Y-106203750D03*
X69183250Y-106203750D03*
D15*
X74263250Y-106203750D03*
D16*
X76803250Y-101123750D03*
X70453250Y-103663750D03*
D13*
X99155250Y-101123750D03*
X86228250Y-103663750D03*
D14*
X98393250Y-106203750D03*
X88233250Y-106203750D03*
D15*
X93313250Y-106203750D03*
D16*
X95853250Y-101123750D03*
X89503250Y-103663750D03*
D13*
X118205250Y-101123750D03*
X105278250Y-103663750D03*
D14*
X117443250Y-106203750D03*
X107283250Y-106203750D03*
D15*
X112363250Y-106203750D03*
D16*
X114903250Y-101123750D03*
X108553250Y-103663750D03*
D13*
X156305250Y-101123750D03*
X143378250Y-103663750D03*
D14*
X155543250Y-106203750D03*
X145383250Y-106203750D03*
D15*
X150463250Y-106203750D03*
D16*
X153003250Y-101123750D03*
X146653250Y-103663750D03*
D13*
X175355250Y-101123750D03*
X162428250Y-103663750D03*
D14*
X174593250Y-106203750D03*
X164433250Y-106203750D03*
D15*
X169513250Y-106203750D03*
D16*
X172053250Y-101123750D03*
X165703250Y-103663750D03*
D13*
X194405250Y-101123750D03*
X181478250Y-103663750D03*
D14*
X193643250Y-106203750D03*
X183483250Y-106203750D03*
D15*
X188563250Y-106203750D03*
D16*
X191103250Y-101123750D03*
X184753250Y-103663750D03*
D13*
X213455250Y-101123750D03*
X200528250Y-103663750D03*
D14*
X212693250Y-106203750D03*
X202533250Y-106203750D03*
D15*
X207613250Y-106203750D03*
D16*
X210153250Y-101123750D03*
X203803250Y-103663750D03*
D13*
X232505250Y-101123750D03*
X219578250Y-103663750D03*
D14*
X231743250Y-106203750D03*
X221583250Y-106203750D03*
D15*
X226663250Y-106203750D03*
D16*
X229203250Y-101123750D03*
X222853250Y-103663750D03*
D13*
X289655250Y-101123750D03*
X276728250Y-103663750D03*
D14*
X288893250Y-106203750D03*
X278733250Y-106203750D03*
D15*
X283813250Y-106203750D03*
D16*
X286353250Y-101123750D03*
X280003250Y-103663750D03*
D13*
X365855250Y-101123750D03*
X352928250Y-103663750D03*
D14*
X365093250Y-106203750D03*
X354933250Y-106203750D03*
D15*
X360013250Y-106203750D03*
D16*
X362553250Y-101123750D03*
X356203250Y-103663750D03*
D13*
X108680250Y-120173750D03*
X95753250Y-122713750D03*
D14*
X107918250Y-125253750D03*
X97758250Y-125253750D03*
D15*
X102838250Y-125253750D03*
D16*
X105378250Y-120173750D03*
X99028250Y-122713750D03*
D13*
X165830250Y-120173750D03*
X152903250Y-122713750D03*
D14*
X165068250Y-125253750D03*
X154908250Y-125253750D03*
D15*
X159988250Y-125253750D03*
D16*
X162528250Y-120173750D03*
X156178250Y-122713750D03*
D13*
X184880250Y-120173750D03*
X171953250Y-122713750D03*
D14*
X184118250Y-125253750D03*
X173958250Y-125253750D03*
D15*
X179038250Y-125253750D03*
D16*
X181578250Y-120173750D03*
X175228250Y-122713750D03*
D13*
X203930250Y-120173750D03*
X191003250Y-122713750D03*
D14*
X203168250Y-125253750D03*
X193008250Y-125253750D03*
D15*
X198088250Y-125253750D03*
D16*
X200628250Y-120173750D03*
X194278250Y-122713750D03*
D13*
X222980250Y-120173750D03*
X210053250Y-122713750D03*
D14*
X222218250Y-125253750D03*
X212058250Y-125253750D03*
D15*
X217138250Y-125253750D03*
D16*
X219678250Y-120173750D03*
X213328250Y-122713750D03*
D13*
X242030250Y-120173750D03*
X229103250Y-122713750D03*
D14*
X241268250Y-125253750D03*
X231108250Y-125253750D03*
D15*
X236188250Y-125253750D03*
D16*
X238728250Y-120173750D03*
X232378250Y-122713750D03*
D13*
X261080250Y-120173750D03*
X248153250Y-122713750D03*
D14*
X260318250Y-125253750D03*
X250158250Y-125253750D03*
D15*
X255238250Y-125253750D03*
D16*
X257778250Y-120173750D03*
X251428250Y-122713750D03*
D13*
X280130250Y-120173750D03*
X267203250Y-122713750D03*
D14*
X279368250Y-125253750D03*
X269208250Y-125253750D03*
D15*
X274288250Y-125253750D03*
D16*
X276828250Y-120173750D03*
X270478250Y-122713750D03*
D13*
X299180250Y-120173750D03*
X286253250Y-122713750D03*
D14*
X298418250Y-125253750D03*
X288258250Y-125253750D03*
D15*
X293338250Y-125253750D03*
D16*
X295878250Y-120173750D03*
X289528250Y-122713750D03*
D13*
X318230250Y-120173750D03*
X305303250Y-122713750D03*
D14*
X317468250Y-125253750D03*
X307308250Y-125253750D03*
D15*
X312388250Y-125253750D03*
D16*
X314928250Y-120173750D03*
X308578250Y-122713750D03*
D13*
X365855250Y-120173750D03*
X352928250Y-122713750D03*
D14*
X365093250Y-125253750D03*
X354933250Y-125253750D03*
D15*
X360013250Y-125253750D03*
D16*
X362553250Y-120173750D03*
X356203250Y-122713750D03*
D13*
X113442750Y-139223750D03*
X100515750Y-141763750D03*
D14*
X112680750Y-144303750D03*
X102520750Y-144303750D03*
D15*
X107600750Y-144303750D03*
D16*
X110140750Y-139223750D03*
X103790750Y-141763750D03*
D13*
X151542750Y-139223750D03*
X138615750Y-141763750D03*
D14*
X150780750Y-144303750D03*
X140620750Y-144303750D03*
D15*
X145700750Y-144303750D03*
D16*
X148240750Y-139223750D03*
X141890750Y-141763750D03*
D13*
X189642250Y-139223750D03*
X176715250Y-141763750D03*
D14*
X188880250Y-144303750D03*
X178720250Y-144303750D03*
D15*
X183800250Y-144303750D03*
D16*
X186340250Y-139223750D03*
X179990250Y-141763750D03*
D13*
X246792250Y-139223750D03*
X233865250Y-141763750D03*
D14*
X246030250Y-144303750D03*
X235870250Y-144303750D03*
D15*
X240950250Y-144303750D03*
D16*
X243490250Y-139223750D03*
X237140250Y-141763750D03*
D13*
X265842250Y-139223750D03*
X252915250Y-141763750D03*
D14*
X265080250Y-144303750D03*
X254920250Y-144303750D03*
D15*
X260000250Y-144303750D03*
D16*
X262540250Y-139223750D03*
X256190250Y-141763750D03*
D13*
X284892250Y-139223750D03*
X271965250Y-141763750D03*
D14*
X284130250Y-144303750D03*
X273970250Y-144303750D03*
D15*
X279050250Y-144303750D03*
D16*
X281590250Y-139223750D03*
X275240250Y-141763750D03*
D13*
X303942250Y-139223750D03*
X291015250Y-141763750D03*
D14*
X303180250Y-144303750D03*
X293020250Y-144303750D03*
D15*
X298100250Y-144303750D03*
D16*
X300640250Y-139223750D03*
X294290250Y-141763750D03*
D13*
X122967750Y-158273750D03*
X110040750Y-160813750D03*
D14*
X122205750Y-163353750D03*
X112045750Y-163353750D03*
D15*
X117125750Y-163353750D03*
D16*
X119665750Y-158273750D03*
X113315750Y-160813750D03*
D13*
X142017750Y-158273750D03*
X129090750Y-160813750D03*
D14*
X141255750Y-163353750D03*
X131095750Y-163353750D03*
D15*
X136175750Y-163353750D03*
D16*
X138715750Y-158273750D03*
X132365750Y-160813750D03*
D13*
X161067750Y-158273750D03*
X148140750Y-160813750D03*
D14*
X160305750Y-163353750D03*
X150145750Y-163353750D03*
D15*
X155225750Y-163353750D03*
D16*
X157765750Y-158273750D03*
X151415750Y-160813750D03*
D13*
X180118250Y-158273750D03*
X167191250Y-160813750D03*
D14*
X179356250Y-163353750D03*
X169196250Y-163353750D03*
D15*
X174276250Y-163353750D03*
D16*
X176816250Y-158273750D03*
X170466250Y-160813750D03*
D13*
X218218250Y-158273750D03*
X205291250Y-160813750D03*
D14*
X217456250Y-163353750D03*
X207296250Y-163353750D03*
D15*
X212376250Y-163353750D03*
D16*
X214916250Y-158273750D03*
X208566250Y-160813750D03*
D13*
X237268250Y-158273750D03*
X224341250Y-160813750D03*
D14*
X236506250Y-163353750D03*
X226346250Y-163353750D03*
D15*
X231426250Y-163353750D03*
D16*
X233966250Y-158273750D03*
X227616250Y-160813750D03*
D13*
X256318250Y-158273750D03*
X243391250Y-160813750D03*
D14*
X255556250Y-163353750D03*
X245396250Y-163353750D03*
D15*
X250476250Y-163353750D03*
D16*
X253016250Y-158273750D03*
X246666250Y-160813750D03*
D13*
X346805250Y-158273750D03*
X333878250Y-160813750D03*
D14*
X346043250Y-163353750D03*
X335883250Y-163353750D03*
D15*
X340963250Y-163353750D03*
D16*
X343503250Y-158273750D03*
X337153250Y-160813750D03*
D13*
X365855250Y-158273750D03*
X352928250Y-160813750D03*
D14*
X365093250Y-163353750D03*
X354933250Y-163353750D03*
D15*
X360013250Y-163353750D03*
D16*
X362553250Y-158273750D03*
X356203250Y-160813750D03*
D13*
X327755250Y-177320000D03*
X314828250Y-179860000D03*
D14*
X326993250Y-182400000D03*
X316833250Y-182400000D03*
D15*
X321913250Y-182400000D03*
D16*
X324453250Y-177320000D03*
X318103250Y-179860000D03*
D13*
X346805250Y-177320000D03*
X333878250Y-179860000D03*
D14*
X346043250Y-182400000D03*
X335883250Y-182400000D03*
D15*
X340963250Y-182400000D03*
D16*
X343503250Y-177320000D03*
X337153250Y-179860000D03*
D13*
X365855250Y-177320000D03*
X352928250Y-179860000D03*
D14*
X365093250Y-182400000D03*
X354933250Y-182400000D03*
D15*
X360013250Y-182400000D03*
D16*
X362553250Y-177320000D03*
X356203250Y-179860000D03*
D13*
X308705528Y-177320000D03*
X295778528Y-179860000D03*
D14*
X307943528Y-182400000D03*
X297783528Y-182400000D03*
D15*
X302863528Y-182400000D03*
D16*
X305403528Y-177320000D03*
X299053528Y-179860000D03*
D13*
X80105250Y-82072000D03*
X67178250Y-84612000D03*
D14*
X79343250Y-87152000D03*
X69183250Y-87152000D03*
D15*
X74263250Y-87152000D03*
D16*
X76803250Y-82072000D03*
X70453250Y-84612000D03*
D17*
X113976000Y-89134000D03*
X112776000Y-94234000D03*
D18*
X354838000Y-173736000D03*
D19*
X362458000Y-173736000D03*
D18*
X335788000Y-173736000D03*
D19*
X343408000Y-173736000D03*
D18*
X316992000Y-173736000D03*
D19*
X324612000Y-173736000D03*
D18*
X297688000Y-173736000D03*
D19*
X305308000Y-173736000D03*
D18*
X278892000Y-173736000D03*
D19*
X286512000Y-173736000D03*
D18*
X263906000Y-173736000D03*
D19*
X271526000Y-173736000D03*
D18*
X189484000Y-173736000D03*
D19*
X197104000Y-173736000D03*
D18*
X118872000Y-173736000D03*
D19*
X126492000Y-173736000D03*
D18*
X104648000Y-173736000D03*
D19*
X112268000Y-173736000D03*
D18*
X77978000Y-173736000D03*
D19*
X85598000Y-173736000D03*
D18*
X77978000Y-154686000D03*
D19*
X85598000Y-154686000D03*
D20*
X207768000Y-173482000D03*
D21*
X98118000Y-156365000D03*
X74242000Y-156365000D03*
D22*
X98118000Y-171605000D03*
X74242000Y-171605000D03*
D21*
X340998000Y-137325000D03*
X317122000Y-137325000D03*
D22*
X340998000Y-152565000D03*
X317122000Y-152565000D03*
D21*
X343328000Y-99225000D03*
X319452000Y-99225000D03*
D22*
X343328000Y-114465000D03*
X319452000Y-114465000D03*
X145872000Y-174145000D03*
X245872000Y-174145000D03*
D21*
X145872000Y-189385000D03*
X245872000Y-189385000D03*
D23*
X133816316Y-92032665D03*
D24*
X138896316Y-92032665D03*
D23*
X133816316Y-89577332D03*
D24*
X138896316Y-89577332D03*
D23*
X133816316Y-87121999D03*
D24*
X138896316Y-87121999D03*
D23*
X133858000Y-84666666D03*
D24*
X138938000Y-84666666D03*
D23*
X138938000Y-79756000D03*
D24*
X133858000Y-79756000D03*
D23*
X138938000Y-82211333D03*
D24*
X133858000Y-82211333D03*
D23*
X133816316Y-94488000D03*
D24*
X138896316Y-94488000D03*
D25*
X95528000Y-90170000D03*
D26*
X97028000Y-90170000D03*
D27*
X118190000Y-88646000D03*
X123190000Y-88646000D03*
X94060000Y-94234000D03*
X99060000Y-94234000D03*
X198140000Y-80010000D03*
X200640000Y-80010000D03*
X198140000Y-95250000D03*
X200640000Y-95250000D03*
D28*
X199390000Y-85200000D03*
X199390000Y-90080000D03*
D29*
X127762000Y-82042000D03*
D30*
X130302000Y-82042000D03*
D31*
X117856000Y-94488000D03*
X117856000Y-91948000D03*
X120396000Y-94488000D03*
X120396000Y-91948000D03*
X122936000Y-94488000D03*
D32*
X122936000Y-91948000D03*
D18*
X144526000Y-79248000D03*
X192786000Y-94488000D03*
X147066000Y-79248000D03*
X190246000Y-94488000D03*
X149606000Y-79248000D03*
X187706000Y-94488000D03*
X152146000Y-79248000D03*
X185166000Y-94488000D03*
X154686000Y-79248000D03*
X182626000Y-94488000D03*
X157226000Y-79248000D03*
X180086000Y-94488000D03*
X159766000Y-79248000D03*
X177546000Y-94488000D03*
X162306000Y-79248000D03*
X175006000Y-94488000D03*
X164846000Y-79248000D03*
X172466000Y-94488000D03*
X167386000Y-79248000D03*
X169926000Y-94488000D03*
X169926000Y-79248000D03*
X167386000Y-94488000D03*
X172466000Y-79248000D03*
X164846000Y-94488000D03*
X175006000Y-79248000D03*
X162306000Y-94488000D03*
X177546000Y-79248000D03*
X159766000Y-94488000D03*
X180086000Y-79248000D03*
X157226000Y-94488000D03*
X182626000Y-79248000D03*
X154686000Y-94488000D03*
X185166000Y-79248000D03*
X152146000Y-94488000D03*
X187706000Y-79248000D03*
X149606000Y-94488000D03*
X190246000Y-79248000D03*
X147066000Y-94488000D03*
X192786000Y-79248000D03*
D19*
X144526000Y-94488000D03*
D18*
X339344000Y-93472000D03*
D19*
X339344000Y-85852000D03*
D18*
X222504000Y-89376000D03*
D19*
X222504000Y-81756000D03*
D18*
X225044000Y-91440000D03*
D19*
X225044000Y-83820000D03*
D18*
X227584000Y-93472000D03*
D19*
X227584000Y-85852000D03*
D18*
X214884000Y-91440000D03*
D19*
X214884000Y-83820000D03*
D18*
X212344000Y-89376000D03*
D19*
X212344000Y-81756000D03*
D18*
X217424000Y-93472000D03*
D19*
X217424000Y-85852000D03*
D18*
X219964000Y-87376000D03*
D19*
X219964000Y-79756000D03*
D18*
X230124000Y-87376000D03*
D19*
X230124000Y-79756000D03*
D18*
X240284000Y-87376000D03*
D19*
X240284000Y-79756000D03*
D18*
X232664000Y-89376000D03*
D19*
X232664000Y-81756000D03*
D18*
X242824000Y-89376000D03*
D19*
X242824000Y-81756000D03*
D18*
X235204000Y-91440000D03*
D19*
X235204000Y-83820000D03*
D18*
X237744000Y-93472000D03*
D19*
X237744000Y-85852000D03*
D18*
X209804000Y-87376000D03*
D19*
X209804000Y-79756000D03*
D18*
X250444000Y-87376000D03*
D19*
X250444000Y-79756000D03*
D18*
X260604000Y-87376000D03*
D19*
X260604000Y-79756000D03*
D18*
X270764000Y-87376000D03*
D19*
X270764000Y-79756000D03*
D18*
X280924000Y-87376000D03*
D19*
X280924000Y-79756000D03*
D18*
X291084000Y-87376000D03*
D19*
X291084000Y-79756000D03*
D18*
X301282736Y-87376000D03*
D19*
X301282736Y-79756000D03*
D18*
X311404000Y-87376000D03*
D19*
X311404000Y-79756000D03*
D18*
X321564000Y-87376000D03*
D19*
X321564000Y-79756000D03*
D18*
X331724000Y-87376000D03*
D19*
X331724000Y-79756000D03*
D18*
X341884000Y-87376000D03*
D19*
X341884000Y-79756000D03*
D18*
X352044000Y-87376000D03*
D19*
X352044000Y-79756000D03*
D18*
X252984000Y-89376000D03*
D19*
X252984000Y-81756000D03*
D18*
X263144000Y-89376000D03*
D19*
X263144000Y-81756000D03*
D18*
X273304000Y-89376000D03*
D19*
X273304000Y-81756000D03*
D18*
X283464000Y-89376000D03*
D19*
X283464000Y-81756000D03*
D18*
X293624000Y-89376000D03*
D19*
X293624000Y-81756000D03*
D18*
X303784000Y-89376000D03*
D19*
X303784000Y-81756000D03*
D18*
X313944000Y-89376000D03*
D19*
X313944000Y-81756000D03*
D18*
X324104000Y-89376000D03*
D19*
X324104000Y-81756000D03*
D18*
X334264000Y-89376000D03*
D19*
X334264000Y-81756000D03*
D18*
X344424000Y-89376000D03*
D19*
X344424000Y-81756000D03*
D18*
X354584000Y-89376000D03*
D19*
X354584000Y-81756000D03*
D18*
X245364000Y-91440000D03*
D19*
X245364000Y-83820000D03*
D18*
X255524000Y-91440000D03*
D19*
X255524000Y-83820000D03*
D18*
X265684000Y-91440000D03*
D19*
X265684000Y-83820000D03*
D18*
X275844000Y-91440000D03*
D19*
X275844000Y-83820000D03*
D18*
X286004000Y-91440000D03*
D19*
X286004000Y-83820000D03*
D18*
X296164000Y-91440000D03*
D19*
X296164000Y-83820000D03*
D18*
X306324000Y-91440000D03*
D19*
X306324000Y-83820000D03*
D18*
X316484000Y-91440000D03*
D19*
X316484000Y-83820000D03*
D18*
X326644000Y-91440000D03*
D19*
X326644000Y-83820000D03*
D18*
X346964000Y-91440000D03*
D19*
X346964000Y-83820000D03*
D18*
X357124000Y-91440000D03*
D19*
X357124000Y-83820000D03*
D18*
X247904000Y-93472000D03*
D19*
X247904000Y-85852000D03*
D18*
X258064000Y-93472000D03*
D19*
X258064000Y-85852000D03*
D18*
X268224000Y-93472000D03*
D19*
X268224000Y-85852000D03*
D18*
X278384000Y-93472000D03*
D19*
X278384000Y-85852000D03*
D18*
X288544000Y-93472000D03*
D19*
X288544000Y-85852000D03*
D18*
X298704000Y-93472000D03*
D19*
X298704000Y-85852000D03*
D18*
X308864000Y-93472000D03*
D19*
X308864000Y-85852000D03*
D18*
X319024000Y-93472000D03*
D19*
X319024000Y-85852000D03*
D18*
X329184000Y-93472000D03*
D19*
X329184000Y-85852000D03*
D18*
X349504000Y-93472000D03*
D19*
X349504000Y-85852000D03*
D18*
X359664000Y-93472000D03*
D19*
X359664000Y-85852000D03*
D18*
X126746000Y-94996000D03*
D19*
X126746000Y-87376000D03*
D18*
X129794000Y-95006196D03*
D19*
X129794000Y-87386196D03*
D33*
X111910000Y-80006000D03*
X111910000Y-84506000D03*
X105410000Y-80006000D03*
X105410000Y-84506000D03*
X99972000Y-80010000D03*
X99972000Y-84510000D03*
X93472000Y-80010000D03*
X93472000Y-84510000D03*
D34*
X115552000Y-79220000D03*
X124202000Y-79220000D03*
D35*
X115552000Y-82600000D03*
X124202000Y-82600000D03*
D36*
X119452000Y-82230000D03*
X116902000Y-82230000D03*
X117752000Y-82230000D03*
X118602000Y-82230000D03*
X122852000Y-82230000D03*
X121152000Y-82230000D03*
X120302000Y-82230000D03*
X122002000Y-82230000D03*
X116902000Y-83580000D03*
X117752000Y-83580000D03*
X118602000Y-83580000D03*
X119452000Y-83580000D03*
X120302000Y-83580000D03*
X121152000Y-83580000D03*
X122002000Y-83580000D03*
X122852000Y-83580000D03*
D20*
X365506000Y-93218000D03*
X365506000Y-81534000D03*
X204978000Y-93218000D03*
X87376000Y-81534000D03*
X87376000Y-93218000D03*
X204978000Y-81534000D03*
X90170000Y-134112000D03*
X207768000Y-134112000D03*
X350520000Y-134112000D03*
X350520000Y-173482000D03*
X90170000Y-173482000D03*
M02*
